<svg xmlns="http://www.w3.org/2000/svg" width="29.484" height="53.078" viewBox="0 0 29.484 53.078">
  <g id="Smartphone" transform="translate(-119.75 -7.75)">
    <path id="Path_707" data-name="Path 707" d="M144.722,8h-20.46A4.256,4.256,0,0,0,120,12.24v44.1a4.256,4.256,0,0,0,4.262,4.24h20.46a4.256,4.256,0,0,0,4.262-4.24V12.24A4.256,4.256,0,0,0,144.722,8Zm-4.45,1.7-.511,2.544H129.224L128.712,9.7Zm7.007,46.642a2.554,2.554,0,0,1-2.557,2.544h-20.46a2.554,2.554,0,0,1-2.557-2.544V12.24A2.554,2.554,0,0,1,124.262,9.7h2.711l.715,3.558a.851.851,0,0,0,.836.682H140.46a.851.851,0,0,0,.836-.682l.715-3.558h2.711a2.554,2.554,0,0,1,2.557,2.544Z" transform="translate(0)" fill="#d6edde" stroke="#d6edde" stroke-width="0.5"/>
    <path id="Path_708" data-name="Path 708" d="M158.173,456h-5.291a.882.882,0,0,0,0,1.764h5.291a.882.882,0,1,0,0-1.764Z" transform="translate(-28.472 -400.713)" fill="#d6edde" stroke="#d6edde" stroke-width="0.5"/>
    <path id="Path_709" data-name="Path 709" d="M225.764,456h-.882a.882.882,0,0,0,0,1.764h.882a.882.882,0,0,0,0-1.764Z" transform="translate(-92.955 -400.713)" fill="#d6edde" stroke="#d6edde" stroke-width="0.5"/>
  </g>
</svg>
