<svg id="_003-coins" data-name="003-coins" xmlns="http://www.w3.org/2000/svg" width="30" height="24.609" viewBox="0 0 30 24.609">
  <path id="Path_375" data-name="Path 375" d="M246.589,386a.589.589,0,1,0,.589.589A.589.589,0,0,0,246.589,386Z" transform="translate(-231.589 -366.101)" fill="#8ba1b2"/>
  <path id="Path_376" data-name="Path 376" d="M27.486,46.9a14.559,14.559,0,0,0-5.279-.9,14.559,14.559,0,0,0-5.279.9A5.2,5.2,0,0,0,15,48.134,5.2,5.2,0,0,0,13.072,46.9,14.558,14.558,0,0,0,7.793,46a14.559,14.559,0,0,0-5.279.9C.893,47.554,0,48.482,0,49.516V63.578c0,1.033.893,1.962,2.514,2.615a14.251,14.251,0,0,0,4.868.9v.005c0,2,3.275,3.516,7.617,3.516s7.617-1.511,7.617-3.516v-.005a14.251,14.251,0,0,0,4.868-.9C29.107,65.54,30,64.611,30,63.578V49.516C30,48.482,29.107,47.554,27.486,46.9Zm1.343,13.162c0,.5-.682,1.086-1.78,1.528a13.246,13.246,0,0,1-4.431.81V60.062s0,0,0-.005a14.249,14.249,0,0,0,4.869-.9,6.381,6.381,0,0,0,1.343-.717v1.618ZM14.414,53.031c0,.5-.682,1.086-1.78,1.528a13.568,13.568,0,0,1-4.841.816,13.568,13.568,0,0,1-4.841-.816c-1.1-.442-1.78-1.028-1.78-1.528V51.413a6.38,6.38,0,0,0,1.343.717,14.559,14.559,0,0,0,5.279.9,14.559,14.559,0,0,0,5.279-.9,6.38,6.38,0,0,0,1.343-.717Zm-11.9,2.615a14.559,14.559,0,0,0,5.279.9,14.559,14.559,0,0,0,5.279-.9,6.38,6.38,0,0,0,1.343-.717v1.628a14.249,14.249,0,0,0-4.145.714A5.042,5.042,0,0,0,7.779,58.89a13.559,13.559,0,0,1-4.827-.816c-1.1-.442-1.78-1.028-1.78-1.528V54.929A6.38,6.38,0,0,0,2.514,55.646Zm-1.343,2.8a6.38,6.38,0,0,0,1.343.717,14.252,14.252,0,0,0,4.869.9s0,0,0,.005V62.4a13.245,13.245,0,0,1-4.431-.81c-1.1-.442-1.78-1.028-1.78-1.528Zm7.445,1.33c.434-1.011,2.941-2.056,6.383-2.056s5.949,1.045,6.383,2.055a.725.725,0,0,1,.062.289c0,.515-.635,1.087-1.7,1.531A12.753,12.753,0,0,1,15,62.406a12.753,12.753,0,0,1-4.746-.813c-1.064-.443-1.7-1.015-1.7-1.531A.724.724,0,0,1,8.617,59.775Zm20.211-3.228c0,.5-.682,1.086-1.78,1.528a13.557,13.557,0,0,1-4.827.816,5.042,5.042,0,0,0-2.49-1.619,14.247,14.247,0,0,0-4.145-.714V54.929a6.38,6.38,0,0,0,1.343.717,14.559,14.559,0,0,0,5.279.9,14.559,14.559,0,0,0,5.279-.9,6.38,6.38,0,0,0,1.343-.717Zm0-3.516c0,.5-.682,1.086-1.78,1.528a13.567,13.567,0,0,1-4.841.816,13.568,13.568,0,0,1-4.841-.816c-1.1-.442-1.78-1.028-1.78-1.528V51.413a6.38,6.38,0,0,0,1.343.717,14.559,14.559,0,0,0,5.279.9,14.559,14.559,0,0,0,5.279-.9,6.38,6.38,0,0,0,1.343-.717ZM17.366,47.988a13.568,13.568,0,0,1,4.841-.816,13.568,13.568,0,0,1,4.841.816c1.1.442,1.78,1.028,1.78,1.528s-.682,1.086-1.78,1.528a13.567,13.567,0,0,1-4.841.816,13.568,13.568,0,0,1-4.841-.816c-1.1-.442-1.78-1.028-1.78-1.528S16.268,48.43,17.366,47.988Zm-14.414,0a13.568,13.568,0,0,1,4.841-.816,13.568,13.568,0,0,1,4.841.816c1.1.442,1.78,1.028,1.78,1.528s-.682,1.086-1.78,1.528a13.568,13.568,0,0,1-4.841.816,13.568,13.568,0,0,1-4.841-.816c-1.1-.442-1.78-1.028-1.78-1.528S1.854,48.43,2.952,47.988Zm0,17.119c-1.1-.442-1.78-1.028-1.78-1.528V61.96a6.38,6.38,0,0,0,1.343.717,14.251,14.251,0,0,0,4.868.9v2.343A13.246,13.246,0,0,1,2.952,65.106Zm16.794,3.518A12.753,12.753,0,0,1,15,69.438a12.753,12.753,0,0,1-4.746-.813c-1.064-.443-1.7-1.015-1.7-1.531V65.51A5.16,5.16,0,0,0,9,65.8a10.262,10.262,0,0,0,3.58,1.126.594.594,0,0,0,.086.006.586.586,0,0,0,.084-1.166c-2.723-.4-4.193-1.424-4.193-2.184V61.989A11.438,11.438,0,0,0,15,63.578a11.438,11.438,0,0,0,6.445-1.589v1.589c0,.76-1.469,1.784-4.193,2.184a.586.586,0,0,0,.084,1.166.594.594,0,0,0,.086-.006A10.262,10.262,0,0,0,21,65.8a5.169,5.169,0,0,0,.442-.286v1.584C21.445,67.609,20.81,68.181,19.746,68.624Zm7.3-3.518a13.246,13.246,0,0,1-4.431.81V63.573a14.251,14.251,0,0,0,4.868-.9,6.381,6.381,0,0,0,1.343-.717v1.618C28.828,64.078,28.146,64.664,27.048,65.106Z" transform="translate(0 -46)" fill="#8ba1b2"/>
</svg>
