<svg xmlns="http://www.w3.org/2000/svg" width="54.891" height="58.308" viewBox="0 0 54.891 58.308">
  <g id="contact_1_" data-name="contact (1)" transform="translate(-15)" opacity="0.8">
    <path id="Path_60" data-name="Path 60" d="M69.891,19.184a3.974,3.974,0,0,0-4.1-3.963V13.051a3.967,3.967,0,1,0-.062-7.927A5.987,5.987,0,0,0,59.816,0H55.281a.854.854,0,0,0,0,1.708h4.535a4.275,4.275,0,0,1,4.271,4.271v46.35A4.275,4.275,0,0,1,59.816,56.6H23.367A2.565,2.565,0,0,1,20.8,54.037v-.854h1.11a2.9,2.9,0,1,0,0-5.808H20.8V39.1h1.11a2.9,2.9,0,1,0,0-5.808H20.8V25.016h1.11a2.9,2.9,0,0,0,0-5.808H20.8V10.933h1.11a2.9,2.9,0,0,0,0-5.808H20.8V4.271a2.565,2.565,0,0,1,2.562-2.562h28.5a.854.854,0,0,0,0-1.708h-28.5A4.275,4.275,0,0,0,19.1,4.271v.854H17.9a2.9,2.9,0,0,0,0,5.808H19.1v8.276H17.9a2.9,2.9,0,1,0,0,5.808H19.1v8.276H17.9a2.9,2.9,0,1,0,0,5.808H19.1v8.275H17.9a2.9,2.9,0,1,0,0,5.808H19.1v.854a4.275,4.275,0,0,0,4.271,4.271H59.816a5.988,5.988,0,0,0,5.875-4.873,3.968,3.968,0,1,0,.1-7.927V43.338a3.965,3.965,0,1,0,0-7.926V33.243a3.965,3.965,0,1,0,0-7.927V23.147A3.987,3.987,0,0,0,69.891,19.184ZM65.8,6.833a2.259,2.259,0,1,1,0,4.51Zm0,10.1a2.259,2.259,0,1,1,0,4.51ZM17.9,9.224a1.2,1.2,0,0,1,0-2.392h4.011a1.2,1.2,0,0,1,0,2.392Zm0,14.084a1.2,1.2,0,0,1,0-2.392h4.011a1.2,1.2,0,1,1,0,2.392Zm0,14.083A1.2,1.2,0,0,1,17.9,35h4.011a1.2,1.2,0,0,1,0,2.392H17.9Zm0,14.084a1.2,1.2,0,1,1,0-2.392h4.011a1.2,1.2,0,1,1,0,2.392Zm50.279-2A2.271,2.271,0,0,1,65.8,51.726v-4.51A2.271,2.271,0,0,1,68.183,49.471Zm0-10.1A2.271,2.271,0,0,1,65.8,41.63V37.12A2.273,2.273,0,0,1,68.183,39.375Zm0-10.1A2.271,2.271,0,0,1,65.8,31.535v-4.51A2.272,2.272,0,0,1,68.183,29.28ZM53.8,5.125H31.087A1.881,1.881,0,0,0,29.208,7v2.05a1.881,1.881,0,0,0,1.879,1.879H53.8a1.881,1.881,0,0,0,1.879-1.879V7A1.881,1.881,0,0,0,53.8,5.125Zm.171,3.929a.171.171,0,0,1-.171.171H31.087a.171.171,0,0,1-.171-.171V7a.171.171,0,0,1,.171-.171H53.8A.171.171,0,0,1,53.975,7ZM50.29,47.884a25.958,25.958,0,0,1-10.615-5.448.854.854,0,0,0-1.085,1.32,27.664,27.664,0,0,0,11.328,5.8,10.256,10.256,0,0,0,2.234.246,10.376,10.376,0,0,0,8.8-4.92,2.8,2.8,0,0,0-.4-3.457L55.8,36.669a2.807,2.807,0,0,0-4.374.512l-1.2,1.942a1.089,1.089,0,0,1-1.345.443A19.862,19.862,0,0,1,38.061,28.751,1.093,1.093,0,0,1,38.5,27.4l1.942-1.2a2.807,2.807,0,0,0,.512-4.374L36.2,17.076a2.8,2.8,0,0,0-3.458-.4,10.371,10.371,0,0,0-1.208.873l-.039.032A10.328,10.328,0,0,0,28.072,27.7a29.124,29.124,0,0,0,8.044,13.8A.854.854,0,0,0,37.323,40.3a27.406,27.406,0,0,1-7.584-12.968A8.615,8.615,0,0,1,32.033,19.4L38.2,25.574l-.6.37A2.794,2.794,0,0,0,36.482,29.4,21.57,21.57,0,0,0,48.228,41.145a2.791,2.791,0,0,0,3.451-1.125l.37-.6,6.17,6.17a8.614,8.614,0,0,1-7.929,2.294ZM33.355,18.31q.141-.095.286-.184a1.1,1.1,0,0,1,1.353.158l4.752,4.751a1.1,1.1,0,0,1-.059,1.606ZM52.982,37.936a1.1,1.1,0,0,1,1.606-.059l4.751,4.751a1.1,1.1,0,0,1,.161,1.349l0,0q-.09.145-.184.286Z" fill="#8ba1b2"/>
  </g>
</svg>
