<svg xmlns="http://www.w3.org/2000/svg" width="72.937" height="69.9" viewBox="0 0 72.937 69.9">
  <g id="search_1_" data-name="search (1)" transform="translate(0 -1)">
    <path id="Path_457" data-name="Path 457" d="M27.2,42.391a15.2,15.2,0,1,1,15.2-15.2A15.213,15.213,0,0,1,27.2,42.391Zm0-27.352A12.157,12.157,0,1,0,39.352,27.2,12.169,12.169,0,0,0,27.2,15.039Z" transform="translate(24.47 22.43)" fill="#0f73bb"/>
    <path id="Path_458" data-name="Path 458" d="M30.776,32.294A1.526,1.526,0,0,1,29.7,31.85l-9.324-9.324a1.519,1.519,0,0,1,2.149-2.149L31.849,29.7a1.518,1.518,0,0,1-1.073,2.592Z" transform="translate(40.643 38.606)" fill="#0f73bb"/>
    <path id="Path_459" data-name="Path 459" d="M56.224,22.274H10.637A10.637,10.637,0,1,1,10.637,1H56.224a10.637,10.637,0,0,1,0,21.274ZM10.637,4.039a7.6,7.6,0,0,0,0,15.2H56.224a7.6,7.6,0,0,0,0-15.2Z" fill="#0f73bb"/>
    <path id="Path_460" data-name="Path 460" d="M7.559,12.117a4.559,4.559,0,1,1,4.559-4.559A4.564,4.564,0,0,1,7.559,12.117Zm0-6.078a1.52,1.52,0,1,0,1.52,1.52A1.524,1.524,0,0,0,7.559,6.039Z" transform="translate(6.117 4.078)" fill="#0f73bb"/>
    <path id="Path_461" data-name="Path 461" d="M12.559,12.117a4.559,4.559,0,1,1,4.559-4.559A4.564,4.564,0,0,1,12.559,12.117Zm0-6.078a1.52,1.52,0,1,0,1.52,1.52A1.524,1.524,0,0,0,12.559,6.039Z" transform="translate(16.313 4.078)" fill="#0f73bb"/>
    <path id="Path_462" data-name="Path 462" d="M31.911,28.274H10.637A10.637,10.637,0,0,1,10.637,7H56.224A10.649,10.649,0,0,1,66.861,17.637a9.361,9.361,0,0,1-.149,1.741,1.519,1.519,0,0,1-2.984-.565,6.375,6.375,0,0,0,.094-1.176,7.6,7.6,0,0,0-7.6-7.6H10.637a7.6,7.6,0,1,0,0,15.2H31.911a1.52,1.52,0,0,1,0,3.039Z" transform="translate(0 12.235)" fill="#0f73bb"/>
    <path id="Path_463" data-name="Path 463" d="M7.559,18.117a4.559,4.559,0,1,1,4.559-4.559A4.564,4.564,0,0,1,7.559,18.117Zm0-6.078a1.52,1.52,0,1,0,1.52,1.52A1.524,1.524,0,0,0,7.559,12.039Z" transform="translate(6.117 16.313)" fill="#0f73bb"/>
    <path id="Path_464" data-name="Path 464" d="M12.559,18.117a4.559,4.559,0,1,1,4.559-4.559A4.564,4.564,0,0,1,12.559,18.117Zm0-6.078a1.52,1.52,0,1,0,1.52,1.52A1.524,1.524,0,0,0,12.559,12.039Z" transform="translate(16.313 16.313)" fill="#0f73bb"/>
    <path id="Path_465" data-name="Path 465" d="M31.911,34.274H10.637a10.637,10.637,0,0,1,0-21.274H31.911a1.52,1.52,0,1,1,0,3.039H10.637a7.6,7.6,0,1,0,0,15.2H31.911a1.52,1.52,0,1,1,0,3.039Z" transform="translate(0 24.47)" fill="#0f73bb"/>
    <path id="Path_466" data-name="Path 466" d="M7.559,24.117a4.559,4.559,0,1,1,4.559-4.559A4.564,4.564,0,0,1,7.559,24.117Zm0-6.078a1.52,1.52,0,1,0,1.52,1.52A1.524,1.524,0,0,0,7.559,18.039Z" transform="translate(6.117 28.548)" fill="#0f73bb"/>
    <path id="Path_467" data-name="Path 467" d="M12.559,24.117a4.559,4.559,0,1,1,4.559-4.559A4.564,4.564,0,0,1,12.559,24.117Zm0-6.078a1.52,1.52,0,1,0,1.52,1.52A1.524,1.524,0,0,0,12.559,18.039Z" transform="translate(16.313 28.548)" fill="#0f73bb"/>
  </g>
</svg>
