<svg xmlns="http://www.w3.org/2000/svg" width="30.3" height="22.425" viewBox="0 0 30.3 22.425">
  <path id="_004-credit-card" data-name="004-credit-card" d="M30,65.5V82.625a2.5,2.5,0,0,1-2.5,2.5H2.5a2.5,2.5,0,0,1-2.5-2.5v-7.5a.5.5,0,0,1,1,0v7.5a1.5,1.5,0,0,0,1.5,1.5h25a1.5,1.5,0,0,0,1.5-1.5V65.5A1.5,1.5,0,0,0,27.5,64H2.5A1.5,1.5,0,0,0,1,65.5v2H26.625a.5.5,0,1,1,0,1H1v3.25H26.625a.5.5,0,1,1,0,1H.5a.5.5,0,0,1-.5-.5V65.5A2.5,2.5,0,0,1,2.5,63h25A2.5,2.5,0,0,1,30,65.5Zm-4,13a1.626,1.626,0,0,0-2.508-1.364,2.625,2.625,0,1,1-.68-.744,2.625,2.625,0,1,1,1.563,4.733.5.5,0,0,1,0-1A1.627,1.627,0,0,0,26,78.5Zm-3.125,0a1.625,1.625,0,1,0-1.625,1.625A1.627,1.627,0,0,0,22.875,78.5ZM4.563,77.438H8.75a.5.5,0,1,0,0-1H4.563a.5.5,0,1,0,0,1Zm0,3.125H8.75a.5.5,0,0,0,0-1H4.563a.5.5,0,1,0,0,1Z" transform="translate(0.15 -62.85)" fill="#8ba1b2" stroke="#8ba1b2" stroke-width="0.3"/>
</svg>
