<svg id="Layer_1" data-name="Layer 1" xmlns="http://www.w3.org/2000/svg" viewBox="0 0 512 512"><title> joint venture</title><path d="M175.992,161.638h69.519a6,6,0,0,0,0-12H175.992a6,6,0,0,0,0,12Z"/><path d="M298.516,222.9h18.925a6,6,0,0,0,0-12H298.516a6,6,0,0,0,0,12Z"/><path d="M175.992,198.154h69.519a6,6,0,0,0,0-12H175.992a6,6,0,1,0,0,12Z"/><path d="M298.516,187.115h44.822a6,6,0,0,0,0-12H298.516a6,6,0,0,0,0,12Z"/><path d="M298.516,151.335h44.822a6,6,0,0,0,0-12H298.516a6,6,0,0,0,0,12Z"/><path d="M175.992,125.121h69.519a6,6,0,0,0,0-12H175.992a6,6,0,0,0,0,12Z"/><path d="M385.007,196.733a14.019,14.019,0,0,0-12.02-8.023V109.132a6,6,0,0,0-6-6h-84.5V78.081a6,6,0,0,0-6-6H263.969V42a6,6,0,0,0-6-6H220.751V16.271a6,6,0,1,0-12,0V36H163.535a6,6,0,0,0-6,6V72.081H145.013a6,6,0,0,0-6,6v114.4c-.136.034-.274.054-.409.091a14.049,14.049,0,0,0-8.657,7.007L55.106,342.865a13.943,13.943,0,0,0,5.537,18.678l27.793,15.662a13.9,13.9,0,0,0,6.848,1.813,14.081,14.081,0,0,0,3.987-.581,13.889,13.889,0,0,0,8.432-6.917l4-7.612,11.8,9.841-17.643,24.489a24.266,24.266,0,0,0,5.5,33.832l.042.031h0a24.066,24.066,0,0,0,14.118,4.578,24.518,24.518,0,0,0,3.938-.32c.534-.087,1.06-.2,1.583-.317.051.534.114,1.068.2,1.6a24.038,24.038,0,0,0,9.7,15.737l.041.03.055.041a24.061,24.061,0,0,0,14.116,4.577,24.532,24.532,0,0,0,3.94-.319c.534-.087,1.06-.2,1.583-.317.051.534.113,1.068.2,1.6a24.1,24.1,0,0,0,9.776,15.793l.034.023a24.1,24.1,0,0,0,14.124,4.555,24.462,24.462,0,0,0,5.5-.63c.052.537.114,1.074.2,1.611a24.1,24.1,0,0,0,9.775,15.793l.035.024a24.059,24.059,0,0,0,14.1,4.568,24.5,24.5,0,0,0,3.938-.319,24.08,24.08,0,0,0,15.779-9.756l6.109-8.479,11.017,8.8a25.832,25.832,0,0,0,16.883,6.254c.643,0,1.29-.023,1.937-.07a26,26,0,0,0,24.063-24.247,25.852,25.852,0,0,0,8.988,1.605q.965,0,1.937-.071A26.031,26.031,0,0,0,329.148,450.2a26.027,26.027,0,0,0,34.917-21.856,25.758,25.758,0,0,0,10.972,2.446c.656,0,1.317-.024,1.979-.074a26.019,26.019,0,0,0,17.852-9.013l.33-.382a25.444,25.444,0,0,0-2.629-35.893l-7.469-6.448a56.847,56.847,0,0,0,13.561-12.064,13.928,13.928,0,0,0,12.514,7.837,14.07,14.07,0,0,0,5.6-1.171L446.054,360.9a14,14,0,0,0,7.111-18.79Zm-24.02-81.6V192.1l-23.858,9.4a14,14,0,0,0-7.531,19l3.979,8.437-2.356,1C320,232.282,312.2,231.956,300.632,228.7l-18.142-5.1V115.132ZM169.535,48h82.434V72.081H169.535ZM270.49,84.081V220.262a43.784,43.784,0,0,0-23.582.809L219.3,229.8a43.818,43.818,0,0,0-15.246,8.467,60.412,60.412,0,0,0-25.2-2.216l3.509-6.682a14.027,14.027,0,0,0-5.117-18.469l-26.231-15.964V84.081ZM97.08,365.939a2,2,0,0,1-2.753.812L66.535,351.089a1.993,1.993,0,0,1-.792-2.67l74.841-143.285a1.988,1.988,0,0,1,1.236-1,2.047,2.047,0,0,1,.544-.074,1.954,1.954,0,0,1,1.032.293l27.611,16.8a2,2,0,0,1,.73,2.637Zm38.414,53.651a12.236,12.236,0,0,1-17.082,2.775l-.042-.03a12.252,12.252,0,0,1-2.775-17.083l27.579-38.28a12.154,12.154,0,0,1,7.967-4.926,12.274,12.274,0,0,1,11.933,19.263Zm29.636,21.35a12.25,12.25,0,0,1-17.061,2.792c-.024-.017-.051-.038-.063-.045A12.238,12.238,0,0,1,145.23,426.6l20.012-27.776a12.263,12.263,0,0,1,19.892,14.348Zm29.636,21.352a12.25,12.25,0,0,1-17.083,2.775l-.041-.029a12.238,12.238,0,0,1-2.776-17.083l13.811-19.168a12.158,12.158,0,0,1,7.961-4.919,12.432,12.432,0,0,1,1.984-.161,12.263,12.263,0,0,1,9.948,19.424Zm37.242,10.794L224.4,483.644a12.238,12.238,0,0,1-17.083,2.775l-.04-.029a12.24,12.24,0,0,1-2.776-17.082l7.606-10.559a12.167,12.167,0,0,1,7.966-4.926,12.471,12.471,0,0,1,1.995-.161,12.061,12.061,0,0,1,7.066,2.271l.1.071a12.237,12.237,0,0,1,2.776,17.082ZM389.351,403.7a13.358,13.358,0,0,1-3.234,9.771l-.329.381a14.091,14.091,0,0,1-9.667,4.891,13.931,13.931,0,0,1-10.193-3.369l-10.667-9.219c-.029-.024-.055-.051-.083-.075l-28.359-24.5a6,6,0,1,0-7.843,9.08s14.435,12.471,28.415,24.551a14.029,14.029,0,0,1-18.4,21.181l-28.358-24.5a6,6,0,0,0-7.844,9.08l19.558,16.9A14.029,14.029,0,1,1,294,459.109l-19.559-16.894a6.023,6.023,0,0,0-7.092-.555,6,6,0,0,0-.751,9.637l10.756,9.292a14.029,14.029,0,0,1-18.342,21.233c-.058-.051-.117-.1-.177-.147l-13.1-10.465a24.269,24.269,0,0,0-9.44-24.9l-.1-.072a24.062,24.062,0,0,0-13.992-4.572,24.3,24.3,0,0,0-23.437-29.954,24.278,24.278,0,0,0-22.626-29.923,24.265,24.265,0,0,0-42.712-21.831l-2.9,4.03-13.126-10.946,54.374-103.527a54.9,54.9,0,0,1,23.542-1.128,44.429,44.429,0,0,0-3.252,6.257L183.636,275.2c-2.154,5.248-4.137,10.632-5.9,16l-8.418,25.695a6,6,0,0,0,3.26,7.348l1.814.809a42.339,42.339,0,0,0,40.9-3.145,41.611,41.611,0,0,0,18.484-30.723q.065-.668.114-1.346c.373-1.792,3.207-13.966,11.465-14.688l12.022,3.391a28.3,28.3,0,0,1,12.182,7.1l75.3,74.444c.1.1.2.187.3.276l39.565,34.155A13.355,13.355,0,0,1,389.351,403.7Zm-13.869-33.029L353.158,351.4,278,277.1a40.321,40.321,0,0,0-17.362-10.111L247.7,263.341a5.743,5.743,0,0,0-1.653-.226c-8.254.034-15.309,4.7-19.865,13.143a41.679,41.679,0,0,0-4.163,11.8l-.184,1.978a29.653,29.653,0,0,1-13.191,21.882,30.624,30.624,0,0,1-26.178,3.389l6.675-20.372c1.668-5.1,3.55-10.205,5.593-15.183l8.413-20.5a31.859,31.859,0,0,1,19.771-18.011l27.606-8.732a31.811,31.811,0,0,1,18.254-.295l28.6,8.039c13.726,3.857,23.386,4.2,36.908,1.3a6.008,6.008,0,0,0,1.095-.347l3.311-1.412,54.087,114.684A44.853,44.853,0,0,1,375.482,370.674Zm66.877-21.915a1.982,1.982,0,0,1-1.075,1.127L412.01,362.568a1.992,1.992,0,0,1-2.6-.982l-3.895-8.26a6.021,6.021,0,0,0-1.2-2.536L340.451,215.377a2,2,0,0,1,1.076-2.714L371.6,200.815a2,2,0,0,1,2.544,1.012L442.3,347.2A1.987,1.987,0,0,1,442.359,348.759Z"/></svg>