<svg xmlns="http://www.w3.org/2000/svg" width="41.558" height="57" viewBox="0 0 41.558 57">
  <g id="word" transform="translate(-69.355)">
    <g id="Group_538" data-name="Group 538" transform="translate(69.355)">
      <g id="Group_537" data-name="Group 537">
        <path id="Path_667" data-name="Path 667" d="M110.58,10.154,100.758.333a1.136,1.136,0,0,0-.8-.333H70.49a1.135,1.135,0,0,0-1.135,1.135V55.865A1.135,1.135,0,0,0,70.49,57h39.287a1.135,1.135,0,0,0,1.135-1.135V10.957A1.136,1.136,0,0,0,110.58,10.154Zm-9.489-6.277,5.945,5.945h-5.945Zm7.551,50.852H71.626V2.271H98.82v8.686a1.135,1.135,0,0,0,1.135,1.135h8.686Z" transform="translate(-69.355)"/>
      </g>
    </g>
    <g id="Group_544" data-name="Group 544" transform="translate(73.784 19.265)">
      <g id="Group_543" data-name="Group 543">
        <path id="Path_670" data-name="Path 670" d="M141.488,173.551a1.135,1.135,0,0,0-.945-.505h-4.614a1.135,1.135,0,0,0-1.05.7l-4.679,11.41-1.443-3.519,2.883-7.03a1.135,1.135,0,0,0-1.05-1.566H126.5a1.135,1.135,0,0,0-1.015.626,1.135,1.135,0,0,0-1.015-.626h-4.089a1.135,1.135,0,0,0-1.05,1.566l2.883,7.03-1.443,3.519-4.679-11.41a1.135,1.135,0,0,0-1.05-.7H110.27a1.135,1.135,0,0,0-1.05,1.566l7.792,19a1.135,1.135,0,0,0,1.05.7H122.8a1.135,1.135,0,0,0,1.05-.7l1.637-3.992,1.637,3.992a1.135,1.135,0,0,0,1.05.7h4.466a1.135,1.135,0,0,0,1.048-.7l7.905-19A1.136,1.136,0,0,0,141.488,173.551Zm-9.607,18.495h-2.947l-2.4-5.849a1.135,1.135,0,0,0-2.1,0l-2.4,5.849h-3.213l-6.86-16.729h2.316l5.441,13.267a1.135,1.135,0,0,0,2.1,0l2.67-6.511a1.135,1.135,0,0,0,0-.862l-2.417-5.894H123.7l.729,1.822a1.135,1.135,0,0,0,2.108,0l.729-1.822H128.9l-2.417,5.894a1.136,1.136,0,0,0,0,.862l2.67,6.511a1.135,1.135,0,0,0,2.1,0l5.441-13.267h2.15Z" transform="translate(-109.134 -173.046)"/>
      </g>
    </g>
  </g>
</svg>
