<svg id="_002-fax" data-name="002-fax" xmlns="http://www.w3.org/2000/svg" width="12.083" height="10.62" viewBox="0 0 12.083 10.62">
  <path id="Path_41" data-name="Path 41" d="M11.021,211H1.062A1.063,1.063,0,0,0,0,212.062v2.124a1.063,1.063,0,0,0,1.062,1.062H2.5v-.354a1.063,1.063,0,0,1,1.062-1.062H8.519a1.063,1.063,0,0,1,1.062,1.062v.354h1.44a1.063,1.063,0,0,0,1.062-1.062v-2.124A1.063,1.063,0,0,0,11.021,211Zm-3.563,1.77a.354.354,0,1,1,.354-.354A.354.354,0,0,1,7.457,212.77Zm1.416,0a.354.354,0,1,1,.354-.354A.354.354,0,0,1,8.873,212.77Z" transform="translate(0 -206.752)" fill="#a0a5aa"/>
  <path id="Path_42" data-name="Path 42" d="M331,32.518V33.9h1.38A1.775,1.775,0,0,0,331,32.518Z" transform="translate(-323.189 -32.482)" fill="#a0a5aa"/>
  <path id="Path_43" data-name="Path 43" d="M121.354,31a.354.354,0,0,0-.354.354V34.54h6.372V33.124H125.6a.354.354,0,0,1-.354-.354V31Z" transform="translate(-118.145 -31)" fill="#a0a5aa"/>
  <path id="Path_44" data-name="Path 44" d="M141.31,363.832a.354.354,0,0,0,.354-.354v-2.124a.354.354,0,0,0-.354-.354h-4.956a.354.354,0,0,0-.354.354v2.124a.354.354,0,0,0,.354.354Zm-3.894-1.77h2.832a.354.354,0,1,1,0,.708h-2.832a.354.354,0,1,1,0-.708Z" transform="translate(-132.791 -353.212)" fill="#a0a5aa"/>
</svg>
