<svg xmlns="http://www.w3.org/2000/svg" width="133.663" height="89.748" viewBox="0 0 133.663 89.748">
  <path id="Intersection_6" data-name="Intersection 6" d="M-3165.1,575.6a46,46,0,0,1,5.025-59.085,45.985,45.985,0,0,1,65.031,0,46,46,0,0,1,5.025,59.085Zm-11.89,0a3.207,3.207,0,0,1-.943-2.276,3.218,3.218,0,0,1,3.219-3.218,3.218,3.218,0,0,1,3.218,3.218,3.206,3.206,0,0,1-.943,2.276Zm.973-2.276a1.3,1.3,0,0,0,1.3,1.3,1.3,1.3,0,0,0,1.3-1.3,1.3,1.3,0,0,0-1.3-1.3A1.3,1.3,0,0,0-3176.021,573.324Zm95.044-7.834a1.994,1.994,0,0,1,1.993-1.993,1.992,1.992,0,0,1,1.992,1.993,1.991,1.991,0,0,1-1.992,1.992A1.992,1.992,0,0,1-3080.977,565.491Zm-110.523-7.537v-1.565a2.74,2.74,0,0,1,2.625-1.957,2.739,2.739,0,0,1,2.739,2.74,2.739,2.739,0,0,1-2.739,2.739A2.74,2.74,0,0,1-3191.5,557.953Zm126.877-22.343a2.464,2.464,0,0,1,2.464-2.464,2.463,2.463,0,0,1,2.463,2.464,2.463,2.463,0,0,1-2.463,2.464A2.464,2.464,0,0,1-3064.623,535.611Zm1.466,0a1,1,0,0,0,1,1,1,1,0,0,0,1-1,1,1,0,0,0-1-1A1,1,0,0,0-3063.156,535.611Zm-128.344.339v-1.763a1.541,1.541,0,0,1,1.266-.661,1.543,1.543,0,0,1,1.543,1.543,1.544,1.544,0,0,1-1.543,1.544A1.541,1.541,0,0,1-3191.5,535.949Zm13.576-9.39a1.418,1.418,0,0,1,1.418-1.417,1.417,1.417,0,0,1,1.417,1.417,1.417,1.417,0,0,1-1.417,1.418A1.418,1.418,0,0,1-3177.924,526.559Zm114.208-3.412a2.418,2.418,0,0,1,2.417-2.419,2.418,2.418,0,0,1,2.418,2.419,2.417,2.417,0,0,1-2.418,2.417A2.417,2.417,0,0,1-3063.716,523.148Zm-127.784-2.215V516.4a.865.865,0,0,1,1.133.077.866.866,0,0,1,0,1.221l-.969.969.969.969a.866.866,0,0,1,0,1.221.864.864,0,0,1-.611.251A.864.864,0,0,1-3191.5,520.932Zm100.709-12.66a2.492,2.492,0,0,1,2.491-2.491,2.491,2.491,0,0,1,2.489,2.491,2.489,2.489,0,0,1-2.489,2.489A2.49,2.49,0,0,1-3090.791,508.272Zm-57.077-10.809a2.912,2.912,0,0,1,2.911-2.912,2.912,2.912,0,0,1,2.912,2.912,2.912,2.912,0,0,1-2.912,2.911A2.912,2.912,0,0,1-3147.868,497.463Zm39.719-1.126a2.605,2.605,0,0,1,2.605-2.605,2.605,2.605,0,0,1,2.605,2.605,2.6,2.6,0,0,1-2.605,2.6A2.6,2.6,0,0,1-3108.149,496.337Zm1.551,0a1.055,1.055,0,0,0,1.055,1.055,1.055,1.055,0,0,0,1.055-1.055,1.054,1.054,0,0,0-1.055-1.054A1.054,1.054,0,0,0-3106.6,496.337Zm-22.181-4.769a.866.866,0,0,1,0-1.221l.969-.969-.969-.968a.868.868,0,0,1,0-1.222.867.867,0,0,1,1.222,0l.969.969.969-.969a.867.867,0,0,1,1.222,0,.868.868,0,0,1,0,1.222l-.969.968.969.969a.866.866,0,0,1,0,1.221.862.862,0,0,1-.611.252.861.861,0,0,1-.611-.252l-.969-.968-.969.968a.862.862,0,0,1-.611.253A.862.862,0,0,1-3128.78,491.568Z" transform="translate(3192.043 -486.352)" fill="#baf4ee" stroke="rgba(0,0,0,0)" stroke-miterlimit="10" stroke-width="1" opacity="0.2"/>
</svg>
