<svg id="Group_132" data-name="Group 132" xmlns="http://www.w3.org/2000/svg" width="39.612" height="47.031" viewBox="0 0 39.612 47.031">
  <g id="Group_131" data-name="Group 131">
    <path id="Path_145" data-name="Path 145" d="M728.732,420.823,708.926,432.5l-19.805-11.679a.117.117,0,0,1,0-.032c.016-.074,1.109-.987,2.777-2.341.016-.013.029-.026.045-.039,5.469-4.44,16.981-13.534,16.981-13.534s11.511,9.093,16.98,13.534c1.693,1.373,2.805,2.3,2.821,2.379A.1.1,0,0,1,728.732,420.823Z" transform="translate(-689.121 -395.205)" fill="#7a4c08"/>
    <g id="Group_129" data-name="Group 129" transform="translate(3.263)">
      <path id="Path_146" data-name="Path 146" d="M721.252,382.813H699.883a3.318,3.318,0,0,0-3.318,3.318V418.44a3.319,3.319,0,0,0,3.318,3.319h26.776a3.319,3.319,0,0,0,3.318-3.319v-26.9Z" transform="translate(-696.565 -382.813)" fill="#fff"/>
      <path id="Path_147" data-name="Path 147" d="M752.881,388.22a3.319,3.319,0,0,0,3.319,3.319h5.407l-8.726-8.726Z" transform="translate(-728.194 -382.813)" fill="#e6e8e8"/>
      <path id="Path_148" data-name="Path 148" d="M726.763,423.654H709.074a.952.952,0,0,0-.952.953h0a.952.952,0,0,0,.952.953h17.689a.953.953,0,0,0,.953-.953h0A.953.953,0,0,0,726.763,423.654Z" transform="translate(-703.056 -405.751)" fill="#d9dbdb"/>
      <path id="Path_149" data-name="Path 149" d="M726.763,434.479H709.074a.952.952,0,0,0-.952.952h0a.952.952,0,0,0,.952.953h17.689a.953.953,0,0,0,.953-.953h0A.952.952,0,0,0,726.763,434.479Z" transform="translate(-703.056 -411.83)" fill="#d9dbdb"/>
      <path id="Path_150" data-name="Path 150" d="M718.73,444.979h-9.656a.952.952,0,0,0-.952.953h0a.952.952,0,0,0,.952.952h9.656a.952.952,0,0,0,.953-.952h0A.953.953,0,0,0,718.73,444.979Z" transform="translate(-703.056 -417.728)" fill="#d9dbdb"/>
    </g>
    <g id="Group_130" data-name="Group 130" transform="translate(0.002 25.617)">
      <path id="Path_151" data-name="Path 151" d="M728.736,441.25v19a2.42,2.42,0,0,1-2.413,2.414h-34.79a2.414,2.414,0,0,1-2.407-2.414v-19l19.805,11.678Z" transform="translate(-689.126 -441.25)" fill="#ffb031"/>
      <path id="Path_152" data-name="Path 152" d="M728.92,472.041l-12.747-12.747-6.388,3.767-6.391-3.769L690.645,472.04a2.39,2.39,0,0,0,1.741.757h34.79A2.4,2.4,0,0,0,728.92,472.041Z" transform="translate(-689.979 -451.383)" fill="#ff9433"/>
    </g>
  </g>
</svg>
