<svg height="512" viewBox="0 0 512 512" width="512" xmlns="http://www.w3.org/2000/svg"><g id="Outline"><path d="m488 416h-152v-248a8 8 0 0 0 -8-8h-288a8 8 0 0 0 -8 8v248h-8a8 8 0 0 0 -8 8v32a8 8 0 0 0 8 8h24v24a8 8 0 0 0 8 8h48a8 8 0 0 0 8-8v-24h112v24a8 8 0 0 0 8 8h48a8 8 0 0 0 8-8v-24h112v24a8 8 0 0 0 8 8h48a8 8 0 0 0 8-8v-24h24a8 8 0 0 0 8-8v-32a8 8 0 0 0 -8-8zm-296-112h32v40a8 8 0 0 0 8 8h48a8 8 0 0 0 8-8v-40h32v112h-128zm48 0h32v32h-32zm80-16h-128v-112h32v40a8 8 0 0 0 8 8h48a8 8 0 0 0 8-8v-40h32zm-80-112h32v32h-32zm-144 0h32v32h-32zm-48 0h32v40a8 8 0 0 0 8 8h48a8 8 0 0 0 8-8v-40h32v112h-128zm48 128h32v32h-32zm-48 0h32v40a8 8 0 0 0 8 8h48a8 8 0 0 0 8-8v-40h32v112h-128zm48 176h-32v-16h32zm176 0h-32v-16h32zm176 0h-32v-16h32zm32-32h-448v-16h448z"/><path d="m288 384h16v16h-16z"/><path d="m144 384h16v16h-16z"/><path d="m288 256h16v16h-16z"/><path d="m144 256h16v16h-16z"/><path d="m493.268 73.979-64-56a8 8 0 0 0 -10.536 0l-64 56a8 8 0 0 0 -2.732 6.021v24a8 8 0 0 0 8 8h24v248h16v-256a8 8 0 0 0 -8-8h-24v-12.37l56-49 56 49v12.37h-24a8 8 0 0 0 -8 8v256h16v-248h24a8 8 0 0 0 8-8v-24a8 8 0 0 0 -2.732-6.021z"/><path d="m384 376h16v16h-16z"/><path d="m448 376h16v16h-16z"/><path d="m192 112h24v32h16v-40a8 8 0 0 0 -8-8h-24v-12.37l56-49 56 49v12.37h-24a8 8 0 0 0 -8 8v40h16v-32h24a8 8 0 0 0 8-8v-24a8 8 0 0 0 -2.732-6.021l-64-56a8 8 0 0 0 -10.536 0l-64 56a8 8 0 0 0 -2.732 6.021v24a8 8 0 0 0 8 8z"/><path d="m24 112h24v32h16v-40a8 8 0 0 0 -8-8h-24v-12.37l56-49 56 49v12.37h-24a8 8 0 0 0 -8 8v40h16v-32h24a8 8 0 0 0 8-8v-24a8 8 0 0 0 -2.732-6.021l-64-56a8 8 0 0 0 -10.536 0l-64 56a8 8 0 0 0 -2.732 6.021v24a8 8 0 0 0 8 8z"/></g></svg>