<svg id="chain" xmlns="http://www.w3.org/2000/svg" width="15.5" height="15.5" viewBox="0 0 15.5 15.5">
  <g id="Group_801" data-name="Group 801" transform="translate(0 0)">
    <g id="Group_800" data-name="Group 800">
      <path id="Path_884" data-name="Path 884" d="M10.209,175.2a3.655,3.655,0,0,0-.289-.353,3.673,3.673,0,0,0-.347-.3l-1.317,1.316a1.493,1.493,0,0,1,.379.263,1.361,1.361,0,0,1,0,1.927l-4.5,4.5a1.362,1.362,0,1,1-1.927-1.927l1.773-1.772a4.077,4.077,0,0,1-.372-2.2L.93,179.346a3.179,3.179,0,0,0,4.5,4.5l4.5-4.5a3.192,3.192,0,0,0,.3-4.149Z" transform="translate(0 -169.271)" fill="#707070"/>
      <path id="Path_885" data-name="Path 885" d="M158.745.93a3.183,3.183,0,0,0-4.5,0L149.6,5.58a3.192,3.192,0,0,0-.3,4.149l.006-.006a3.655,3.655,0,0,0,.289.353,3.666,3.666,0,0,0,.347.3l1.316-1.316a1.491,1.491,0,0,1-.379-.263,1.36,1.36,0,0,1,0-1.927l4.65-4.65a1.362,1.362,0,1,1,1.927,1.927l-1.927,1.927a4.074,4.074,0,0,1,.372,2.2l2.839-2.839A3.182,3.182,0,0,0,158.745.93Z" transform="translate(-144.174 0)" fill="#707070"/>
    </g>
  </g>
</svg>
