<svg xmlns="http://www.w3.org/2000/svg" width="15.033" height="15" viewBox="0 0 15.033 15">
  <g id="Group_799" data-name="Group 799" transform="translate(-172 -2442)">
    <path id="XMLID_802_" d="M8.187,99.73H5.169a.242.242,0,0,0-.242.242v9.7a.242.242,0,0,0,.242.242H8.187a.242.242,0,0,0,.242-.242v-9.7A.242.242,0,0,0,8.187,99.73Z" transform="translate(167.312 2347.09)" fill="#707070"/>
    <path id="XMLID_803_" d="M1.991.341A1.99,1.99,0,1,0,3.981,2.33,1.993,1.993,0,0,0,1.991.341Z" transform="translate(172 2441.659)" fill="#707070"/>
    <path id="XMLID_804_" d="M112.2,94.761a3.544,3.544,0,0,0-2.652,1.113v-.63a.242.242,0,0,0-.242-.242h-2.89a.242.242,0,0,0-.242.242v9.7a.242.242,0,0,0,.242.242h3.011a.242.242,0,0,0,.242-.242v-4.8c0-1.616.439-2.246,1.566-2.246,1.227,0,1.325,1.01,1.325,2.329v4.714a.242.242,0,0,0,.242.242h3.012a.242.242,0,0,0,.242-.242V99.622C116.06,97.218,115.6,94.761,112.2,94.761Z" transform="translate(70.973 2351.818)" fill="#707070"/>
  </g>
</svg>
