<svg xmlns="http://www.w3.org/2000/svg" xmlns:xlink="http://www.w3.org/1999/xlink" width="160" height="63.382" viewBox="0 0 160 63.382">
  <defs>
    <clipPath id="clip-path">
      <path id="Path_91" data-name="Path 91" d="M128.191,275.284c.536.963,5.239.157,7.357-1.757,4-3.6,8.708-6.1,13.167-9,.958-.623,2.725-.8,2.431-2.584-.25-1.5-1.539-1.866-2.8-2.368-2.468-.977-3.153-2.816-2.9-5.515.607-6.505.464-12.927-3.8-18.52-.81-1.056-2.805-2.571-1.924-3.452,2.805-2.811,1.179-6.4,2.322-9.38-3.2-.985-6.354.456-9.486.231-6.72-.483-12.662,1.417-18.262,4.913-.757.47-1.216.666-.743,1.7,1.062,2.325.281,5.1,2.285,7.737-4.249-.616-6.476,1.29-8.679,3.984-2.959,3.62-8.511,2.845-11.81,6.17v4.7c9.464,5.828,19.026,11.516,27.4,18.942C124.419,272.574,126.813,272.806,128.191,275.284Z" transform="translate(-95.345 -222.359)" fill="none"/>
    </clipPath>
  </defs>
  <g id="Group_82" data-name="Group 82" transform="translate(-91.828 -215.944)">
    <g id="Group_74" data-name="Group 74" transform="translate(95.474 225.993)">
      <g id="Group_73" data-name="Group 73" clip-path="url(#clip-path)">
        <path id="Path_356" data-name="Path 356" d="M105.9,241.749c-3.09,2.3-7.679,2.081-10.555,4.98v4.7c3.527,2.173,7.068,4.325,10.555,6.556Z" transform="translate(-95.345 -221.926)" fill="#e50019"/>
      </g>
    </g>
    <g id="Group_75" data-name="Group 75" transform="translate(95.474 225.993)">
      <path id="Path_92" data-name="Path 92" d="M128.191,275.284c.536.963,5.239.157,7.357-1.757,4-3.6,8.708-6.1,13.167-9,.958-.623,2.725-.8,2.431-2.584-.25-1.5-1.539-1.866-2.8-2.368-2.468-.977-3.153-2.816-2.9-5.515.607-6.505.464-12.927-3.8-18.52-.81-1.056-2.805-2.571-1.924-3.452,2.805-2.811,1.179-6.4,2.322-9.38-3.2-.985-6.354.456-9.486.231-6.72-.483-12.662,1.417-18.262,4.913-.757.47-1.216.666-.743,1.7,1.062,2.325.281,5.1,2.285,7.737-4.249-.616-6.476,1.29-8.679,3.984-2.959,3.62-8.511,2.845-11.81,6.17v4.7c9.464,5.828,19.026,11.516,27.4,18.942C124.419,272.574,126.813,272.806,128.191,275.284Z" transform="translate(-95.345 -222.359)" fill="none"/>
    </g>
    <g id="Group_76" data-name="Group 76" transform="translate(95.474 225.993)">
      <path id="Path_93" data-name="Path 93" d="M128.191,275.284c.536.963,5.239.157,7.357-1.757,4-3.6,8.708-6.1,13.167-9,.958-.623,2.725-.8,2.431-2.584-.25-1.5-1.539-1.866-2.8-2.368-2.468-.977-3.153-2.816-2.9-5.515.607-6.505.464-12.927-3.8-18.52-.81-1.056-2.805-2.571-1.924-3.452,2.805-2.811,1.179-6.4,2.322-9.38-3.2-.985-6.354.456-9.486.231-6.72-.483-12.662,1.417-18.262,4.913-.757.47-1.216.666-.743,1.7,1.062,2.325.281,5.1,2.285,7.737-4.249-.616-6.476,1.29-8.679,3.984-2.959,3.62-8.511,2.845-11.81,6.17v4.7c9.464,5.828,19.026,11.516,27.4,18.942C124.419,272.574,126.813,272.806,128.191,275.284Z" transform="translate(-95.345 -222.359)" fill="none"/>
    </g>
    <g id="Group_77" data-name="Group 77" transform="translate(95.474 225.993)">
      <path id="Path_94" data-name="Path 94" d="M128.191,275.284c.536.963,5.239.157,7.357-1.757,4-3.6,8.708-6.1,13.167-9,.958-.623,2.725-.8,2.431-2.584-.25-1.5-1.539-1.866-2.8-2.368-2.468-.977-3.153-2.816-2.9-5.515.607-6.505.464-12.927-3.8-18.52-.81-1.056-2.805-2.571-1.924-3.452,2.805-2.811,1.179-6.4,2.322-9.38-3.2-.985-6.354.456-9.486.231-6.72-.483-12.662,1.417-18.262,4.913-.757.47-1.216.666-.743,1.7,1.062,2.325.281,5.1,2.285,7.737-4.249-.616-6.476,1.29-8.679,3.984-2.959,3.62-8.511,2.845-11.81,6.17v4.7c9.464,5.828,19.026,11.516,27.4,18.942C124.419,272.574,126.813,272.806,128.191,275.284Z" transform="translate(-95.345 -222.359)" fill="none"/>
    </g>
    <g id="Group_78" data-name="Group 78" transform="translate(95.474 225.993)">
      <path id="Path_95" data-name="Path 95" d="M128.191,275.284c.536.963,5.239.157,7.357-1.757,4-3.6,8.708-6.1,13.167-9,.958-.623,2.725-.8,2.431-2.584-.25-1.5-1.539-1.866-2.8-2.368-2.468-.977-3.153-2.816-2.9-5.515.607-6.505.464-12.927-3.8-18.52-.81-1.056-2.805-2.571-1.924-3.452,2.805-2.811,1.179-6.4,2.322-9.38-3.2-.985-6.354.456-9.486.231-6.72-.483-12.662,1.417-18.262,4.913-.757.47-1.216.666-.743,1.7,1.062,2.325.281,5.1,2.285,7.737-4.249-.616-6.476,1.29-8.679,3.984-2.959,3.62-8.511,2.845-11.81,6.17v4.7c9.464,5.828,19.026,11.516,27.4,18.942C124.419,272.574,126.813,272.806,128.191,275.284Z" transform="translate(-95.345 -222.359)" fill="none"/>
    </g>
    <g id="Group_79" data-name="Group 79" transform="translate(95.474 225.993)">
      <path id="Path_96" data-name="Path 96" d="M128.191,275.284c.536.963,5.239.157,7.357-1.757,4-3.6,8.708-6.1,13.167-9,.958-.623,2.725-.8,2.431-2.584-.25-1.5-1.539-1.866-2.8-2.368-2.468-.977-3.153-2.816-2.9-5.515.607-6.505.464-12.927-3.8-18.52-.81-1.056-2.805-2.571-1.924-3.452,2.805-2.811,1.179-6.4,2.322-9.38-3.2-.985-6.354.456-9.486.231-6.72-.483-12.662,1.417-18.262,4.913-.757.47-1.216.666-.743,1.7,1.062,2.325.281,5.1,2.285,7.737-4.249-.616-6.476,1.29-8.679,3.984-2.959,3.62-8.511,2.845-11.81,6.17v4.7c9.464,5.828,19.026,11.516,27.4,18.942C124.419,272.574,126.813,272.806,128.191,275.284Z" transform="translate(-95.345 -222.359)" fill="none"/>
    </g>
    <g id="Group_80" data-name="Group 80" transform="translate(95.474 225.993)">
      <path id="Path_97" data-name="Path 97" d="M128.191,275.284c.536.963,5.239.157,7.357-1.757,4-3.6,8.708-6.1,13.167-9,.958-.623,2.725-.8,2.431-2.584-.25-1.5-1.539-1.866-2.8-2.368-2.468-.977-3.153-2.816-2.9-5.515.607-6.505.464-12.927-3.8-18.52-.81-1.056-2.805-2.571-1.924-3.452,2.805-2.811,1.179-6.4,2.322-9.38-3.2-.985-6.354.456-9.486.231-6.72-.483-12.662,1.417-18.262,4.913-.757.47-1.216.666-.743,1.7,1.062,2.325.281,5.1,2.285,7.737-4.249-.616-6.476,1.29-8.679,3.984-2.959,3.62-8.511,2.845-11.81,6.17v4.7c9.464,5.828,19.026,11.516,27.4,18.942C124.419,272.574,126.813,272.806,128.191,275.284Z" transform="translate(-95.345 -222.359)" fill="none"/>
    </g>
    <g id="Group_81" data-name="Group 81" transform="translate(95.474 225.993)">
      <path id="Path_98" data-name="Path 98" d="M128.191,275.284c.536.963,5.239.157,7.357-1.757,4-3.6,8.708-6.1,13.167-9,.958-.623,2.725-.8,2.431-2.584-.25-1.5-1.539-1.866-2.8-2.368-2.468-.977-3.153-2.816-2.9-5.515.607-6.505.464-12.927-3.8-18.52-.81-1.056-2.805-2.571-1.924-3.452,2.805-2.811,1.179-6.4,2.322-9.38-3.2-.985-6.354.456-9.486.231-6.72-.483-12.662,1.417-18.262,4.913-.757.47-1.216.666-.743,1.7,1.062,2.325.281,5.1,2.285,7.737-4.249-.616-6.476,1.29-8.679,3.984-2.959,3.62-8.511,2.845-11.81,6.17v4.7c9.464,5.828,19.026,11.516,27.4,18.942C124.419,272.574,126.813,272.806,128.191,275.284Z" transform="translate(-95.345 -222.359)" fill="none"/>
    </g>
    <path id="Path_100" data-name="Path 100" d="M119.9,224.685a35.647,35.647,0,0,0-6.117,3.081c-.757.47-1.216.666-.743,1.7,1.062,2.325.281,5.1,2.285,7.737a7.7,7.7,0,0,0-5.981,1.3v20.488a71.207,71.207,0,0,0,10.556-3.824Z" transform="translate(0.642 1.815)" fill="#35a85e"/>
    <path id="Path_101" data-name="Path 101" d="M119.855,267.793v-9.649a53.985,53.985,0,0,1-9.385,2.632C113.694,262.977,116.84,265.29,119.855,267.793Z" transform="translate(0.684 4.426)" fill="#35a85e"/>
    <path id="Path_102" data-name="Path 102" d="M123.336,271.152c1.377.743,2.856,1.374,3.828,3.125.488.877,4.427.283,6.727-1.275V249.825a48.416,48.416,0,0,1-10.555,6.925Z" transform="translate(2.782 4.641)" fill="#0f73bb"/>
    <path id="Path_103" data-name="Path 103" d="M133.891,222.84a12.884,12.884,0,0,1-2.364.081,27.55,27.55,0,0,0-8.192.622v29.738a63.5,63.5,0,0,0,10.555-7.108Z" transform="translate(2.782 1.458)" fill="#0f73bb"/>
    <path id="Path_104" data-name="Path 104" d="M140.1,235.539c-.81-1.055-2.805-2.571-1.924-3.452,2.805-2.811,1.179-6.4,2.322-9.38a8.934,8.934,0,0,0-3.169-.326V242.6a55.917,55.917,0,0,0,4.272-4.756A18.779,18.779,0,0,0,140.1,235.539Z" transform="translate(3.921 1.195)" fill="#ffb400"/>
    <path id="Path_105" data-name="Path 105" d="M146.806,258.943c-2.468-.977-3.153-2.816-2.9-5.515.444-4.754.479-9.464-1.2-13.839a54.268,54.268,0,0,1-5.378,6.806v23.838c3.165-2.293,6.569-4.211,9.844-6.338.958-.623,2.725-.8,2.431-2.584C149.356,259.813,148.067,259.444,146.806,258.943Z" transform="translate(4.047 4.214)" fill="#ffb400"/>
    <path id="Path_106" data-name="Path 106" d="M151.9,229.119s-2.86,5.72-7.411,6.631a9.47,9.47,0,0,0,2.991,0s-13.913,27.826-55.653,28.736C91.828,264.486,135.647,274.824,151.9,229.119Z" transform="translate(0 2.509)" fill="#e50019"/>
    <text id="algeria" transform="translate(161.828 242.944)" fill="#0f73bb" font-size="27" font-family="Muli-Bold, Muli" font-weight="700"><tspan x="0" y="0">algeria</tspan></text>
    <text id="_invest" data-name=" invest" transform="translate(154.496 273.084)" fill="#0f73bb" font-size="26" font-family="Muli-Bold, Muli" font-weight="700"><tspan x="0" y="0" xml:space="preserve"> invest</tspan></text>
  </g>
</svg>
