<svg xmlns="http://www.w3.org/2000/svg" xmlns:xlink="http://www.w3.org/1999/xlink" width="576.391" height="181.127" viewBox="0 0 576.391 181.127">
  <defs>
    <clipPath id="clip-path">
      <path id="Path_339" data-name="Path 339" d="M1345.572,543.129c-17.466,37.785-75.885,61.383-203.152,73.375C990.7,630.8,1043.471,725.344,911.54,724.247c-109.005-.905-136.2-134.662-142.359-181.118Z" transform="translate(2414.448 -592.129)" fill="#0f73bb"/>
    </clipPath>
    <filter id="Rectangle_207" x="-143.629" y="-6" width="1022" height="704" filterUnits="userSpaceOnUse">
      <feOffset dy="3" input="SourceAlpha"/>
      <feGaussianBlur stdDeviation="3" result="blur"/>
      <feFlood flood-opacity="0.161"/>
      <feComposite operator="in" in2="blur"/>
      <feComposite in="SourceGraphic"/>
    </filter>
  </defs>
  <g id="Mask_Group_42" data-name="Mask Group 42" transform="translate(-3183.629 49)" clip-path="url(#clip-path)">
    <g transform="matrix(1, 0, 0, 1, 3183.63, -49)" filter="url(#Rectangle_207)">
      <rect id="Rectangle_207-2" data-name="Rectangle 207" width="1004" height="686" rx="16" transform="translate(-134.63)" fill="#0f73bb"/>
    </g>
    <path id="Path_338" data-name="Path 338" d="M974.507,738.392a5.526,5.526,0,0,1-3.759,5.255,126.527,126.527,0,0,1-40.556,6.311,167.23,167.23,0,0,1-34.231-3.691c-43.369-9.124-81.072-36.235-106.152-76.338-25.464-40.707-32.626-89.07-35.988-126.8h11.017c2.278,25.4,5.611,45.935,10.468,64.539,11.978,45.907,37.414,83.8,71.632,106.687,35.96,24.051,83.267,31.446,120.5,18.824a5.206,5.206,0,0,1,6.75,3.348A6.052,6.052,0,0,1,974.507,738.392Z" transform="translate(2408.734 -592.129)" fill="#0f73bb"/>
  </g>
</svg>
