<svg xmlns="http://www.w3.org/2000/svg" width="16" height="11" viewBox="0 0 16 11">
  <g id="mail_2_" data-name="mail (2)" transform="translate(0 -80)">
    <g id="Group_102" data-name="Group 102" transform="translate(10.238 81.789)">
      <g id="Group_101" data-name="Group 101">
        <path id="Path_122" data-name="Path 122" d="M339.392,148.692l5.762,3.643V144.9Z" transform="translate(-339.392 -144.896)" fill="#35a85e"/>
      </g>
    </g>
    <g id="Group_104" data-name="Group 104" transform="translate(0 81.789)">
      <g id="Group_103" data-name="Group 103">
        <path id="Path_123" data-name="Path 123" d="M0,144.9v7.439l5.762-3.643Z" transform="translate(0 -144.896)" fill="#35a85e"/>
      </g>
    </g>
    <g id="Group_106" data-name="Group 106" transform="translate(0.032 80)">
      <g id="Group_105" data-name="Group 105">
        <path id="Path_124" data-name="Path 124" d="M15.926,80h-14a1.012,1.012,0,0,0-.97.909l7.968,5.609L16.9,80.909A1.012,1.012,0,0,0,15.926,80Z" transform="translate(-0.96 -80)" fill="#35a85e"/>
      </g>
    </g>
    <g id="Group_108" data-name="Group 108" transform="translate(0.034 85.857)">
      <g id="Group_107" data-name="Group 107">
        <path id="Path_125" data-name="Path 125" d="M10.679,277.921l-1.415,1a.475.475,0,0,1-.55,0l-1.415-1-6.276,4.242a1.01,1.01,0,0,0,.968.9h14a1.01,1.01,0,0,0,.968-.9Z" transform="translate(-1.024 -277.92)" fill="#35a85e"/>
      </g>
    </g>
  </g>
</svg>
