<svg xmlns="http://www.w3.org/2000/svg" width="60.068" height="24.621" viewBox="0 0 60.068 24.621">
  <g id="Group_826" data-name="Group 826" transform="translate(-91.828 -212.944)">
    <g id="Group_75" data-name="Group 75" transform="translate(93.205 216.487)">
      <path id="Path_92" data-name="Path 92" d="M107.752,242.351c.2.364,1.979.059,2.779-.664a38.218,38.218,0,0,1,4.973-3.4c.362-.235,1.029-.3.918-.976-.094-.565-.582-.7-1.058-.894a1.75,1.75,0,0,1-1.1-2.083c.229-2.457.175-4.883-1.437-7-.306-.4-1.06-.971-.727-1.3,1.06-1.062.445-2.417.877-3.543-1.208-.372-2.4.172-3.583.087a11.188,11.188,0,0,0-6.9,1.856c-.286.177-.459.251-.281.641.4.878.106,1.925.863,2.922a3.243,3.243,0,0,0-3.278,1.5c-1.118,1.367-3.215,1.074-4.461,2.331v1.775a72.26,72.26,0,0,1,10.348,7.155C106.327,241.327,107.231,241.414,107.752,242.351Z" transform="translate(-95.345 -222.359)" fill="none"/>
    </g>
    <g id="Group_76" data-name="Group 76" transform="translate(93.205 216.487)">
      <path id="Path_93" data-name="Path 93" d="M107.752,242.351c.2.364,1.979.059,2.779-.664a38.218,38.218,0,0,1,4.973-3.4c.362-.235,1.029-.3.918-.976-.094-.565-.582-.7-1.058-.894a1.75,1.75,0,0,1-1.1-2.083c.229-2.457.175-4.883-1.437-7-.306-.4-1.06-.971-.727-1.3,1.06-1.062.445-2.417.877-3.543-1.208-.372-2.4.172-3.583.087a11.188,11.188,0,0,0-6.9,1.856c-.286.177-.459.251-.281.641.4.878.106,1.925.863,2.922a3.243,3.243,0,0,0-3.278,1.5c-1.118,1.367-3.215,1.074-4.461,2.331v1.775a72.26,72.26,0,0,1,10.348,7.155C106.327,241.327,107.231,241.414,107.752,242.351Z" transform="translate(-95.345 -222.359)" fill="none"/>
    </g>
    <g id="Group_77" data-name="Group 77" transform="translate(93.205 216.487)">
      <path id="Path_94" data-name="Path 94" d="M107.752,242.351c.2.364,1.979.059,2.779-.664a38.218,38.218,0,0,1,4.973-3.4c.362-.235,1.029-.3.918-.976-.094-.565-.582-.7-1.058-.894a1.75,1.75,0,0,1-1.1-2.083c.229-2.457.175-4.883-1.437-7-.306-.4-1.06-.971-.727-1.3,1.06-1.062.445-2.417.877-3.543-1.208-.372-2.4.172-3.583.087a11.188,11.188,0,0,0-6.9,1.856c-.286.177-.459.251-.281.641.4.878.106,1.925.863,2.922a3.243,3.243,0,0,0-3.278,1.5c-1.118,1.367-3.215,1.074-4.461,2.331v1.775a72.26,72.26,0,0,1,10.348,7.155C106.327,241.327,107.231,241.414,107.752,242.351Z" transform="translate(-95.345 -222.359)" fill="none"/>
    </g>
    <g id="Group_78" data-name="Group 78" transform="translate(93.205 216.487)">
      <path id="Path_95" data-name="Path 95" d="M107.752,242.351c.2.364,1.979.059,2.779-.664a38.218,38.218,0,0,1,4.973-3.4c.362-.235,1.029-.3.918-.976-.094-.565-.582-.7-1.058-.894a1.75,1.75,0,0,1-1.1-2.083c.229-2.457.175-4.883-1.437-7-.306-.4-1.06-.971-.727-1.3,1.06-1.062.445-2.417.877-3.543-1.208-.372-2.4.172-3.583.087a11.188,11.188,0,0,0-6.9,1.856c-.286.177-.459.251-.281.641.4.878.106,1.925.863,2.922a3.243,3.243,0,0,0-3.278,1.5c-1.118,1.367-3.215,1.074-4.461,2.331v1.775a72.26,72.26,0,0,1,10.348,7.155C106.327,241.327,107.231,241.414,107.752,242.351Z" transform="translate(-95.345 -222.359)" fill="none"/>
    </g>
    <g id="Group_79" data-name="Group 79" transform="translate(93.205 216.487)">
      <path id="Path_96" data-name="Path 96" d="M107.752,242.351c.2.364,1.979.059,2.779-.664a38.218,38.218,0,0,1,4.973-3.4c.362-.235,1.029-.3.918-.976-.094-.565-.582-.7-1.058-.894a1.75,1.75,0,0,1-1.1-2.083c.229-2.457.175-4.883-1.437-7-.306-.4-1.06-.971-.727-1.3,1.06-1.062.445-2.417.877-3.543-1.208-.372-2.4.172-3.583.087a11.188,11.188,0,0,0-6.9,1.856c-.286.177-.459.251-.281.641.4.878.106,1.925.863,2.922a3.243,3.243,0,0,0-3.278,1.5c-1.118,1.367-3.215,1.074-4.461,2.331v1.775a72.26,72.26,0,0,1,10.348,7.155C106.327,241.327,107.231,241.414,107.752,242.351Z" transform="translate(-95.345 -222.359)" fill="none"/>
    </g>
    <g id="Group_80" data-name="Group 80" transform="translate(93.205 216.487)">
      <path id="Path_97" data-name="Path 97" d="M107.752,242.351c.2.364,1.979.059,2.779-.664a38.218,38.218,0,0,1,4.973-3.4c.362-.235,1.029-.3.918-.976-.094-.565-.582-.7-1.058-.894a1.75,1.75,0,0,1-1.1-2.083c.229-2.457.175-4.883-1.437-7-.306-.4-1.06-.971-.727-1.3,1.06-1.062.445-2.417.877-3.543-1.208-.372-2.4.172-3.583.087a11.188,11.188,0,0,0-6.9,1.856c-.286.177-.459.251-.281.641.4.878.106,1.925.863,2.922a3.243,3.243,0,0,0-3.278,1.5c-1.118,1.367-3.215,1.074-4.461,2.331v1.775a72.26,72.26,0,0,1,10.348,7.155C106.327,241.327,107.231,241.414,107.752,242.351Z" transform="translate(-95.345 -222.359)" fill="none"/>
    </g>
    <g id="Group_81" data-name="Group 81" transform="translate(93.205 216.487)">
      <path id="Path_98" data-name="Path 98" d="M107.752,242.351c.2.364,1.979.059,2.779-.664a38.218,38.218,0,0,1,4.973-3.4c.362-.235,1.029-.3.918-.976-.094-.565-.582-.7-1.058-.894a1.75,1.75,0,0,1-1.1-2.083c.229-2.457.175-4.883-1.437-7-.306-.4-1.06-.971-.727-1.3,1.06-1.062.445-2.417.877-3.543-1.208-.372-2.4.172-3.583.087a11.188,11.188,0,0,0-6.9,1.856c-.286.177-.459.251-.281.641.4.878.106,1.925.863,2.922a3.243,3.243,0,0,0-3.278,1.5c-1.118,1.367-3.215,1.074-4.461,2.331v1.775a72.26,72.26,0,0,1,10.348,7.155C106.327,241.327,107.231,241.414,107.752,242.351Z" transform="translate(-95.345 -222.359)" fill="none"/>
    </g>
    <path id="Path_99" data-name="Path 99" d="M99.332,241.749c-1.167.868-2.9.786-3.987,1.881v1.775c1.332.821,2.67,1.634,3.987,2.476Z" transform="translate(-2.14 -18.099)" fill="#e50019"/>
    <path id="Path_100" data-name="Path 100" d="M113.327,224.685a13.465,13.465,0,0,0-2.311,1.164c-.286.177-.459.251-.281.641.4.878.106,1.925.863,2.922a2.91,2.91,0,0,0-2.259.493v7.739a26.9,26.9,0,0,0,3.987-1.445Z" transform="translate(-10.655 -7.926)" fill="#35a85e"/>
    <path id="Path_101" data-name="Path 101" d="M114.015,261.789v-3.645a20.388,20.388,0,0,1-3.545.994C111.688,259.97,112.876,260.843,114.015,261.789Z" transform="translate(-11.342 -27.84)" fill="#35a85e"/>
    <path id="Path_102" data-name="Path 102" d="M123.336,257.881a3.034,3.034,0,0,1,1.446,1.18c.184.331,1.672.107,2.541-.482v-8.755a18.288,18.288,0,0,1-3.987,2.616Z" transform="translate(-18.629 -22.583)" fill="#0f73bb"/>
    <path id="Path_103" data-name="Path 103" d="M127.323,222.84a4.867,4.867,0,0,1-.893.031,10.407,10.407,0,0,0-3.094.235v11.233a23.985,23.985,0,0,0,3.987-2.685Z" transform="translate(-18.629 -6.899)" fill="#0f73bb"/>
    <path id="Path_104" data-name="Path 104" d="M138.378,227.339c-.306-.4-1.06-.971-.727-1.3,1.06-1.062.445-2.417.877-3.543a3.375,3.375,0,0,0-1.2-.123v7.636a21.121,21.121,0,0,0,1.614-1.8A7.093,7.093,0,0,0,138.378,227.339Z" transform="translate(-26.936 -6.689)" fill="#ffb400"/>
    <path id="Path_105" data-name="Path 105" d="M140.91,246.9a1.75,1.75,0,0,1-1.1-2.083,11.482,11.482,0,0,0-.452-5.227,20.5,20.5,0,0,1-2.032,2.571v9c1.2-.866,2.481-1.591,3.718-2.394.362-.235,1.029-.3.918-.976C141.873,247.228,141.386,247.089,140.91,246.9Z" transform="translate(-26.895 -16.375)" fill="#ffb400"/>
    <path id="Path_106" data-name="Path 106" d="M114.519,229.119s-1.08,2.161-2.8,2.5a3.577,3.577,0,0,0,1.13,0s-5.255,10.511-21.022,10.855C91.828,242.478,108.38,246.383,114.519,229.119Z" transform="translate(0 -10.448)" fill="#e50019"/>
    <text id="algeria" transform="translate(117.896 222.944)" fill="#0f73bb" font-size="10" font-family="Muli-Bold, Muli" font-weight="700"><tspan x="0" y="0">algeria</tspan></text>
    <text id="_invest" data-name=" invest" transform="translate(115.178 234.565)" fill="#0f73bb" font-size="10" font-family="Muli-Bold, Muli" font-weight="700"><tspan x="0" y="0" xml:space="preserve"> invest</tspan></text>
  </g>
</svg>
