<svg id="print" xmlns="http://www.w3.org/2000/svg" width="24" height="24" viewBox="0 0 24 24">
  <path id="Path_532" data-name="Path 532" d="M21.5,18h-3a.5.5,0,0,1,0-1h3A1.5,1.5,0,0,0,23,15.5v-7A1.5,1.5,0,0,0,21.5,7H2.5A1.5,1.5,0,0,0,1,8.5v7A1.5,1.5,0,0,0,2.5,17h3a.5.5,0,0,1,0,1h-3A2.5,2.5,0,0,1,0,15.5v-7A2.5,2.5,0,0,1,2.5,6h19A2.5,2.5,0,0,1,24,8.5v7A2.5,2.5,0,0,1,21.5,18Z" fill="#fff"/>
  <path id="Path_533" data-name="Path 533" d="M14.5,21h-6a.5.5,0,0,1,0-1h6a.5.5,0,0,1,0,1Z" fill="#fff"/>
  <path id="Path_534" data-name="Path 534" d="M14.5,19h-6a.5.5,0,0,1,0-1h6a.5.5,0,0,1,0,1Z" fill="#fff"/>
  <path id="Path_535" data-name="Path 535" d="M10.5,17h-2a.5.5,0,0,1,0-1h2a.5.5,0,0,1,0,1Z" fill="#fff"/>
  <path id="Path_536" data-name="Path 536" d="M18.5,7a.5.5,0,0,1-.5-.5v-4A1.5,1.5,0,0,0,16.5,1h-9A1.5,1.5,0,0,0,6,2.5v4a.5.5,0,0,1-1,0v-4A2.5,2.5,0,0,1,7.5,0h9A2.5,2.5,0,0,1,19,2.5v4A.5.5,0,0,1,18.5,7Z" fill="#fff"/>
  <path id="Path_537" data-name="Path 537" d="M16.5,24h-9A2.5,2.5,0,0,1,5,21.5v-8a.5.5,0,0,1,.5-.5h13a.5.5,0,0,1,.5.5v8A2.5,2.5,0,0,1,16.5,24ZM6,14v7.5A1.5,1.5,0,0,0,7.5,23h9A1.5,1.5,0,0,0,18,21.5V14Z" fill="#fff"/>
</svg>
