<svg xmlns="http://www.w3.org/2000/svg" width="7.993" height="10" viewBox="0 0 7.993 10">
  <g id="arrows" transform="translate(0 -64.013)">
    <g id="Group_318" data-name="Group 318" transform="translate(0 64.013)">
      <g id="Group_317" data-name="Group 317" transform="translate(0 0)">
        <path id="Path_431" data-name="Path 431" d="M7.872,68.709,3.641,64.164a.478.478,0,0,0-.35-.151H.471a.473.473,0,0,0-.43.269.443.443,0,0,0,.08.489l3.948,4.242L.121,73.254a.442.442,0,0,0-.08.489.472.472,0,0,0,.43.27H3.291a.484.484,0,0,0,.35-.15l4.231-4.545A.444.444,0,0,0,7.872,68.709Z" transform="translate(0 -64.013)" fill="#8ba1b2"/>
      </g>
    </g>
  </g>
</svg>
