<svg xmlns="http://www.w3.org/2000/svg" width="19.336" height="18.476" viewBox="0 0 19.336 18.476">
  <path id="Path_637" data-name="Path 637" d="M110.294,88.44a.879.879,0,0,0-.709-.6l-5.616-.816-2.511-5.089a.879.879,0,0,0-1.576,0l-2.511,5.089-5.616.816a.879.879,0,0,0-.487,1.5L95.33,93.3,94.371,98.9a.879.879,0,0,0,1.275.927l5.023-2.641,5.023,2.641a.879.879,0,0,0,1.275-.927l-.959-5.593,4.064-3.961A.879.879,0,0,0,110.294,88.44Zm-5.844,3.926a.879.879,0,0,0-.253.778l.736,4.293-3.856-2.027a.879.879,0,0,0-.818,0L96.4,97.437l.736-4.293a.879.879,0,0,0-.253-.778l-3.119-3.041,4.311-.626a.879.879,0,0,0,.662-.481l1.928-3.906,1.928,3.906a.879.879,0,0,0,.662.481l4.311.626Z" transform="translate(-91.001 -81.447)" fill="#ffb400"/>
</svg>
