<svg xmlns="http://www.w3.org/2000/svg" width="54" height="54" viewBox="0 0 54 54">
  <g id="folder" transform="translate(-16 -16)">
    <path id="Path_439" data-name="Path 439" d="M20.5,70h45A4.505,4.505,0,0,0,70,65.5V34.9a4.505,4.505,0,0,0-4.5-4.5h-.9V25.9c0-.01,0-.02,0-.031s0-.02,0-.029a.9.9,0,0,0-.045-.228l-.01-.027a.909.909,0,0,0-.045-.1l0,0a.894.894,0,0,0-.063-.1l-.017-.024a.9.9,0,0,0-.079-.091l-9-9a.905.905,0,0,0-.091-.078l-.024-.018a.922.922,0,0,0-.1-.062l-.005,0a.888.888,0,0,0-.1-.045l-.027-.01A.9.9,0,0,0,54.76,16h-.029L54.7,16H31.3a4.505,4.505,0,0,0-4.5,4.5V25H20.5A4.505,4.505,0,0,0,16,29.5v36A4.505,4.505,0,0,0,20.5,70Zm45-37.8a2.7,2.7,0,0,1,2.7,2.7V65.5a2.7,2.7,0,0,1-2.7,2.7H61.9a2.7,2.7,0,0,1-2.7-2.7v-.9h.9a4.505,4.505,0,0,0,4.5-4.5V32.2ZM61.527,25H58.3a2.7,2.7,0,0,1-2.7-2.7V19.073ZM28.6,20.5a2.7,2.7,0,0,1,2.7-2.7H53.8v4.5a4.505,4.505,0,0,0,4.5,4.5h4.5V60.1a2.7,2.7,0,0,1-2.7,2.7h-.9V40.3a4.505,4.505,0,0,0-4.5-4.5H35.8V29.5A4.505,4.505,0,0,0,31.3,25H28.6Zm-10.8,9a2.7,2.7,0,0,1,2.7-2.7H31.3A2.7,2.7,0,0,1,34,29.5v7.2a.9.9,0,0,0,.9.9H54.7a2.7,2.7,0,0,1,2.7,2.7V65.5a4.477,4.477,0,0,0,.9,2.7H20.5a2.7,2.7,0,0,1-2.7-2.7Z" fill="#8ba1b2"/>
    <path id="Path_440" data-name="Path 440" d="M272,144.9a.9.9,0,0,0,.9.9h12.571a.9.9,0,0,0,0-1.8H272.9A.9.9,0,0,0,272,144.9Z" transform="translate(-227.176 -113.599)" fill="#8ba1b2"/>
    <path id="Path_441" data-name="Path 441" d="M216.9,97.8h6.285a.9.9,0,1,0,0-1.8H216.9a.9.9,0,1,0,0,1.8Z" transform="translate(-177.491 -70.999)" fill="#8ba1b2"/>
    <path id="Path_442" data-name="Path 442" d="M226.694,144h-1.8a.9.9,0,1,0,0,1.8h1.8a.9.9,0,0,0,0-1.8Z" transform="translate(-184.596 -113.599)" fill="#8ba1b2"/>
    <path id="Path_443" data-name="Path 443" d="M126.766,275.228a.9.9,0,0,0,.669.3h.01a.9.9,0,0,0,.672-.314l6.206-7.252a.9.9,0,0,0-.682-1.482h-.01l-2.694.03-.109-9.876a.9.9,0,0,0-.9-.888h-.01l-5.387.059a.9.9,0,0,0-.888.908l.109,9.877-2.694.03a.9.9,0,0,0-.659,1.5Zm-2.093-6.854a.9.9,0,0,0,.888-.908l-.109-9.876,3.592-.039.109,9.876a.894.894,0,0,0,.908.888l1.613-.018-4.252,4.969-4.36-4.874Z" transform="translate(-92.443 -212.711)" fill="#8ba1b2"/>
  </g>
</svg>
