<svg xmlns="http://www.w3.org/2000/svg" width="60" height="44.047" viewBox="0 0 60 44.047">
  <g id="team" transform="translate(0 -68.066)">
    <g id="Group_320" data-name="Group 320" transform="translate(46.142 86.871)">
      <g id="Group_319" data-name="Group 319">
        <path id="Path_432" data-name="Path 432" d="M399.6,229.473c-2.025-1.012-5.821-1.024-5.981-1.024a.872.872,0,0,0,0,1.743,15.049,15.049,0,0,1,5.2.84.872.872,0,0,0,.78-1.559Z" transform="translate(-392.751 -228.449)" fill="#8ba1b2"/>
      </g>
    </g>
    <g id="Group_322" data-name="Group 322" transform="translate(0 68.066)">
      <g id="Group_321" data-name="Group 321">
        <path id="Path_433" data-name="Path 433" d="M57.318,100.407l-3.63-1.037a.369.369,0,0,1-.266-.353V97.805a6.6,6.6,0,0,0,.84-.689,6.466,6.466,0,0,0,1.979-4.678V90.767l.351-.7a5.607,5.607,0,0,0,.589-2.494V83.041a.879.879,0,0,0-.879-.879H47.844a5.584,5.584,0,0,0-5.578,5.578v.052a4.662,4.662,0,0,0,.49,2.074l.45.9V92.2a6.858,6.858,0,0,0,2.819,5.545v1.27c0,.2,0,.277-.726.484l-1.771.506-5.124-1.863a.878.878,0,0,0-.24-.673l-1.637-1.72V92.863c.173-.143.344-.289.509-.444a10.315,10.315,0,0,0,3.25-7.5V82.614a10.159,10.159,0,0,0,.94-4.272v-9.4a.879.879,0,0,0-.879-.879H27.192a8.406,8.406,0,0,0-8.4,8.4v1.88a10.159,10.159,0,0,0,.94,4.272V84.6a10.739,10.739,0,0,0,3.759,8.2v2.955l-1.637,1.72a.878.878,0,0,0-.24.673l-5.408,1.966a4.608,4.608,0,0,0-1.087.569l-.849-.425a6.713,6.713,0,0,0,3.367-2.725.879.879,0,0,0,0-.786c-.634-1.267-.71-3.59-.772-5.456-.021-.621-.04-1.208-.077-1.731a7.645,7.645,0,0,0-7.455-7.395,7.645,7.645,0,0,0-7.455,7.395c-.037.523-.057,1.11-.077,1.731-.062,1.866-.139,4.189-.772,5.456a.879.879,0,0,0,0,.786,6.712,6.712,0,0,0,3.37,2.723l-2.359,1.179A3.679,3.679,0,0,0,0,104.74v6.493a.879.879,0,0,0,1.758,0V104.74A1.93,1.93,0,0,1,2.83,103l2.937-1.468,1.022.971a3.7,3.7,0,0,0,5.1,0l1.022-.971.958.479a4.628,4.628,0,0,0-.707,2.454v6.765a.879.879,0,1,0,1.758,0v-6.765a2.889,2.889,0,0,1,1.9-2.707l5.7-2.073,2.373,3.56a1.812,1.812,0,0,0,1.334.8q.091.009.181.009a1.812,1.812,0,0,0,1.284-.533l1.448-1.448v9.155a.879.879,0,1,0,1.758,0v-9.155l1.448,1.448a1.811,1.811,0,0,0,1.284.533q.09,0,.181-.009a1.812,1.812,0,0,0,1.334-.8l2.374-3.56,5.7,2.073a2.889,2.889,0,0,1,1.9,2.707v6.765a.879.879,0,0,0,1.758,0v-6.765a4.646,4.646,0,0,0-1.3-3.216l.217-.062a4.821,4.821,0,0,0,.818-.3l2.244,2.244v8.094a.879.879,0,0,0,1.758,0V103.14l2.228-2.228a2.091,2.091,0,0,0,.374.148l3.63,1.037a1.949,1.949,0,0,1,1.407,1.866v7.271a.879.879,0,0,0,1.758,0v-7.271A3.714,3.714,0,0,0,57.318,100.407ZM5.638,98.854a6.318,6.318,0,0,1-2.821-1.811,9.688,9.688,0,0,0,.5-2.1A6.554,6.554,0,0,0,5.638,97.8Zm5.035,2.379a1.939,1.939,0,0,1-2.673,0l-.817-.777A1.819,1.819,0,0,0,7.4,99.6v-.937a6.536,6.536,0,0,0,3.881,0V99.6a1.819,1.819,0,0,0,.214.859ZM9.337,97.2a4.765,4.765,0,0,1-4.76-4.76.874.874,0,0,0-1.023-.866c0-.076.005-.151.008-.226.02-.6.038-1.175.073-1.665a6.525,6.525,0,0,1,1.777-4.1,5.461,5.461,0,0,1,7.849,0,6.525,6.525,0,0,1,1.777,4.1c.035.489.054,1.06.074,1.664l.005.157a7.9,7.9,0,0,0-4.341-3.172,11.031,11.031,0,0,0-3.343-.53.879.879,0,0,0-.608.268L5.239,89.714A.879.879,0,1,0,6.5,90.934l1.32-1.368c1.136.056,4.792.481,6.214,3.612A4.748,4.748,0,0,1,9.337,97.2Zm3.7,1.659V97.809a6.5,6.5,0,0,0,2.32-2.865,9.676,9.676,0,0,0,.5,2.1A6.349,6.349,0,0,1,13.035,98.857ZM21.493,84.6V82.418a.879.879,0,0,0-.087-.382,8.431,8.431,0,0,1-.852-3.694V76.463a6.647,6.647,0,0,1,6.639-6.639H39.469v8.519a8.431,8.431,0,0,1-.852,3.694.879.879,0,0,0-.087.382v2.5a8.438,8.438,0,0,1-2.694,6.216,8.746,8.746,0,0,1-.675.571l-.015.011a8.451,8.451,0,0,1-5.7,1.7A8.705,8.705,0,0,1,21.493,84.6Zm4.949,17.685a.055.055,0,0,1-.049.017.056.056,0,0,1-.045-.027l-2.733-4.1.88-.924,4.147,2.834Zm3.57-3.392-4.76-3.253V94a9.9,9.9,0,0,0,4.077,1.177q.348.022.692.022a10.181,10.181,0,0,0,4.751-1.164v1.605Zm3.664,3.383a.056.056,0,0,1-.045.027.054.054,0,0,1-.049-.017l-2.2-2.2,4.147-2.835.88.924Zm16.049-.742-1.995-1.994a2.411,2.411,0,0,0,.054-.522v-.371a6.163,6.163,0,0,0,1.74.308c.068,0,.135,0,.2,0a6.528,6.528,0,0,0,1.938-.293v.354a2.1,2.1,0,0,0,.064.512Zm3.314-5.678A4.724,4.724,0,0,1,49.577,97.2,4.92,4.92,0,0,1,44.964,92.2V90.559a.878.878,0,0,0-.093-.393l-.543-1.086a2.9,2.9,0,0,1-.3-1.288V87.74a3.824,3.824,0,0,1,3.82-3.82h7.579v3.65a3.84,3.84,0,0,1-.4,1.708l-.444.887a.878.878,0,0,0-.093.393v1.879A4.722,4.722,0,0,1,53.038,95.855Z" transform="translate(0 -68.066)" fill="#8ba1b2"/>
      </g>
    </g>
    <g id="Group_324" data-name="Group 324" transform="translate(54.529 104.778)">
      <g id="Group_323" data-name="Group 323">
        <path id="Path_434" data-name="Path 434" d="M465.795,380.814a.872.872,0,0,0-.872.872v5.591a.872.872,0,0,0,1.743,0v-5.591A.872.872,0,0,0,465.795,380.814Z" transform="translate(-464.923 -380.814)" fill="#8ba1b2"/>
      </g>
    </g>
    <g id="Group_326" data-name="Group 326" transform="translate(3.728 105.93)">
      <g id="Group_325" data-name="Group 325">
        <path id="Path_435" data-name="Path 435" d="M32.949,390.728a.872.872,0,0,0-.872.872v4.439a.872.872,0,1,0,1.743,0V391.6A.872.872,0,0,0,32.949,390.728Z" transform="translate(-32.077 -390.728)" fill="#8ba1b2"/>
      </g>
    </g>
    <g id="Group_328" data-name="Group 328" transform="translate(22.616 76.059)">
      <g id="Group_327" data-name="Group 327">
        <path id="Path_436" data-name="Path 436" d="M206.995,138.791c-3.3-3.3-10.193-2.666-13.006-2.242a1.789,1.789,0,0,0-1.529,1.783v2.008a.872.872,0,0,0,1.743,0v-2.008a.058.058,0,0,1,.046-.059,27.537,27.537,0,0,1,5.662-.277c2.718.181,4.687.863,5.851,2.028a.872.872,0,0,0,1.233-1.233Z" transform="translate(-192.46 -136.203)" fill="#8ba1b2"/>
      </g>
    </g>
    <g id="Group_330" data-name="Group 330" transform="translate(18.8 106.642)">
      <g id="Group_329" data-name="Group 329">
        <path id="Path_437" data-name="Path 437" d="M161.256,396.853a.872.872,0,0,0-.872.872v3.728a.872.872,0,0,0,1.743,0v-3.728A.872.872,0,0,0,161.256,396.853Z" transform="translate(-160.384 -396.853)" fill="#8ba1b2"/>
      </g>
    </g>
    <g id="Group_332" data-name="Group 332" transform="translate(39.479 106.642)">
      <g id="Group_331" data-name="Group 331">
        <path id="Path_438" data-name="Path 438" d="M337.678,396.853a.872.872,0,0,0-.872.872v3.728a.872.872,0,0,0,1.743,0v-3.728A.872.872,0,0,0,337.678,396.853Z" transform="translate(-336.806 -396.853)" fill="#8ba1b2"/>
      </g>
    </g>
  </g>
</svg>
