<svg id="_x31_" enable-background="new 0 0 24 24" height="512" viewBox="0 0 24 24" width="512" xmlns="http://www.w3.org/2000/svg"><g><path d="m8.5 17h-7c-.827 0-1.5-.673-1.5-1.5v-14c0-.827.673-1.5 1.5-1.5h15c.827 0 1.5.673 1.5 1.5v9c0 .276-.224.5-.5.5s-.5-.224-.5-.5v-9c0-.276-.225-.5-.5-.5h-15c-.275 0-.5.224-.5.5v14c0 .276.225.5.5.5h7c.276 0 .5.224.5.5s-.224.5-.5.5z"/></g><g><path d="m7.5 11c-.276 0-.5-.224-.5-.5v-3.5c0-.551-.448-1-1-1s-1 .449-1 1v3.5c0 .276-.224.5-.5.5s-.5-.224-.5-.5v-3.5c0-1.103.897-2 2-2s2 .897 2 2v3.5c0 .276-.224.5-.5.5z"/></g><g><path d="m7.5 9h-3c-.276 0-.5-.224-.5-.5s.224-.5.5-.5h3c.276 0 .5.224.5.5s-.224.5-.5.5z"/></g><g><path d="m11.5 11h-1c-.276 0-.5-.224-.5-.5v-5c0-.276.224-.5.5-.5h1c1.379 0 2.5 1.122 2.5 2.5v1c0 1.378-1.121 2.5-2.5 2.5zm-.5-1h.5c.827 0 1.5-.673 1.5-1.5v-1c0-.827-.673-1.5-1.5-1.5h-.5z"/></g><g><path d="m18.086 17.367c-.128 0-.256-.049-.354-.146l-2.121-2.121c-.195-.196-.513-.194-.708 0-.194.195-.194.512 0 .708.195.195.195.512 0 .707-.195.194-.512.195-.707-.001-.584-.584-.584-1.536 0-2.12.582-.586 1.536-.586 2.122 0l2.121 2.121c.195.195.195.512 0 .707-.097.096-.225.145-.353.145z"/></g><g><path d="m19.5 15.953c-.128 0-.256-.049-.354-.146l-1.414-1.414c-.195-.195-.512-.195-.707 0s-.195.512 0 .707.195.512 0 .707-.512.195-.707 0c-.585-.585-.585-1.536 0-2.121.584-.585 1.537-.585 2.121 0l1.414 1.414c.195.195.195.512 0 .707-.097.097-.225.146-.353.146z"/></g><g><path d="m18.273 23.999c-.368 0-.739-.045-1.104-.138l-3.486-.889c-.13-.033-.241-.117-.309-.232-.238-.408-.484-1.384.291-2.159.344-.344.808-.478 1.26-.508l-4.265-4.265c-.283-.283-.439-.66-.439-1.061s.156-.777.439-1.061c.584-.585 1.537-.585 2.121 0l4.243 4.243c.195.195.195.512 0 .707s-.512.195-.707 0l-4.243-4.243c-.195-.194-.512-.195-.707 0s-.195.512 0 .707l5.304 5.303c.164.164.193.418.072.615-.122.197-.361.285-.583.213-.426-.141-1.424-.311-1.788.056-.28.28-.257.59-.204.776l3.249.829c1.185.304 2.47-.047 3.339-.917l1.218-1.218c.662-.662 1.026-1.541 1.026-2.476s-.364-1.813-1.025-2.475l-2.121-2.122c-.195-.194-.512-.195-.707 0-.095.095-.147.22-.147.354s.053.259.147.353c.195.195.195.512 0 .708-.195.195-.512.195-.707 0-.284-.284-.44-.661-.44-1.061s.156-.777.44-1.061c.584-.584 1.535-.584 2.121 0l2.121 2.122c.85.85 1.318 1.981 1.318 3.182 0 1.202-.468 2.333-1.318 3.182l-1.218 1.218c-.852.853-2.01 1.318-3.191 1.318z"/></g></svg>