<svg xmlns="http://www.w3.org/2000/svg" width="60" height="57.928" viewBox="0 0 60 57.928">
  <path id="marketing" d="M48.519,28.436a6.206,6.206,0,0,0-6.125-10.608l-3.875-6.712a4.186,4.186,0,0,0-7.167-.141A61.578,61.578,0,0,1,12.7,29.844a1,1,0,0,0-.334,1.317c.041.075,6.459,11.19,6.5,11.264a1,1,0,1,0,1.732-1L14.58,31A63.546,63.546,0,0,0,33.045,12.043a2.186,2.186,0,0,1,3.742.074L50.662,36.149a2.186,2.186,0,0,1-1.807,3.278,63.58,63.58,0,0,0-26.5,6.939c-.035.018-9.392,5.421-10.037,5.793a3.506,3.506,0,0,1-4.785-1.282L2.468,42.1A3.506,3.506,0,0,1,3.75,37.318l6.1-3.52a1,1,0,0,0-1-1.732l-6.1,3.52A5.509,5.509,0,0,0,.736,43.1L5.8,51.876a5.509,5.509,0,0,0,7.517,2.014l.231-.133L19.8,64.589a3.25,3.25,0,0,0,4.441,1.19l2.193-1.266a3.249,3.249,0,0,0,1.19-4.441L23.2,52.395a1,1,0,1,0-1.732,1L25.9,61.072a1.25,1.25,0,0,1-.458,1.709l-2.193,1.266a1.251,1.251,0,0,1-1.709-.458L15.281,52.757l8.007-4.623a61.576,61.576,0,0,1,25.644-6.709,4.186,4.186,0,0,0,3.461-6.277Zm-.286-6.907A4.213,4.213,0,0,1,47.5,26.67l-4.086-7.077A4.2,4.2,0,0,1,48.233,21.53Zm9.781-4.446-2.587,1.494a1,1,0,1,1-1-1.732l2.587-1.494a1,1,0,0,1,1,1.732Zm-11.128-5.7.631-2.355a1,1,0,1,1,1.932.518L48.819,11.9a1,1,0,1,1-1.932-.518ZM59.966,27.762A1,1,0,0,1,59,28.5a16.409,16.409,0,0,1-2.614-.665,1,1,0,0,1,.518-1.932l2.355.631a1,1,0,0,1,.707,1.225Z" transform="translate(0 -8.288)" fill="#8ba1b2" opacity="0.8"/>
</svg>
