<svg xmlns="http://www.w3.org/2000/svg" width="30.254" height="30.205" viewBox="0 0 30.254 30.205">
  <g id="_002-museum" data-name="002-museum" transform="translate(0.1 0.105)">
    <path id="Path_374" data-name="Path 374" d="M15.028,2.459A1.761,1.761,0,1,0,16.789,4.22,1.763,1.763,0,0,0,15.028,2.459Zm0,2.641a.88.88,0,1,1,.88-.88A.881.881,0,0,1,15.028,5.1ZM30.054,7.177a.443.443,0,0,0-.27-.4L15.438.543a1.03,1.03,0,0,0-.821,0L.271,6.778A.445.445,0,0,0,0,7.19V8.629a1.616,1.616,0,0,0,1.614,1.614h.347a1.669,1.669,0,0,0,1.855,2.42V25.214a.949.949,0,0,0-1.115.91v.834H1.615A1.616,1.616,0,0,0,0,28.573v1.152a.735.735,0,0,0,.734.734H29.321a.735.735,0,0,0,.734-.734V28.573a1.616,1.616,0,0,0-1.614-1.614H27.354v-.834a.945.945,0,0,0-1.115-.91V12.663a1.671,1.671,0,0,0,1.855-2.42h.347a1.616,1.616,0,0,0,1.614-1.614V7.19s0,0,0-.013ZM3.435,11.828a.792.792,0,0,1,0-1.585H8.191a.792.792,0,1,1-.778.948.44.44,0,1,0-.864.17,1.66,1.66,0,0,0,.378.771v7.6a.44.44,0,0,0,.88,0V12.663a1.671,1.671,0,0,0,1.855-2.42h1.515a1.669,1.669,0,0,0,1.855,2.42V25.214a.949.949,0,0,0-1.115.91v.834H8.923v-.834a.946.946,0,0,0-1.115-.91V21.787a.44.44,0,1,0-.88,0v3.427H4.7V12.133a1.659,1.659,0,0,0,.378-.771.44.44,0,1,0-.864-.17.792.792,0,0,1-.777.636Zm15.443-1.585h1.515a1.669,1.669,0,0,0,1.855,2.42V25.214a.949.949,0,0,0-1.115.91v.834H18.139v-.834a.946.946,0,0,0-1.115-.91V12.663a1.671,1.671,0,0,0,1.854-2.42Zm-1.62,15.88v.834H12.8v-.834a.029.029,0,0,1,.029-.029h4.4A.029.029,0,0,1,17.258,26.124Zm.147-14.3a.792.792,0,0,1-.777-.636.44.44,0,0,0-.864.17,1.66,1.66,0,0,0,.378.771V25.214H13.912V12.133a1.659,1.659,0,0,0,.378-.771.44.44,0,1,0-.864-.17.792.792,0,1,1-.778-.948h4.758a.792.792,0,0,1,0,1.585ZM3.581,26.124a.029.029,0,0,1,.029-.029h4.4a.029.029,0,0,1,.029.029v.834H3.581ZM28.44,27.839a.735.735,0,0,1,.734.734v1.005H.881V28.573a.735.735,0,0,1,.734-.734Zm-2-1.744a.029.029,0,0,1,.029.029v.834H22.013v-.834a.029.029,0,0,1,.029-.029Zm.176-14.266a.792.792,0,0,1-.777-.636.44.44,0,0,0-.864.17,1.66,1.66,0,0,0,.378.771V25.214H23.128V12.133a1.659,1.659,0,0,0,.378-.771.44.44,0,1,0-.864-.17.792.792,0,1,1-.778-.948h4.758a.792.792,0,0,1,0,1.585Zm2.553-3.2a.735.735,0,0,1-.734.734H1.615a.735.735,0,0,1-.734-.734V7.624H21.437a.44.44,0,1,0,0-.88H2.559l12.41-5.393a.147.147,0,0,1,.118,0L27.5,6.744H23.491a.44.44,0,1,0,0,.88h5.683V8.629Z" transform="translate(-0.001 -0.458)" fill="#8ba1b2" stroke="#fff" stroke-width="0.2"/>
  </g>
</svg>
