<svg xmlns="http://www.w3.org/2000/svg" width="53.985" height="35.99" viewBox="0 0 53.985 35.99">
  <g id="mail_3_" data-name="mail (3)" transform="translate(0 -85.333)">
    <g id="Group_553" data-name="Group 553" transform="translate(0 85.333)">
      <path id="Path_706" data-name="Path 706" d="M51.217,85.333H2.769A2.777,2.777,0,0,0,0,88.1v30.453a2.777,2.777,0,0,0,2.769,2.769H51.217a2.777,2.777,0,0,0,2.769-2.769V88.1A2.777,2.777,0,0,0,51.217,85.333Zm-1.039,2.076L28.585,103.6a2.894,2.894,0,0,1-3.185,0L3.807,87.409ZM38.644,104.674,50.41,119.208c.012.015.026.026.039.039H3.537c.012-.014.027-.024.039-.039l11.766-14.535a1.038,1.038,0,0,0-1.614-1.307L2.076,117.759V88.707l22.078,16.559a4.956,4.956,0,0,0,5.675,0L51.909,88.707v29.052L40.258,103.367a1.038,1.038,0,0,0-1.614,1.307Z" transform="translate(0 -85.333)" fill="#35a85e"/>
    </g>
  </g>
</svg>
