<svg xmlns="http://www.w3.org/2000/svg" width="16" height="16" viewBox="0 0 16 16">
  <path id="Path_111" data-name="Path 111" d="M14.927,3.984a7.966,7.966,0,0,0-2.911-2.911A7.825,7.825,0,0,0,8,0,7.825,7.825,0,0,0,3.985,1.073,7.964,7.964,0,0,0,1.073,3.984,7.825,7.825,0,0,0,0,8a7.827,7.827,0,0,0,1.073,4.016,7.966,7.966,0,0,0,2.911,2.911A7.826,7.826,0,0,0,8,16a7.826,7.826,0,0,0,4.016-1.073,7.964,7.964,0,0,0,2.911-2.911A7.827,7.827,0,0,0,16,8,7.827,7.827,0,0,0,14.927,3.984ZM13.2,8.469l-.948.948L8.479,13.187a.679.679,0,0,1-.938,0l-.948-.948a.654.654,0,0,1,0-.937L8.563,9.333H3.333a.676.676,0,0,1-.667-.667V7.333a.676.676,0,0,1,.667-.667H8.563L6.594,4.7a.68.68,0,0,1,0-.938l.948-.948a.68.68,0,0,1,.938,0L12.25,6.583l.948.948a.679.679,0,0,1,0,.937Z"/>
</svg>
