<svg xmlns="http://www.w3.org/2000/svg" width="42.147" height="57.81" viewBox="0 0 42.147 57.81">
  <g id="excel" transform="translate(-69.355)">
    <g id="Group_433" data-name="Group 433" transform="translate(69.355)">
      <g id="Group_432" data-name="Group 432" transform="translate(0)">
        <path id="Path_571" data-name="Path 571" d="M111.166,10.3,101.2.337A1.152,1.152,0,0,0,100.39,0H70.507a1.152,1.152,0,0,0-1.152,1.152V56.658a1.152,1.152,0,0,0,1.152,1.152h39.845a1.152,1.152,0,0,0,1.152-1.152V11.113A1.152,1.152,0,0,0,111.166,10.3Zm-9.624-6.367,6.029,6.029h-6.029ZM109.2,55.506H71.658V2.3h27.58v8.81a1.152,1.152,0,0,0,1.152,1.152h8.81Z" transform="translate(-69.355)"/>
      </g>
    </g>
    <g id="Group_439" data-name="Group 439" transform="translate(75.343 17.274)">
      <g id="Group_438" data-name="Group 438" transform="translate(0)">
        <path id="Path_574" data-name="Path 574" d="M143.754,165.425l8.551-10.561a1.152,1.152,0,0,0-.9-1.876h-9.592a1.151,1.151,0,0,0-.895.427l-3.447,4.257-3.447-4.257a1.151,1.151,0,0,0-.895-.427h-9.592a1.152,1.152,0,0,0-.9,1.876l8.551,10.561-8.551,10.561a1.152,1.152,0,0,0,.9,1.876h9.592a1.151,1.151,0,0,0,.895-.427l3.447-4.257,3.447,4.257a1.151,1.151,0,0,0,.895.427h9.592a1.152,1.152,0,0,0,.895-1.876Zm-1.386-10.134H149l-6.724,8.3-3.314-4.093Zm-9.783,20.268h-6.628l6.724-8.3,3.314,4.093Zm9.783,0-16.412-20.268h6.628L149,175.559Z" transform="translate(-122.39 -152.988)"/>
      </g>
    </g>
  </g>
</svg>
