<svg xmlns="http://www.w3.org/2000/svg" xmlns:xlink="http://www.w3.org/1999/xlink" width="61" height="30.327" viewBox="0 0 61 30.327">
  <defs>
    <clipPath id="clip-path">
      <path id="Path_349" data-name="Path 349" d="M161.65,144.912a8.481,8.481,0,0,0-1.6,1.525l.325.313a5.649,5.649,0,0,1,.829-.731,1.047,1.047,0,0,1,.568-.216.294.294,0,0,1,.238.125.483.483,0,0,1,.1.316,3.779,3.779,0,0,1-.238.925q-.243.7-.94,2.464c-.084.2-.2.5-.34.882a11.232,11.232,0,0,0-.892,2.914.835.835,0,0,0,.27.666,1.124,1.124,0,0,0,.765.238,2.949,2.949,0,0,0,1.753-.812,12.427,12.427,0,0,0,2.076-2.318l-.342-.311a8.656,8.656,0,0,1-1.319,1.4,1.768,1.768,0,0,1-1,.505.451.451,0,0,1-.328-.11.432.432,0,0,1-.114-.328,3.685,3.685,0,0,1,.234-.969c.156-.466.4-1.094.725-1.891.1-.257.246-.622.439-1.087a11.629,11.629,0,0,0,1.01-3.161.8.8,0,0,0-.241-.609.9.9,0,0,0-.641-.232,2.394,2.394,0,0,0-1.336.5m2.012-6.288a1,1,0,0,0-.107.1.929.929,0,0,0-.283.683.94.94,0,0,0,.285.67.909.909,0,0,0,.665.3.941.941,0,0,0,.682-.29.987.987,0,0,0,.135-.153v-1.05a.993.993,0,0,0-.128-.148,1.007,1.007,0,0,0-.117-.1Z" transform="translate(-159.701 -138.624)" fill="none"/>
    </clipPath>
    <linearGradient id="linear-gradient" x1="-7.134" y1="1.255" x2="-6.945" y2="1.255" gradientUnits="objectBoundingBox">
      <stop offset="0" stop-color="#00488d"/>
      <stop offset="0.137" stop-color="#00488d"/>
      <stop offset="0.637" stop-color="#004d99"/>
      <stop offset="1" stop-color="#004d99"/>
    </linearGradient>
    <clipPath id="clip-path-2">
      <path id="Path_351" data-name="Path 351" d="M225.087,149.473a.926.926,0,0,1-.29-.722,4.25,4.25,0,0,1,.581-1.759,10.751,10.751,0,0,1,1.517-2.2,14.477,14.477,0,0,1,2.149-2.127,2.935,2.935,0,0,1,1.612-.747,1.049,1.049,0,0,1,.756.283.992.992,0,0,1,.3.741,5.33,5.33,0,0,1-.861,2.377,12.872,12.872,0,0,1-2.174,2.8,7.815,7.815,0,0,1-1.535,1.208,2.7,2.7,0,0,1-1.29.417,1.068,1.068,0,0,1-.763-.267m2.252-15.811-1.576.25-.088.492a2.9,2.9,0,0,1,1.135.249.616.616,0,0,1,.275.571,2.145,2.145,0,0,1-.048.41c-.033.164-.089.411-.169.731l-2.048,7.4c-.263.951-.594,2.038-1.008,3.27a12.543,12.543,0,0,0-.615,2.179,1.351,1.351,0,0,0,.511,1.114,2.125,2.125,0,0,0,1.383.413,6,6,0,0,0,2.735-.856,12.993,12.993,0,0,0,3.006-2.275,10.349,10.349,0,0,0,1.856-2.4,6.57,6.57,0,0,0,.318-.686v-2.824a1.966,1.966,0,0,0-.22-.289,1.9,1.9,0,0,0-1.45-.581,3.949,3.949,0,0,0-2.351,1.042,23.466,23.466,0,0,0-3.263,3.47l3.494-11.675Z" transform="translate(-223.197 -133.662)" fill="none"/>
    </clipPath>
    <linearGradient id="linear-gradient-2" x1="-5.528" y1="1.31" x2="-5.425" y2="1.31" xlink:href="#linear-gradient"/>
  </defs>
  <g id="Group_293" data-name="Group 293" transform="translate(-34.286 -85.021)">
    <rect id="Rectangle_213" data-name="Rectangle 213" width="30.328" height="30.327" transform="translate(34.286 85.021)" fill="#004b9d"/>
    <path id="Path_344" data-name="Path 344" d="M43.609,91.735l-2.59,2.59,7.053,6.981-4.317.72v2.158h9.707V94.434H51.406L50.9,98.571Z" transform="translate(-4.92 -4.906)" fill="#fff"/>
    <path id="Path_345" data-name="Path 345" d="M43.609,157.132l-2.59-2.588,7.053-6.981-4.317-.721v-2.159h9.707v9.751H51.406L50.9,150.3Z" transform="translate(-4.92 -43.596)" fill="#fff"/>
    <path id="Path_346" data-name="Path 346" d="M103.82,91.735l2.59,2.59-7.054,6.98,4.317.72v2.159H93.966V94.434h2.055l.5,4.137Z" transform="translate(-43.61 -4.906)" fill="#fff"/>
    <path id="Path_347" data-name="Path 347" d="M103.82,157.132l2.59-2.588-7.054-6.981,4.317-.721v-2.159H93.966v9.751h2.055l.5-4.138Z" transform="translate(-43.61 -43.596)" fill="#fff"/>
    <g id="Group_287" data-name="Group 287" transform="translate(68.058 99.265)">
      <path id="Path_348" data-name="Path 348" d="M163.554,138.2a.932.932,0,0,0-.282.683.943.943,0,0,0,.285.67.915.915,0,0,0,.666.3.944.944,0,0,0,.681-.29.9.9,0,0,0,.3-.675.918.918,0,0,0-.3-.678.944.944,0,0,0-.688-.292.9.9,0,0,0-.669.287m-1.9,6.191a8.431,8.431,0,0,0-1.6,1.526l.324.313a5.734,5.734,0,0,1,.828-.731,1.043,1.043,0,0,1,.57-.217.3.3,0,0,1,.237.125.488.488,0,0,1,.1.316,3.726,3.726,0,0,1-.24.924q-.242.7-.939,2.465c-.084.205-.2.5-.34.881a11.283,11.283,0,0,0-.892,2.915.835.835,0,0,0,.27.665,1.123,1.123,0,0,0,.764.239,2.948,2.948,0,0,0,1.754-.813,12.409,12.409,0,0,0,2.075-2.318l-.341-.312a8.691,8.691,0,0,1-1.32,1.4,1.774,1.774,0,0,1-1,.507.452.452,0,0,1-.329-.11.434.434,0,0,1-.116-.328,3.669,3.669,0,0,1,.236-.969c.155-.466.4-1.095.724-1.891.1-.257.247-.622.439-1.087a11.638,11.638,0,0,0,1.01-3.161.8.8,0,0,0-.241-.609.893.893,0,0,0-.641-.232,2.392,2.392,0,0,0-1.336.5" transform="translate(-159.701 -137.917)" fill="#004d9f"/>
    </g>
    <g id="Group_289" data-name="Group 289" transform="translate(68.058 99.455)">
      <g id="Group_288" data-name="Group 288" transform="translate(0 0)" clip-path="url(#clip-path)">
        <rect id="Rectangle_214" data-name="Rectangle 214" width="5.339" height="15.709" transform="translate(0 0)" fill="url(#linear-gradient)"/>
      </g>
    </g>
    <g id="Group_290" data-name="Group 290" transform="translate(85.156 97.806)">
      <path id="Path_350" data-name="Path 350" d="M225.763,133.063l-.088.492a2.9,2.9,0,0,1,1.135.248.618.618,0,0,1,.277.571,2.155,2.155,0,0,1-.05.411c-.034.165-.089.41-.168.731l-2.05,7.4c-.262.949-.593,2.038-1.007,3.269a12.514,12.514,0,0,0-.615,2.181,1.357,1.357,0,0,0,.511,1.114,2.131,2.131,0,0,0,1.383.411,5.99,5.99,0,0,0,2.735-.856,12.993,12.993,0,0,0,3.006-2.275,10.29,10.29,0,0,0,1.855-2.4,4.811,4.811,0,0,0,.641-2.239,2.2,2.2,0,0,0-.542-1.559,1.9,1.9,0,0,0-1.449-.582,3.956,3.956,0,0,0-2.353,1.043,23.529,23.529,0,0,0-3.262,3.47l3.587-11.989Zm-.676,15.56a.925.925,0,0,1-.29-.721,4.251,4.251,0,0,1,.581-1.759,10.8,10.8,0,0,1,1.516-2.2,14.368,14.368,0,0,1,2.15-2.126,2.928,2.928,0,0,1,1.612-.748,1.046,1.046,0,0,1,.756.284.99.99,0,0,1,.3.741,5.331,5.331,0,0,1-.861,2.376,12.9,12.9,0,0,1-2.174,2.8,7.878,7.878,0,0,1-1.535,1.208,2.705,2.705,0,0,1-1.29.417,1.07,1.07,0,0,1-.763-.267" transform="translate(-223.197 -132.5)" fill="#004d9f"/>
    </g>
    <g id="Group_292" data-name="Group 292" transform="translate(85.156 98.119)">
      <g id="Group_291" data-name="Group 291" transform="translate(0 0)" clip-path="url(#clip-path-2)">
        <rect id="Rectangle_215" data-name="Rectangle 215" width="9.808" height="17.078" transform="translate(0 0)" fill="url(#linear-gradient-2)"/>
      </g>
    </g>
    <path id="Path_352" data-name="Path 352" d="M183.16,156.655v-.676a33.509,33.509,0,0,0,5.624-5.576,7.7,7.7,0,0,0,1.8-4.437,2.74,2.74,0,0,0-.627-1.944,2.415,2.415,0,0,0-1.834-.659,3.268,3.268,0,0,0-1.576.415,5.961,5.961,0,0,0-1.533,1.271l-.463-.377a7.353,7.353,0,0,1,2.134-2.112,4.556,4.556,0,0,1,2.422-.711,3.256,3.256,0,0,1,2.431.936,3.434,3.434,0,0,1,.913,2.5,6.873,6.873,0,0,1-1.475,3.983,39.377,39.377,0,0,1-5.811,5.809h6.475l-.861,1.582Z" transform="translate(-108.785 -41.525)" fill="#e95d15"/>
    <path id="Path_353" data-name="Path 353" d="M82.829,129.051a4.764,4.764,0,0,1-.088.9,4.53,4.53,0,0,1-3.536,3.536,4.665,4.665,0,0,1-1.818,0,4.531,4.531,0,0,1-3.537-3.536,4.809,4.809,0,0,1-.088-.9,4.911,4.911,0,0,1,.088-.909,4.558,4.558,0,0,1,3.537-3.536,4.693,4.693,0,0,1,1.818,0,4.559,4.559,0,0,1,3.536,3.536,4.866,4.866,0,0,1,.088.909" transform="translate(-28.846 -28.861)" fill="#e95d15"/>
    <path id="Path_354" data-name="Path 354" d="M89.042,124.606v8.879a4.693,4.693,0,0,1-1.818,0v-8.879a4.693,4.693,0,0,1,1.818,0" transform="translate(-38.683 -28.861)" fill="#fff"/>
    <path id="Path_355" data-name="Path 355" d="M82.829,138.888a4.764,4.764,0,0,1-.088.9H73.85a4.809,4.809,0,0,1-.088-.9,4.911,4.911,0,0,1,.088-.909h8.891a4.866,4.866,0,0,1,.088.909" transform="translate(-28.846 -38.698)" fill="#fff"/>
  </g>
</svg>
