<svg xmlns="http://www.w3.org/2000/svg" width="58.5" height="48.103" viewBox="0 0 58.5 48.103">
  <g id="link" transform="translate(0.001 -42.421)">
    <g id="Group_571" data-name="Group 571" transform="translate(22.407 42.421)">
      <g id="Group_570" data-name="Group 570" transform="translate(0 0)">
        <path id="Path_725" data-name="Path 725" d="M215.74,45.635a10.963,10.963,0,0,0-7.758-3.214h0a10.9,10.9,0,0,0-7.753,3.21L186.066,59.794a10.981,10.981,0,0,0-2.8,10.725,2.091,2.091,0,0,0,4.026-1.136,6.8,6.8,0,0,1,1.734-6.632L203.186,48.59a6.781,6.781,0,0,1,9.591,9.589L198.614,72.342a6.759,6.759,0,0,1-3.392,1.838,2.091,2.091,0,0,0,.433,4.139,2.069,2.069,0,0,0,.435-.046,10.931,10.931,0,0,0,5.481-2.974l14.163-14.161A10.963,10.963,0,0,0,215.74,45.635Z" transform="translate(-182.855 -42.421)" fill="#ffb400"/>
      </g>
    </g>
    <g id="Group_573" data-name="Group 573" transform="translate(-0.001 54.679)">
      <g id="Group_572" data-name="Group 572">
        <path id="Path_726" data-name="Path 726" d="M35.622,150.257a2.091,2.091,0,0,0-4.026,1.136,6.8,6.8,0,0,1-1.734,6.632L15.7,172.187A6.781,6.781,0,0,1,6.109,162.6l14.163-14.165a6.75,6.75,0,0,1,3.388-1.838,2.091,2.091,0,1,0-.82-4.1l-.041.009a10.948,10.948,0,0,0-5.484,2.974L3.152,159.639a10.965,10.965,0,0,0,15.505,15.507L32.82,160.981A10.981,10.981,0,0,0,35.622,150.257Z" transform="translate(0.001 -142.452)" fill="#ffb400"/>
      </g>
    </g>
  </g>
</svg>
