<?xml version="1.0" encoding="utf-8"?>
<!-- Generator: Adobe Illustrator 25.2.3, SVG Export Plug-In . SVG Version: 6.00 Build 0)  -->
<svg version="1.1" id="Calque_1" xmlns="http://www.w3.org/2000/svg" xmlns:xlink="http://www.w3.org/1999/xlink" x="0px" y="0px"
	 viewBox="0 0 1920 1080" style="enable-background:new 0 0 1920 1080;" xml:space="preserve">
<style type="text/css">
	.st0{fill:#DC4E40;}
	.st1{fill:#0DA463;}
	.st2{fill:#4D7CBE;}
	.st3{fill:none;stroke:#3883C5;stroke-width:0.25;stroke-miterlimit:10;}
	.st4{fill:#F0B023;}
	.st5{fill:none;stroke:#DC4E40;stroke-width:0.25;stroke-miterlimit:10;}
	.st6{fill:#767A7C;}
</style>
<g>
	<g>
		<path class="st0" d="M198.74,461.93c-36.73,27.3-91.32,24.67-125.51,59.26v55.96c41.96,25.85,84.03,51.39,125.51,77.91V461.93z"/>
		<path class="st1" d="M371.27,251.6c-24.98,9.62-49.16,21.85-72.77,36.62c-8.94,5.64-14.47,7.97-8.84,20.21
			c12.62,27.6,3.41,60.53,27.21,92c-30.9-4.46-52.76,2.34-71.12,15.54v243.65c45.85-12.72,87.63-28.27,125.52-45.46L371.27,251.6
			L371.27,251.6z"/>
		<path class="st1" d="M371.27,778.82V663.99c-38.09,14.57-75.68,24.67-111.53,31.28C298.01,721.5,335.43,749,371.27,778.82"/>
		<path class="st2" d="M418.29,815.06c16.42,8.84,34.01,16.32,45.56,37.11c5.83,10.39,52.65,3.4,79.96-15.16V561.5
			c-40.42,34.88-82.86,61.7-125.51,82.38L418.29,815.06L418.29,815.06z"/>
		<path class="st3" d="M418.29,815.06c16.42,8.84,34.01,16.32,45.56,37.11c5.83,10.39,52.65,3.4,79.96-15.16V561.5
			c-40.42,34.88-82.86,61.7-125.51,82.38L418.29,815.06L418.29,815.06z"/>
		<path class="st2" d="M543.8,228.87c-9.33,1.07-18.75,1.65-28.08,0.97c-34-2.43-66.35,0.29-97.44,7.38v353.62
			c49.25-26.52,90.92-55.67,125.51-84.52L543.8,228.87L543.8,228.87z"/>
		<path class="st3" d="M543.8,228.87c-9.33,1.07-18.75,1.65-28.08,0.97c-34-2.43-66.35,0.29-97.44,7.38v353.62
			c49.25-26.52,90.92-55.67,125.51-84.52L543.8,228.87L543.8,228.87z"/>
		<path class="st4" d="M623.76,379.64c-9.62-12.54-33.42-30.49-22.93-41c33.41-33.42,13.98-76.07,27.59-111.52
			c-12.54-3.89-25.16-4.57-37.7-3.89v240.45c20.4-20.21,37.11-39.45,50.81-56.64C636.48,397.81,630.56,388.58,623.76,379.64"/>
		<path class="st4" d="M703.52,665.45c-29.33-11.56-37.5-33.42-34.49-65.57c5.33-56.54,5.74-112.5-14.18-164.57
			c-20.11,30.11-41.58,56.94-63.93,80.92v283.49c37.7-27.21,78.11-50.14,117.06-75.4c11.37-7.38,32.45-9.62,28.86-30.79
			C733.82,675.85,718.48,671.47,703.52,665.45"/>
		<path class="st0" d="M737.13,293.28c0,0-33.62,70.14-87.24,81.21c0,0,15.35,3.21,35.16,0c0,0-163.79,340.9-655.16,351.96
			C29.89,726.47,545.83,853.14,737.13,293.28"/>
		<path class="st5" d="M737.13,293.28c0,0-33.62,70.14-87.24,81.21c0,0,15.35,3.21,35.16,0c0,0-163.79,340.9-655.16,351.96
			C29.89,726.47,545.83,853.14,737.13,293.28"/>
		<path class="st6" d="M1674.71,744.24v15.74h0.11c0.29-0.38,0.68-0.78,1.06-1.16c0.39-0.39,0.98-0.78,1.56-1.16
			c0.58-0.39,1.36-0.58,2.14-0.88c0.78-0.2,1.74-0.38,2.72-0.38c1.55,0,3.01,0.29,4.37,0.87c1.36,0.58,2.52,1.46,3.5,2.53
			c0.97,1.07,1.74,2.34,2.23,3.7c0.49,1.46,0.78,3.01,0.78,4.66c0,1.65-0.29,3.21-0.78,4.66c-0.49,1.46-1.26,2.72-2.23,3.79
			c-0.98,1.07-2.14,1.94-3.5,2.52c-1.36,0.68-2.92,0.98-4.57,0.98c-1.56,0-3.1-0.39-4.46-1.08c-1.36-0.68-2.43-1.64-3.21-3h-0.1v3.4
			h-5.34v-35.26h5.74L1674.71,744.24L1674.71,744.24z M1687.53,768.23c0-0.87-0.1-1.74-0.39-2.61c-0.28-0.88-0.68-1.66-1.16-2.34
			c-0.48-0.69-1.16-1.26-2.04-1.65c-0.78-0.39-1.74-0.58-2.82-0.58s-1.95,0.19-2.72,0.68c-0.78,0.49-1.46,0.98-2.05,1.65
			c-0.58,0.69-0.97,1.47-1.25,2.34c-0.29,0.87-0.49,1.74-0.49,2.62c0,0.87,0.2,1.74,0.49,2.61c0.29,0.87,0.77,1.65,1.25,2.34
			c0.59,0.68,1.26,1.25,2.05,1.65c0.77,0.38,1.74,0.58,2.72,0.58c1.07,0,2.04-0.2,2.82-0.68c0.78-0.39,1.46-0.98,2.04-1.66
			c0.49-0.67,0.98-1.46,1.16-2.33C1687.43,769.98,1687.53,769.1,1687.53,768.23"/>
		<path class="st6" d="M1695.3,757.16h6.22l6.22,16.32h0.1l5.54-16.32h5.82l-10.59,27.2c-0.38,1.07-0.86,1.94-1.25,2.72
			c-0.49,0.78-1.07,1.47-1.65,2.05c-0.68,0.58-1.46,0.97-2.34,1.26c-0.87,0.28-1.94,0.38-3.2,0.38c-0.49,0-0.98,0-1.47-0.11
			c-0.48-0.1-0.97-0.1-1.46-0.28l0.49-4.86c0.38,0.1,0.78,0.19,1.07,0.29c0.38,0,0.68,0.1,0.97,0.1c0.59,0,1.07-0.1,1.47-0.2
			c0.38-0.1,0.77-0.38,1.07-0.67c0.29-0.29,0.48-0.69,0.78-1.07c0.19-0.49,0.48-0.98,0.68-1.56l1.16-2.82L1695.3,757.16z"/>
		<path class="st6" d="M1733.58,749.58c0-0.87,0.29-1.65,0.97-2.34c0.69-0.68,1.56-0.97,2.53-0.97c1.07,0,1.85,0.29,2.61,0.97
			c0.69,0.69,1.07,1.47,1.07,2.44c0,0.97-0.38,1.74-1.07,2.42c-0.68,0.69-1.55,0.98-2.61,0.98c-1.07,0-1.85-0.29-2.53-0.98
			C1733.86,751.23,1733.58,750.46,1733.58,749.58 M1734.35,757.16h5.64v22.44h-5.64V757.16z"/>
		<path class="st6" d="M1746.59,774.46l12.72-12.54c1.08-0.97,1.85-2.04,2.44-3.01c0.58-0.98,0.86-2.14,0.86-3.5
			c0-1.55-0.48-2.82-1.55-3.69c-0.98-0.88-2.23-1.36-3.79-1.36c-1.55,0-2.82,0.48-3.79,1.65c-0.97,1.07-1.55,2.43-1.74,4.07
			l-5.44-0.87c0.2-1.35,0.58-2.61,1.16-3.79c0.58-1.16,1.47-2.13,2.34-3c0.97-0.88,2.14-1.47,3.4-1.94
			c1.26-0.49,2.72-0.69,4.18-0.69c1.47,0,2.83,0.2,4.19,0.58s2.53,0.98,3.5,1.85c1.07,0.78,1.85,1.84,2.43,3.01
			c0.58,1.16,0.87,2.62,0.87,4.18c0,1.07-0.1,2.05-0.39,2.92c-0.29,0.87-0.68,1.74-1.16,2.62c-0.49,0.77-1.07,1.55-1.65,2.33
			c-0.68,0.78-1.36,1.46-2.04,2.14l-9.52,9.13h14.86v5.15h-21.95v-5.25L1746.59,774.46L1746.59,774.46z"/>
		<path class="st6" d="M1775.54,746.57h12.93c1.26,0,2.43,0.2,3.69,0.49c1.16,0.29,2.34,0.78,3.21,1.46
			c0.98,0.69,1.75,1.56,2.34,2.62c0.58,1.07,0.87,2.34,0.87,3.79c0,1.85-0.49,3.4-1.56,4.66c-1.07,1.16-2.43,2.04-4.18,2.61v0.11
			c2.04,0.29,3.79,1.07,5.15,2.43s2.04,3.1,2.04,5.33c0,1.85-0.38,3.3-1.06,4.57c-0.69,1.26-1.66,2.23-2.83,2.92
			c-1.16,0.78-2.52,1.25-3.98,1.65c-1.46,0.29-3,0.49-4.56,0.49h-11.95v-33.14H1775.54z M1781.37,759.98h5.25
			c1.94,0,3.5-0.39,4.47-1.17c1.06-0.78,1.55-1.85,1.55-3.3c0-1.46-0.49-2.52-1.55-3.21c-1.08-0.58-2.72-0.97-4.96-0.97h-4.76
			V759.98z M1781.37,774.65h5.25c0.78,0,1.56-0.1,2.43-0.2c0.87-0.1,1.65-0.29,2.43-0.67c0.68-0.39,1.36-0.88,1.84-1.47
			c0.49-0.58,0.69-1.55,0.69-2.61c0-1.74-0.58-2.92-1.74-3.69c-1.16-0.69-3.01-1.08-5.34-1.08h-5.54v9.72H1781.37z"/>
		<rect x="861.76" y="541.01" class="st6" width="46.83" height="192.83"/>
		<polygon class="st6" points="1070.92,733.85 993.31,607.75 992.53,607.75 993.6,733.85 948.42,733.85 948.42,541.01 
			1001.57,541.01 1078.9,666.81 1079.67,666.81 1078.6,541.01 1123.78,541.01 1123.78,733.85 		"/>
		<polygon class="st6" points="1259.1,733.85 1212.58,733.85 1139.61,541.01 1191.87,541.01 1236.57,677.69 1237.63,677.69 
			1282.03,541.01 1333.52,541.01 		"/>
		<polygon class="st6" points="1349.26,733.85 1349.26,541.01 1478.95,541.01 1478.95,580.55 1394.24,580.55 1394.24,616.78 
			1474.29,616.78 1474.29,654.09 1394.24,654.09 1394.24,694.1 1483.81,694.1 1483.81,733.85 		"/>
		<path class="st6" d="M1611.55,591.13c-7.87-10.1-22.34-16.62-34.29-16.62c-11.95,0-27.01,4.08-27.01,19.34
			c0,12.82,11.46,16.62,29.72,22.64c26.14,8.46,59.94,19.34,59.94,58c0,44.4-35.66,64.32-73.84,64.32
			c-27.49,0-54.98-10.1-72.18-27.78l30.5-31.09c9.52,11.75,26.42,20.4,41.67,20.4c14.19,0,26.72-5.44,26.72-20.98
			c0-14.47-14.66-19.62-40.02-27.49c-24.78-7.87-49.26-20.4-49.26-55.28c0-42.75,38.38-60.42,74.61-60.42
			c21.76,0,46.05,8.16,63.14,23.7L1611.55,591.13z"/>
		<polygon class="st6" points="1753.2,580.84 1753.2,733.94 1706.66,733.94 1706.66,580.84 1652.16,580.84 1652.16,541.11 
			1807.7,541.11 1807.7,580.84 		"/>
		<path class="st2" d="M875.86,467.86h-18.65l72.27-167.1h16.51l71.8,167.1h-18.86l-18.45-43.91h-86.37L875.86,467.86z
			 M900.43,408.4h73.64l-36.82-88.79L900.43,408.4z"/>
		<path class="st3" d="M875.86,467.86h-18.65l72.27-167.1h16.51l71.8,167.1h-18.86l-18.45-43.91h-86.37L875.86,467.86z
			 M900.43,408.4h73.64l-36.82-88.79L900.43,408.4z"/>
		<rect x="1071.61" y="289.4" class="st2" width="16.02" height="178.47"/>
		<rect x="1071.61" y="289.4" class="st3" width="16.02" height="178.47"/>
		<path class="st2" d="M1166.23,490c8.74,11.37,25.25,20.31,42.26,20.31c31.38,0,43.23-19.62,43.23-43.42V446.1h-0.48
			c-8.46,13.9-25.75,21.76-41.78,21.76c-34.49,0-57.12-23.8-57.12-56.15c0-31.38,22.64-57.13,57.12-57.13
			c16.03,0,33.03,7.78,41.78,21.96h0.48v-19.13h16.03v109.48c0,23.8-11.08,57.61-59.94,57.61c-20.49,0-39.93-8.27-53.13-22.15
			L1166.23,490z M1211.02,454.15c24.57,0,42.45-17.19,42.45-42.93c0-23.13-17.97-43.24-42.45-43.24
			c-26.41,0-41.77,20.11-41.77,43.24C1169.24,434.53,1184.6,454.15,1211.02,454.15"/>
		<path class="st3" d="M1166.23,490c8.74,11.37,25.25,20.31,42.26,20.31c31.38,0,43.23-19.62,43.23-43.42V446.1h-0.48
			c-8.46,13.9-25.75,21.76-41.78,21.76c-34.49,0-57.12-23.8-57.12-56.15c0-31.38,22.64-57.13,57.12-57.13
			c16.03,0,33.03,7.78,41.78,21.96h0.48v-19.13h16.03v109.48c0,23.8-11.08,57.61-59.94,57.61c-20.49,0-39.93-8.27-53.13-22.15
			L1166.23,490z M1211.02,454.15c24.57,0,42.45-17.19,42.45-42.93c0-23.13-17.97-43.24-42.45-43.24
			c-26.41,0-41.77,20.11-41.77,43.24C1169.24,434.53,1184.6,454.15,1211.02,454.15z"/>
		<path class="st2" d="M1439.51,416.85h-91.61c0.68,21.96,17.5,40.13,40.32,40.13c16.81,0,29.05-8.94,35.37-19.13l12.05,9.42
			c-13.22,16.8-29.24,23.42-47.42,23.42c-32.83,0-57.12-24.78-57.12-58.09s24.29-58.09,55.67-58.09c34.68,0,52.85,24.78,52.85,54.8
			C1439.8,411.4,1439.8,414.03,1439.51,416.85 M1423.47,404.12c-0.98-20.79-13.7-36.14-36.62-36.14c-21.46,0-37.49,17.2-38.66,36.14
			H1423.47z"/>
		<path class="st3" d="M1439.51,416.85h-91.61c0.68,21.96,17.5,40.13,40.32,40.13c16.81,0,29.05-8.94,35.37-19.13l12.05,9.42
			c-13.22,16.8-29.24,23.42-47.42,23.42c-32.83,0-57.12-24.78-57.12-58.09s24.29-58.09,55.67-58.09c34.68,0,52.85,24.78,52.85,54.8
			C1439.8,411.4,1439.8,414.03,1439.51,416.85z M1423.47,404.12c-0.98-20.79-13.7-36.14-36.62-36.14
			c-21.46,0-37.49,17.2-38.66,36.14H1423.47z"/>
		<path class="st2" d="M1504.01,381.68c0-5.93-0.2-16.81-0.98-24.29h15.35c0.68,5.92,0.97,14.18,0.97,18.85h0.49
			c6.42-13.02,19.62-21.77,35.37-21.77c3.97,0,7.09,0.2,10.58,1.17l-2.14,15.15c-1.84-0.68-6.79-1.46-11.36-1.46
			c-17,0-32.34,12.23-32.34,41.77v56.64h-16.03v-86.07H1504.01z"/>
		<path class="st3" d="M1504.01,381.68c0-5.93-0.2-16.81-0.98-24.29h15.35c0.68,5.92,0.97,14.18,0.97,18.85h0.49
			c6.42-13.02,19.62-21.77,35.37-21.77c3.97,0,7.09,0.2,10.58,1.17l-2.14,15.15c-1.84-0.68-6.79-1.46-11.36-1.46
			c-17,0-32.34,12.23-32.34,41.77v56.64h-16.03v-86.07H1504.01z"/>
		<path class="st2" d="M1627,326.2c-5.63,0-11.36-4.76-11.36-11.36c0-6.61,5.64-11.36,11.36-11.36c5.64,0,11.37,4.76,11.37,11.36
			C1638.37,321.45,1632.63,326.2,1627,326.2 M1634.97,467.86h-16.03V357.4h16.03V467.86z"/>
		<path class="st3" d="M1627,326.2c-5.63,0-11.36-4.76-11.36-11.36c0-6.61,5.64-11.36,11.36-11.36c5.64,0,11.37,4.76,11.37,11.36
			C1638.37,321.45,1632.63,326.2,1627,326.2z M1634.97,467.86h-16.03V357.4h16.03V467.86z"/>
		<path class="st2" d="M1777.1,396.55c0-19.13-10.4-28.56-29.55-28.56c-13.21,0-25.05,5.14-32.83,13.02l-8.94-10.59
			c9.23-9.22,24.57-15.83,43.43-15.83c23.8,0,42.93,13.02,42.93,40.13v48.37c0,8.46,0.68,18.46,1.85,24.79h-14.38
			c-0.98-5.45-1.65-12.06-1.65-17.98h-0.49c-10.1,14.86-22.15,20.79-40.13,20.79c-16.81,0-38.28-8.94-38.28-33.52
			c0-34,37.49-37.02,77.91-37.02v-3.59L1777.1,396.55L1777.1,396.55z M1772.33,412.58c-26.23,0-56.63,3.11-56.63,23.8
			c0,15.83,13.41,20.98,25.93,20.98c22.64,0,35.36-17.01,35.36-36.62v-8.16L1772.33,412.58L1772.33,412.58z"/>
		<path class="st3" d="M1777.1,396.55c0-19.13-10.4-28.56-29.55-28.56c-13.21,0-25.05,5.14-32.83,13.02l-8.94-10.59
			c9.23-9.22,24.57-15.83,43.43-15.83c23.8,0,42.93,13.02,42.93,40.13v48.37c0,8.46,0.68,18.46,1.85,24.79h-14.38
			c-0.98-5.45-1.65-12.06-1.65-17.98h-0.49c-10.1,14.86-22.15,20.79-40.13,20.79c-16.81,0-38.28-8.94-38.28-33.52
			c0-34,37.49-37.02,77.91-37.02v-3.59L1777.1,396.55L1777.1,396.55z M1772.33,412.58c-26.23,0-56.63,3.11-56.63,23.8
			c0,15.83,13.41,20.98,25.93,20.98c22.64,0,35.36-17.01,35.36-36.62v-8.16L1772.33,412.58L1772.33,412.58z"/>
	</g>
	<g>
		<path class="st6" d="M1817.75,524.5c0-4.99,0.96-9.68,2.87-14.05c1.91-4.38,4.51-8.2,7.78-11.48c3.27-3.27,7.1-5.87,11.48-7.78
			c4.38-1.91,9.06-2.87,14.05-2.87c4.99,0,9.68,0.96,14.05,2.87c4.38,1.91,8.2,4.51,11.48,7.78c3.27,3.27,5.87,7.1,7.78,11.48
			c1.91,4.38,2.87,9.06,2.87,14.05c0,4.99-0.96,9.68-2.87,14.05c-1.91,4.38-4.51,8.2-7.78,11.48c-3.27,3.27-7.1,5.87-11.48,7.78
			c-4.38,1.91-9.06,2.87-14.05,2.87c-4.99,0-9.68-0.96-14.05-2.87c-4.38-1.91-8.2-4.51-11.48-7.78c-3.28-3.27-5.87-7.1-7.78-11.48
			C1818.71,534.17,1817.75,529.49,1817.75,524.5z M1827.09,524.5c0,3.89,0.7,7.54,2.09,10.94c1.39,3.4,3.29,6.37,5.69,8.9
			c2.4,2.53,5.24,4.52,8.51,5.98c3.27,1.46,6.79,2.19,10.55,2.19c3.76,0,7.28-0.73,10.55-2.19c3.27-1.46,6.11-3.45,8.51-5.98
			c2.4-2.53,4.29-5.5,5.69-8.9c1.39-3.4,2.09-7.05,2.09-10.94c0-3.89-0.7-7.54-2.09-10.94c-1.4-3.4-3.29-6.37-5.69-8.9
			c-2.4-2.53-5.24-4.52-8.51-5.98c-3.27-1.46-6.79-2.19-10.55-2.19c-3.76,0-7.28,0.73-10.55,2.19c-3.27,1.46-6.11,3.45-8.51,5.98
			c-2.4,2.53-4.3,5.5-5.69,8.9C1827.79,516.96,1827.09,520.61,1827.09,524.5z M1840.03,505.14h12.16c2.2,0,4.33,0.16,6.37,0.49
			c2.04,0.32,3.86,0.89,5.45,1.7c1.59,0.81,2.87,1.94,3.84,3.4c0.97,1.46,1.46,3.32,1.46,5.59c0,1.69-0.26,3.23-0.78,4.62
			c-0.52,1.4-1.18,2.58-1.99,3.55c-0.81,0.97-1.72,1.77-2.72,2.38c-1.01,0.62-2.03,0.99-3.06,1.12l9.73,15.08h-10.21l-8.66-14.59
			h-2.24v14.59h-9.34V505.14z M1849.27,520.9h4.57c0.58,0,1.23-0.03,1.94-0.1c0.71-0.06,1.38-0.23,1.99-0.49
			c0.62-0.26,1.13-0.66,1.56-1.22c0.42-0.55,0.63-1.31,0.63-2.29c0-0.97-0.21-1.73-0.63-2.29c-0.42-0.55-0.94-0.96-1.56-1.22
			c-0.62-0.26-1.28-0.42-1.99-0.49c-0.71-0.06-1.36-0.1-1.94-0.1h-4.57V520.9z"/>
	</g>
</g>
</svg>
