<svg xmlns="http://www.w3.org/2000/svg" width="46.029" height="41.482" viewBox="0 0 46.029 41.482">
  <g id="Group_82" data-name="Group 82" transform="translate(-91.828 -220.303)">
    <g id="Group_75" data-name="Group 75" transform="translate(94.554 221.915)">
      <path id="Path_92" data-name="Path 92" d="M119.9,261.924c.4.72,3.917.117,5.5-1.314,2.992-2.692,6.51-4.563,9.843-6.728.716-.466,2.037-.6,1.817-1.932-.187-1.119-1.151-1.395-2.093-1.77-1.845-.73-2.357-2.1-2.168-4.123.454-4.863.347-9.664-2.843-13.845-.605-.79-2.1-1.922-1.438-2.581,2.1-2.1.881-4.784,1.736-7.012-2.391-.736-4.75.341-7.091.173a22.142,22.142,0,0,0-13.652,3.673c-.566.351-.909.5-.556,1.269.794,1.738.21,3.81,1.708,5.784-3.177-.46-4.841.964-6.488,2.978-2.212,2.706-6.363,2.127-8.829,4.613v3.514c7.075,4.357,14.223,8.609,20.48,14.161C117.08,259.9,118.87,260.071,119.9,261.924Z" transform="translate(-95.345 -222.359)" fill="none"/>
    </g>
    <g id="Group_76" data-name="Group 76" transform="translate(94.554 221.915)">
      <path id="Path_93" data-name="Path 93" d="M119.9,261.924c.4.72,3.917.117,5.5-1.314,2.992-2.692,6.51-4.563,9.843-6.728.716-.466,2.037-.6,1.817-1.932-.187-1.119-1.151-1.395-2.093-1.77-1.845-.73-2.357-2.1-2.168-4.123.454-4.863.347-9.664-2.843-13.845-.605-.79-2.1-1.922-1.438-2.581,2.1-2.1.881-4.784,1.736-7.012-2.391-.736-4.75.341-7.091.173a22.142,22.142,0,0,0-13.652,3.673c-.566.351-.909.5-.556,1.269.794,1.738.21,3.81,1.708,5.784-3.177-.46-4.841.964-6.488,2.978-2.212,2.706-6.363,2.127-8.829,4.613v3.514c7.075,4.357,14.223,8.609,20.48,14.161C117.08,259.9,118.87,260.071,119.9,261.924Z" transform="translate(-95.345 -222.359)" fill="none"/>
    </g>
    <g id="Group_77" data-name="Group 77" transform="translate(94.554 221.915)">
      <path id="Path_94" data-name="Path 94" d="M119.9,261.924c.4.72,3.917.117,5.5-1.314,2.992-2.692,6.51-4.563,9.843-6.728.716-.466,2.037-.6,1.817-1.932-.187-1.119-1.151-1.395-2.093-1.77-1.845-.73-2.357-2.1-2.168-4.123.454-4.863.347-9.664-2.843-13.845-.605-.79-2.1-1.922-1.438-2.581,2.1-2.1.881-4.784,1.736-7.012-2.391-.736-4.75.341-7.091.173a22.142,22.142,0,0,0-13.652,3.673c-.566.351-.909.5-.556,1.269.794,1.738.21,3.81,1.708,5.784-3.177-.46-4.841.964-6.488,2.978-2.212,2.706-6.363,2.127-8.829,4.613v3.514c7.075,4.357,14.223,8.609,20.48,14.161C117.08,259.9,118.87,260.071,119.9,261.924Z" transform="translate(-95.345 -222.359)" fill="none"/>
    </g>
    <g id="Group_78" data-name="Group 78" transform="translate(94.554 221.915)">
      <path id="Path_95" data-name="Path 95" d="M119.9,261.924c.4.72,3.917.117,5.5-1.314,2.992-2.692,6.51-4.563,9.843-6.728.716-.466,2.037-.6,1.817-1.932-.187-1.119-1.151-1.395-2.093-1.77-1.845-.73-2.357-2.1-2.168-4.123.454-4.863.347-9.664-2.843-13.845-.605-.79-2.1-1.922-1.438-2.581,2.1-2.1.881-4.784,1.736-7.012-2.391-.736-4.75.341-7.091.173a22.142,22.142,0,0,0-13.652,3.673c-.566.351-.909.5-.556,1.269.794,1.738.21,3.81,1.708,5.784-3.177-.46-4.841.964-6.488,2.978-2.212,2.706-6.363,2.127-8.829,4.613v3.514c7.075,4.357,14.223,8.609,20.48,14.161C117.08,259.9,118.87,260.071,119.9,261.924Z" transform="translate(-95.345 -222.359)" fill="none"/>
    </g>
    <g id="Group_79" data-name="Group 79" transform="translate(94.554 221.915)">
      <path id="Path_96" data-name="Path 96" d="M119.9,261.924c.4.72,3.917.117,5.5-1.314,2.992-2.692,6.51-4.563,9.843-6.728.716-.466,2.037-.6,1.817-1.932-.187-1.119-1.151-1.395-2.093-1.77-1.845-.73-2.357-2.1-2.168-4.123.454-4.863.347-9.664-2.843-13.845-.605-.79-2.1-1.922-1.438-2.581,2.1-2.1.881-4.784,1.736-7.012-2.391-.736-4.75.341-7.091.173a22.142,22.142,0,0,0-13.652,3.673c-.566.351-.909.5-.556,1.269.794,1.738.21,3.81,1.708,5.784-3.177-.46-4.841.964-6.488,2.978-2.212,2.706-6.363,2.127-8.829,4.613v3.514c7.075,4.357,14.223,8.609,20.48,14.161C117.08,259.9,118.87,260.071,119.9,261.924Z" transform="translate(-95.345 -222.359)" fill="none"/>
    </g>
    <g id="Group_80" data-name="Group 80" transform="translate(94.554 221.915)">
      <path id="Path_97" data-name="Path 97" d="M119.9,261.924c.4.72,3.917.117,5.5-1.314,2.992-2.692,6.51-4.563,9.843-6.728.716-.466,2.037-.6,1.817-1.932-.187-1.119-1.151-1.395-2.093-1.77-1.845-.73-2.357-2.1-2.168-4.123.454-4.863.347-9.664-2.843-13.845-.605-.79-2.1-1.922-1.438-2.581,2.1-2.1.881-4.784,1.736-7.012-2.391-.736-4.75.341-7.091.173a22.142,22.142,0,0,0-13.652,3.673c-.566.351-.909.5-.556,1.269.794,1.738.21,3.81,1.708,5.784-3.177-.46-4.841.964-6.488,2.978-2.212,2.706-6.363,2.127-8.829,4.613v3.514c7.075,4.357,14.223,8.609,20.48,14.161C117.08,259.9,118.87,260.071,119.9,261.924Z" transform="translate(-95.345 -222.359)" fill="none"/>
    </g>
    <g id="Group_81" data-name="Group 81" transform="translate(94.554 221.915)">
      <path id="Path_98" data-name="Path 98" d="M119.9,261.924c.4.72,3.917.117,5.5-1.314,2.992-2.692,6.51-4.563,9.843-6.728.716-.466,2.037-.6,1.817-1.932-.187-1.119-1.151-1.395-2.093-1.77-1.845-.73-2.357-2.1-2.168-4.123.454-4.863.347-9.664-2.843-13.845-.605-.79-2.1-1.922-1.438-2.581,2.1-2.1.881-4.784,1.736-7.012-2.391-.736-4.75.341-7.091.173a22.142,22.142,0,0,0-13.652,3.673c-.566.351-.909.5-.556,1.269.794,1.738.21,3.81,1.708,5.784-3.177-.46-4.841.964-6.488,2.978-2.212,2.706-6.363,2.127-8.829,4.613v3.514c7.075,4.357,14.223,8.609,20.48,14.161C117.08,259.9,118.87,260.071,119.9,261.924Z" transform="translate(-95.345 -222.359)" fill="none"/>
    </g>
    <path id="Path_99" data-name="Path 99" d="M103.236,241.749c-2.31,1.717-5.74,1.555-7.891,3.723v3.514c2.637,1.624,5.284,3.233,7.891,4.9Z" transform="translate(-0.791 -5.659)" fill="#e50019"/>
    <path id="Path_100" data-name="Path 100" d="M117.232,224.685a26.648,26.648,0,0,0-4.573,2.3c-.566.351-.909.5-.556,1.269.794,1.738.21,3.81,1.708,5.784a5.759,5.759,0,0,0-4.471.975v15.316a53.236,53.236,0,0,0,7.892-2.859Z" transform="translate(-3.94 -2.233)" fill="#35a85e"/>
    <path id="Path_101" data-name="Path 101" d="M117.486,265.358v-7.214a40.357,40.357,0,0,1-7.016,1.968C112.88,261.757,115.232,263.486,117.486,265.358Z" transform="translate(-4.195 -8.885)" fill="#35a85e"/>
    <path id="Path_102" data-name="Path 102" d="M123.336,265.769A6,6,0,0,1,126.2,268.1c.365.656,3.309.212,5.029-.953V249.825A36.2,36.2,0,0,1,123.336,255Z" transform="translate(-6.02 -6.624)" fill="#0f73bb"/>
    <path id="Path_103" data-name="Path 103" d="M131.227,222.84a9.632,9.632,0,0,1-1.767.06,20.6,20.6,0,0,0-6.124.465V245.6a47.47,47.47,0,0,0,7.891-5.314Z" transform="translate(-6.02 -2.007)" fill="#0f73bb"/>
    <path id="Path_104" data-name="Path 104" d="M139.4,232.213c-.605-.789-2.1-1.922-1.438-2.581,2.1-2.1.881-4.784,1.736-7.012a6.679,6.679,0,0,0-2.369-.243V237.49a41.807,41.807,0,0,0,3.194-3.556A14.038,14.038,0,0,0,139.4,232.213Z" transform="translate(-8.757 -2.059)" fill="#ffb400"/>
    <path id="Path_105" data-name="Path 105" d="M144.414,254.057c-1.845-.73-2.357-2.1-2.168-4.123.332-3.554.358-7.075-.894-10.345a40.568,40.568,0,0,1-4.021,5.088V262.5c2.366-1.714,4.911-3.148,7.359-4.738.716-.466,2.037-.6,1.817-1.932C146.321,254.708,145.357,254.432,144.414,254.057Z" transform="translate(-8.675 -4.36)" fill="#ffb400"/>
    <path id="Path_106" data-name="Path 106" d="M136.737,229.119s-2.138,4.276-5.54,4.957a7.08,7.08,0,0,0,2.236,0s-10.4,20.8-41.6,21.483C91.828,255.558,124.586,263.287,136.737,229.119Z" transform="translate(0 -2.883)" fill="#e50019"/>
  </g>
</svg>
