<svg xmlns="http://www.w3.org/2000/svg" width="16.403" height="7.395" viewBox="0 0 16.403 7.395">
  <g id="brands-and-logotypes" transform="translate(-154.014 -203.13)">
    <path id="Intersection_5" data-name="Intersection 5" d="M8.745,6.969,6.2,4.3a.616.616,0,0,0-.741-.116L.568,6.855a.382.382,0,0,1-.46-.6L5.627.428A1.371,1.371,0,0,1,7.6.415l2.56,2.631a.616.616,0,0,0,.736.112L15.835.476a.382.382,0,0,1,.46.6l-5.56,5.892a1.371,1.371,0,0,1-1.99,0Z" transform="translate(154.014 203.13)" fill="#0f73bb"/>
  </g>
</svg>
