<svg xmlns="http://www.w3.org/2000/svg" width="73.154" height="57.629" viewBox="0 0 73.154 57.629">
  <g id="newspaper" transform="translate(-4.863)" opacity="0.8">
    <path id="Path_51" data-name="Path 51" d="M77.935,39.228H66.143V13.98a1.127,1.127,0,0,0-2.254,0v.9H18.582a1.127,1.127,0,1,0,0,2.254H63.889V54.77a.376.376,0,0,1-.376.376H7.493a.376.376,0,0,1-.376-.376V17.13H12.95a1.127,1.127,0,0,0,0-2.254H7.117V2.63a.376.376,0,0,1,.376-.376H63.514a.376.376,0,0,1,.376.376V8.372a1.127,1.127,0,1,0,2.254,0V2.63A2.633,2.633,0,0,0,63.514,0H7.493a2.633,2.633,0,0,0-2.63,2.63V54.77a2.633,2.633,0,0,0,2.63,2.63H19.019c-.032.206,44.347.393,44.5,0,.989,0,15.725-18.171,14.422-18.171Zm-2.547,2.254L66.143,52.207V41.482Z" transform="translate(0)" fill="#8ba1b2"/>
    <circle id="Ellipse_5" data-name="Ellipse 5" cx="2.103" cy="2.103" r="2.103" transform="translate(10.731 6.052)" fill="#8ba1b2"/>
    <circle id="Ellipse_6" data-name="Ellipse 6" cx="2.103" cy="2.103" r="2.103" transform="translate(17.714 6.052)" fill="#8ba1b2"/>
    <circle id="Ellipse_7" data-name="Ellipse 7" cx="2.103" cy="2.103" r="2.103" transform="translate(24.415 6.052)" fill="#8ba1b2"/>
    <path id="Path_52" data-name="Path 52" d="M51.469,148.96a1.078,1.078,0,0,0-.757,1.029v10.664a1.078,1.078,0,0,0,2.157,0v-7.2l5.245,7.595a1.224,1.224,0,0,0,1.38.515,1.278,1.278,0,0,0,.862-1.276l-.1-10.324a1.078,1.078,0,0,0-1.078-1.068h-.011A1.078,1.078,0,0,0,58.1,149.98l.071,7.35-5.492-7.953A1.078,1.078,0,0,0,51.469,148.96Z" transform="translate(-39.26 -126.236)" fill="#8ba1b2"/>
    <path id="Path_53" data-name="Path 53" d="M142.135,151.726a1.078,1.078,0,0,0,0-2.157h-4.461a1.078,1.078,0,0,0-1.078,1.078v10.586a1.078,1.078,0,0,0,1.078,1.078h4.461a1.078,1.078,0,0,0,0-2.157h-3.382v-3.136h3.053a1.078,1.078,0,0,0,0-2.157h-3.053v-3.136Z" transform="translate(-111.859 -126.814)" fill="#8ba1b2"/>
    <path id="Path_54" data-name="Path 54" d="M300.948,159.91a3.98,3.98,0,0,1-2.924-1.229,1.078,1.078,0,1,0-1.6,1.448,6.168,6.168,0,0,0,4.522,1.938,4.2,4.2,0,0,0,4.242-3.2c.248-1.387-.4-3.2-2.942-4.143-1.354-.5-2.611-1.044-2.952-1.194a.991.991,0,0,1-.384-.955,1.357,1.357,0,0,1,1.03-1.066,3.821,3.821,0,0,1,3.177.727,1.078,1.078,0,0,0,1.383-1.655,5.954,5.954,0,0,0-5.183-1.138,3.5,3.5,0,0,0-2.543,2.824,3.114,3.114,0,0,0,1.55,3.191c.061.027,1.525.679,3.174,1.287,1.118.413,1.689,1.047,1.565,1.741A2.059,2.059,0,0,1,300.948,159.91Z" transform="translate(-247.254 -126.52)" fill="#8ba1b2"/>
    <path id="Path_55" data-name="Path 55" d="M207.316,149.269a1.078,1.078,0,0,0-1.268.847l-1.437,7.218-2.263-7.344a.234.234,0,0,0-.028-.058,1.078,1.078,0,0,0-2.033.076l-2.268,7.327-1.431-7.237a1.078,1.078,0,1,0-2.116.418l2.082,10.523a1.318,1.318,0,0,0,2.534.135l.009-.028,2.221-7.174,2.211,7.176c0,.015.009.029.014.043a1.318,1.318,0,0,0,2.529-.153l2.09-10.5A1.079,1.079,0,0,0,207.316,149.269Z" transform="translate(-160.816 -126.522)" fill="#8ba1b2"/>
    <path id="Path_56" data-name="Path 56" d="M49.093,265.872a1.078,1.078,0,0,0,1.078,1.078H67.744a1.078,1.078,0,1,0,0-2.157H50.171A1.078,1.078,0,0,0,49.093,265.872Z" transform="translate(-37.874 -224.955)" fill="#8ba1b2"/>
    <path id="Path_57" data-name="Path 57" d="M67.744,299.5H50.171a1.078,1.078,0,1,0,0,2.157H67.744a1.078,1.078,0,1,0,0-2.157Z" transform="translate(-37.874 -254.438)" fill="#8ba1b2"/>
    <path id="Path_58" data-name="Path 58" d="M217.529,265.872a1.078,1.078,0,0,0,1.078,1.078H236.18a1.078,1.078,0,1,0,0-2.157H218.607A1.078,1.078,0,0,0,217.529,265.872Z" transform="translate(-180.185 -224.955)" fill="#8ba1b2"/>
    <path id="Path_59" data-name="Path 59" d="M236.18,299.5H218.607a1.078,1.078,0,0,0,0,2.157H236.18a1.078,1.078,0,1,0,0-2.157Z" transform="translate(-180.185 -254.438)" fill="#8ba1b2"/>
  </g>
</svg>
