<svg id="mail_4_" data-name="mail (4)" xmlns="http://www.w3.org/2000/svg" width="69.9" height="69.9" viewBox="0 0 69.9 69.9">
  <g id="Group_555" data-name="Group 555" transform="translate(25.667 7.645)">
    <g id="Group_554" data-name="Group 554">
      <path id="Path_717" data-name="Path 717" d="M190.33,56.4a1.364,1.364,0,1,0,.4.965A1.376,1.376,0,0,0,190.33,56.4Z" transform="translate(-188 -56)" fill="#ffb400"/>
    </g>
  </g>
  <g id="Group_557" data-name="Group 557" transform="translate(15.137 7.645)">
    <g id="Group_556" data-name="Group 556">
      <path id="Path_718" data-name="Path 718" d="M117.725,56H112.24a1.365,1.365,0,1,0,0,2.73h5.485a1.365,1.365,0,1,0,0-2.73Z" transform="translate(-110.875 -56)" fill="#ffb400"/>
    </g>
  </g>
  <g id="Group_559" data-name="Group 559" transform="translate(15.137 15.291)">
    <g id="Group_558" data-name="Group 558">
      <path id="Path_719" data-name="Path 719" d="M118.82,112h-6.58a1.365,1.365,0,1,0,0,2.73h6.58a1.365,1.365,0,1,0,0-2.73Z" transform="translate(-110.875 -112)" fill="#ffb400"/>
    </g>
  </g>
  <g id="Group_561" data-name="Group 561">
    <g id="Group_560" data-name="Group 560">
      <path id="Path_720" data-name="Path 720" d="M69.373,28.413h0L60.363,21.4l-.02-.014V19.933a1.365,1.365,0,1,0-2.73,0V38.454c0,.008,0,.016,0,.025l-11.3,11.3L45.01,48.588A14.927,14.927,0,0,0,37.8,44.975l3.545-3.545a1.365,1.365,0,0,0,0-1.931l-4.586-4.586,19.985-8.52a1.365,1.365,0,0,0,.43-2.221l-6.526-6.526a5.8,5.8,0,0,0-7.978-7.978L36.149,3.142a1.365,1.365,0,0,0-2.222.43l-9.2,21.608-4.952,4.952A7.367,7.367,0,1,0,30.193,40.552l.521-.521,4.677,4.676c-.147,0-.294-.007-.441-.007a14.93,14.93,0,0,0-10.06,3.887l-1.308,1.188-11.3-11.3c0-.008,0-.016,0-.025V2.73H27.576a1.365,1.365,0,0,0,0-2.73H10.922A1.365,1.365,0,0,0,9.557,1.365v19.8l-.036.026L.51,28.425h0A1.362,1.362,0,0,0,0,29.489V62.938A6.971,6.971,0,0,0,6.963,69.9H62.938A6.971,6.971,0,0,0,69.9,62.938V29.489A1.362,1.362,0,0,0,69.373,28.413Zm-9.03-3.573,6.133,4.776L60.344,35.75ZM45.7,11.55a3.068,3.068,0,0,1,2.91,4.052l-3.89-3.89A3.073,3.073,0,0,1,45.7,11.55ZM35.648,6.5l5.946,5.946,0,0,0,0,6.274,6.274h0l5.948,5.948-2.9,1.236L34.413,9.4ZM33.26,12.111,48.213,27.064l-13.53,5.768L27.5,25.646Zm-5,26.511a4.637,4.637,0,1,1-6.557-6.557l4.174-4.174,6.557,6.558Zm4.382-.521,1.722-1.722,4.086,4.086-1.722,1.722ZM9.557,24.662V35.75L3.407,29.6ZM5.1,66.569a1.4,1.4,0,0,0-.108.111A4.235,4.235,0,0,1,2.73,62.938V32.785L21.559,51.614Zm3.4.6L13,63.074H23.026a1.365,1.365,0,0,0,0-2.73H16.01l10.716-9.735a12.183,12.183,0,0,1,16.447,0L61.4,67.17ZM67.17,62.938a4.235,4.235,0,0,1-2.258,3.742,1.374,1.374,0,0,0-.108-.111L48.341,51.614,67.17,32.785Z" fill="#ffb400"/>
    </g>
  </g>
  <g id="Group_563" data-name="Group 563" transform="translate(52.152 0.054)">
    <g id="Group_562" data-name="Group 562">
      <path id="Path_721" data-name="Path 721" d="M389.846.8a1.366,1.366,0,0,0-1.931,0L382.4,6.311a1.365,1.365,0,1,0,1.931,1.931l5.515-5.515A1.365,1.365,0,0,0,389.846.8Z" transform="translate(-382 -0.396)" fill="#ffb400"/>
    </g>
  </g>
  <g id="Group_565" data-name="Group 565" transform="translate(47.021)">
    <g id="Group_564" data-name="Group 564">
      <path id="Path_722" data-name="Path 722" d="M345.777,0a1.365,1.365,0,0,0-1.365,1.365V4.108a1.365,1.365,0,1,0,2.73,0V1.365A1.365,1.365,0,0,0,345.777,0Z" transform="translate(-344.412)" fill="#ffb400"/>
    </g>
  </g>
  <g id="Group_567" data-name="Group 567" transform="translate(54.873 10.583)">
    <g id="Group_566" data-name="Group 566">
      <path id="Path_723" data-name="Path 723" d="M406.128,77.521h-2.834a1.365,1.365,0,1,0,0,2.73h2.834a1.365,1.365,0,0,0,0-2.73Z" transform="translate(-401.929 -77.521)" fill="#ffb400"/>
    </g>
  </g>
  <g id="Group_569" data-name="Group 569" transform="translate(27.258 60.344)">
    <g id="Group_568" data-name="Group 568">
      <path id="Path_724" data-name="Path 724" d="M201.99,442.4a1.364,1.364,0,1,0,.4.965A1.378,1.378,0,0,0,201.99,442.4Z" transform="translate(-199.66 -442)" fill="#ffb400"/>
    </g>
  </g>
</svg>
