<svg id="Capa_1" enable-background="new 0 0 509.512 509.512" height="512" viewBox="0 0 509.512 509.512" width="512" xmlns="http://www.w3.org/2000/svg"><g><path d="m509.512 239.988h-29.518v-210.23h-449.999v210.23h-29.995v44.27h14.996v195.496h479.999v-195.496h14.517zm-464.517-150.23h344.5v-15h-344.5v-30h419.999v30h-30.499v15h30.499v150.23h-142.846l-16.01-45.563h-101.565l-16.66 45.563h-142.918zm261.254 150.23h-102.365l11.175-30.563h80.45zm-291.249 15h479.512v14.27h-479.512zm464.995 209.766h-449.999v-180.496h449.999z"/><path d="m157.415 382.75-7.42.079v51.929h29.5v-15h-14.5v-23.33c8.914-3.178 15.333-11.723 15.333-21.67s-6.419-18.492-15.333-21.67v-23.331h180v23.256c-9.011 3.117-15.5 11.687-15.5 21.745s6.489 18.628 15.5 21.745v23.255h-120.5v15h135.5v-52h-7.5c-4.411 0-8-3.589-8-8s3.589-8 8-8h7.5v-52h-210v51.929l7.42.08c4.363.047 7.913 3.632 7.913 7.992s-3.55 7.945-7.913 7.991z"/><path d="m194.495 419.759h15v15h-15z"/><path d="m314.337 344.09h-120.017v60.336h120.017zm-15 45.336h-90.017v-30.336h90.017z"/><path d="m404.495 74.758h15v15h-15z"/><path d="m59.662 104.258h15v15h-15z"/><path d="m59.662 134.873h15v59.385h-15z"/></g></svg>