<svg id="arrow" xmlns="http://www.w3.org/2000/svg" width="17.758" height="17.758" viewBox="0 0 17.758 17.758">
  <path id="Path_34" data-name="Path 34" d="M16.567,4.422a8.842,8.842,0,0,0-3.231-3.231A8.685,8.685,0,0,0,8.879,0,8.685,8.685,0,0,0,4.422,1.191,8.839,8.839,0,0,0,1.191,4.422,8.685,8.685,0,0,0,0,8.879a8.687,8.687,0,0,0,1.191,4.457,8.842,8.842,0,0,0,3.231,3.231,8.686,8.686,0,0,0,4.457,1.191,8.686,8.686,0,0,0,4.457-1.191,8.839,8.839,0,0,0,3.231-3.231,8.687,8.687,0,0,0,1.191-4.457A8.687,8.687,0,0,0,16.567,4.422ZM14.648,9.4,13.6,10.451,9.411,14.636a.754.754,0,0,1-1.041,0L7.318,13.584a.726.726,0,0,1,0-1.04L9.5,10.359H3.7a.75.75,0,0,1-.74-.74V8.139A.75.75,0,0,1,3.7,7.4H9.5L7.318,5.214a.754.754,0,0,1,0-1.041L8.37,3.121a.755.755,0,0,1,1.041,0L13.6,7.307l1.052,1.052a.754.754,0,0,1,0,1.04Z" transform="translate(0 0)" fill="#0f73bb"/>
</svg>
