<svg height="341pt" viewBox="0 0 341.52819 341" width="341pt" xmlns="http://www.w3.org/2000/svg"><path d="m189.636719 61.222656c-35.523438-35.492187-93.09375-35.464844-128.585938.058594-35.492187 35.523438-35.464843 93.09375.058594 128.585938 35.503906 35.46875 93.027344 35.46875 128.527344 0 35.464843-35.550782 35.464843-93.09375 0-128.644532zm-8.039063 120.605469c-31.082031 31.050781-81.453125 31.023437-112.503906-.0625-31.050781-31.082031-31.023438-81.453125.0625-112.503906 31.058594-31.027344 81.382812-31.027344 112.441406 0 31.03125 31.105469 31.03125 81.460937 0 112.566406zm0 0"/><path d="m330.34375 274.289062-93.113281-93.105468c30.78125-61.886719 5.570312-137.007813-56.3125-167.792969-61.886719-30.785156-137.007813-5.574219-167.792969 56.3125-30.78125 61.882813-5.570312 137.003906 56.3125 167.789063 35.128906 17.476562 76.417969 17.464843 111.535156-.027344l93.085938 93.101562c15.542968 15.542969 40.742187 15.542969 56.285156 0 15.542969-15.539062 15.542969-40.742187 0-56.285156zm-285.4375-68.34375c-44.402344-44.40625-44.402344-116.398437.003906-160.804687 44.40625-44.402344 116.398438-44.402344 160.804688.003906 44.402344 44.40625 44.402344 116.398438-.003906 160.804688-21.324219 21.320312-50.246094 33.300781-80.402344 33.300781-30.152344-.015625-59.070313-11.992188-80.402344-33.304688zm168.855469 8.046876c6.75-6.792969 12.691406-14.339844 17.707031-22.492188l13.183594 13.183594-40.199219 40.207031-13.171875-13.171875c8.144531-5.035156 15.6875-10.980469 22.480469-17.726562zm108.535156 108.535156c-11.101563 11.101562-29.097656 11.101562-40.199219 0l-69.609375-69.605469 24.125-24.148437 69.605469 69.628906c2.222656 2.222656 2.222656 5.824218 0 8.046875-2.222656 2.222656-5.824219 2.222656-8.046875 0-2.261719-2.179688-5.859375-2.117188-8.042969.140625-2.125 2.203125-2.125 5.695312 0 7.898437 6.664063 6.664063 17.46875 6.664063 24.128906 0 6.664063-6.660156 6.664063-17.464843 0-24.125l-69.605468-69.605469 8.035156-8.039062 69.617188 69.609375c11.078124 11.109375 11.078124 29.09375-.007813 40.199219zm0 0"/><path d="m281.851562 290.132812c-2.257812-2.179687-5.855468-2.117187-8.039062.140626-2.128906 2.203124-2.128906 5.695312 0 7.898437l4.625 4.628906c2.21875 2.21875 5.820312 2.21875 8.039062-.003906 2.222657-2.222656 2.21875-5.820313 0-8.042969zm0 0"/><path d="m162.59375 78.261719-56.285156 56.285156-24.105469-24.109375-24.128906 24.128906 48.234375 48.234375 80.417968-80.414062zm-88.441406 56.28125 8.050781-8.046875 24.105469 24.125 56.285156-56.285156 8.042969 8.050781-64.328125 64.335937zm0 0"/></svg>