<svg xmlns="http://www.w3.org/2000/svg" width="30.484" height="55.177" viewBox="0 0 30.484 55.177">
  <g id="Smartphone" transform="translate(-119.75 -7.75)">
    <path id="Path_707" data-name="Path 707" d="M145.575,8H124.409A4.414,4.414,0,0,0,120,12.409V58.268a4.414,4.414,0,0,0,4.409,4.409h21.165a4.414,4.414,0,0,0,4.409-4.409V12.409A4.414,4.414,0,0,0,145.575,8Zm-4.6,1.764-.529,2.646h-10.9l-.529-2.646Zm7.249,48.5a2.649,2.649,0,0,1-2.646,2.646H124.409a2.649,2.649,0,0,1-2.646-2.646V12.409a2.649,2.649,0,0,1,2.646-2.646h2.8l.74,3.7a.882.882,0,0,0,.865.709h12.347a.882.882,0,0,0,.865-.709l.74-3.7h2.8a2.649,2.649,0,0,1,2.646,2.646Z" fill="#d6edde" stroke="#d6edde" stroke-width="0.5"/>
    <path id="Path_708" data-name="Path 708" d="M158.173,456h-5.291a.882.882,0,0,0,0,1.764h5.291a.882.882,0,1,0,0-1.764Z" transform="translate(-28.472 -398.614)" fill="#d6edde" stroke="#d6edde" stroke-width="0.5"/>
    <path id="Path_709" data-name="Path 709" d="M225.764,456h-.882a.882.882,0,0,0,0,1.764h.882a.882.882,0,0,0,0-1.764Z" transform="translate(-92.535 -398.614)" fill="#d6edde" stroke="#d6edde" stroke-width="0.5"/>
  </g>
</svg>
