<svg xmlns="http://www.w3.org/2000/svg" width="53.984" height="53.578" viewBox="0 0 53.984 53.578">
  <g id="XMLID_1_" transform="translate(0 -0.181)" opacity="0.8">
    <path id="Path_687" data-name="Path 687" d="M14.625,9.09l19.817,3.936a3.323,3.323,0,0,1,2.677,3.284V39.254a3.37,3.37,0,0,1-3.374,3.374H13.5A1.114,1.114,0,0,0,14.625,41.5V40.378H33.744a1.128,1.128,0,0,0,1.125-1.125V16.31a1.13,1.13,0,0,0-.877-1.1L14.625,11.384Z" transform="translate(16.866 11.131)" fill="#fff"/>
    <path id="Path_688" data-name="Path 688" d="M22.623,14a1.125,1.125,0,1,1,0,2.249h-4.5a1.125,1.125,0,1,1,0-2.249Z" transform="translate(21.239 17.265)" fill="#fff"/>
    <path id="Path_689" data-name="Path 689" d="M22.623,17a1.125,1.125,0,1,1,0,2.249h-4.5a1.125,1.125,0,1,1,0-2.249Z" transform="translate(21.239 21.013)" fill="#fff"/>
    <path id="Path_690" data-name="Path 690" d="M22.623,20a1.125,1.125,0,0,1,0,2.249h-4.5a1.125,1.125,0,0,1,0-2.249Z" transform="translate(21.239 24.761)" fill="#fff"/>
    <path id="Path_691" data-name="Path 691" d="M15.249,41.615a1.125,1.125,0,0,1-2.249,0V10.124a1.2,1.2,0,0,1,.4-.877,1.182,1.182,0,0,1,.945-.225l.9.18V41.615Z" transform="translate(16.242 11.019)" fill="#fff"/>
    <path id="Path_692" data-name="Path 692" d="M17.373,23v1.125A1.114,1.114,0,0,0,18.5,25.249h-9a1.114,1.114,0,0,0,1.125-1.125V23Z" transform="translate(11.869 28.509)" fill="#fff"/>
    <path id="Path_693" data-name="Path 693" d="M13.623,5a1.125,1.125,0,1,1,0,2.249h-4.5A1.125,1.125,0,1,1,9.125,5Z" transform="translate(9.995 6.021)" fill="#fff"/>
    <path id="Path_694" data-name="Path 694" d="M14.748,9.125a1.114,1.114,0,0,1-1.125,1.125h-4.5A1.125,1.125,0,1,1,9.125,8h4.5A1.114,1.114,0,0,1,14.748,9.125Z" transform="translate(9.995 9.769)" fill="#fff"/>
    <path id="Path_695" data-name="Path 695" d="M13.623,11a1.125,1.125,0,1,1,0,2.249h-4.5a1.125,1.125,0,1,1,0-2.249Z" transform="translate(9.995 13.517)" fill="#fff"/>
    <path id="Path_696" data-name="Path 696" d="M13.623,14a1.125,1.125,0,1,1,0,2.249h-4.5a1.125,1.125,0,1,1,0-2.249Z" transform="translate(9.995 17.265)" fill="#fff"/>
    <path id="Path_697" data-name="Path 697" d="M9.748,15.125a1.114,1.114,0,0,1-1.125,1.125h-4.5a1.125,1.125,0,1,1,0-2.249h4.5A1.114,1.114,0,0,1,9.748,15.125Z" transform="translate(3.748 17.265)" fill="#fff"/>
    <path id="Path_698" data-name="Path 698" d="M8.623,5a1.125,1.125,0,1,1,0,2.249h-4.5A1.125,1.125,0,1,1,4.125,5Z" transform="translate(3.748 6.021)" fill="#fff"/>
    <path id="Path_699" data-name="Path 699" d="M8.623,8a1.125,1.125,0,1,1,0,2.249h-4.5A1.125,1.125,0,1,1,4.125,8Z" transform="translate(3.748 9.769)" fill="#fff"/>
    <path id="Path_700" data-name="Path 700" d="M8.623,11a1.125,1.125,0,1,1,0,2.249h-4.5a1.125,1.125,0,1,1,0-2.249Z" transform="translate(3.748 13.517)" fill="#fff"/>
    <path id="Path_701" data-name="Path 701" d="M15.247,20.374a1.128,1.128,0,0,0-1.125-1.125H7.374a1.114,1.114,0,0,0-1.125,1.125V30.5H4V20.374A3.37,3.37,0,0,1,7.374,17h6.748A3.37,3.37,0,0,1,17.5,20.374V30.5H15.247Z" transform="translate(4.997 21.013)" fill="#fff"/>
    <path id="Path_702" data-name="Path 702" d="M6.249,23H17.5v1.125a1.114,1.114,0,0,1-1.125,1.125H5.125A1.114,1.114,0,0,1,4,24.125V23Z" transform="translate(4.997 28.509)" fill="#fff"/>
    <path id="Path_703" data-name="Path 703" d="M3.936.224l24.72,3.756A3.362,3.362,0,0,1,31.491,7.31V20.221l-.9-.18a1.182,1.182,0,0,0-.945.225,1.2,1.2,0,0,0-.4.877V7.31A1.137,1.137,0,0,0,28.3,6.185L3.576,2.451a.623.623,0,0,0-.2-.022,1.061,1.061,0,0,0-.72.27,1.076,1.076,0,0,0-.4.855V50.385a1.128,1.128,0,0,0,1.125,1.125H9v1.125a1.114,1.114,0,0,0,1.125,1.125H3.374A3.37,3.37,0,0,1,0,50.385V3.553A3.312,3.312,0,0,1,1.192.989,3.376,3.376,0,0,1,3.936.224Z" transform="translate(0 0)" fill="#fff"/>
  </g>
</svg>
