<svg id="human-resources" xmlns="http://www.w3.org/2000/svg" width="107" height="107" viewBox="0 0 107 107">
  <g id="Group_574" data-name="Group 574">
    <path id="Path_727" data-name="Path 727" d="M104.484,92.317,82.8,70.63a4.622,4.622,0,0,0-5.365-.843l-3.255-3.255C94.98,39.451,75.636,0,41.351,0A41.351,41.351,0,1,0,66.533,74.177l3.253,3.253A4.607,4.607,0,0,0,70.63,82.8l21.688,21.688a8.613,8.613,0,0,0,12.167,0h0a8.613,8.613,0,0,0,0-12.167ZM41.351,79.567a38.216,38.216,0,1,1,0-76.432c32.345,0,49.932,37.771,29.512,62.525l0,0a38.355,38.355,0,0,1-5.172,5.179c-.026.02-.052.042-.077.065a37.958,37.958,0,0,1-24.261,8.661ZM72.164,68.954l2.891,2.891-3.21,3.211-2.891-2.891a40.926,40.926,0,0,0,3.21-3.211Zm30.1,33.314a5.474,5.474,0,0,1-7.733,0L72.847,80.58a1.479,1.479,0,0,1,0-2.093l5.64-5.64a1.482,1.482,0,0,1,2.093,0l21.688,21.687A5.475,5.475,0,0,1,102.267,102.267Z" fill="#0f2333"/>
    <path id="Path_728" data-name="Path 728" d="M103.755,104.753a1.567,1.567,0,0,0-3.114-.363,30.681,30.681,0,0,1-5.984,14.956,10.8,10.8,0,0,0-4.548-3.8c-3.159-1.391-8.857-2.254-11.973-2.645h0a.321.321,0,0,1-.281-.316l-.018-4.172c.293-.22.582-.451.865-.7a12.349,12.349,0,0,0,4.088-7.737,3.688,3.688,0,0,0,3.02-3.641L85.8,94a3.67,3.67,0,0,0-1.153-2.66l-.024-5.765A10.506,10.506,0,0,0,74.091,75.127l-9.2.039A5.419,5.419,0,0,0,59.838,78.7a5.45,5.45,0,0,0-5.312,5.465l.031,7.3a3.671,3.671,0,0,0-1.13,2.67l.01,2.347a3.692,3.692,0,0,0,3.05,3.615,12.351,12.351,0,0,0,4.153,7.7c.285.243.576.472.871.689l.018,4.172a.321.321,0,0,1-.279.318c-3.112.417-8.8,1.329-11.95,2.746a10.721,10.721,0,0,0-4.19,3.361,30.685,30.685,0,0,1-5.791-14.718,1.567,1.567,0,0,0-3.114.361,34.007,34.007,0,0,0,67.55.027ZM75.12,120.627h0l-.043-.021-2.18-1.1,5.406-3.413c.635.084,1.423.194,2.289.33l-3.423,3.812A1.734,1.734,0,0,1,75.12,120.627Zm-12.836-.346-3.454-3.773c.863-.143,1.649-.26,2.283-.349l5.43,3.364-2.168,1.117-.029.014-.007,0a1.734,1.734,0,0,1-2.054-.377Zm5.774,4.026-.867-1.591,2.537-1.306,2.548,1.292-.854,1.591Zm-8.1-42.474a2.973,2.973,0,0,0,2.8-2A2.28,2.28,0,0,1,64.906,78.3l9.2-.039a7.353,7.353,0,0,1,7.383,7.321l.022,5.187a5.571,5.571,0,0,0-2.063,1l-.017-4.113c-.013-3.2-3.047-5.84-7.06-4.556a8.682,8.682,0,0,1-2.594.439l-.412,0a8.9,8.9,0,0,1-2.6-.418c-3.939-1.222-7.036,1.333-7.022,4.615l.014,3.378a11.079,11.079,0,0,0-2.069-.378l-.028-6.585A2.311,2.311,0,0,1,59.961,81.833ZM59.5,98.539a1.567,1.567,0,0,0-1.567-1.527h-.007l-.8,0h0a.551.551,0,0,1-.551-.548l-.01-2.348a.535.535,0,0,1,.092-.3,6.336,6.336,0,0,1,2.935.622,1.95,1.95,0,0,0,3.313-1.4l-.022-5.314c-.005-1.278,1.139-2.173,2.958-1.608a11.694,11.694,0,0,0,3.54.558l.412,0a11.8,11.8,0,0,0,3.535-.588c1.743-.558,2.965.254,2.971,1.583l.022,5.314A1.744,1.744,0,0,0,77.482,94.6c.31.128,2.744.774,3.774-.251a2.555,2.555,0,0,1,1.336-.6.533.533,0,0,1,.073.268l.01,2.347a.551.551,0,0,1-.549.553l-.8,0a1.567,1.567,0,0,0-1.56,1.54,9.32,9.32,0,0,1-3.118,6.9,10.433,10.433,0,0,1-13.971.059A9.321,9.321,0,0,1,59.5,98.539ZM74.709,110.2l.01,2.4a3.432,3.432,0,0,0,.481,1.735L69.713,117.8,64.2,114.384a3.432,3.432,0,0,0,.466-1.739l-.01-2.4A13.33,13.33,0,0,0,74.709,110.2ZM47.188,121.61a7.6,7.6,0,0,1,3.4-3.028,25.409,25.409,0,0,1,4.623-1.384l4.761,5.2a4.866,4.866,0,0,0,4.306,1.524l1.19,2.183L64.3,131.123A30.86,30.86,0,0,1,47.188,121.61Zm20.236,9.929.951-4.1,2.753-.012,1,4.142A30.9,30.9,0,0,1,67.424,131.539Zm7.836-.345-1.235-5.123,1.171-2.183a4.865,4.865,0,0,0,4.3-1.564l4.713-5.249a25.4,25.4,0,0,1,4.634,1.345,7.657,7.657,0,0,1,3.681,3.458A30.864,30.864,0,0,1,75.26,131.194Z" transform="translate(-28.63 -59.426)" fill="#0f2333"/>
    <path id="Path_729" data-name="Path 729" d="M37.479,67.161a1.566,1.566,0,0,0,1.728-1.388,30.872,30.872,0,0,1,61.37,0,1.568,1.568,0,0,0,1.556,1.4,1.59,1.59,0,0,0,.172-.009,1.567,1.567,0,0,0,1.388-1.728,34.006,34.006,0,0,0-67.6,0,1.568,1.568,0,0,0,1.388,1.728Z" transform="translate(-28.541 -27.811)" fill="#0f2333"/>
  </g>
</svg>
