<svg xmlns="http://www.w3.org/2000/svg" width="75.824" height="69.9" viewBox="0 0 75.824 69.9">
  <g id="XMLID_996_" transform="translate(0 -20)">
    <g id="XMLID_41_" transform="translate(0 20)">
      <path id="XMLID_4218_" d="M310.276,128.724a1.481,1.481,0,1,0,2.094-2.094l-.02-.02a1.481,1.481,0,0,0-2.094,2.094Z" transform="translate(-263.94 -110.452)" fill="#0f73bb"/>
      <path id="XMLID_4221_" d="M70.228,52.284l5.162-5.162a1.481,1.481,0,0,0-1.047-2.528h-10.7A32.286,32.286,0,1,0,9.456,75.113a32.516,32.516,0,0,0,5.935,4.695l-4.462,7.882a1.481,1.481,0,0,0,1.289,2.21h7.627a1.481,1.481,0,0,0,1.289-.751l3.155-5.573a32.675,32.675,0,0,0,15.993,0l3.155,5.573a1.481,1.481,0,0,0,1.289.751h7.627a1.481,1.481,0,0,0,1.289-2.21l-4.462-7.882a32.522,32.522,0,0,0,5.935-4.695,32.175,32.175,0,0,0,8.53-15.139h10.7a1.481,1.481,0,0,0,1.047-2.528ZM67.52,50.8H57.185l3.247-3.247H70.767ZM18.981,86.938H14.758l3.223-5.695a31.841,31.841,0,0,0,3.4,1.448Zm30.83,0H45.588l-2.4-4.247a31.841,31.841,0,0,0,3.4-1.448Zm3.207-13.92a29.454,29.454,0,0,1-6.493,4.911c-.029.014-.058.027-.087.044s-.034.022-.052.033a28.94,28.94,0,0,1-5.678,2.378,1.467,1.467,0,0,0-.23.067,29.61,29.61,0,0,1-16.388,0,1.471,1.471,0,0,0-.23-.067,28.937,28.937,0,0,1-5.678-2.378c-.017-.011-.034-.023-.052-.033s-.058-.029-.087-.044a29.451,29.451,0,0,1-6.493-4.911A29.322,29.322,0,1,1,60.586,44.594h-.767a1.481,1.481,0,0,0-1.047.434l-3.931,3.931a22.817,22.817,0,0,0-2.582-7.691A1.481,1.481,0,1,0,49.667,42.7a19.666,19.666,0,0,1,2.392,8.1h-6.53a13.333,13.333,0,1,0,0,2.962h6.523A19.825,19.825,0,1,1,41.87,34.9,1.481,1.481,0,1,0,43.3,32.309a22.97,22.97,0,0,0-14.065-2.628A22.807,22.807,0,1,0,54.846,55.615l3.925,3.925a1.481,1.481,0,0,0,1.047.434h.767A29.227,29.227,0,0,1,53.018,73.018Zm-15.9-23.527A1.481,1.481,0,0,0,35.1,48.95L31.544,51a1.481,1.481,0,0,0,0,2.565L35.1,55.619A1.48,1.48,0,0,0,37.2,53.765h5.342a10.287,10.287,0,0,1-2.931,5.849h0A10.364,10.364,0,1,1,42.545,50.8H37.2A1.477,1.477,0,0,0,37.121,49.492Zm23.311,7.52-3.247-3.247H67.52l3.247,3.247Z" transform="translate(0 -20)" fill="#0f73bb"/>
    </g>
  </g>
</svg>
