<svg id="_005-credit-card-1" data-name="005-credit-card-1" xmlns="http://www.w3.org/2000/svg" width="30" height="20" viewBox="0 0 30 20">
  <g id="Group_297" data-name="Group 297" transform="translate(0 0)">
    <g id="Group_296" data-name="Group 296">
      <path id="Path_377" data-name="Path 377" d="M26.875,85.333H3.125A3.129,3.129,0,0,0,0,88.458v13.75a3.129,3.129,0,0,0,3.125,3.125h23.75A3.129,3.129,0,0,0,30,102.208V88.458A3.129,3.129,0,0,0,26.875,85.333Zm1.875,16.875a1.877,1.877,0,0,1-1.875,1.875H3.125a1.877,1.877,0,0,1-1.875-1.875V88.458a1.877,1.877,0,0,1,1.875-1.875h23.75a1.877,1.877,0,0,1,1.875,1.875v13.75Z" transform="translate(0 -85.333)" fill="#8ba1b2"/>
    </g>
  </g>
  <g id="Group_299" data-name="Group 299" transform="translate(0 3.76)">
    <g id="Group_298" data-name="Group 298">
      <path id="Path_378" data-name="Path 378" d="M29.375,149.333H.625a.623.623,0,0,0-.625.62v3.721a.623.623,0,0,0,.625.62h28.75a.623.623,0,0,0,.625-.62v-3.721A.623.623,0,0,0,29.375,149.333Zm-.625,3.721H1.25v-2.481h27.5v2.481Z" transform="translate(0 -149.333)" fill="#8ba1b2"/>
    </g>
  </g>
  <g id="Group_301" data-name="Group 301" transform="translate(3.721 12.506)">
    <g id="Group_300" data-name="Group 300">
      <path id="Path_379" data-name="Path 379" d="M72.062,298.667H64.62a.62.62,0,1,0,0,1.24h7.442a.62.62,0,1,0,0-1.24Z" transform="translate(-64 -298.667)" fill="#8ba1b2"/>
    </g>
  </g>
  <g id="Group_303" data-name="Group 303" transform="translate(3.721 15.008)">
    <g id="Group_302" data-name="Group 302">
      <path id="Path_380" data-name="Path 380" d="M72.062,341.333H64.62a.62.62,0,0,0,0,1.24h7.442a.62.62,0,0,0,0-1.24Z" transform="translate(-64 -341.333)" fill="#8ba1b2"/>
    </g>
  </g>
  <g id="Group_305" data-name="Group 305" transform="translate(21.318 11.279)">
    <g id="Group_304" data-name="Group 304">
      <path id="Path_381" data-name="Path 381" d="M365.768,277.333h-1.24a1.863,1.863,0,0,0-1.86,1.86v1.24a1.863,1.863,0,0,0,1.86,1.86h1.24a1.863,1.863,0,0,0,1.86-1.86v-1.24A1.863,1.863,0,0,0,365.768,277.333Zm.62,3.1a.62.62,0,0,1-.62.62h-1.24a.62.62,0,0,1-.62-.62v-1.24a.62.62,0,0,1,.62-.62h1.24a.62.62,0,0,1,.62.62Z" transform="translate(-362.667 -277.333)" fill="#8ba1b2"/>
    </g>
  </g>
</svg>
