<svg xmlns="http://www.w3.org/2000/svg" width="19.5" height="21" viewBox="0 0 19.5 21">
  <g id="download_7_" data-name="download (7)" transform="translate(-17.066)">
    <g id="Group_506" data-name="Group 506" transform="translate(17.066 13.5)">
      <g id="Group_505" data-name="Group 505" transform="translate(0)">
        <path id="Path_656" data-name="Path 656" d="M35.816,307.2a.75.75,0,0,0-.75.75v4.5a.75.75,0,0,1-.75.75h-15a.75.75,0,0,1-.75-.75v-4.5a.75.75,0,0,0-1.5,0v4.5a2.25,2.25,0,0,0,2.25,2.25h15a2.25,2.25,0,0,0,2.25-2.25v-4.5A.75.75,0,0,0,35.816,307.2Z" transform="translate(-17.066 -307.2)" fill="#fff"/>
      </g>
    </g>
    <g id="Group_508" data-name="Group 508" transform="translate(22.325)">
      <g id="Group_507" data-name="Group 507">
        <path id="Path_657" data-name="Path 657" d="M145.5,12.97a.75.75,0,0,0-1.042,0l-2.471,2.47V.75a.75.75,0,1,0-1.5,0V15.44l-2.47-2.47a.75.75,0,0,0-1.06,1.06l3.75,3.75a.75.75,0,0,0,1.061,0h0l3.75-3.75A.75.75,0,0,0,145.5,12.97Z" transform="translate(-136.742)" fill="#fff"/>
      </g>
    </g>
  </g>
</svg>
