<svg xmlns="http://www.w3.org/2000/svg" width="12" height="12" viewBox="0 0 12 12">
  <g id="mail_3_" data-name="mail (3)" transform="translate(-27 -159.333)">
    <g id="Group_553" data-name="Group 553" transform="translate(27 159.333)">
      <path id="Path_706" data-name="Path 706" d="M11.385,85.333H.615c-.338,0-.615.415-.615.923V96.41c0,.508.277.923.615.923H11.385c.338,0,.615-.415.615-.923V86.256C12,85.748,11.723,85.333,11.385,85.333Zm-.231.692-4.8,5.4a.473.473,0,0,1-.708,0l-4.8-5.4ZM8.59,91.782l2.615,4.846.009.013H.786l.009-.013L3.41,91.782a.473.473,0,0,0-.034-.487c-.1-.12-.244-.1-.324.051l-2.59,4.8V86.458l4.908,5.521a.817.817,0,0,0,1.261,0l4.908-5.521v9.687l-2.59-4.8c-.08-.149-.226-.171-.324-.051A.473.473,0,0,0,8.59,91.782Z" transform="translate(0 -85.333)" fill="#a0a5aa"/>
    </g>
  </g>
</svg>
