<svg id="_003-linkedin" data-name="003-linkedin" xmlns="http://www.w3.org/2000/svg" width="16" height="16" viewBox="0 0 16 16">
  <path id="Path_82" data-name="Path 82" d="M19.419,19.153h0v-6.2c0-3.035-.653-5.374-4.2-5.374A3.684,3.684,0,0,0,11.9,9.4h-.049V7.857H8.489V19.152h3.5V13.559c0-1.473.279-2.9,2.1-2.9,1.8,0,1.824,1.681,1.824,2.991v5.5Z" transform="translate(-3.423 -3.153)" fill="#fff"/>
  <path id="Path_83" data-name="Path 83" d="M.4,7.977H3.9V19.272H.4Z" transform="translate(-0.117 -3.272)" fill="#fff"/>
  <path id="Path_84" data-name="Path 84" d="M2.032,0A2.041,2.041,0,1,0,4.063,2.032,2.032,2.032,0,0,0,2.032,0Z" fill="#fff"/>
</svg>
