<svg id="Calque_1" data-name="Calque 1" xmlns="http://www.w3.org/2000/svg" xmlns:xlink="http://www.w3.org/1999/xlink" viewBox="0 0 1838.96 653.21"><defs><style>.cls-1{fill:none;}.cls-2,.cls-7{fill:#3783c5;}.cls-3{clip-path:url(#clip-path);}.cls-4{fill:#792777;}.cls-5,.cls-9{fill:#e42629;}.cls-6{fill:#36ad72;}.cls-7{stroke:#3a83c4;}.cls-7,.cls-9{stroke-miterlimit:10;stroke-width:0.25px;}.cls-8{fill:#f9b634;}.cls-9{stroke:#e42629;}.cls-10{fill:#767579;}</style><clipPath id="clip-path" transform="translate(-47.04 -215.64)"><path class="cls-1" d="M595.31,219.34c-15.75,2.27-31.45,4.54-47.11,3.4-82.27-5.94-155.06,17.35-223.69,60.14-9.25,5.79-14.88,8.18-9.1,20.83,13,28.45,3.48,62.38,28,94.76-52.05-7.56-79.35,15.81-106.26,48.81C200.91,491.62,132.9,482.14,92.5,522.85v57.6c115.89,71.4,233,141,335.49,231.94,20.74,18.2,50.05,21.05,66.93,51.36,6.56,11.79,64.16,1.92,90.07-21.52,49-44.1,106.64-74.79,161.23-110.19,11.72-7.63,33.39-9.86,29.76-31.69-3.08-18.35-18.81-22.82-34.31-29-30.22-12-38.63-34.47-35.54-67.55,7.47-79.65,5.7-158.3-46.58-226.77-9.95-13-34.39-31.46-23.59-42.26,34.38-34.39,14.41-78.34,28.45-114.89A102.34,102.34,0,0,0,634,215.65c-12.95,0-25.85,1.85-38.72,3.69"/></clipPath></defs><title>Logo Algeria Invest Final</title><path class="cls-2" d="M1224.24,493.53c9,10.34,23.77,16.94,38.07,16.94,27.5,0,36.75-16.72,36.75-38.51V458.54h-.45c-7.69,11.67-21.78,18-36.74,18-31.9,0-52.59-23.76-52.59-53.68s20.69-54.35,52.37-54.35c15,0,29.7,6.38,37.62,19.58h.44V371.41h20v99c0,30.36-14.29,58.08-57.64,58.08-18.27,0-37.85-6.81-51-18.92Zm40.93-34.32c21.35,0,35.43-16.29,35.43-36.75,0-19.81-14.31-36.74-35.43-36.74-21.79,0-34.54,16.72-34.54,36.74C1230.63,441.6,1243.38,459.21,1265.17,459.21Z" transform="translate(-47.04 -215.64)"/><g class="cls-3"><rect class="cls-4" x="45.6" y="0.01" width="129.31" height="653.19"/></g><path class="cls-5" d="M221.88,461.78c-37.86,28.14-94.07,25.44-129.31,61v57.6c43.18,26.6,86.59,53,129.31,80.28Z" transform="translate(-47.04 -215.64)"/><path class="cls-6" d="M399.62,245.18a439.54,439.54,0,0,0-74.95,37.71c-9.26,5.78-14.88,8.17-9.1,20.81,13,28.46,3.47,62.39,28,94.77-31.85-4.62-54.36,2.39-73.25,16V665.35a880.6,880.6,0,0,0,129.31-46.81Z" transform="translate(-47.04 -215.64)"/><path class="cls-6" d="M399.62,788.1V669.9a661.73,661.73,0,0,1-114.89,32.23c39.4,27,77.95,55.28,114.89,86" transform="translate(-47.04 -215.64)"/><path class="cls-7" d="M448,825.5c16.89,9.1,35,16.81,46.88,38.25,6,10.72,54.21,3.47,82.36-15.58V564.33A591.43,591.43,0,0,1,448,649.15Z" transform="translate(-47.04 -215.64)"/><path class="cls-7" d="M577.28,221.74a157.48,157.48,0,0,1-28.92,1A336.86,336.86,0,0,0,448,230.38V594.56A779.92,779.92,0,0,0,577.35,507.5V221.74Z" transform="translate(-47.04 -215.64)"/><path class="cls-8" d="M659.63,377c-10-13-34.39-31.46-23.6-42.26,34.4-34.39,14.42-78.34,28.46-114.89-13-4-25.91-4.71-38.79-4v247.6a681.58,681.58,0,0,0,52.36-58.3A239.24,239.24,0,0,0,659.63,377" transform="translate(-47.04 -215.64)"/><path class="cls-8" d="M741.75,671.36c-30.23-12-38.63-34.46-35.55-67.55,5.48-58.21,5.86-115.89-14.65-169.48a669.18,669.18,0,0,1-65.85,83.35V809.62C664.49,781.55,706.13,758,746.22,732c11.72-7.63,33.39-9.87,29.77-31.69-3-18.2-18.82-22.75-34.24-28.92" transform="translate(-47.04 -215.64)"/><path class="cls-9" d="M783.7,288.1s-35,72.19-90.76,83.63a113.5,113.5,0,0,0,36.63,0S559.16,722.78,48,734.22c0,0,536.68,130.42,735.7-446.12" transform="translate(-47.04 -215.64)"/><path class="cls-10" d="M1757.07,778.58v16.19h.14a9.84,9.84,0,0,1,1.11-1.2,8.52,8.52,0,0,1,1.61-1.15,9.61,9.61,0,0,1,2.19-.89,10.18,10.18,0,0,1,2.83-.36,10.91,10.91,0,0,1,4.52.93,10.65,10.65,0,0,1,3.55,2.58,11.26,11.26,0,0,1,2.31,3.84,13.53,13.53,0,0,1,.82,4.76,14.15,14.15,0,0,1-.8,4.78,11.62,11.62,0,0,1-2.25,3.89,10.81,10.81,0,0,1-8.29,3.63,10.19,10.19,0,0,1-4.6-1.06,7.89,7.89,0,0,1-3.34-3.08h-.09v3.46h-5.48V778.58Zm13.21,24.7a8.75,8.75,0,0,0-.41-2.67,7.26,7.26,0,0,0-1.22-2.38,6.09,6.09,0,0,0-2.07-1.71,6.3,6.3,0,0,0-2.93-.65,5.86,5.86,0,0,0-2.83.68,7.09,7.09,0,0,0-2.14,1.73,7.67,7.67,0,0,0-1.35,2.4,8.5,8.5,0,0,0-.46,2.69,8.24,8.24,0,0,0,.46,2.67,7.68,7.68,0,0,0,1.35,2.38,6.85,6.85,0,0,0,2.14,1.7,6,6,0,0,0,2.83.65,6.07,6.07,0,0,0,2.93-.67,6.38,6.38,0,0,0,2.07-1.73,7.26,7.26,0,0,0,1.22-2.4,9,9,0,0,0,.41-2.69" transform="translate(-47.04 -215.64)"/><path class="cls-10" d="M1778.26,791.84h6.39l6.44,16.77h.1l5.72-16.77h6l-10.9,28a21.07,21.07,0,0,1-1.35,2.81,7.93,7.93,0,0,1-1.73,2.06,7,7,0,0,1-2.38,1.28,10.94,10.94,0,0,1-3.29.43c-.48,0-1,0-1.47-.07a10.44,10.44,0,0,1-1.51-.27l.48-5a7,7,0,0,0,1.13.26,7.64,7.64,0,0,0,1,.07,4.85,4.85,0,0,0,1.54-.21,2.62,2.62,0,0,0,1.06-.68,4.66,4.66,0,0,0,.77-1.13c.22-.45.46-1,.72-1.58l1.15-2.93Z" transform="translate(-47.04 -215.64)"/><path class="cls-10" d="M1817.66,784a3.32,3.32,0,0,1,1-2.43,3.53,3.53,0,0,1,2.61-1,3.82,3.82,0,0,1,2.67,1,3.35,3.35,0,0,1,0,5,3.79,3.79,0,0,1-2.67,1,3.54,3.54,0,0,1-2.61-1,3.31,3.31,0,0,1-1-2.42m.82,7.83h5.77v23.07h-5.77Z" transform="translate(-47.04 -215.64)"/><path class="cls-10" d="M1831.12,809.62l13.11-12.88a14.8,14.8,0,0,0,2.53-3.1,6.76,6.76,0,0,0,.94-3.58,4.9,4.9,0,0,0-1.56-3.82,5.56,5.56,0,0,0-3.87-1.41,5,5,0,0,0-3.94,1.65,7.5,7.5,0,0,0-1.83,4.16l-5.62-.87a10.59,10.59,0,0,1,1.2-3.89,10.82,10.82,0,0,1,2.45-3.07,11.2,11.2,0,0,1,3.49-2,12.43,12.43,0,0,1,4.34-.74,14.08,14.08,0,0,1,4.26.63,10.52,10.52,0,0,1,3.62,1.89,9.15,9.15,0,0,1,3.47,7.43,10.41,10.41,0,0,1-.44,3,12.73,12.73,0,0,1-1.17,2.67,17.08,17.08,0,0,1-1.73,2.37,26,26,0,0,1-2.15,2.19l-9.8,9.37h15.33v5.28h-22.63Z" transform="translate(-47.04 -215.64)"/><path class="cls-10" d="M1860.86,780.88h13.27a15.74,15.74,0,0,1,3.8.46,9.84,9.84,0,0,1,3.34,1.49,8.18,8.18,0,0,1,2.38,2.67,8,8,0,0,1,.9,3.94,7,7,0,0,1-1.63,4.76,9,9,0,0,1-4.27,2.68v.1a8.92,8.92,0,0,1,5.28,2.5A7.47,7.47,0,0,1,1886,805a9.13,9.13,0,0,1-1.11,4.68,8.75,8.75,0,0,1-2.9,3,12.53,12.53,0,0,1-4.14,1.66,22,22,0,0,1-4.73.5h-12.26Zm6.06,13.84h5.38a7.58,7.58,0,0,0,4.62-1.2,4,4,0,0,0,1.58-3.41,3.48,3.48,0,0,0-1.63-3.27,10.4,10.4,0,0,0-5.09-1h-4.86Zm0,15.09h5.43a20.72,20.72,0,0,0,2.5-.17,8.27,8.27,0,0,0,2.48-.69,5.07,5.07,0,0,0,1.87-1.54,4.49,4.49,0,0,0,.75-2.69,4,4,0,0,0-1.83-3.75,11.27,11.27,0,0,0-5.53-1.06h-5.67Z" transform="translate(-47.04 -215.64)"/><path class="cls-2" d="M926.44,476H902.39l67.12-154.78h19.68L1055.65,476h-24.49l-15.74-38H942ZM949.62,419h57.93l-28.86-72.58Z" transform="translate(-47.04 -215.64)"/><rect class="cls-2" x="1071.56" y="95.1" width="20.55" height="165.27"/><path class="cls-2" d="M1497.46,423.32v3.5a29.35,29.35,0,0,1-.21,3.5h-82.43a30.75,30.75,0,0,0,3,12.26,32.19,32.19,0,0,0,7.32,10,34,34,0,0,0,10.6,6.62,37,37,0,0,0,30.94-2.2,37.2,37.2,0,0,0,12-11.15l14.43,11.58a51.52,51.52,0,0,1-19.57,16.23,62.78,62.78,0,0,1-46.88,1.27,50.51,50.51,0,0,1-17.28-11A51.26,51.26,0,0,1,1398,446.72a57.91,57.91,0,0,1-4.15-22.31,59.46,59.46,0,0,1,4.05-22.19,50.81,50.81,0,0,1,11.28-17.38,52.06,52.06,0,0,1,17.09-11.26,58.66,58.66,0,0,1,42-.32A42.64,42.64,0,0,1,1484,384a48.31,48.31,0,0,1,10,16.94,67.39,67.39,0,0,1,3.5,22.41m-21-8.3a39.27,39.27,0,0,0-2.09-11.49,26.28,26.28,0,0,0-5.46-9.29,25.53,25.53,0,0,0-9-6.22,31.55,31.55,0,0,0-12.57-2.3,33,33,0,0,0-12.35,2.3,31.83,31.83,0,0,0-10.06,6.22,33.26,33.26,0,0,0-7,9.29,29.88,29.88,0,0,0-3.17,11.49Z" transform="translate(-47.04 -215.64)"/><path class="cls-2" d="M1569.38,384q-.23-6.56-.65-11.59h19.45c.3,2.63.51,5.66.66,9.08s.22,6.23.22,8.41h.65a35.86,35.86,0,0,1,12.79-14.75,33.47,33.47,0,0,1,18.91-5.58,32,32,0,0,1,8.09.88l-.87,19a38.67,38.67,0,0,0-9.41-1.09,28.38,28.38,0,0,0-12.89,2.73,26.29,26.29,0,0,0-9.07,7.32,31,31,0,0,0-5.36,10.6,44.65,44.65,0,0,0-1.75,12.57V476H1569.6V394.68q0-4.14-.22-10.71" transform="translate(-47.04 -215.64)"/><path class="cls-2" d="M1716.51,335a12.25,12.25,0,0,1-4,9.4,13.7,13.7,0,0,1-9.65,3.72,13.13,13.13,0,0,1-9.54-3.83,12.52,12.52,0,0,1-3.9-9.29,12.78,12.78,0,0,1,3.9-9.51,13.16,13.16,0,0,1,9.54-3.82,13.53,13.53,0,0,1,9.65,3.82,12.62,12.62,0,0,1,4,9.51m-3.27,141h-20.56V372.39h20.56Z" transform="translate(-47.04 -215.64)"/><path class="cls-2" d="M1857.3,408.89q0-11.58-7-17.16t-18.58-5.58a41,41,0,0,0-16.51,3.39,41.88,41.88,0,0,0-13,8.64l-10.94-13.11A55.17,55.17,0,0,1,1810,373.7a66.71,66.71,0,0,1,23.71-4.16,53.6,53.6,0,0,1,19.35,3.17,36.73,36.73,0,0,1,13.45,8.64,35.34,35.34,0,0,1,7.87,12.89,47.63,47.63,0,0,1,2.62,16v45.26q0,5.25.33,11a57.28,57.28,0,0,0,1.2,9.51h-18.58a64.46,64.46,0,0,1-1.75-14.87h-.66a39.76,39.76,0,0,1-14.32,12.9q-8.62,4.59-20.43,4.59A53.62,53.62,0,0,1,1810,477a37,37,0,0,1-12.14-5.35,30.38,30.38,0,0,1-9.07-9.84q-3.6-6.12-3.61-15.09,0-11.81,6.35-18.69a40,40,0,0,1,16.61-10.49,93.62,93.62,0,0,1,23.17-4.7q12.9-1.09,26-1.09Zm-5,17.71q-7.65,0-15.85.66a73,73,0,0,0-14.87,2.62,28.2,28.2,0,0,0-11,5.9,13.44,13.44,0,0,0-4.37,10.5,14.5,14.5,0,0,0,1.86,7.65,15.45,15.45,0,0,0,4.92,5,19.81,19.81,0,0,0,6.78,2.73,37.71,37.71,0,0,0,7.64.76q14.45,0,22.19-8.63t7.77-21.75V426.6Z" transform="translate(-47.04 -215.64)"/><rect class="cls-10" x="856.08" y="302.55" width="58.55" height="241"/><path class="cls-10" d="M1119.61,759.19V666.6a75.54,75.54,0,0,0-1.19-13.62,37.75,37.75,0,0,0-3.92-11.4,20.42,20.42,0,0,0-7.66-7.83q-4.93-2.89-12.42-2.89a28.27,28.27,0,0,0-13.11,2.89,26.64,26.64,0,0,0-9.36,8,36.17,36.17,0,0,0-5.61,11.74,50.56,50.56,0,0,0-1.88,13.79v91.91H1008.3V589.67h54.12v23.49h.68a56.41,56.41,0,0,1,8-10.72,48,48,0,0,1,11.58-9,71.69,71.69,0,0,1,14.46-6.13,57.29,57.29,0,0,1,16.68-2.38q17,0,28.93,6.12A55.5,55.5,0,0,1,1162,606.86a62.62,62.62,0,0,1,10.55,22.3,101.27,101.27,0,0,1,3.23,25.19V759.19Z" transform="translate(-47.04 -215.64)"/><polygon class="cls-10" points="1275.78 543.54 1215.53 543.54 1148.81 374.03 1210.42 374.03 1246.16 483.98 1247.18 483.98 1282.92 374.03 1342.49 374.03 1275.78 543.54"/><path class="cls-10" d="M1579.13,676.47v6.81a60.38,60.38,0,0,1-.34,6.47H1455.91a29.43,29.43,0,0,0,4.26,12.93,36.51,36.51,0,0,0,9.19,10,45,45,0,0,0,27.06,9q13.27,0,22.46-4.93a44.34,44.34,0,0,0,15-12.77l38.81,24.51a78.45,78.45,0,0,1-31.5,26.72q-19.56,9.36-45.43,9.36a108.48,108.48,0,0,1-36.09-6,87.25,87.25,0,0,1-29.78-17.36,80.27,80.27,0,0,1-20.08-28.08q-7.33-16.66-7.32-38.12,0-20.76,7.15-37.61a84.91,84.91,0,0,1,19.4-28.6A86.59,86.59,0,0,1,1458,590.69a99.2,99.2,0,0,1,36.08-6.47,91.3,91.3,0,0,1,34.38,6.31,74.77,74.77,0,0,1,26.9,18.2,84.34,84.34,0,0,1,17.52,28.94q6.3,17,6.3,38.8M1527.73,655a33.49,33.49,0,0,0-8.34-22.81q-8.34-9.53-25-9.53a42.12,42.12,0,0,0-15,2.56,38.51,38.51,0,0,0-11.92,7,34.54,34.54,0,0,0-8.17,10.38,30.39,30.39,0,0,0-3.4,12.43Z" transform="translate(-47.04 -215.64)"/><path class="cls-10" d="M1713.58,639.71a62.2,62.2,0,0,0-16-10.89,44.14,44.14,0,0,0-19.4-4.43,34,34,0,0,0-14.47,3.07q-6.63,3.06-6.63,10.55,0,7.14,7.31,10.21t23.66,6.81a128.45,128.45,0,0,1,19.23,5.78,68.41,68.41,0,0,1,17.54,9.88,47.31,47.31,0,0,1,12.59,15q4.75,8.85,4.77,21.11,0,16-6.48,27.06a52.89,52.89,0,0,1-16.85,17.87,72.57,72.57,0,0,1-23.31,9.87,112.1,112.1,0,0,1-25.87,3.06A127.75,127.75,0,0,1,1629,758q-19.9-6.63-33.19-19.57l31.32-33A62.49,62.49,0,0,0,1645.5,719a51.09,51.09,0,0,0,23.15,5.45,30.43,30.43,0,0,0,13.45-3.24q6.63-3.22,6.63-11.4,0-7.83-8.17-11.57T1655,690.43a131.61,131.61,0,0,1-17.7-5.45,55.84,55.84,0,0,1-15.82-9.19,45.59,45.59,0,0,1-11.41-14.3q-4.42-8.5-4.42-20.42,0-15.32,6.46-26a55,55,0,0,1,16.68-17.53,74.17,74.17,0,0,1,22.64-10,97.91,97.91,0,0,1,24.68-3.23,119.21,119.21,0,0,1,37.27,6,80.51,80.51,0,0,1,30.8,17.86Z" transform="translate(-47.04 -215.64)"/><path class="cls-10" d="M1835.09,631.2v64.92q0,12,4.6,17.94t16.51,6a58.61,58.61,0,0,0,8.68-.68,29.67,29.67,0,0,0,7.66-2l.68,40.85a92.35,92.35,0,0,1-14.64,3.57,103.72,103.72,0,0,1-17.7,1.53q-17,0-28.59-4.26a44.25,44.25,0,0,1-18.56-12.29,48.38,48.38,0,0,1-10-19.11,93,93,0,0,1-3.06-24.74V631.2H1753.4V589.67h26.89V545.08h54.8v44.59h39.82V631.2Z" transform="translate(-47.04 -215.64)"/></svg>