<?xml version="1.0" encoding="utf-8"?>
<!-- Generator: Adobe Illustrator 25.0.0, SVG Export Plug-In . SVG Version: 6.00 Build 0)  -->
<svg version="1.1" id="Calque_1" xmlns="http://www.w3.org/2000/svg" xmlns:xlink="http://www.w3.org/1999/xlink" x="0px" y="0px"
	 viewBox="0 0 1920 1080" style="enable-background:new 0 0 1920 1080;" xml:space="preserve">
<style type="text/css">
	.st0{clip-path:url(#SVGID_2_);fill:#792777;}
	.st1{fill:#E42629;}
	.st2{fill:#36AD72;}
	.st3{fill:#3783C5;stroke:#3A83C4;stroke-width:0.25;stroke-miterlimit:10;}
	.st4{fill:#F9B634;}
	.st5{fill:#E42629;stroke:#E42629;stroke-width:0.25;stroke-miterlimit:10;}
	.st6{fill:#767579;}
</style>
<g>
	<g>
		<defs>
			<path id="SVGID_1_" d="M574,219.5c-15.7,2.3-31.4,4.5-47.1,3.4c-82.2-5.9-155,17.3-223.6,60.1c-9.2,5.8-14.9,8.2-9.1,20.8
				c13,28.4,3.5,62.3,28,94.7c-52-7.6-79.3,15.8-106.2,48.8c-36.2,44.3-104.2,34.8-144.6,75.5v57.6
				c115.8,71.4,232.9,141,335.3,231.8c20.7,18.2,50,21,66.9,51.3c6.6,11.8,64.1,1.9,90-21.5c49-44.1,106.6-74.8,161.1-110.1
				c11.7-7.6,33.4-9.9,29.7-31.7c-3.1-18.3-18.8-22.8-34.3-29c-30.2-11.9-38.6-34.4-35.5-67.5c7.5-79.6,5.7-158.2-46.6-226.7
				c-9.9-12.9-34.4-31.4-23.6-42.2c34.4-34.4,14.4-78.3,28.4-114.8c-10.2-3.1-20.3-4.2-30.4-4.2C599.8,215.8,586.9,217.7,574,219.5"
				/>
		</defs>
		<clipPath id="SVGID_2_">
			<use xlink:href="#SVGID_1_"  style="overflow:visible;"/>
		</clipPath>
		<rect x="71.6" y="215.8" class="st0" width="129.2" height="652.8"/>
	</g>
	<g>
		<path class="st1" d="M200.8,461.8c-37.8,28.1-94,25.4-129.2,61v57.6c43.2,26.6,86.5,52.9,129.2,80.2V461.8z"/>
		<path class="st2" d="M378.4,245.3c-25.7,9.9-50.6,22.5-74.9,37.7c-9.2,5.8-14.9,8.2-9.1,20.8c13,28.4,3.5,62.3,28,94.7
			c-31.8-4.6-54.3,2.4-73.2,16v250.8c47.2-13.1,90.2-29.1,129.2-46.8V245.3z"/>
		<path class="st2" d="M378.4,788V669.8c-39.2,15-77.9,25.4-114.8,32.2C303,729,341.5,757.3,378.4,788"/>
		<path class="st3" d="M426.8,825.3c16.9,9.1,35,16.8,46.9,38.2c6,10.7,54.2,3.5,82.3-15.6V564.3c-41.6,35.9-85.3,63.5-129.2,84.8
			L426.8,825.3z"/>
		<path class="st3" d="M556,221.9c-9.6,1.1-19.3,1.7-28.9,1c-35-2.5-68.3,0.3-100.3,7.6v364c50.7-27.3,93.6-57.3,129.2-87L556,221.9
			L556,221.9z"/>
		<path class="st4" d="M638.3,377.1c-9.9-12.9-34.4-31.4-23.6-42.2c34.4-34.4,14.4-78.3,28.4-114.8c-12.9-4-25.9-4.7-38.8-4v247.5
			c21-20.8,38.2-40.6,52.3-58.3C651.4,395.8,645.3,386.3,638.3,377.1"/>
		<path class="st4" d="M720.4,671.3c-30.2-11.9-38.6-34.4-35.5-67.5c5.5-58.2,5.9-115.8-14.6-169.4c-20.7,31-42.8,58.6-65.8,83.3
			v291.8c38.8-28,80.4-51.6,120.5-77.6c11.7-7.6,33.4-9.9,29.7-31.7C751.6,682,735.8,677.5,720.4,671.3"/>
		<path class="st5" d="M755,288.2c0,0-34.6,72.2-89.8,83.6c0,0,15.8,3.3,36.2,0c0,0-168.6,350.9-674.4,362.3
			C27,734.1,558.1,864.5,755,288.2"/>
		<path class="st6" d="M1720.1,752.4v16.2h0.1c0.3-0.4,0.7-0.8,1.1-1.2c0.4-0.4,1-0.8,1.6-1.2c0.6-0.4,1.4-0.6,2.2-0.9
			c0.8-0.2,1.8-0.4,2.8-0.4c1.6,0,3.1,0.3,4.5,0.9c1.4,0.6,2.6,1.5,3.6,2.6c1,1.1,1.8,2.4,2.3,3.8c0.5,1.5,0.8,3.1,0.8,4.8
			c0,1.7-0.3,3.3-0.8,4.8c-0.5,1.5-1.3,2.8-2.3,3.9c-1,1.1-2.2,2-3.6,2.6c-1.4,0.7-3,1-4.7,1c-1.6,0-3.2-0.4-4.6-1.1
			c-1.4-0.7-2.5-1.7-3.3-3.1h-0.1v3.5h-5.5v-36.3H1720.1z M1733.3,777.1c0-0.9-0.1-1.8-0.4-2.7c-0.3-0.9-0.7-1.7-1.2-2.4
			s-1.2-1.3-2.1-1.7c-0.8-0.4-1.8-0.6-2.9-0.6c-1.1,0-2,0.2-2.8,0.7c-0.8,0.5-1.5,1-2.1,1.7c-0.6,0.7-1,1.5-1.3,2.4
			c-0.3,0.9-0.5,1.8-0.5,2.7c0,0.9,0.2,1.8,0.5,2.7c0.3,0.9,0.8,1.7,1.3,2.4c0.6,0.7,1.3,1.3,2.1,1.7c0.8,0.4,1.8,0.6,2.8,0.6
			c1.1,0,2.1-0.2,2.9-0.7c0.8-0.4,1.5-1,2.1-1.7c0.5-0.7,1-1.5,1.2-2.4C1733.2,778.9,1733.3,778,1733.3,777.1"/>
		<path class="st6" d="M1741.3,765.7h6.4l6.4,16.8h0.1l5.7-16.8h6l-10.9,28c-0.4,1.1-0.9,2-1.3,2.8c-0.5,0.8-1.1,1.5-1.7,2.1
			c-0.7,0.6-1.5,1-2.4,1.3c-0.9,0.3-2,0.4-3.3,0.4c-0.5,0-1,0-1.5-0.1c-0.5-0.1-1-0.1-1.5-0.3l0.5-5c0.4,0.1,0.8,0.2,1.1,0.3
			c0.4,0,0.7,0.1,1,0.1c0.6,0,1.1-0.1,1.5-0.2c0.4-0.1,0.8-0.4,1.1-0.7c0.3-0.3,0.5-0.7,0.8-1.1c0.2-0.5,0.5-1,0.7-1.6l1.2-2.9
			L1741.3,765.7z"/>
		<path class="st6" d="M1780.7,757.9c0-0.9,0.3-1.7,1-2.4c0.7-0.7,1.6-1,2.6-1c1.1,0,1.9,0.3,2.7,1c0.7,0.7,1.1,1.5,1.1,2.5
			c0,1-0.4,1.8-1.1,2.5c-0.7,0.7-1.6,1-2.7,1c-1.1,0-1.9-0.3-2.6-1C1781,759.6,1780.7,758.8,1780.7,757.9 M1781.5,765.7h5.8v23.1
			h-5.8V765.7z"/>
		<path class="st6" d="M1794.1,783.5l13.1-12.9c1.1-1,1.9-2.1,2.5-3.1c0.6-1,0.9-2.2,0.9-3.6c0-1.6-0.5-2.9-1.6-3.8
			c-1-0.9-2.3-1.4-3.9-1.4c-1.6,0-2.9,0.5-3.9,1.7c-1,1.1-1.6,2.5-1.8,4.2l-5.6-0.9c0.2-1.4,0.6-2.7,1.2-3.9
			c0.6-1.2,1.5-2.2,2.4-3.1c1-0.9,2.2-1.5,3.5-2c1.3-0.5,2.8-0.7,4.3-0.7c1.5,0,2.9,0.2,4.3,0.6c1.4,0.4,2.6,1,3.6,1.9
			c1.1,0.8,1.9,1.9,2.5,3.1c0.6,1.2,0.9,2.7,0.9,4.3c0,1.1-0.1,2.1-0.4,3c-0.3,0.9-0.7,1.8-1.2,2.7c-0.5,0.8-1.1,1.6-1.7,2.4
			c-0.7,0.8-1.4,1.5-2.1,2.2l-9.8,9.4h15.3v5.3h-22.6V783.5z"/>
		<path class="st6" d="M1823.9,754.8h13.3c1.3,0,2.5,0.2,3.8,0.5c1.2,0.3,2.4,0.8,3.3,1.5c1,0.7,1.8,1.6,2.4,2.7
			c0.6,1.1,0.9,2.4,0.9,3.9c0,1.9-0.5,3.5-1.6,4.8c-1.1,1.2-2.5,2.1-4.3,2.7v0.1c2.1,0.3,3.9,1.1,5.3,2.5c1.4,1.4,2.1,3.2,2.1,5.5
			c0,1.9-0.4,3.4-1.1,4.7c-0.7,1.3-1.7,2.3-2.9,3c-1.2,0.8-2.6,1.3-4.1,1.7c-1.5,0.3-3.1,0.5-4.7,0.5h-12.3V754.8z M1829.9,768.6
			h5.4c2,0,3.6-0.4,4.6-1.2c1.1-0.8,1.6-1.9,1.6-3.4c0-1.5-0.5-2.6-1.6-3.3c-1.1-0.6-2.8-1-5.1-1h-4.9V768.6z M1829.9,783.7h5.4
			c0.8,0,1.6-0.1,2.5-0.2c0.9-0.1,1.7-0.3,2.5-0.7c0.7-0.4,1.4-0.9,1.9-1.5s0.7-1.6,0.7-2.7c0-1.8-0.6-3-1.8-3.8
			c-1.2-0.7-3.1-1.1-5.5-1.1h-5.7V783.7z"/>
		<g>
			<path class="st6" d="M883.3,741.7V543.2h48.2v198.5H883.3z"/>
			<path class="st6" d="M1098.6,741.7l-79.9-129.8h-0.8l1.1,129.8h-46.5V543.2h54.7l79.6,129.5h0.8l-1.1-129.5h46.5v198.5H1098.6z"
				/>
			<path class="st6" d="M1292.3,741.7h-47.9l-75.1-198.5h53.8l46,140.7h1.1l45.7-140.7h53L1292.3,741.7z"/>
			<path class="st6" d="M1385.1,741.7V543.2h133.5v40.7h-87.2v37.3h82.4v38.4h-82.4v41.2h92.2v40.9H1385.1z"/>
			<path class="st6" d="M1655.1,594.8c-8.1-10.4-23-17.1-35.3-17.1c-12.3,0-27.8,4.2-27.8,19.9c0,13.2,11.8,17.1,30.6,23.3
				c26.9,8.7,61.7,19.9,61.7,59.7c0,45.7-36.7,66.2-76,66.2c-28.3,0-56.6-10.4-74.3-28.6l31.4-32c9.8,12.1,27.2,21,42.9,21
				c14.6,0,27.5-5.6,27.5-21.6c0-14.9-15.1-20.2-41.2-28.3c-25.5-8.1-50.7-21-50.7-56.9c0-44,39.5-62.2,76.8-62.2
				c22.4,0,47.4,8.4,65,24.4L1655.1,594.8z"/>
			<path class="st6" d="M1800.9,584.2v157.6H1753V584.2h-56.1v-40.9H1857v40.9H1800.9z"/>
		</g>
		<g>
			<path class="st3" d="M897.8,467.9h-19.2l74.4-172h17l73.9,172h-19.4l-19-45.2h-88.9L897.8,467.9z M923.1,406.7h75.8L961,315.3
				L923.1,406.7z"/>
			<path class="st3" d="M1115.8,467.9h-16.5V284.2h16.5V467.9z"/>
			<path class="st3" d="M1196.7,490.7c9,11.7,26,20.9,43.5,20.9c32.3,0,44.5-20.2,44.5-44.7v-21.4h-0.5c-8.7,14.3-26.5,22.4-43,22.4
				c-35.5,0-58.8-24.5-58.8-57.8c0-32.3,23.3-58.8,58.8-58.8c16.5,0,34,8,43,22.6h0.5v-19.7h16.5v112.7c0,24.5-11.4,59.3-61.7,59.3
				c-21.1,0-41.1-8.5-54.7-22.8L1196.7,490.7z M1242.8,453.8c25.3,0,43.7-17.7,43.7-44.2c0-23.8-18.5-44.5-43.7-44.5
				c-27.2,0-43,20.7-43,44.5C1199.8,433.6,1215.6,453.8,1242.8,453.8z"/>
			<path class="st3" d="M1478,415.4h-94.3c0.7,22.6,18,41.3,41.5,41.3c17.3,0,29.9-9.2,36.4-19.7l12.4,9.7
				c-13.6,17.3-30.1,24.1-48.8,24.1c-33.8,0-58.8-25.5-58.8-59.8s25-59.8,57.3-59.8c35.7,0,54.4,25.5,54.4,56.4
				C1478.3,409.8,1478.3,412.5,1478,415.4z M1461.5,402.3c-1-21.4-14.1-37.2-37.7-37.2c-22.1,0-38.6,17.7-39.8,37.2H1461.5z"/>
			<path class="st3" d="M1544.4,379.2c0-6.1-0.2-17.3-1-25h15.8c0.7,6.1,1,14.6,1,19.4h0.5c6.6-13.4,20.2-22.4,36.4-22.4
				c4.1,0,7.3,0.2,10.9,1.2l-2.2,15.6c-1.9-0.7-7-1.5-11.7-1.5c-17.5,0-33.3,12.6-33.3,43v58.3h-16.5V379.2z"/>
			<path class="st3" d="M1671,322.1c-5.8,0-11.7-4.9-11.7-11.7s5.8-11.7,11.7-11.7c5.8,0,11.7,4.9,11.7,11.7
				S1676.8,322.1,1671,322.1z M1679.2,467.9h-16.5V354.2h16.5V467.9z"/>
			<path class="st3" d="M1825.5,394.5c0-19.7-10.7-29.4-30.4-29.4c-13.6,0-25.8,5.3-33.8,13.4l-9.2-10.9
				c9.5-9.5,25.3-16.3,44.7-16.3c24.5,0,44.2,13.4,44.2,41.3v49.8c0,8.7,0.7,19,1.9,25.5h-14.8c-1-5.6-1.7-12.4-1.7-18.5h-0.5
				c-10.4,15.3-22.8,21.4-41.3,21.4c-17.3,0-39.4-9.2-39.4-34.5c0-35,38.6-38.1,80.2-38.1V394.5z M1820.6,411
				c-27,0-58.3,3.2-58.3,24.5c0,16.3,13.8,21.6,26.7,21.6c23.3,0,36.4-17.5,36.4-37.7V411H1820.6z"/>
		</g>
	</g>
</g>
</svg>
