<svg id="Group_134" data-name="Group 134" xmlns="http://www.w3.org/2000/svg" width="53.69" height="18.14" viewBox="0 0 53.69 18.14">
  <path id="Path_156" data-name="Path 156" d="M663.614,91.156c.082-.475.186-.948.309-1.407l-.712-.191c-.129.481-.237.977-.323,1.473Z" transform="translate(-624.163 -89.558)" fill="#fff"/>
  <path id="Path_157" data-name="Path 157" d="M682.214,111.106a6.1,6.1,0,0,0,2.959-.987l-.407-.614a5.357,5.357,0,0,1-2.6.865Zm-3.06-.6.326-.661a7.416,7.416,0,0,1-2.2-1.736l-.548.493A8.136,8.136,0,0,0,679.154,110.5Zm8.07-2.74a6.072,6.072,0,0,0,.635-2.676c0-.074,0-.149,0-.224l-.009-.16-.735.054.007.134c0,.066,0,.131,0,.2a5.346,5.346,0,0,1-.559,2.351Zm-28.506-.168,0-.737c-.96,0-1.948-.044-2.935-.116l-.054.735C656.736,107.553,657.741,107.592,658.718,107.6Zm2.988-.1.47-.036c.906-.075,1.726-.177,2.509-.312l-.126-.726c-.761.132-1.561.231-2.445.305l-.46.035Zm-8.942-.335.1-.731c-.948-.128-1.925-.29-2.9-.479l-.14.723C650.812,106.871,651.8,107.035,652.764,107.166Zm14.849-.745a14.266,14.266,0,0,0,2.413-1.07c.116-.065.231-.132.345-.2l-.381-.631c-.107.065-.215.128-.326.19a13.577,13.577,0,0,1-2.289,1.015Zm7.353-.294.639-.367a16.522,16.522,0,0,1-1.216-2.627l-.693.25A17.264,17.264,0,0,0,674.966,106.127Zm-28.057-.082.173-.716c-.922-.223-1.88-.477-2.85-.754l-.2.708C645.008,105.564,645.977,105.82,646.909,106.045Zm-5.726-1.631.228-.7q-1.405-.455-2.8-.95l-.246.694Q639.768,103.954,641.183,104.414Zm31.648-.971A20.491,20.491,0,0,1,675.024,102l.246-.13-.337-.655c-.088.045-.176.091-.262.139a21.223,21.223,0,0,0-2.274,1.494Zm13.247-1.108.515-.527a6.287,6.287,0,0,0-2.712-1.455l-.247.695A5.731,5.731,0,0,1,686.078,102.336Zm-8.116-1.439a11.711,11.711,0,0,1,2.554-.283l.3,0,.018-.737a12.464,12.464,0,0,0-3.032.3Zm-5.043-.434.726-.129a17.1,17.1,0,0,1-.262-2.885l-.737,0A17.818,17.818,0,0,0,672.918,100.463Z" transform="translate(-634.169 -92.966)" fill="#fff"/>
  <path id="Path_158" data-name="Path 158" d="M731.361,105.268l.262-.689q-.687-.262-1.373-.531l-.268.686Q730.67,105,731.361,105.268Z" transform="translate(-729.982 -95.816)" fill="#fff"/>
</svg>
