<svg xmlns="http://www.w3.org/2000/svg" width="73.749" height="73.749" viewBox="0 0 73.749 73.749">
  <g id="flat" transform="translate(-3 -3)">
    <path id="Path_863" data-name="Path 863" d="M71.663,76.749H8.086A5.086,5.086,0,0,1,3,71.663V3H56.4L71.663,18.258Z" fill="#e5e4d1"/>
    <path id="Path_864" data-name="Path 864" d="M60.258,18.258H45V3Z" transform="translate(11.405)" fill="#c6c3a7"/>
    <path id="Path_865" data-name="Path 865" d="M47,5H59.715V17.715Z" transform="translate(11.948 0.543)" fill="#e5e4d1"/>
    <path id="Path_866" data-name="Path 866" d="M57,8h5.086V70.305A5.086,5.086,0,0,1,57,75.391Z" transform="translate(14.663 1.358)" fill="#d3d1b6"/>
    <g id="Group_797" data-name="Group 797" transform="translate(6.815 6.815)">
      <path id="Path_867" data-name="Path 867" d="M14.9,16.172h-.39L10.7,6H6V18.715H8.543V8.543h.39l3.815,10.172h4.7V6H14.9Z" transform="translate(-6 -6)" fill="#d75745"/>
      <path id="Path_868" data-name="Path 868" d="M34.172,16.172h-.411l-2.223-5.558a1.272,1.272,0,0,0-2.363,0l-2.223,5.558h-.411V6H24V17.444a1.272,1.272,0,0,0,1.272,1.272h2.543a1.272,1.272,0,0,0,1.181-.8l1.362-3.406,1.362,3.406a1.272,1.272,0,0,0,1.181.8h2.543a1.272,1.272,0,0,0,1.272-1.272V6H34.172Z" transform="translate(-1.112 -6)" fill="#d75745"/>
      <path id="Path_869" data-name="Path 869" d="M17,18.715h6.358V16.172H19.543V13.629h3.815V11.086H19.543V8.543h3.815V6H17Z" transform="translate(-3.013 -6)" fill="#d75745"/>
      <path id="Path_870" data-name="Path 870" d="M43.629,8.543V6H37.272A1.272,1.272,0,0,0,36,7.272v5.086a1.272,1.272,0,0,0,1.272,1.272h3.815v2.543H36v2.543h6.358a1.272,1.272,0,0,0,1.272-1.272V12.358a1.272,1.272,0,0,0-1.272-1.272H38.543V8.543Z" transform="translate(2.146 -6)" fill="#d75745"/>
    </g>
    <path id="Path_871" data-name="Path 871" d="M6,18H67.034v2.543H6Z" transform="translate(0.815 4.073)" fill="#2d75bb"/>
    <path id="Path_872" data-name="Path 872" d="M7,24H34.974V39.258H7Z" transform="translate(1.086 5.702)" fill="#f9bb4b"/>
    <path id="Path_873" data-name="Path 873" d="M6,43H23.8v2.543H6Z" transform="translate(0.815 10.861)" fill="#394d5c"/>
    <path id="Path_874" data-name="Path 874" d="M6,39H36.517v2.543H6Z" transform="translate(0.815 9.775)" fill="#394d5c"/>
    <path id="Path_875" data-name="Path 875" d="M6,47H33.974v2.543H6Z" transform="translate(0.815 11.948)" fill="#394d5c"/>
    <path id="Path_876" data-name="Path 876" d="M0,0H17.8V10.172H0Z" transform="translate(66.577 60.219) rotate(180)" fill="#f9bb4b"/>
    <path id="Path_877" data-name="Path 877" d="M0,0H58.491V5.086H0Z" transform="translate(66.577 70.391) rotate(180)" fill="#2d75bb"/>
    <path id="Path_878" data-name="Path 878" d="M33,24H58.431v5.086H33Z" transform="translate(8.146 5.702)" fill="#f9bb4b"/>
    <path id="Path_879" data-name="Path 879" d="M33,32H58.431v5.086H33Z" transform="translate(8.146 7.875)" fill="#f9bb4b"/>
    <path id="Path_880" data-name="Path 880" d="M32,39h5.086v2.543H32Z" transform="translate(7.875 9.775)" fill="#394d5c"/>
    <path id="Path_881" data-name="Path 881" d="M22,43H39.8v2.543H22Z" transform="translate(5.159 10.861)" fill="#394d5c"/>
    <path id="Path_882" data-name="Path 882" d="M30,47h7.629v2.543H30Z" transform="translate(7.332 11.948)" fill="#394d5c"/>
  </g>
</svg>
