<svg id="surface1" xmlns="http://www.w3.org/2000/svg" width="53.423" height="53.423" viewBox="0 0 53.423 53.423">
  <path id="Path_444" data-name="Path 444" d="M44.519,9.433V4.452A4.458,4.458,0,0,0,40.067,0H4.452A4.458,4.458,0,0,0,0,4.452V24.04a4.443,4.443,0,0,0,3.992,4.406l3.347,8.688a4.453,4.453,0,0,0,5.755,2.554l20.9-8.051A12.871,12.871,0,0,0,35.1,43.066l.512.818v8.649a.89.89,0,0,0,.89.89H52.533a.89.89,0,0,0,.89-.89V23.142a11.652,11.652,0,0,0-3.411-8.207Zm0,5.325,2.7,7.015a2.671,2.671,0,0,1-1.533,3.452l-1.545.6a4.453,4.453,0,0,0,.376-1.781ZM1.781,24.04V4.452A2.672,2.672,0,0,1,4.452,1.781H40.067a2.672,2.672,0,0,1,2.671,2.671v5.659h-.008l.008.02V24.04a2.7,2.7,0,0,1-.061.461l-8.156-8.157a4.75,4.75,0,0,0-6.856,6.569l3.477,3.8H4.452A2.672,2.672,0,0,1,1.781,24.04Zm11.407,4.452L6.856,30.93l-.937-2.438Zm-.734,9.534A2.671,2.671,0,0,1,9,36.494L7.5,32.588l10.629-4.1v-.005H32.775l1.157,1.262ZM51.642,51.642H37.4V44.519H51.642Zm0-8.9H37l-.386-.617a11.1,11.1,0,0,1-.225-11.4.89.89,0,0,0-.117-1.044l-7.3-7.96a2.969,2.969,0,0,1,4.288-4.107L47.451,31.793l1.259-1.259L45.416,27.24l.914-.356a4.452,4.452,0,0,0,2.553-5.752l-3.014-7.826,2.884,2.89a9.86,9.86,0,0,1,2.89,6.946Zm0,0" fill="#8ba1b2"/>
  <path id="Path_445" data-name="Path 445" d="M69.089,71.4A2.315,2.315,0,0,0,71.4,69.089V64.815A2.315,2.315,0,0,0,69.089,62.5H64.815A2.315,2.315,0,0,0,62.5,64.815v4.274A2.315,2.315,0,0,0,64.815,71.4Zm-4.808-2.315V67.842h1.781V66.062H64.281V64.815a.534.534,0,0,1,.534-.534h4.274a.534.534,0,0,1,.534.534v1.247H67.842v1.781h1.781v1.247a.534.534,0,0,1-.534.534H64.815A.534.534,0,0,1,64.281,69.089Zm0,0" transform="translate(-58.938 -58.938)" fill="#8ba1b2"/>
  <path id="Path_446" data-name="Path 446" d="M78.125,265.625h3.562v1.781H78.125Zm0,0" transform="translate(-73.673 -250.488)" fill="#8ba1b2"/>
  <path id="Path_447" data-name="Path 447" d="M78.125,359.375h3.562v1.781H78.125Zm0,0" transform="translate(-73.673 -338.896)" fill="#8ba1b2"/>
  <path id="Path_448" data-name="Path 448" d="M359.375,359.375h3.562v1.781h-3.562Zm0,0" transform="translate(-338.896 -338.896)" fill="#8ba1b2"/>
  <path id="Path_449" data-name="Path 449" d="M171.875,265.625h3.562v1.781h-3.562Zm0,0" transform="translate(-162.081 -250.488)" fill="#8ba1b2"/>
  <path id="Path_450" data-name="Path 450" d="M265.625,265.625h3.562v1.781h-3.562Zm0,0" transform="translate(-250.488 -250.488)" fill="#8ba1b2"/>
  <path id="Path_451" data-name="Path 451" d="M359.375,265.625h3.562v1.781h-3.562Zm0,0" transform="translate(-338.896 -250.488)" fill="#8ba1b2"/>
  <path id="Path_452" data-name="Path 452" d="M656.25,78.125h1.781V80.8H656.25Zm0,0" transform="translate(-618.854 -73.673)" fill="#8ba1b2"/>
  <path id="Path_453" data-name="Path 453" d="M593.75,78.125h1.781V80.8H593.75Zm0,0" transform="translate(-559.915 -73.673)" fill="#8ba1b2"/>
  <path id="Path_454" data-name="Path 454" d="M531.25,78.125h1.781V80.8H531.25Zm0,0" transform="translate(-500.977 -73.673)" fill="#8ba1b2"/>
  <path id="Path_455" data-name="Path 455" d="M468.75,78.125h1.781V80.8H468.75Zm0,0" transform="translate(-442.038 -73.673)" fill="#8ba1b2"/>
  <path id="Path_456" data-name="Path 456" d="M687.5,812.5h1.781v1.781H687.5Zm0,0" transform="translate(-648.323 -766.2)" fill="#8ba1b2"/>
</svg>
