<?xml version="1.0" encoding="iso-8859-1"?>
<!-- Generator: Adobe Illustrator 19.0.0, SVG Export Plug-In . SVG Version: 6.00 Build 0)  -->
<svg version="1.1" id="Capa_1" xmlns="http://www.w3.org/2000/svg" xmlns:xlink="http://www.w3.org/1999/xlink" x="0px" y="0px"
	 viewBox="0 0 384 384" style="enable-background:new 0 0 384 384;" xml:space="preserve">
<g>
	<g>
		<path d="M64,0v80H0v144h64v160h224l96-96V0H64z M16,208V96h240v112H16z M288,361.376V288h73.376L288,361.376z M368,272h-96v96H80
			V224h192V80H80V16h288V272z"/>
	</g>
</g>
<g>
	<g>
		<polygon points="45.152,117.856 45.152,129.184 60.128,129.184 60.128,186.4 73.952,186.4 73.952,129.184 88.928,129.184 
			88.928,129.184 88.928,117.856 		"/>
	</g>
</g>
<g>
	<g>
		<polygon points="133.584,151.744 149.504,117.856 134.448,117.856 125.712,140.032 116.88,117.856 101.616,117.856 
			117.344,151.744 100.272,186.4 115.424,186.4 125.216,163.168 135.104,186.4 150.656,186.4 		"/>
	</g>
</g>
<g>
	<g>
		<polygon points="161.984,117.856 161.984,129.184 176.96,129.184 176.96,186.4 190.768,186.4 190.768,129.184 205.76,129.184 
			205.76,117.856 		"/>
	</g>
</g>
<g>
</g>
<g>
</g>
<g>
</g>
<g>
</g>
<g>
</g>
<g>
</g>
<g>
</g>
<g>
</g>
<g>
</g>
<g>
</g>
<g>
</g>
<g>
</g>
<g>
</g>
<g>
</g>
<g>
</g>
</svg>
