<svg xmlns="http://www.w3.org/2000/svg" width="13.506" height="16" viewBox="0 0 13.506 16">
  <g id="_004-youtube-logotype" data-name="004-youtube-logotype" transform="translate(-7.067)">
    <g id="Group_72" data-name="Group 72" transform="translate(7.067)">
      <path id="Path_85" data-name="Path 85" d="M20.34,38.84a1.706,1.706,0,0,0-1.46-1.327,45.378,45.378,0,0,0-5.057-.187,45.392,45.392,0,0,0-5.058.187A1.706,1.706,0,0,0,7.305,38.84a14.461,14.461,0,0,0-.238,3.193A14.459,14.459,0,0,0,7.3,45.225a1.706,1.706,0,0,0,1.46,1.327,45.38,45.38,0,0,0,5.057.187,45.348,45.348,0,0,0,5.058-.187,1.706,1.706,0,0,0,1.46-1.327,14.47,14.47,0,0,0,.236-3.193A14.48,14.48,0,0,0,20.34,38.84Zm-9.42.793H9.942v5.194H9.034V39.632h-.96v-.851h2.845Zm2.466,5.195h-.817v-.491a1.308,1.308,0,0,1-.933.553.5.5,0,0,1-.526-.335,2.3,2.3,0,0,1-.072-.67V40.323h.816v3.316a2.541,2.541,0,0,0,.007.317c.02.127.082.191.191.191.164,0,.335-.126.516-.382V40.323h.817v4.5Zm3.1-1.352a3.6,3.6,0,0,1-.083.908.646.646,0,0,1-.652.506,1.112,1.112,0,0,1-.844-.5v.437h-.816V38.782h.816v1.974a1.106,1.106,0,0,1,.844-.489.646.646,0,0,1,.652.508,3.459,3.459,0,0,1,.083.906Zm3.08-.752H17.934v.8c0,.417.136.625.417.625a.351.351,0,0,0,.365-.327,5.135,5.135,0,0,0,.018-.553h.833v.119c0,.263-.01.444-.017.526a1.163,1.163,0,0,1-.191.489,1.13,1.13,0,0,1-.987.488,1.169,1.169,0,0,1-.988-.461,1.745,1.745,0,0,1-.262-1.059V41.791a1.753,1.753,0,0,1,.252-1.061,1.16,1.16,0,0,1,.978-.462,1.134,1.134,0,0,1,.963.462,1.77,1.77,0,0,1,.253,1.061v.933Z" transform="translate(-7.067 -30.739)" fill="#85a9c3"/>
      <path id="Path_86" data-name="Path 86" d="M69.067,58.163q-.409,0-.41.625V59.2h.816v-.417C69.473,58.371,69.337,58.163,69.067,58.163Z" transform="translate(-57.789 -47.9)" fill="#85a9c3"/>
      <path id="Path_87" data-name="Path 87" d="M51.912,58.163a.585.585,0,0,0-.407.2v2.745a.582.582,0,0,0,.407.2c.235,0,.355-.2.355-.608V58.778C52.267,58.371,52.147,58.163,51.912,58.163Z" transform="translate(-43.664 -47.9)" fill="#85a9c3"/>
      <path id="Path_88" data-name="Path 88" d="M53.575,13.435a1.325,1.325,0,0,0,.942-.559v.5h.825V8.82h-.825V12.3c-.183.258-.356.386-.521.386-.11,0-.175-.065-.193-.193a1.913,1.913,0,0,1-.01-.321V8.82H52.97v3.6a2.3,2.3,0,0,0,.073.677A.507.507,0,0,0,53.575,13.435Z" transform="translate(-44.87 -7.264)" fill="#85a9c3"/>
      <path id="Path_89" data-name="Path 89" d="M18.5,3.635V6.109h.915V3.635L20.518,0h-.925l-.624,2.4L18.32,0h-.963c.193.566.393,1.135.586,1.7A15.048,15.048,0,0,1,18.5,3.635Z" transform="translate(-15.541)" fill="#85a9c3"/>
      <path id="Path_90" data-name="Path 90" d="M36.532,13.178a1.124,1.124,0,0,0,.962-.466,1.781,1.781,0,0,0,.256-1.071V10.047a1.784,1.784,0,0,0-.256-1.072,1.223,1.223,0,0,0-1.923,0,1.769,1.769,0,0,0-.258,1.072v1.594a1.765,1.765,0,0,0,.258,1.071A1.124,1.124,0,0,0,36.532,13.178Zm-.394-3.3c0-.421.128-.631.394-.631s.393.21.393.631V11.8c0,.421-.127.632-.393.632s-.394-.211-.394-.632Z" transform="translate(-30.329 -7.007)" fill="#85a9c3"/>
    </g>
  </g>
</svg>
