<?xml version="1.0" encoding="utf-8"?>
<!-- Generator: Adobe Illustrator 23.0.1, SVG Export Plug-In . SVG Version: 6.00 Build 0)  -->
<svg version="1.1" id="Calque_1" xmlns="http://www.w3.org/2000/svg" xmlns:xlink="http://www.w3.org/1999/xlink" x="0px" y="0px"
	 viewBox="0 0 500 500" style="enable-background:new 0 0 500 500;" xml:space="preserve">
<style type="text/css">
	.st0{fill-rule:evenodd;clip-rule:evenodd;fill:#FFFFFF;}
	.st1{fill:#1D1D1B;}
</style>
<g>
	<polygon class="st0" points="0,0 500,0 500,500 0,500 0,0 	"/>
	<polygon class="st1" points="76.6,243.5 73.9,254.7 48.4,254.7 43.7,274.5 79.4,274.5 76.7,285.7 22.1,285.7 38.9,214.4 
		92.7,214.4 90,225.6 55.3,225.6 51.1,243.5 76.6,243.5 	"/>
	<polygon class="st1" points="89,285.7 106.3,213.1 124.6,213.1 107.3,285.7 89,285.7 	"/>
	<path class="st1" d="M204.9,227.8c-4.6,13.1-8.2,22.3-11.9,31.5l-11.1,26.4h-23.2l-1.3-71.3h18l-1.2,28.6
		c-0.4,9.3-0.8,18.6-1.7,30.3h0.4c4.4-12.1,8.3-21.3,12.1-30.4l11.8-28.6H220l-1.7,28.7c-0.5,9.2-0.9,18.2-2.2,30.2h0.4
		c4.7-11.8,8.5-21,12.5-30.2l12.3-28.8h18l-34.9,71.3h-23.2l1.5-27c0.6-9.1,1.2-18.1,2.8-30.9H204.9L204.9,227.8z"/>
	<path class="st1" d="M277.8,285.7c-0.5-0.8-0.6-1.9-0.6-3.1H277c-3.6,2.1-9.7,4.3-17,4.3c-14.4,0-19.9-5.7-17.7-15.1
		c2.4-10.3,12.5-17.1,41.7-20.3l0.4-1.7c1.4-5.8,0.2-9.6-5.7-9.6c-5,0-8.3,3.8-10.2,7.4l-17.2-1.1c4.1-7.5,12.4-15.1,29.9-15.1
		c15.4,0,24,4.2,20.1,20.8l-6,25.4c-1,4.2-1.2,6.5,0.2,7.4l-0.2,0.7H277.8L277.8,285.7z M282.1,259.7c-14.2,1.7-20.4,5.8-21.6,11.1
		c-1,4,0.8,6.5,5.9,6.5c3.3,0,8.1-1.1,12.4-3.7L282.1,259.7L282.1,259.7z"/>
	<path class="st1" d="M324.5,220.5H342l-2.9,12.1h12l-2.3,9.7h-12l-5.4,22.7c-1.8,7.8-0.7,11.7,3.9,11.7c3.1,0,6.2-1.5,8.2-2.7
		l0.9,9.7c-4.5,1.7-9.6,3.2-15.3,3.2c-12.9,0-19.1-5.1-15.8-18.8l6.1-25.8h-7.1l2.3-9.7h7.1L324.5,220.5L324.5,220.5z"/>
	<path class="st1" d="M386.4,285.7c-0.5-0.8-0.6-1.9-0.6-3.1h-0.3c-3.6,2.1-9.7,4.3-17,4.3c-14.4,0-19.9-5.7-17.7-15.1
		c2.4-10.3,12.5-17.1,41.7-20.3l0.4-1.7c1.4-5.8,0.2-9.6-5.7-9.6c-5,0-8.3,3.8-10.2,7.4l-17.2-1.1c4.1-7.5,12.4-15.1,29.9-15.1
		c15.4,0,24,4.2,20.1,20.8l-6,25.4c-1,4.2-1.2,6.5,0.2,7.4l-0.2,0.7H386.4L386.4,285.7z M390.7,259.7c-14.2,1.7-20.4,5.8-21.6,11.1
		c-0.9,4,0.8,6.5,5.9,6.5c3.3,0,8.1-1.1,12.4-3.7L390.7,259.7L390.7,259.7z"/>
	<path class="st1" d="M451.2,285.7l7.2-30.2c1-4.4,1.5-7.8,0.6-9.8c-0.7-1.4-2.1-2.4-4.8-2.4c-2.1,0-4.5,0.6-6.7,1.5
		c-2.4,1.1-5.3,2.8-7.9,4.7l-8.6,36.1h-17.3l12.6-53.1h17.3l-1.5,5.6h0.6c3.4-1.9,6.9-3.6,10.3-4.8c3.3-1.2,7-2,10.7-2
		c5.9,0,10.1,1.5,12.3,4.6c2.1,3,2.5,7.7,0.8,14.5l-8.4,35.3H451.2L451.2,285.7z"/>
</g>
</svg>
