<?xml version="1.0" encoding="utf-8"?>
<!-- Generator: Adobe Illustrator 23.0.1, SVG Export Plug-In . SVG Version: 6.00 Build 0)  -->
<!DOCTYPE svg PUBLIC "-//W3C//DTD SVG 1.1//EN" "http://www.w3.org/Graphics/SVG/1.1/DTD/svg11.dtd" [
	<!ENTITY ns_extend "http://ns.adobe.com/Extensibility/1.0/">
	<!ENTITY ns_ai "http://ns.adobe.com/AdobeIllustrator/10.0/">
	<!ENTITY ns_graphs "http://ns.adobe.com/Graphs/1.0/">
	<!ENTITY ns_vars "http://ns.adobe.com/Variables/1.0/">
	<!ENTITY ns_imrep "http://ns.adobe.com/ImageReplacement/1.0/">
	<!ENTITY ns_sfw "http://ns.adobe.com/SaveForWeb/1.0/">
	<!ENTITY ns_custom "http://ns.adobe.com/GenericCustomNamespace/1.0/">
	<!ENTITY ns_adobe_xpath "http://ns.adobe.com/XPath/1.0/">
]>
<svg version="1.1" id="Calque_1" xmlns:x="&ns_extend;" xmlns:i="&ns_ai;" xmlns:graph="&ns_graphs;"
	 xmlns="http://www.w3.org/2000/svg" xmlns:xlink="http://www.w3.org/1999/xlink" x="0px" y="0px" viewBox="0 0 1366 768"
	 style="enable-background:new 0 0 1366 768;" xml:space="preserve">
<style type="text/css">
	.Ombre_x0020_portée{fill:none;}
	.Lueur_x0020_externe_x0020_5 pt{fill:none;}
	.Néon_x0020_bleu{fill:none;stroke:#8AACDA;stroke-width:7;stroke-linecap:round;stroke-linejoin:round;}
	.Ton_x0020_clair_x0020_chrome{fill:url(#SVGID_1_);stroke:#FFFFFF;stroke-width:0.3629;stroke-miterlimit:1;}
	.Swing_GS{fill:#FFDD00;}
	.Alysse_GS{fill:#A6D0E4;}
	.st0{fill:#E42629;}
	.st1{fill:#36AD72;}
	.st2{fill:#3783C5;stroke:#3A83C4;stroke-width:0.25;stroke-miterlimit:10;}
	.st3{fill:#F9B634;}
	.st4{fill:#E42629;stroke:#E42629;stroke-width:0.25;stroke-miterlimit:10;}
	.st5{fill:#767579;}
</style>
<metadata>
	<sfw  xmlns="&ns_sfw;">
		<slices></slices>
		<sliceSourceBounds  bottomLeftOrigin="true" height="492.4" width="1322.1" x="16.9" y="-630.7"></sliceSourceBounds>
	</sfw>
</metadata>
<linearGradient id="SVGID_1_" gradientUnits="userSpaceOnUse" x1="0" y1="0" x2="6.123234e-17" y2="-1">
	<stop  offset="0" style="stop-color:#656565"/>
	<stop  offset="0.618" style="stop-color:#1B1B1B"/>
	<stop  offset="0.6292" style="stop-color:#545454"/>
	<stop  offset="0.9831" style="stop-color:#3E3E3E"/>
</linearGradient>
<g>
	<path class="st0" d="M142.6,321c-27.4,20.2-68,18.3-93.5,44v41.5c31.3,19.1,62.5,38.2,93.5,58.1V321z"/>
	<path class="st1" d="M270.9,164.5c-18.5,7.2-36.5,16.3-54.2,27.1c-6.6,4.1-10.8,5.8-6.6,14.9c9.4,20.5,2.5,45.1,20.2,68.3
		c-23-3.3-39.3,1.7-52.8,11.6v181.2c34-9.4,65.3-21,93.5-33.7V164.5z"/>
	<path class="st1" d="M270.9,556.6v-85.5c-28.2,10.8-56.4,18.3-83,23.2C216.4,514,244.3,534.2,270.9,556.6"/>
	<path class="st2" d="M305.7,583.5c12.2,6.6,25.2,12.2,33.7,27.7c4.4,7.7,39.3,2.5,59.5-11.3V394.8c-30.1,26-61.7,45.9-93.5,61.1
		L305.7,583.5z"/>
	<path class="st2" d="M399.2,147.6c-6.9,0.8-14.1,1.1-20.7,0.8c-25.2-1.9-49.2,0.3-72.5,5.5v263c36.5-19.6,67.5-41.5,93.5-62.8
		L399.2,147.6L399.2,147.6z"/>
	<path class="st3" d="M458.7,259.6c-7.2-9.4-24.9-22.7-17.1-30.4c24.9-24.9,10.5-56.7,20.5-83c-9.4-2.8-18.8-3.3-27.9-2.8v178.7
		c15.2-14.9,27.7-29.3,37.9-42C468.1,273.1,463.7,266.2,458.7,259.6"/>
	<path class="st3" d="M517.9,472.3c-21.8-8.6-27.9-24.9-25.7-48.7c3.9-42,4.1-83.8-10.5-122.2c-14.9,22.4-31,42.3-47.6,60.3v210.7
		c27.9-20.2,58.1-37.3,87.1-56.1c8.6-5.5,24.1-7.2,21.6-23C540.5,480,528.9,476.7,517.9,472.3"/>
	<path class="st4" d="M543,195.4c0,0-24.9,52-65,60.3c0,0,11.3,2.2,26.3,0c0,0-121.7,253.3-487.3,261.6
		C17,517.6,400.6,611.7,543,195.4"/>
	<path class="st5" d="M1240.3,476.7v11.6l0,0c0.3-0.3,0.6-0.6,0.8-0.8c0.3-0.3,0.8-0.6,1.1-0.8c0.6-0.3,1.1-0.6,1.7-0.6
		c0.6-0.3,1.4-0.3,1.9-0.3c1.1,0,2.2,0.3,3.3,0.6c1.1,0.6,1.9,1.1,2.5,1.9c0.8,0.8,1.4,1.7,1.7,2.8c0.3,1.1,0.6,2.2,0.6,3.3
		c0,1.1-0.3,2.5-0.6,3.3c-0.3,1.1-0.8,1.9-1.7,2.8c-0.8,0.8-1.7,1.4-2.5,1.9c-1.1,0.6-2.2,0.8-3.3,0.8c-1.1,0-2.2-0.3-3.3-0.8
		c-1.1-0.6-1.9-1.4-2.5-2.2l0,0v2.5h-3.9v-26.3h4.1V476.7z M1249.7,494.4c0-0.6,0-1.4-0.3-1.9c-0.3-0.6-0.6-1.1-0.8-1.7
		c-0.3-0.6-0.8-0.8-1.4-1.1c-0.6-0.3-1.4-0.6-2.2-0.6c-0.8,0-1.4,0.3-1.9,0.6c-0.6,0.3-1.1,0.8-1.7,1.4c-0.6,0.6-0.8,1.1-1.1,1.7
		s-0.3,1.4-0.3,1.9c0,0.6,0,1.4,0.3,1.9c0.3,0.6,0.6,1.1,1.1,1.7s0.8,0.8,1.7,1.1c0.6,0.3,1.4,0.6,1.9,0.6c0.8,0,1.4-0.3,2.2-0.6
		c0.6-0.3,1.1-0.8,1.4-1.4c0.3-0.6,0.6-1.1,0.8-1.7C1249.7,495.8,1249.7,495.2,1249.7,494.4"/>
	<path class="st5" d="M1255.5,486.4h4.7l4.7,12.2l0,0l4.1-12.2h4.4l-7.7,20.2c-0.3,0.8-0.6,1.4-1.1,1.9c-0.3,0.6-0.8,1.1-1.4,1.4
		c-0.6,0.3-1.1,0.8-1.7,0.8c-0.6,0-1.4,0.3-2.5,0.3c-0.3,0-0.8,0-1.1,0c-0.3,0-0.8,0-1.1-0.3l0.3-3.6c0.3,0,0.6,0.3,0.8,0.3
		c0.3,0,0.6,0,0.8,0c0.6,0,0.8,0,1.1-0.3c0.3-0.3,0.6-0.3,0.8-0.6c0.3-0.3,0.3-0.6,0.6-0.8c0.3-0.3,0.3-0.8,0.6-1.1l0.8-2.2
		L1255.5,486.4z"/>
	<path class="st5" d="M1284,480.6c0-0.6,0.3-1.4,0.8-1.7c0.6-0.6,1.1-0.8,1.9-0.8c0.8,0,1.4,0.3,1.9,0.8c0.6,0.6,0.8,1.1,0.8,1.7
		c0,0.8-0.3,1.4-0.8,1.7c-0.6,0.6-1.1,0.8-1.9,0.8s-1.4-0.3-1.9-0.8C1284.2,482,1284,481.4,1284,480.6 M1284.5,486.4h4.1V503h-4.1
		V486.4z"/>
	<path class="st5" d="M1293.6,499.1l9.4-9.4c0.8-0.8,1.4-1.4,1.9-2.2c0.6-0.8,0.6-1.7,0.6-2.5c0-1.1-0.3-2.2-1.1-2.8
		c-0.8-0.6-1.7-1.1-2.8-1.1c-1.1,0-2.2,0.3-2.8,1.1c-0.8,0.8-1.1,1.9-1.4,3l-4.1-0.6c0-1.1,0.3-1.9,0.8-2.8c0.6-0.8,1.1-1.7,1.7-2.2
		c0.8-0.6,1.7-1.1,2.5-1.4c0.8-0.3,1.9-0.6,3-0.6c1.1,0,2.2,0.3,3,0.6c1.1,0.3,1.9,0.8,2.5,1.4c0.8,0.6,1.4,1.4,1.9,2.2
		c0.6,0.8,0.6,1.9,0.6,3c0,0.8,0,1.4-0.3,2.2c-0.3,0.6-0.6,1.4-0.8,1.9c-0.3,0.6-0.8,1.1-1.4,1.7c-0.6,0.6-1.1,1.1-1.7,1.7l-7.2,6.6
		h11.1v3.9h-16.3v-3.9H1293.6z"/>
	<path class="st5" d="M1314.9,478.4h9.7c0.8,0,1.9,0,2.8,0.3c0.8,0.3,1.7,0.6,2.5,1.1c0.8,0.6,1.4,1.1,1.7,1.9
		c0.6,0.8,0.6,1.7,0.6,2.8c0,1.4-0.3,2.5-1.1,3.3c-0.8,0.8-1.9,1.7-3,1.9l0,0c1.7,0.3,2.8,0.8,3.9,1.9c1.1,1.1,1.4,2.2,1.4,3.9
		c0,1.4-0.3,2.5-0.8,3.3c-0.6,0.8-1.1,1.7-2.2,2.2c-0.8,0.6-1.9,0.8-3,1.1c-1.1,0.3-2.2,0.3-3.3,0.3h-8.9V478.4z M1319.4,488.3h3.9
		c1.4,0,2.5-0.3,3.3-0.8c0.8-0.6,1.1-1.4,1.1-2.5s-0.3-1.9-1.1-2.5c-0.8-0.6-1.9-0.8-3.6-0.8h-3.6L1319.4,488.3L1319.4,488.3z
		 M1319.4,499.4h3.9c0.6,0,1.1,0,1.9,0c0.6,0,1.4-0.3,1.7-0.6c0.6-0.3,1.1-0.6,1.4-1.1c0.3-0.6,0.6-1.1,0.6-1.9
		c0-1.4-0.6-2.2-1.4-2.8s-2.2-0.8-3.9-0.8h-4.1L1319.4,499.4L1319.4,499.4z"/>
	<g>
		<path class="st5" d="M635.7,469V325.7h34.8V469H635.7z"/>
		<path class="st5" d="M791.1,469l-57.8-93.8h-0.6l0.8,93.8h-33.7V325.7h39.5l57.5,93.5h0.6l-0.8-93.5h33.7V469H791.1z"/>
		<path class="st5" d="M931.1,469h-34.6l-54.2-143.3h39l33.2,101.8h0.8l32.9-101.8h38.2L931.1,469z"/>
		<path class="st5" d="M998,469V325.7h96.5V355h-63.1v26.8h59.5v27.7h-59.5v29.9h66.7V469H998z"/>
		<path class="st5" d="M1193.2,362.8c-5.8-7.5-16.6-12.4-25.4-12.4s-20.2,3-20.2,14.4c0,9.4,8.6,12.4,22.1,16.9
			c19.4,6.4,44.5,14.4,44.5,43.1c0,32.9-26.6,47.8-54.8,47.8c-20.5,0-40.9-7.5-53.7-20.7l22.7-23c7.2,8.6,19.6,15.2,31,15.2
			c10.5,0,19.9-4.1,19.9-15.5c0-10.8-11.1-14.7-29.9-20.5c-18.5-5.8-36.8-15.2-36.8-41.2c0-31.8,28.5-45.1,55.6-45.1
			c16.3,0,34.3,6.1,47,17.7L1193.2,362.8z"/>
		<path class="st5" d="M1298.6,355V469H1264V355h-40.4v-29.6H1339V355L1298.6,355L1298.6,355z"/>
	</g>
	<g>
		<path class="st2" d="M646.2,271.2h-13.8L686,147h12.2l53.4,124.2h-14.1l-13.8-32.6h-64.2L646.2,271.2z M664.4,227h54.8l-27.4-66.1
			L664.4,227z"/>
		<path class="st2" d="M803.6,271.2h-11.9V138.5h11.9V271.2z"/>
		<path class="st2" d="M861.9,287.5c6.4,8.3,18.8,15.2,31.5,15.2c23.2,0,32.1-14.7,32.1-32.4v-15.5h-0.3c-6.4,10.2-19.1,16-31,16
			c-25.7,0-42.6-17.7-42.6-41.8c0-23.2,16.9-42.6,42.6-42.6c11.9,0,24.6,5.8,31,16.3h0.3v-14.1h11.9v81.3c0,17.7-8.3,42.9-44.5,42.9
			c-15.2,0-29.6-6.1-39.5-16.6L861.9,287.5z M895.4,261c18.3,0,31.5-12.7,31.5-32.1c0-17.1-13.3-32.1-31.5-32.1
			c-19.6,0-31,14.9-31,32.1C864.1,246.3,875.7,261,895.4,261z"/>
		<path class="st2" d="M1065.2,233.3h-68c0.6,16.3,13,29.9,30.1,29.9c12.4,0,21.6-6.6,26.3-14.1l8.9,6.9
			c-10,12.4-21.8,17.4-35.4,17.4c-24.3,0-42.6-18.5-42.6-43.1s18-43.1,41.5-43.1c25.7,0,39.3,18.5,39.3,40.7
			C1065.5,229.2,1065.5,231.1,1065.2,233.3z M1053.3,223.6c-0.8-15.5-10.2-26.8-27.1-26.8c-16,0-27.9,12.7-28.8,26.8H1053.3z"/>
		<path class="st2" d="M1113,207c0-4.4-0.3-12.4-0.8-18h11.3c0.6,4.4,0.8,10.5,0.8,14.1h0.3c4.7-9.7,14.7-16,26.3-16
			c3,0,5.3,0.3,8,0.8l-1.7,11.3c-1.4-0.6-5-1.1-8.3-1.1c-12.7,0-24.1,9.1-24.1,31v42H1113V207z"/>
		<path class="st2" d="M1204.6,165.8c-4.1,0-8.3-3.6-8.3-8.3c0-4.7,4.1-8.3,8.3-8.3s8.3,3.6,8.3,8.3
			C1212.9,162.2,1208.7,165.8,1204.6,165.8z M1210.7,271.2h-11.9v-82.1h11.9V271.2z"/>
		<path class="st2" d="M1316.3,218.1c0-14.1-7.7-21.3-21.8-21.3c-10,0-18.5,3.9-24.3,9.7l-6.6-8c6.9-6.9,18.3-11.9,32.4-11.9
			c17.7,0,32.1,9.7,32.1,29.9v36c0,6.4,0.6,13.8,1.4,18.5h-10.8c-0.8-4.1-1.1-8.9-1.1-13.3h-0.3c-7.5,11.1-16.6,15.5-29.9,15.5
			c-12.4,0-28.5-6.6-28.5-24.9c0-25.2,27.9-27.7,57.8-27.7v-2.5H1316.3z M1312.7,230c-19.4,0-42,2.2-42,17.7
			c0,11.9,10,15.5,19.4,15.5c16.9,0,26.3-12.7,26.3-27.1V230H1312.7z"/>
	</g>
	<path class="st0" d="M666.7,574.3h-23.2v53.4h-8.9V514.9h31.3c20.7,0,37.1,8.6,37.1,29.6C703.4,564.1,688,574.3,666.7,574.3z
		 M666.1,522.3h-22.4v44.5h22.7c16.6,0,28.2-7.5,28.2-22.4C694.6,528.7,682.4,522.3,666.1,522.3z"/>
	<path class="st0" d="M800,627.7h-10.5l-32.1-54.2h-21.6v54.2H727V514.9h32.6c20.5,0,37.3,6.9,37.3,29.3c0,18.3-14.4,27.7-30.1,28.8
		L800,627.7z M735.5,522.3V566h22.4c19.4,0,29.9-7.5,29.9-21.8c0-16.3-13-21.8-30.1-21.8H735.5z"/>
	<path class="st0" d="M892.6,627.7h-70.8V514.9h68.6v7.7h-59.7v42.6h55.9v7.7h-55.9v47h62L892.6,627.7L892.6,627.7z"/>
	<path class="st0" d="M1027,627.7h-8.9V525.9h-0.6l-43.7,101.8h-5l-43.7-101.8H925v101.8h-8.9V514.9H930l42,98.2l0.3-0.3l41.5-98.2
		h13.8v113.1H1027z"/>
	<path class="st0" d="M1067.1,627.7h-8.9V514.9h8.9V627.7z"/>
	<path class="st0" d="M1182.5,585.4c0,20.7-9.1,45.4-42.3,45.4c-33.2,0-42.6-24.3-42.6-45.4v-70.5h8.9v69.4c0,18,6.9,38.4,33.7,38.4
		c26.6,0,33.7-20.2,33.7-38.4v-69.4h8.9v70.5H1182.5z"/>
	<path class="st0" d="M1323.8,627.7h-8.9V525.9h-0.6l-43.7,101.8h-5L1222,525.9h-0.3v101.8h-8.9V514.9h13.8l42,98.2l0.3-0.3
		l41.5-98.2h13.8v113.1H1323.8z"/>
</g>
</svg>
