<?xml version="1.0" encoding="utf-8"?>
<!-- Generator: Adobe Illustrator 23.0.1, SVG Export Plug-In . SVG Version: 6.00 Build 0)  -->
<!DOCTYPE svg PUBLIC "-//W3C//DTD SVG 1.1//EN" "http://www.w3.org/Graphics/SVG/1.1/DTD/svg11.dtd" [
	<!ENTITY ns_extend "http://ns.adobe.com/Extensibility/1.0/">
	<!ENTITY ns_ai "http://ns.adobe.com/AdobeIllustrator/10.0/">
	<!ENTITY ns_graphs "http://ns.adobe.com/Graphs/1.0/">
	<!ENTITY ns_vars "http://ns.adobe.com/Variables/1.0/">
	<!ENTITY ns_imrep "http://ns.adobe.com/ImageReplacement/1.0/">
	<!ENTITY ns_sfw "http://ns.adobe.com/SaveForWeb/1.0/">
	<!ENTITY ns_custom "http://ns.adobe.com/GenericCustomNamespace/1.0/">
	<!ENTITY ns_adobe_xpath "http://ns.adobe.com/XPath/1.0/">
]>
<svg version="1.1" id="Calque_1" xmlns:x="&ns_extend;" xmlns:i="&ns_ai;" xmlns:graph="&ns_graphs;"
	 xmlns="http://www.w3.org/2000/svg" xmlns:xlink="http://www.w3.org/1999/xlink" x="0px" y="0px" viewBox="0 0 500 500"
	 style="enable-background:new 0 0 500 500;" xml:space="preserve">
<style type="text/css">
	.st0{fill-rule:evenodd;clip-rule:evenodd;}
	.st1{fill:#ED1C24;}
	.st2{fill-rule:evenodd;clip-rule:evenodd;fill:#FFFFFF;}
</style>
<metadata>
	<sfw  xmlns="&ns_sfw;">
		<slices></slices>
		<sliceSourceBounds  bottomLeftOrigin="true" height="82.8" width="351.2" x="71.2" y="215.2"></sliceSourceBounds>
	</sfw>
</metadata>
<g>
	<path d="M83.2,277.1c0,1.4,0.5,2.4,1.6,3.1c0.7,0.5,1,1,1,1.6v1.8c0,0.6-0.3,0.9-1,0.9H72.2c-0.6,0-0.9-0.3-0.9-0.8v-1.9
		c0-0.6,0.3-1.1,1-1.6c1-0.7,1.6-1.8,1.6-3.1v-47.5c0-1.3-0.5-2.4-1.6-3.1c-0.7-0.5-1-1-1-1.6v-1.8c0-0.6,0.3-0.9,1-0.9h12.5
		c0.6,0,0.9,0.3,0.9,0.8v1.8c0,0.6-0.3,1.1-1,1.6c-1,0.7-1.6,1.8-1.6,3.1V277.1z"/>
</g>
<g>
	<path d="M112.1,255.9v-26.3c0-1.3-0.5-2.4-1.6-3.1c-0.7-0.5-1-1-1-1.6v-1.8c0-0.6,0.3-0.9,1-0.9h9c0.6,0,0.9,0.3,0.9,0.8v1.8
		c0,0.6-0.3,1.1-1,1.6c-1,0.7-1.6,1.8-1.6,3.1v54c0,0.9-0.4,1.3-1.1,1.3h-1.7c-0.8,0-1.3-0.4-1.7-1.3l-16.7-43.7v37.3
		c0,1.4,0.5,2.4,1.6,3.1c0.7,0.5,1,1,1,1.6v1.8c0,0.6-0.3,0.9-1,0.9h-9c-0.6,0-0.9-0.3-0.9-0.8v-1.9c0-0.6,0.3-1.1,1-1.6
		c1-0.7,1.6-1.8,1.6-3.1v-47.5c0-1.3-0.5-2.4-1.6-3.1c-0.7-0.5-1-1-1-1.6v-1.8c0-0.6,0.3-0.9,1-0.9h8.5c0.6,0,1,0.1,1.2,0.2
		c0.2,0.1,0.4,0.5,0.6,1.1L112.1,255.9z"/>
</g>
<g>
	<path d="M123.3,224.8v-2.1c0-0.4,0.3-0.6,0.9-0.6h10.4c5.9,0,10.9,2.4,14.9,7.2c4,4.8,6.1,12.6,6.1,23.4c0,5.5-0.6,10.9-1.8,15.9
		c-1.2,5.1-3.2,9-5.9,11.7c-2.7,2.8-7.2,4.1-13.6,4.1H124c-0.5,0-0.7-0.2-0.7-0.7v-2c0-0.6,0.3-1.1,1-1.6c1-0.7,1.5-1.8,1.5-3.1
		v-47.5c0-1.3-0.5-2.4-1.3-3C123.6,226,123.3,225.5,123.3,224.8z M135,226.9v52.9c2.7,0,4.7-0.7,6.2-2c1.5-1.3,2.6-4.1,3.2-8.4
		c0.7-4.3,1-9.3,1-14.9c0-6.1-0.3-10.9-0.7-14.4c-0.5-3.6-1.1-6.2-1.9-8c-0.7-1.8-1.7-3.1-2.8-3.8
		C138.9,227.5,137.2,227.1,135,226.9z"/>
</g>
<g>
	<path d="M187.8,284.6h-27.5c-0.7,0-0.9-0.3-0.9-0.9v-1.8c0-0.5,0.5-1.1,1.3-1.8c0.7-0.6,1.1-1.6,1.1-2.9v-47.5
		c0-1.4-0.5-2.4-1.5-3.1c-0.7-0.5-1-1-1-1.6v-2c0-0.5,0.3-0.7,0.9-0.7H181c0.4,0,1.1-0.1,2.2-0.1c0.9-0.1,1.6-0.1,1.8-0.1
		c0.9,0,1.3,0.3,1.3,0.7v11.8c0,0.6-0.1,1-0.2,1.1c-0.1,0.1-0.5,0.2-1,0.2h-1.5c-0.7,0-1-0.4-1.1-1.1c-0.3-2.1-0.8-3.8-1.6-5.3
		c-0.7-1.5-2.4-2.3-4.7-2.3h-5.1v22.7h1.8c1.1,0,2-0.2,2.4-0.7s0.9-1.8,1.6-4.2c0.2-0.7,0.3-1.1,0.5-1.2c0.1-0.1,0.3-0.1,0.7-0.1
		h1.8c0.7,0,1,0.3,1,1v15.1c0,0.7-0.3,0.9-0.9,0.9h-1.8c-0.4,0-0.7-0.1-0.8-0.3c-0.1-0.2-0.4-0.8-0.7-1.9c-0.5-1.9-1-3-1.6-3.4
		s-1.3-0.6-2.4-0.6h-1.6v25.4h5.4c2,0,3.4-0.5,4.2-1.4c0.7-0.9,1.8-3.6,2.9-7.8c0.3-0.9,0.7-1.4,1.4-1.4h1.8c0.7,0,1,0.3,1,1
		L187.8,284.6L187.8,284.6z"/>
</g>
<g>
	<path d="M201.7,255.9v21.2c0,1.4,0.5,2.4,1.6,3.1c0.7,0.5,1,1,1,1.6v1.8c0,0.6-0.3,0.9-1,0.9h-12.5c-0.6,0-0.9-0.3-0.9-0.8v-1.9
		c0-0.6,0.3-1.1,1-1.6c1-0.7,1.6-1.8,1.6-3.1v-47.5c0-1.3-0.5-2.4-1.6-3.1c-0.7-0.5-1-1-1-1.6v-1.8c0-0.6,0.3-0.9,1-0.9h10.9
		c5.9,0,10.5,1.6,13.7,4.6s4.9,7.1,4.9,12.2C220.2,250.3,214.1,255.9,201.7,255.9z M201.7,226.9v24.2c2.4,0,4.2-0.3,5.3-0.8
		c1.1-0.5,2-1.6,2.7-3.3c0.7-1.6,1-4.2,1-7.6s-0.3-6-0.9-7.7s-1.6-2.9-2.8-3.6C205.8,227.4,204,227,201.7,226.9z"/>
</g>
<g>
	<path d="M251.6,284.6h-27.5c-0.7,0-0.9-0.3-0.9-0.9v-1.8c0-0.5,0.5-1.1,1.3-1.8c0.7-0.6,1.1-1.6,1.1-2.9v-47.5
		c0-1.4-0.5-2.4-1.5-3.1c-0.7-0.5-1-1-1-1.6v-2c0-0.5,0.3-0.7,0.9-0.7h20.6c0.4,0,1.1-0.1,2.2-0.1c0.9-0.1,1.6-0.1,1.8-0.1
		c0.9,0,1.3,0.3,1.3,0.7v11.8c0,0.6-0.1,1-0.2,1.1c-0.1,0.1-0.5,0.2-1,0.2h-1.5c-0.7,0-1-0.4-1.1-1.1c-0.3-2.1-0.8-3.8-1.6-5.3
		s-2.3-2.2-4.6-2.2h-5.1v22.7h1.8c1.1,0,2-0.2,2.4-0.7c0.4-0.5,0.9-1.8,1.6-4.2c0.2-0.7,0.3-1.1,0.5-1.2c0.1-0.1,0.3-0.1,0.7-0.1
		h1.8c0.7,0,1,0.3,1,1v15.1c0,0.7-0.3,0.9-0.9,0.9h-1.8c-0.4,0-0.7-0.1-0.8-0.3s-0.4-0.8-0.7-1.9c-0.5-1.9-1-3-1.6-3.4
		s-1.3-0.6-2.4-0.6h-1.6v25.4h5.4c2,0,3.4-0.5,4.2-1.4c0.7-0.9,1.8-3.6,2.9-7.8c0.3-0.9,0.7-1.4,1.4-1.4h1.8c0.7,0,1,0.3,1,1v14.4
		H251.6z"/>
</g>
<g>
	<path d="M277.5,255.9v-26.3c0-1.3-0.5-2.4-1.6-3.1c-0.7-0.5-1-1-1-1.6v-1.8c0-0.6,0.3-0.9,1-0.9h9.1c0.6,0,0.9,0.3,0.9,0.8v1.8
		c0,0.6-0.3,1.1-1,1.6c-1,0.7-1.6,1.8-1.6,3.1v54c0,0.9-0.4,1.3-1.1,1.3h-1.8c-0.8,0-1.3-0.4-1.7-1.3L262,239.8v37.3
		c0,1.4,0.5,2.4,1.6,3.1c0.7,0.5,1,1,1,1.6v1.8c0,0.6-0.3,0.9-1,0.9h-9c-0.6,0-0.9-0.3-0.9-0.8v-1.9c0-0.6,0.3-1.1,1-1.6
		c1-0.7,1.6-1.8,1.6-3.1v-47.5c0-1.3-0.5-2.4-1.6-3.1c-0.7-0.5-1-1-1-1.6v-1.8c0-0.6,0.3-0.9,1-0.9h8.5c0.6,0,1,0.1,1.2,0.2
		c0.2,0.1,0.4,0.5,0.6,1.1L277.5,255.9z"/>
</g>
<g>
	<path d="M288.6,224.8v-2.1c0-0.4,0.3-0.6,0.9-0.6H300c5.9,0,10.9,2.4,14.9,7.2c4,4.8,6.1,12.6,6.1,23.4c0,5.5-0.6,10.9-1.8,15.9
		c-1.2,5.1-3.2,9-5.9,11.7c-2.7,2.8-7.2,4.1-13.6,4.1h-10.3c-0.5,0-0.7-0.2-0.7-0.7v-2c0-0.6,0.3-1.1,1-1.6c1-0.7,1.5-1.8,1.5-3.1
		v-47.5c0-1.3-0.5-2.4-1.3-3C289,226,288.6,225.5,288.6,224.8z M300.3,226.9v52.9c2.7,0,4.7-0.7,6.2-2c1.5-1.3,2.6-4.1,3.2-8.4
		c0.7-4.3,1-9.3,1-14.9c0-6.1-0.3-10.9-0.7-14.4c-0.5-3.6-1.1-6.2-1.9-8s-1.7-3.1-2.8-3.8C304.2,227.5,302.6,227.1,300.3,226.9z"/>
</g>
<g>
	<path d="M334.1,230.1l-0.4-2.7c-0.1-0.9-0.2-1.3-0.2-1.5c0-0.3,0.2-0.5,0.6-0.7l6.8-3.2c0.1-0.1,0.2-0.1,0.3-0.1
		c0.4,0,0.6,0.3,0.7,0.7l10.9,54.4c0.2,1,0.4,1.7,0.7,2.2c0.3,0.4,0.8,0.9,1.6,1.3c0.6,0.4,0.9,0.8,0.9,1.3v1.8
		c0,0.7-0.3,0.9-0.7,0.9h-13.4c-0.7,0-1.1-0.3-1.1-0.9V282c0-0.6,0.4-1.1,1.3-1.6c1.1-0.5,1.6-1.3,1.6-2.3c0-0.3,0-0.6-0.1-0.9
		l-1.7-8.4h-10.4l-1.7,8.1c-0.1,0.3-0.1,0.6-0.1,0.7c0,0.8,0.6,1.7,1.8,2.6c0.7,0.7,1.1,1.2,1.1,1.7v1.8c0,0.7-0.4,0.9-1.1,0.9h-8.4
		c-0.9,0-1.4-0.3-1.4-0.9v-2.1c0-0.5,0.3-1,0.9-1.3c1.1-0.7,1.8-1.8,2.2-3.4L334.1,230.1z M336.9,243l-4.2,20.6h8.3L336.9,243z"/>
</g>
<g>
	<path d="M381.9,255.9v-26.3c0-1.3-0.5-2.4-1.6-3.1c-0.7-0.5-1-1-1-1.6v-1.8c0-0.6,0.3-0.9,1-0.9h9c0.6,0,0.9,0.3,0.9,0.8v1.8
		c0,0.6-0.3,1.1-1,1.6c-1,0.7-1.6,1.8-1.6,3.1v54c0,0.9-0.4,1.3-1.1,1.3h-1.7c-0.8,0-1.3-0.4-1.7-1.3l-16.7-43.7v37.3
		c0,1.4,0.5,2.4,1.6,3.1c0.7,0.5,1,1,1,1.6v1.8c0,0.6-0.3,0.9-1,0.9h-9c-0.6,0-0.9-0.3-0.9-0.8v-1.9c0-0.6,0.3-1.1,1-1.6
		c1-0.7,1.6-1.8,1.6-3.1v-47.5c0-1.3-0.5-2.4-1.6-3.1c-0.7-0.5-1-1-1-1.6v-1.8c0-0.6,0.3-0.9,1-0.9h8.5c0.6,0,1,0.1,1.2,0.2
		c0.2,0.1,0.4,0.5,0.6,1.1L381.9,255.9z"/>
</g>
<g>
	<path d="M412.1,226.9v50.2c0,1.4,0.5,2.4,1.6,3.1c0.7,0.5,1,1,1,1.6v1.8c0,0.6-0.3,0.9-1,0.9h-12.5c-0.6,0-0.9-0.3-0.9-0.8v-1.9
		c0-0.6,0.3-1.1,1-1.6c1-0.7,1.6-1.8,1.6-3.1v-50.3H401c-1.3,0-2.3,0.5-2.9,1.5c-0.6,1-1.2,3.2-1.7,6.5c-0.1,0.5-0.3,0.7-0.8,0.7
		h-1.6c-0.9,0-1.3-0.4-1.3-1.1v-11.7c0-0.9,0.4-1.3,1.3-1.3c0.5,0,1.5,0.1,2.8,0.3c2.2,0.3,3.8,0.5,5,0.5h14.2
		c0.7-0.1,1.6-0.3,2.6-0.5c1.6-0.3,2.5-0.3,2.6-0.3c0.7,0,1.1,0.3,1.1,1v12c0,0.8-0.3,1.1-1,1.1h-1.6c-0.6,0-1-0.2-1.1-0.5
		c-0.1-0.3-0.3-1.2-0.6-2.6c-0.5-2.3-0.9-3.8-1.5-4.5s-1.4-1.1-2.7-1.1L412.1,226.9L412.1,226.9z"/>
</g>
<polyline class="st0" points="171.9,211 187.5,211 173.2,218.2 159.3,218.1 "/>
<rect x="71.2" y="202" class="st1" width="58.5" height="16.1"/>
<path class="st2" d="M125.7,212.2l0.5,0.1c-0.1,0.6-0.3,2-0.4,2.5h-6v-0.5c0.9-0.1,1.1-0.2,1.1-1.6v-6.3c0-1.3-0.1-1.4-0.9-1.5v-0.5
	h5.6l0.1,2.4l-0.5,0.1c-0.1-0.6-0.3-1-0.5-1.3c-0.2-0.3-0.5-0.4-1.3-0.4h-0.5c-0.4,0-0.5,0.1-0.5,0.6v3.4h0.7c1,0,1.1-0.1,1.3-1.2
	h0.5v3.2h-0.5c-0.2-1.1-0.3-1.2-1.3-1.2h-0.7v2.9c0,0.7,0.1,1.1,0.3,1.2c0.2,0.1,0.5,0.2,1,0.2c0.7,0,1.1-0.1,1.3-0.5
	C125.3,213.3,125.5,212.8,125.7,212.2 M119,204.5v0.5c-0.7,0.1-0.9,0.3-0.9,0.9c-0.1,0.5-0.1,1.3-0.1,2.7v6.5h-0.6l-4.6-7.8h-0.1
	v3.6c0,1.3,0.1,2.2,0.1,2.7c0.1,0.6,0.3,0.9,1.1,0.9v0.5h-3v-0.5c0.7-0.1,0.9-0.3,1-0.9c0.1-0.5,0.1-1.3,0.1-2.7v-3.4
	c0-1.1,0-1.3-0.2-1.7c-0.2-0.4-0.5-0.6-1-0.7v-0.5h2.2l4.2,6.9h0.1v-2.8c0-1.4-0.1-2.2-0.1-2.7c-0.1-0.5-0.3-0.8-1.1-0.9v-0.5
	L119,204.5z M110.5,204.5v0.5c-0.7,0-0.9,0.3-0.9,0.9c-0.1,0.5-0.1,1.1-0.1,2.4v1.8c0,1.6-0.1,3-0.8,3.9c-0.5,0.7-1.3,1.1-2.2,1.1
	c-0.7,0-1.6-0.2-2.1-0.8c-0.7-0.7-0.9-1.8-0.9-3.6v-4c0-1.4-0.1-1.6-0.9-1.6v-0.5h3.5v0.5c-0.8,0.1-0.9,0.2-0.9,1.6v3.9
	c0,2.3,0.6,3.4,1.8,3.4c1.3,0,1.9-1.2,1.9-3.8v-1.9c0-1.3-0.1-1.9-0.1-2.4c-0.1-0.5-0.3-0.8-1.1-0.9v-0.5H110.5z M101.4,212.2
	l0.5,0.1c-0.1,0.6-0.3,2-0.4,2.5h-6v-0.5c0.9-0.1,1.1-0.2,1.1-1.6v-6.3c0-1.3-0.1-1.4-0.9-1.5v-0.5h5.6l0.1,2.3l-0.5,0.1
	c-0.1-0.6-0.3-1-0.5-1.3c-0.2-0.3-0.5-0.4-1.3-0.4h-0.5c-0.5,0.1-0.5,0.1-0.5,0.7v3.4h0.7c1,0,1.1-0.1,1.3-1.2h0.5v3.2h-0.4
	c-0.2-1.1-0.3-1.2-1.3-1.2h-0.7v2.9c0,0.7,0.1,1.1,0.3,1.2c0.2,0.1,0.5,0.2,1,0.2c0.7,0,1.1-0.1,1.3-0.5
	C101,213.4,101.2,212.9,101.4,212.2z M94.7,204.5v0.5c-0.8,0.1-0.9,0.2-0.9,1.6v5.5c0,1.9-0.1,3.4-1.2,4.5c-0.5,0.5-1,0.8-1.5,0.9
	l-0.2-0.5c0.6-0.3,1-0.9,1.1-1.8c0.1-0.8,0.1-1.9,0.1-3.3v-5.4c0-1.3-0.1-1.4-1-1.6v-0.5L94.7,204.5z M87.2,212.3l0.5,0.1
	c-0.1,0.6-0.3,2-0.4,2.5h-6v-0.5c0.9-0.1,1.1-0.2,1.1-1.6v-6.3c0-1.3-0.1-1.4-0.9-1.5v-0.5H87l0.1,2.3l-0.5,0.1
	c-0.1-0.6-0.3-1-0.5-1.3c-0.2-0.3-0.5-0.4-1.3-0.4h-0.5c-0.4,0-0.5,0.1-0.5,0.6v3.4h0.7c1,0,1.1-0.1,1.3-1.2h0.5v3.2h-0.5
	c-0.2-1.1-0.3-1.2-1.3-1.2H84v2.9c0,0.7,0.1,1.1,0.3,1.2c0.2,0.1,0.5,0.2,1,0.2c0.7,0,1.1-0.1,1.3-0.5C86.8,213.4,87,213,87.2,212.3
	z M80.3,212.2l0.4,0.1c-0.1,0.7-0.3,2.2-0.4,2.6h-5.7v-0.5c1-0.1,1.1-0.2,1.1-1.6v-6.3c0-1.3-0.1-1.5-0.9-1.6v-0.5h3.6v0.5
	c-0.9,0.1-1,0.2-1,1.6v6.3c0,0.8,0.1,1.1,0.3,1.2c0.2,0.1,0.5,0.1,0.9,0.1c0.5,0,0.9-0.1,1.2-0.5C79.9,213.4,80.1,213,80.3,212.2z"
	/>
</svg>
