<?xml version="1.0" encoding="utf-8"?>
<!-- Generator: Adobe Illustrator 23.0.1, SVG Export Plug-In . SVG Version: 6.00 Build 0)  -->
<!DOCTYPE svg PUBLIC "-//W3C//DTD SVG 1.1//EN" "http://www.w3.org/Graphics/SVG/1.1/DTD/svg11.dtd" [
	<!ENTITY ns_extend "http://ns.adobe.com/Extensibility/1.0/">
	<!ENTITY ns_ai "http://ns.adobe.com/AdobeIllustrator/10.0/">
	<!ENTITY ns_graphs "http://ns.adobe.com/Graphs/1.0/">
	<!ENTITY ns_vars "http://ns.adobe.com/Variables/1.0/">
	<!ENTITY ns_imrep "http://ns.adobe.com/ImageReplacement/1.0/">
	<!ENTITY ns_sfw "http://ns.adobe.com/SaveForWeb/1.0/">
	<!ENTITY ns_custom "http://ns.adobe.com/GenericCustomNamespace/1.0/">
	<!ENTITY ns_adobe_xpath "http://ns.adobe.com/XPath/1.0/">
]>
<svg version="1.1" id="Calque_1" xmlns:x="&ns_extend;" xmlns:i="&ns_ai;" xmlns:graph="&ns_graphs;"
	 xmlns="http://www.w3.org/2000/svg" xmlns:xlink="http://www.w3.org/1999/xlink" x="0px" y="0px" viewBox="0 0 500 500"
	 style="enable-background:new 0 0 500 500;" xml:space="preserve">
<metadata>
	<x:xmpmeta  x:xmptk="Adobe XMP Core 5.6-c145 79.163499, 2018/08/13-16:40:22        " xmlns:x="adobe:ns:meta/">
		<rdf:RDF  xmlns:rdf="http://www.w3.org/1999/02/22-rdf-syntax-ns#">
			
				<rdf:Description  rdf:about="" xmlns:dc="http://purl.org/dc/elements/1.1/" xmlns:stDim="http://ns.adobe.com/xap/1.0/sType/Dimensions#" xmlns:xmp="http://ns.adobe.com/xap/1.0/" xmlns:xmpG="http://ns.adobe.com/xap/1.0/g/" xmlns:xmpGImg="http://ns.adobe.com/xap/1.0/g/img/" xmlns:xmpTPg="http://ns.adobe.com/xap/1.0/t/pg/">
				<xmp:CreatorTool>Adobe Illustrator CC 23.0 (Windows)</xmp:CreatorTool>
				<xmp:CreateDate>2020-12-27T08:32:46+01:00</xmp:CreateDate>
				<xmp:Thumbnails>
					<rdf:Alt>
						<rdf:li  rdf:parseType="Resource">
							<xmpGImg:width>256</xmpGImg:width>
							<xmpGImg:height>256</xmpGImg:height>
							<xmpGImg:format>JPEG</xmpGImg:format>
							<xmpGImg:image>/9j/4AAQSkZJRgABAgEASABIAAD/7QAsUGhvdG9zaG9wIDMuMAA4QklNA+0AAAAAABAASAAAAAEA
AQBIAAAAAQAB/+4ADkFkb2JlAGTAAAAAAf/bAIQABgQEBAUEBgUFBgkGBQYJCwgGBggLDAoKCwoK
DBAMDAwMDAwQDA4PEA8ODBMTFBQTExwbGxscHx8fHx8fHx8fHwEHBwcNDA0YEBAYGhURFRofHx8f
Hx8fHx8fHx8fHx8fHx8fHx8fHx8fHx8fHx8fHx8fHx8fHx8fHx8fHx8fHx8f/8AAEQgBAAEAAwER
AAIRAQMRAf/EAaIAAAAHAQEBAQEAAAAAAAAAAAQFAwIGAQAHCAkKCwEAAgIDAQEBAQEAAAAAAAAA
AQACAwQFBgcICQoLEAACAQMDAgQCBgcDBAIGAnMBAgMRBAAFIRIxQVEGE2EicYEUMpGhBxWxQiPB
UtHhMxZi8CRygvElQzRTkqKyY3PCNUQnk6OzNhdUZHTD0uIIJoMJChgZhJRFRqS0VtNVKBry4/PE
1OT0ZXWFlaW1xdXl9WZ2hpamtsbW5vY3R1dnd4eXp7fH1+f3OEhYaHiImKi4yNjo+Ck5SVlpeYmZ
qbnJ2en5KjpKWmp6ipqqusra6voRAAICAQIDBQUEBQYECAMDbQEAAhEDBCESMUEFURNhIgZxgZEy
obHwFMHR4SNCFVJicvEzJDRDghaSUyWiY7LCB3PSNeJEgxdUkwgJChgZJjZFGidkdFU38qOzwygp
0+PzhJSktMTU5PRldYWVpbXF1eX1RlZmdoaWprbG1ub2R1dnd4eXp7fH1+f3OEhYaHiImKi4yNjo
+DlJWWl5iZmpucnZ6fkqOkpaanqKmqq6ytrq+v/aAAwDAQACEQMRAD8A9U4q7FXYq7FXYq7FXYq7
FXYq7FXYq7FXYq7FXYq7FXYq7FXYq7FXYq7FXYq7FXYq7FXYq7FXYq7FXYq7FXYq7FXYq7FXYq7F
XYq7FXYq7FXYq7FXYq7FXYq7FXYq7FXYq7FXYq7FXYq7FXYq7FXYq7FXYq7FXYq7FXYq7FXYq7FX
Yq7FXYq7FXYq7FXYq7FXYq7FXYq7FXYq7FXYq7FXYq7FXYq7FXYq7FXYq7FXYq7FXYq7FXYq7FXY
q7FXYq7FXYq7FXYq7FXYq7FXYq7FXYq7FXYq7FXYq7FXYq7FXYq7FXYq7FXYq7FXYq7FXYq7FXYq
7FXYq7FXYq7FXYq7FXYq7FXYq7FXYq7FXYq7FXYq7FXYq7FXYq7FXYq7FXYq7FXYq7FXYq7FXYq7
FXYq7FXYq7FXYq7FXYq7FXYq7FXYq7FXYq7FXYq7FXYq7FXYq7FXYq7FXYq7FXYq7FXYq7FXYq7F
XYq7FXYq7FXYq7FXYq7FXYq7FXYq7FXYq7FXYq7FXYq7FXYq7FXYq7FXYq7FXYq7FXYq7FXYq7FX
Yq7FXYq7FXYq7FXYq7FXYq7FXYq7FXYq7FXYq7FXYq7FXYq7FXYq7FXYq7FXYq7FXYq7FXYq7FXY
q7FXYq7FXYq7FXYq7FXYq7FXYq7FXYq7FXYq7FXYq7FXYq7FXYq7FXYq7FXYq7FXYq7FXYq7FXYq
7FXYq7FXYq7FXYq7FXYq7FXYq7FXYq7FXYq7FXYq7FXYq7FXYq7FXYq7FXYq7FXYq7FXYq7FXYq7
FXYq7FXYq7FXYq7FXYq7FXYq7FXYq7FXYq7FXYq7FXYq7FXYq7FXYq7FXYq7FXYq7FXYq7FXYq7F
XYq7FXYq7FXYq7FXYq7FXYq7FXYq7FXYq7FXYq7FXYq7FXYq7FXYq7FXYq7FXYq7FXYq7FXYq7FX
Yq7FXYq7FXYq7FXYq7FXYq7FXYq7FXYq7FXYq7FXYq7FXYq7FXYq7FXYq7FXYq7FXYq7FXYq7FXY
q7FXYq7FXYq7FXYq7FXYq7FXYq7FXYq7FXYq7FWI+d/zW8keSbm1tvMV81rNeI0kCJDLMSqEKSfT
VqbnvirGv+hmvyd/6u8v/SJc/wDVPFXf9DNfk7/1d5f+kS5/6p4qiLD/AJyM/KfUL+2sLTVJpLq7
lSC3jFpcjlJIwRF3j7scVZf52846T5O8tXfmHVVleys/TDxwBWlYyyLGoRXZFJq3dumKvMbL/nLL
8vL29t7O30vWWnuZEhhX0LXd5GCqP96fE4q9qxV2KvMrz/nI/wDKSzu57S41WVZ7aR4pVFrcmjox
VhUJQ7jFWdeWfMmk+ZdDtdb0iRptOvA5t5XR4iwR2jJ4OFYfEh7YqlXnj8y/J3khLRvMd6bT68XF
qqxySs3pceZpGrEAcx1xVin/AEM1+Tv/AFd5f+kS5/6p4q9MsL23v7G2vrZudtdxJPA5BBKSKGU0
O42OKsS85/nF+X/k3VI9L1/UWt76SITiKOGWYiNmKgsY1YCpU7HFVfyR+ankzztcXUHly6lu2skV
7lmgmiVA5IQFpFUVahoPY4qy3FXYq7FXYq7FXYq7FXYq7FXYq7FXYq7FXYq7FXYq7FXxV/zk7r36
U/Ne9t1YmLSbeCyTwqF9Z6f7OYj6MCqf5J/kmv5jxatcXOoSabbac0McciRCX1JJQ5Zd2WnAKv34
q9O/6E30j/qZ7j/pFT/qphVOfJ3/ADivo3lzzRpmutrk16dNnW5S2e3RFZ490qwdqcWo3TtiqD/5
y/18W3lPRtCR6SajeNcyAd4rVKUPsXnU/RirxL8gdAOtfmxoMLJzhs5TfTE9ALVTIhP/AD0CDAr7
rwq7FX50+cY3i8365E4o6ahdKw9xMwOBX21+RELxflH5ZRqVNqX28Hldx+DYVfLf/ORHnb/FH5lX
ywSc9O0f/cdaU6EwsfWf/ZSlt+6gYFecXtnPZXtxZ3C8Z7aR4Zl8HjYqw+8Yq/RbTng07y5avcyL
HBZ2aNNKdlVIogWb5ACuFXwL+Yfm6483ec9V8wTE8bydjbRn9i3T4IU/2MaivvgV9i/kN5BXyZ+X
tpFcJw1XUgL/AFMnYq8ijhEa9PSjoCP5uR74VTjVPzc/LLS5XivfMtgssdQ8ccyzMpHUFYuZB9sV
dpX5u/llqsyQ2XmWweaQ0jikmELMSaABZeBJ9sVZdirxD/nI/wDNDS7LyPLpnl3XoG1ye+jtriOw
u0+tW6QlpJCwif1I6PEEatOtMVeFflT5x1+8/MTQotd813drpEdyJ7yW91CWO34QKZeEjSSBKSFA
lD1rTAr7T0bzL5c1xZW0XVbPVFgIE7WVxFcBC1eIf0mbjWhpXCqYO6IjO7BUUFmZjQADckk4qxDU
vzg/K/TZHiuvM1gJI/tpFMJiD0oRFz39sVVdH/Nb8t9ZuI7bTvMdjNcy0EUBmWORyegVJODE+w3x
VleKpHqfnryRpV7JY6n5h0ywvYqera3N5bwyryUMvJHdWFVII26Yqi9M8yeXdVs5b7S9Us7+ygYp
PdW08U0SMAGId0ZlUgEHc4qx28/Of8q7O4+rzeZ7AyV4n05fVUH3ePmo+/FWTaNrmja3Yrf6RfQa
hZOSFuLaRZUqOoqpNCO4xVG4q7FVssscMTyysEjjUs7HoFUVJOKvzn8z61JrnmTVNZlrz1G7muiD
29WQuF+gGmBXrn5M/n15a/L7ynJo9xpF1d3lxdSXVxcRPGEJZVRQORrssYxV6d5c/wCcqNA17X9O
0W00C+FzqVzFaxMXiIUyuF5NQ9FrU+2FXuGKvjn/AJyu1/8ASH5mLpqNWLR7OKFlHaWas7H/AICR
B9GBWRf84d6AJdZ8weYHT/eWCKxgY9CbhzJJT3UQr9+KvqTCrsVfnh5+/wCU78x/9tS9/wCoh8Cv
q6Hzcnkn/nG3S9Xiel5+ibeLT60JN1coAlBtUIWL/JcKvnD8j/KLea/zM0mzlUyWltJ9fvyd/wB1
bkPRvZ5OKH/WwKxLUpn1bzBdTxkF9Qu5HQmoFZpCR1qf2sVfXP8AzlB51Hl/8v8A9CWr+nfeYGNs
qrQFbWOjTn5MCsfyY4VeB/8AOPn5f/4v8/27XUfPSNH43t/UVVip/cxH/XcbjuobAr0b892/O7zX
qtxpWl6DqFv5Tt5DDFFbgE3ZU/303psSUalUU7AUr8WKpb+WX/OK93rWktqXnG4utHaRmS202JFS
4ARuJeUyhuNSDxXj03riryD8w/KkflPzrq3l6K5+txafNwjuCACyMiuvIDbkA1G98VfWf/OMuvar
rH5VwfX5WmksLmaytppTyJhjCPGCakkJ6nAV7Dwwq+Yvzh8hzeSvNp0251UavfXUIvrq4WL0Qrzy
P8JBd6k8eX04FR35Qfkzf/mQ2qGHUV0yDTBCGmeEzB3m50UANH0EdT9GKvqn8m/ysX8utAvNNe+X
Ubm8ujcSXKxmIcfTVETiWf7PEmte+FXi/wCd0f56ecNYubO20DUbfyrBIY7OygUH1gh/vp/TYli1
KgH4VHvUkK1+W/8AzinLq+hjUvOF3daVcXFTb6bCqrNGgNA05lVqM38gGw6nsFXiPnHy/wD4d81a
toQm+sDTbqW2WenHmI2KhiN6EjqMVfZf/OO2u6prP5U6VcalK89xA01ss8hJZ44ZCsdSevFfh+jC
r5C/M3X/ANP/AJg+YNWVucVzeyiButYY29OL/kmi4FZX5A/Kf82PO2gJY2Dvp/lQym4V7yR4LSWV
uIMixorNM1EADcSBSlRirG/zL/LbWvy/16LSNVmhuHngW5guLcsUZGZkp8aqQwZDUYq9Y/5w6u70
eYvMFort9Sazjlkj34eqsvFDTpXizYhX1RhV2KsJ/OrXv0H+VvmK+DcJXtGtYT353RECke49SuKv
glEd3VEUs7EKqqKkk7AADAr7J0//AJxY/K9LC2W9t7qS8WJBcyLcuoaUKObADYVauFU88sf84/fl
t5a1601zTLW4F/ZMz27SzvIgZkKVKnrQNtir0cmm56Yq/PH8wNf/AMQed9c1kPzjvb2aSBv+KeZE
Q+iMKMCvrP8A5xe0D9F/lVbXTpxm1e5nvGr14giBPoKw8h88KvW8Vdir89PzHiEP5h+aIgaiPV79
AT343MgwKzz88fNjSeXPI/kuFh6ejaLY3GoKh2N1NaoFUjxSP4q/5eKvS/8AnF/ymdH8g615wuEK
3OprKtow2YW1orVKnanOXl/wIwq+bPKNsLrzXotsQGE9/bR8TsDzmVafjgVmn/OQnnX/ABT+ZV+Y
ZOen6T/uOs6E8T6LH1XHb4pS2/cUxV9C/k9omj/ld+Uo1nzHKlhNegahqcsgPNfUFIIAPtMwSnwA
V5E4Veb+b/8AnLnXrq4a28oaXHZ25PGO6vR61w9ehWJCI0PsS+BVC00P/nKnzfbG8u9Tu9JsnXn6
k866aOJFTWK3CSgU/mTFXgt5dXV1dS3F1O91cSsWluJGZ3dv5mZ/iNffFX3P+Qug/oX8p/L8DCkt
1Ab6U9CTdsZlr8kdRhV8lfndr/6c/NTzFeBuUUV0bSHw4WgEHw+xMZb6cCvpH/nFTQf0d+WA1Bh+
81i8muATsfTiIt1HyrEx+nCr03zX5s0Hypok+ta5ci1sYKDlQszu32Y41G7M3YfwxV81+av+ctfN
WoXZtPKGlxWEMjcIJrhTc3bkmi8Y1PpqT/LR/ngVSOgf85S+YtNn1TVNWu9HsI4nnle4uV0/92il
mrBahZF2HRkGKvBbi4nuZ5Li4kaa4mZpJppGLO7saszMakkk1JOKvtjQAfIP/OPMU9PRurHRnu+J
2Iu7pDKFJ8fWmC4VfFNpaz3d3DaQLznuJFiiXxdyFUfecCv0b0PSoNI0XT9Kt/7jT7aK1i/1YUCD
8Fwq+Nv+cnNdXVPzZvoUPKPSreCxRvdVMzj6HmYYFerf84f6B9X8ra3rrqQ+oXaWsZPeO1TlUexe
cj6MKvoDFXYq8B/5y/1/6t5S0bQ0YiTUbxrmQDvFaJQg+3OdT9GKvmTyrqdjpXmbStTv4XuLOwu4
bme3joGkWGQOUHLb4uNMCvpj/ocTyr/1YL7/AJGQ/wBcVd/0OJ5V/wCrBff8jIf64q9U/MXzLJo3
5Za1rpU21ymnO0SOd47idBHEpPcrLIowq+AER3dURSzsQqqoqSTsAAMCv0W8paHHoPlfSdFQbada
Q2xPi0cYVm28WBOFU2xV2Kvz3/M7/wAmV5s/7bOof9RUmBUNYWmr+cvN1rZRfHqGrXEdvEAPhQGi
L/sIkH/AjFX3Prmn2Plr8r9TsbOsNnpGjXEcLD7QSC1b4tv2vhqffCr4G0vUbnTNTtNStTxurKaO
4t2O4EkTB0J/2SjArP8A8hPIDedPzBtlu4zLpOmEX2plt1cI37uI16+rJSo/l5Yq9U/5zHv9RSy8
s2Cchp00l1PNSvFpohGsdfdVkenzxKvGvyX8yeVfLf5gWGseZomk0+2WQxyBPV9KcrSOUoNzx9gS
DuOmKvdPzJ/5yg8ky+WtR0vy0Lq/1DULaW2iuvTNvFCZUKcyZKOWXlUAJ9Iwq+YNE0ufVtZsNKg/
v9QuYbWL/XmkEa/i2BX6MRWy2WnpbWSALbQiO2jPSka8UXt4YVfm9dNcNcytc8vrLOxm51Dcyfi5
V7164FfTXkL/AJyU8h+Wvy10nS57W8l1fTrcW7WUUahHdSfj9Vm4hW6nuPDFUs/5zC1O/lvvLNov
IaW9vNcxGtFeZmVTUeKJx/4LEq83/Ijzb5R8qefo9Y8zoxtI7aVLW4WMy+hcMV4ylVq32A67A/ax
V6/+a/8Azkx5N1DynqeheWlub271S3e1N20ZghjSUcJD8dJGbgTQcfpwq+dPJ+htr3mvR9FAJGo3
kFu9OoSSQK7f7FanAr6s/wCcrdcTTfyzh0mI8W1a8hh9MbfubesxP0OkeFXz3+QugHW/zY8vwMnO
G1nN9MewFqpmUn5yKq/TgV92TSxwxPNKwSONS7segVRUnCr85vM2sya55j1TWZAQ+pXc90VPUetI
X4/RypgV9x/kjoH6D/Kzy7ZMvCWS1F3MDsed2TOQ3uPUp9GFWcYq7FWF+fPyi8m+eby1u/MEU8st
nGYoBFM0ShWbkdl7k98VYx/0K3+Un/LJd/8ASVJirv8AoVv8pP8Alku/+kqTFV9v/wA4w/lNBcRT
pZ3LNE6uoa5dlJU1FQeoxVn3nDyho3m7QpdD1lZH0+dkeVInMbExsHX4h25AHFWDab/zjT+VWn6j
a38Fncme0mjniD3LsvOJg68lPUVG4xV6nirsVdirzDWv+ccfyv1nWL3Vr20uTeahPJc3JS4dFMkr
F3IUdKscVRvlD8iPy68p67DrmkWkw1C3V1hkmmaUJ6ilGIVu/EkV98VZvrGlWmr6Te6VegtZ6hby
2tyqniximQxuAR0PFjviry//AKFb/KT/AJZLv/pKkxVmXkP8tPKXkW2u4PL1s8IvXWS5klcyO3AU
VeTfsrU0HucVTHzT5R8uea9KbStfsUvrJjzVHqrI4BAdHUqyNv1U4q8sn/5xI/LGWcypd6rAhNfQ
juICg9qvA7/8Niqe2v8Azjf+UtvpNxpw0lpTchFkvpZXe5HBw49NyaRklaHgoqNjtiqzSv8AnG38
r9L1Sz1OytruO8sZ47m2c3LnjLC4dDQ9aMoxV6jirzLzl/zjr+WvmrUZtTuLe406/uWL3M+nyLF6
jk1Z2SRJY+TdyF369cVS7Rv+cWfyp06YS3EV7qpU8lS9uPh28Rbrb1HscVZ/5r8h+VPNejppGu2C
XVnDQ24qySRECgMcikOu3vv3xV5lJ/ziP+WLXHqrd6tGlQfQWeDhQdqtAz0P+tiqfxf844flJHpE
umjSCfWKs960rtc1Ug/DISeANNwgFcVb0D/nHf8ALbQdas9Z0yC6iv7CVZrdzcuw5L2IPUHoRiqf
efvyt8p+e/qX+IY55V0/1PqywzNEAZuPMkL1/uxiqD8j/kt5E8k6vJq2hW80d7LA1szzTNKBG7K7
UDd6oN8VZjqen2+pabd6dcFhb3sMlvMY2KPwlQo3FhuDQ7HFXlv/AEK3+Un/ACyXf/SVJir1iGGK
CGOGJQkUShI0HQKooAPkMVX4q7FXYq7FXYq7FXYq7FXYq7FXYq7FXYq7FXYq7FXYq7FXYq7FXYq7
FXYq7FXYq7FXYq7FXYq7FXYq7FXYq7FXYq7FXYq7FXYq7FXYq7FXYq7FXYq7FXYq7FXYq7FXYq7F
XYq7FXYq7FXYq7FXYq7FXYq7FXYq7FXYq7FXYq7FXYq7FXYq7FXYq7FXYq7FXYq7FXYq7FXYq7FX
Yq7FXYq7FXYq7FXYq7FXYq7FXYq7FXYq7FXYq7FXYq7FXYq7FXYq7FXYq7FXYq7FXYq7FXYq7FXY
q7FXYq7FXYq7FXYq7FXYq7FXYq7FXYq7FXYq7FXYq7FXYq7FXYq7FXYq7FXYq7FXYq7FXYq7FXYq
7FXYq7FXYq7FXYq7FXYq7FXYq7FXYq7FXYq7FXYq7FXYq7FXYq7FXYq7FXYq7FXYq7FXYq7FXYq7
FXYq7FXYq7FXYq7FXYq7FXYq7FXYq7FXYq7FXYq7FXYq7FXYq7FXYq7FXYq7FXYq7FXYq7FXYq7F
XYq7FXYq7FXYq7FXYq7FXYq7FXYq7FXYq7FXYq7FXYq7FXYq7FXYq7FXYq7FXYq7FXYq7FXYq7FX
Yq7FXYq7FXYq7FXYq7FXYq7FXYq7FXYq7FXYq7FXYq7FXYq7FXYq7FXYq7FXYq7FXYq7FXYq7FXY
q7FXYq7FXYq7FXYq7FXYq7FXYq7FXYq7FXYq7FXYq7FXYq7FXYq7FXYq7FXYq7FXYq7FXYq7FXYq
7FXYq7FXYq7FXYq7FXYq7FXYq7FXYq7FXYq7FXYq7FXYq7FXYq7FXYq7FXYq7FXYq7FXYq7FXYq7
FXYq7FXYq7FXYq7FXYq7FXYq7FXYq7FXYq7FXYq7FXYq7FXYq7FXYq7FXYq7FXYq7FXYq7FXYq7F
XYq7FXYq7FXYq7FXYq7FXYq7FXYq7FXYq7FXYq7FXYq7FXYq7FXYq7FXYq7FXYq7FXYq7FXYq7FX
Yq7FXYq7FXYq7FXYq7FXYq7FXYq7FXYq7FXYq7FXYq7FXYq7FXYq7FXYq7FXYq7FXYq7FXYq7FXY
q//Z
								</xmpGImg:image>
						</rdf:li>
					</rdf:Alt>
				</xmp:Thumbnails>
				<xmpTPg:MaxPageSize  rdf:parseType="Resource">
					<stDim:w>500.000000</stDim:w>
					<stDim:h>500.000000</stDim:h>
					<stDim:unit>Pixels</stDim:unit>
				</xmpTPg:MaxPageSize>
				<xmpTPg:NPages>1</xmpTPg:NPages>
				<xmpTPg:HasVisibleTransparency>False</xmpTPg:HasVisibleTransparency>
				<xmpTPg:HasVisibleOverprint>False</xmpTPg:HasVisibleOverprint>
				<xmpTPg:PlateNames>
					<rdf:Seq>
						<rdf:li>Black</rdf:li>
					</rdf:Seq>
				</xmpTPg:PlateNames>
				<xmpTPg:SwatchGroups>
					<rdf:Seq>
						<rdf:li  rdf:parseType="Resource">
							<xmpG:groupName>Groupe de nuances par défaut</xmpG:groupName>
							<xmpG:groupType>0</xmpG:groupType>
						</rdf:li>
					</rdf:Seq>
				</xmpTPg:SwatchGroups>
				<dc:format>image/svg+xml</dc:format>
			</rdf:Description>
		</rdf:RDF>
	</x:xmpmeta>
	<sfw  xmlns="&ns_sfw;">
		<slices></slices>
		<sliceSourceBounds  bottomLeftOrigin="true" height="78.6" width="486" x="8" y="210.7"></sliceSourceBounds>
	</sfw>
</metadata>
<g>
	<polygon points="66.1,243 63.3,255 36.1,255 31.1,276.1 69.1,276.1 66.3,288 8,288 26,212.1 83.3,212.1 80.4,224 43.4,224 
		38.9,243 66.1,243 	"/>
	<polygon points="79.3,288 97.8,210.7 117.3,210.7 98.9,288 79.3,288 	"/>
	<path d="M203,226.3c-4.9,13.9-8.8,23.8-12.7,33.6L178.5,288h-24.8l-1.4-76h19.2l-1.3,30.5c-0.4,9.9-0.8,19.8-1.9,32.3h0.5
		c4.7-12.9,8.8-22.7,12.9-32.4l12.6-30.5H219l-1.8,30.6c-0.5,9.8-1,19.4-2.3,32.2h0.5c5-12.6,9.1-22.4,13.3-32.2l13.1-30.7H261
		l-37.2,76H199l1.6-28.8c0.6-9.7,1.3-19.2,3-33H203L203,226.3z"/>
	<path d="M280.7,288c-0.5-0.8-0.7-2-0.6-3.3h-0.3c-3.8,2.2-10.4,4.6-18.1,4.6c-15.3,0-21.2-6.1-18.8-16.1
		c2.6-10.9,13.3-18.3,44.4-21.6l0.4-1.8c1.5-6.1,0.2-10.2-6-10.2c-5.3,0-8.8,4-10.9,7.9l-18.3-1.2c4.4-8,13.2-16.1,31.9-16.1
		c16.4,0,25.6,4.5,21.4,22.2l-6.4,27c-1.1,4.5-1.3,6.9,0.2,7.9l-0.2,0.8H280.7L280.7,288z M285.2,260.3c-15.1,1.8-21.7,6.2-23,11.8
		c-1,4.2,0.9,7,6.3,7c3.6,0,8.7-1.1,13.2-3.9L285.2,260.3L285.2,260.3z"/>
	<path d="M330.4,218.6H349l-3.1,12.9h12.8l-2.5,10.4h-12.8l-5.8,24.2c-2,8.3-0.7,12.5,4.2,12.5c3.3,0,6.6-1.6,8.7-2.9l1,10.3
		c-4.8,1.8-10.2,3.4-16.3,3.4c-13.8,0-20.3-5.4-16.9-20l6.6-27.5h-7.6l2.5-10.4h7.6L330.4,218.6L330.4,218.6z"/>
	<path d="M396.5,288c-0.5-0.8-0.7-2-0.6-3.3h-0.3c-3.8,2.2-10.4,4.6-18.1,4.6c-15.3,0-21.2-6.1-18.8-16.1
		c2.6-10.9,13.3-18.3,44.4-21.6l0.4-1.8c1.5-6.1,0.2-10.2-6.1-10.2c-5.3,0-8.8,4-10.9,7.9l-18.3-1.2c4.4-8,13.2-16.1,31.9-16.1
		c16.4,0,25.6,4.5,21.4,22.2l-6.4,27c-1.1,4.5-1.3,6.9,0.2,7.9l-0.2,0.8H396.5L396.5,288z M401,260.3c-15.1,1.8-21.7,6.2-23,11.8
		c-1,4.2,0.9,7,6.3,7c3.6,0,8.7-1.1,13.2-3.9L401,260.3L401,260.3z"/>
	<path d="M465.5,288l7.7-32.2c1.1-4.7,1.6-8.3,0.7-10.4c-0.8-1.5-2.2-2.5-5.1-2.5c-2.3,0-4.8,0.7-7.1,1.6c-2.5,1.1-5.6,2.9-8.4,5
		L444,288h-18.5l13.5-56.6h18.5l-1.6,6h0.6c3.6-2,7.3-3.8,11-5.2c3.5-1.3,7.5-2.1,11.4-2.1c6.3,0,10.8,1.6,13.1,4.9
		c2.2,3.2,2.6,8.2,0.9,15.4l-9,37.6H465.5L465.5,288z"/>
</g>
</svg>
