<?xml version="1.0" encoding="utf-8"?>
<!-- Generator: Adobe Illustrator 23.0.1, SVG Export Plug-In . SVG Version: 6.00 Build 0)  -->
<!DOCTYPE svg PUBLIC "-//W3C//DTD SVG 1.1//EN" "http://www.w3.org/Graphics/SVG/1.1/DTD/svg11.dtd" [
	<!ENTITY ns_extend "http://ns.adobe.com/Extensibility/1.0/">
	<!ENTITY ns_ai "http://ns.adobe.com/AdobeIllustrator/10.0/">
	<!ENTITY ns_graphs "http://ns.adobe.com/Graphs/1.0/">
	<!ENTITY ns_vars "http://ns.adobe.com/Variables/1.0/">
	<!ENTITY ns_imrep "http://ns.adobe.com/ImageReplacement/1.0/">
	<!ENTITY ns_sfw "http://ns.adobe.com/SaveForWeb/1.0/">
	<!ENTITY ns_custom "http://ns.adobe.com/GenericCustomNamespace/1.0/">
	<!ENTITY ns_adobe_xpath "http://ns.adobe.com/XPath/1.0/">
]>
<svg version="1.1" id="Calque_1" xmlns:x="&ns_extend;" xmlns:i="&ns_ai;" xmlns:graph="&ns_graphs;"
	 xmlns="http://www.w3.org/2000/svg" xmlns:xlink="http://www.w3.org/1999/xlink" x="0px" y="0px" viewBox="0 0 500 500"
	 style="enable-background:new 0 0 500 500;" xml:space="preserve">
<style type="text/css">
	.st0{fill:#E30D24;}
	.st1{fill:#FFFFFF;}
	.st2{fill:#1C1B19;}
</style>
<metadata>
	<sfw  xmlns="&ns_sfw;">
		<slices></slices>
		<sliceSourceBounds  bottomLeftOrigin="true" height="72.2" width="492.2" x="4.6" y="213.9"></sliceSourceBounds>
	</sfw>
</metadata>
<g>
	<path class="st0" d="M40.8,213.9c-19.9,0-36.1,16.2-36.1,36.1s16.2,36.1,36.1,36.1s36.1-16.2,36.1-36.1S60.7,213.9,40.8,213.9"/>
	<path class="st1" d="M61.6,264.1c-0.7-0.4-0.5-0.3-3.9-2.3c0,0-2.6,0.5-6,1.2c0,0,0.1,0,0.1,0.1c0.1,0,0.1,0.1,0.2,0.1
		c0,0,0.1,0.1,0.1,0.1c0.1,0.1,0.1,0.2,0.2,0.3c0,0.1,0,0.1,0,0.2c0,0,0,0.1,0,0.1c0,0,0,0.1,0,0.1c0,0,0,0.1,0,0.1c0,0,0,0.1,0,0.1
		c0,0,0,0.1,0,0.1l-0.1,0c0,0,0-0.1,0-0.1c0,0,0-0.1,0-0.1c0,0,0-0.1,0-0.1c0,0,0-0.1-0.1-0.1c0,0,0-0.1-0.1-0.1c0,0,0-0.1-0.1-0.1
		c0,0-0.1-0.1-0.1-0.1c0,0-0.1-0.1-0.1-0.1c0,0-0.1-0.1-0.1-0.1c0,0-0.1-0.1-0.1-0.1c0,0-0.1,0-0.1-0.1c0,0-0.1,0-0.1-0.1
		c0,0,0,0-0.1,0l-0.7,0.2c0,0,0,0,0.1,0c0.1,0,0.1,0,0.2,0.1c0.1,0,0.1,0.1,0.2,0.1c0,0,0.1,0.1,0.1,0.1c0,0,0.1,0.1,0.1,0.2
		c0,0.1,0.1,0.1,0.1,0.2c0,0.1,0,0.1,0,0.2c0,0,0,0.1,0,0.1s0,0.1,0,0.1c0,0,0,0.1,0,0.1c0,0,0,0.1,0,0.1c0,0,0,0,0,0.1h-0.1
		c0,0,0,0,0-0.1c0,0,0-0.1,0-0.1c0,0,0-0.1,0-0.1c0,0,0-0.1,0-0.1c0,0,0-0.1-0.1-0.1c0,0,0-0.1-0.1-0.1c0,0-0.1-0.1-0.1-0.1
		c0,0-0.1-0.1-0.1-0.1s-0.1-0.1-0.1-0.1c0,0-0.1-0.1-0.1-0.1c0,0-0.1,0-0.1-0.1c0,0-0.1,0-0.1-0.1c0,0,0,0-0.1,0l-0.1,0l-1.9-1.6
		l0.1-0.5l-0.2-1.2l0.2-0.5v-1.6l-2.1,1.9l-0.1-0.1l6.2-7.3l-0.1-0.1l-1.8-0.3l0-0.1h3.2c0.3,0.4,1.1,0.5,1.6,0.4l0-0.1l-0.7-1
		c0,0,0.1-0.1,0.3-0.2c0.3-0.2,0.5-0.1,0.7,0.3c0.2,0.4,0.4,0.8,0.1,1.1l0,0.1c0.4-0.1,0.8-0.3,1.1-0.6c0.4-0.5,0.3-1.2-0.1-1.7
		c-0.4-0.4-1.1-1.1-1.1-1.1c0.1-0.8-0.4-1.6-1.2-1.9c-1.7-0.7-3.1-1.2-3.1-1.2l-4.2,0l0-0.1l4.2-0.5l1.3-1.1l4.8-1.9
		c0.3-0.1,0.5-0.4,0.7-0.7c0.6-1.7,2.5-6.8,2.5-6.8l5.9-7.9l0-0.1l-3.9,2.8l-0.1-0.1l1.6-3.3l-0.1,0l-2.5,3.6l-0.1,0l0.3-3.6l-0.1,0
		l-0.9,3.7h-0.1l-1.5-3.7l-0.1,0l1.1,4.4l-0.1,2.1l-0.1,0l-0.2-1.8l-2.6-4.4l-0.1,0l2.1,4.7l0.2,3.4l-0.1,0l-0.5-3.2l-3.4-4.3
		l-0.1,0.1l2.9,4.5l0.2,4.7l-0.1,0l-0.6-4.5l-3.8-4l-0.1,0.1l3.2,4.2l0.4,5.4l-0.1,0l-0.9-5.2l-3.9-3.4l-0.1,0.1l3.4,3.7l0.6,5.7
		l-0.1,0l-1.2-5.4l-4-2.7l-0.1,0.1l3.4,3l0.9,5.6l-0.1,0l-1.5-5.3l-3.8-2.1l0,0.1l3.3,2.4l1.1,5.5l-0.1,0l-1.7-5l-3.6-1.4l0,0.1
		l3,1.7l1.2,5l-0.1,0l-1.9-4.5l-3.4-0.6l0,0.1l2.8,1l1.4,4.3l-0.1,0l-2.2-3.7l-2.8-0.2l0,0.1l2.2,0.7l1.7,3.5l-0.1,0l-2.3-2.8
		l-2.6,0.2l0,0.1l2,0.4l1.9,2.7l-0.1,0.1l-2.4-2l-2.7,0.6l0,0.1l2.2,0l2.1,1.9l0,0.1l-2.5-1.2l-2.9,0.4v0.1l2.6,0.1l2.2,1.4l0,0.1
		l-2.4-0.8l-3.8,0.7l0,0.1l3.6-0.1l2.2,1l0,0.1l-2.3-0.5l-5.8,1l0,0.1l4.6,0.3l0,0.1l-3.6,0.7l0,0.1l2.5,0.1l0,0.1l-2.9,0.7h0h0
		l1.2,1.6l-0.1,0.1l-2.8-2.3l-7.1-9.9l-6.5-3.3l-5.2-4.6l-1.6-4.3l-0.1,0l0.6,4.8l2.5,4l-0.1,0.1l-3.6-3l-1.7-3.4l-0.1,0l0.6,3.9
		l1.8,3.2l-0.1,0.1l-2.9-2.4l-1.5-2.3l-0.1,0l0.7,3l1.9,2.7l-0.1,0.1l-2.9-1.7l-1.3-1.6l-0.1,0l0.8,2.4l1.3,1.7l0,0.1l-1.3-0.3
		l0,0.1l2.8,2.7l0,0.1l-2.5-0.1l0,0.1l3.5,2.2l0,0.1l-1.6,0.1l0,0.1l4.1,1.6v0.1l-1.6,0.6l0,0.1l9.8,0.7l0,0.1l-5.5,0l-0.1,1.1
		l6.8-0.1v0.1l-4.9,0.5l-0.2,1.3l6.7-0.9l0,0.1l-5.2,1.2l-0.1,1.5l6.8-1.9l0,0.1l-5.6,2.2l0,1.4l6.9-2.9l0,0.1l-5.6,3l0.2,1.4
		l6.8-3.5l0,0.1l-5.5,3.5l0.3,1.2l6.5-3.6l0,0.1l-5.1,3.4l0.5,1.3l5.4-3.2l0.1,0.1l-3.5,2.6l0.6,1.2l2.6-1.6l0,0.1l-1,0.9l0.5,1
		c0.1-0.1,0.3-0.1,0.6-0.2s0.5-0.2,0.8-0.3c0.2-0.1,0.3-0.1,0.5-0.2c0.1,0,0.1-0.1,0.2-0.1s0.1-0.1,0.2-0.1c0.1-0.1,0.3-0.2,0.4-0.3
		l0.1-0.1l0.1-0.1c0.1-0.1,0.1-0.1,0.2-0.2c0.1-0.1,0.1-0.1,0.1-0.2s0.1-0.1,0.1-0.2s0.1-0.1,0.1-0.2s0.1-0.1,0.1-0.2
		c0-0.1,0.1-0.2,0.1-0.3c0-0.1,0.1-0.2,0.1-0.3s0-0.1,0-0.2l0-0.1l0.1,0c0,0,0,0,0,0.1s0,0.1,0,0.2s0,0.2-0.1,0.3
		c0,0.1-0.1,0.2-0.1,0.3c0,0.1-0.1,0.1-0.1,0.2c0,0.1-0.1,0.1-0.1,0.2c0,0.1-0.1,0.1-0.1,0.2c0,0.1-0.1,0.1-0.1,0.2
		c-0.1,0.1-0.1,0.1-0.2,0.2l-0.1,0.1l-0.1,0.1c-0.1,0.1-0.3,0.2-0.4,0.3c-0.1,0.1-0.1,0.1-0.2,0.1c-0.1,0-0.2,0.1-0.2,0.1
		c-0.2,0.1-0.3,0.1-0.5,0.2c-0.3,0.1-0.8,0.3-0.8,0.3L29,259l-4.9,7.7l0.3,0.2l5.5-6.4l0.1,0.1l-3.3,4.8l2-0.3l3-4.5l0.1,0l-2.2,4.3
		l1.9-0.1h0l2-4.2l0.1,0l-1.4,4.1l1.9-0.1l1.2-3.9l0.1,0l-0.7,3.9l2-0.4l0.4-3.5l0.1,0v3.4l1.5-0.8l-0.2-2.6l0.1,0L39,263l0.5,0.3
		l0.4,1l0.6,0.2l1.1,0.9l0.4,0.4l0,0l0,0l-0.8-0.3c-2.8,0.8-5.6,1.6-8.3,2.4l0,0c0.7,0.4,1.8,1,2.8,1.6l1.4,0.8
		c0.2,0.1,0.4,0.2,0.6,0.4c0.1,0,0.1,0.1,0.2,0.1c0,0,0,0,0.1,0l0,0l0,0l0,0l0,0c0.1,0.1,0.2,0.1,0.3,0.2c0.1,0.1,0.2,0.3,0.3,0.5
		c0,0.1,0.1,0.3,0,0.5c0,0.1,0,0.2-0.1,0.3l0,0.1l-0.1,0c0,0,0,0,0-0.1c0-0.1,0-0.2,0-0.3c0-0.1,0-0.3-0.1-0.4
		c-0.1-0.2-0.2-0.3-0.3-0.4c-0.1-0.1-0.2-0.1-0.2-0.2l0,0h0l0,0c0,0-0.1,0-0.1,0l-0.2-0.1c-0.2-0.1-0.4-0.2-0.7-0.3
		c-0.5-0.2-1-0.4-1.5-0.6l-0.9-0.4c-0.7,0.2-1.8,0.6-2.2,0.7c-0.9,0.3-0.9,1.5,0,1.9c1.3,0.5,2.6,1,3.9,1.4c1.1,0.4,1.9,0.3,2.9-0.2
		c0.7-0.3,2-0.9,3.5-1.6c2.5-1.3,5.9-4.1,5.9-4.1l0.1,0.1l-2.7,2.6c1.8-0.8,3.6-1.6,4.8-2.1c1.4-0.7,2.7-1.5,4-2.4l0.1,0.1l-1.9,1.7
		c2.1-0.4,5.5-0.7,7.4-0.7C62.9,267,63,264.8,61.6,264.1L61.6,264.1z M55.4,249.4c0.3,0.3,0.7,0.6,1,0.9l0,0c0,0,0.1,0.1,0.1,0.1
		c0,0,0,0,0,0.1c0,0,0,0,0,0.1c0,0.1,0,0.1,0.1,0.2c0,0.1,0,0.1,0,0.2c0,0.1,0,0.1,0,0.2c0,0,0,0.1,0,0.1c0,0,0,0.1,0,0.1
		c0,0.1,0,0.1,0,0.2c0,0,0,0,0,0.1l0,0.1l-0.1,0l0-0.1c0,0,0,0,0-0.1c0,0,0-0.1,0-0.1c0,0,0,0,0-0.1v-0.1c0,0,0-0.1,0-0.1
		c0,0,0-0.1,0-0.1c0,0,0-0.1-0.1-0.1c0,0,0,0,0-0.1c0,0,0,0,0-0.1c0,0-0.1-0.1-0.1-0.1c-0.4-0.3-0.7-0.6-1.1-0.8L55.4,249.4z
		 M53.4,248.5c0-0.1,0-0.1,0.1-0.2c0,0,0,0,0,0c0,0,0,0,0,0c0,0,0,0,0.1,0c0,0,0.1,0,0.1-0.1l0,0c0.1,0,0.1,0,0.1,0l0,0l0.1,0.1l0,0
		c0,0,0,0-0.1,0.1c0,0,0,0,0,0l0,0l0,0c0,0,0,0,0,0c0,0,0,0,0,0c0,0,0,0,0,0c0,0,0,0,0,0c0,0,0,0,0,0v0c0,0,0,0,0,0c0,0,0,0,0,0.1v0
		l0,0c0,0,0,0,0,0c0,0,0,0,0,0l0,0c0,0,0,0,0,0l0,0l0,0c0,0,0.1,0,0.1,0c0,0,0.1,0,0.1,0l0,0l0,0c0,0,0,0,0,0c0,0,0,0,0,0
		c0,0,0,0,0,0c0,0,0,0,0,0l0,0c0,0,0,0,0,0c0,0,0,0,0,0c0,0,0,0,0-0.1c0,0,0,0,0,0c0,0,0-0.1,0-0.1v0l0.1,0l0,0c0,0,0,0.1,0.1,0.1
		l0,0c0,0,0,0.1,0,0.1v0.1c0,0,0,0,0,0.1l0,0c0,0.1,0,0.1-0.1,0.2c0,0.1-0.1,0.1-0.2,0.2l0,0l0,0l0,0l-0.1,0c0,0-0.1,0-0.1,0h0
		c-0.1,0-0.2,0-0.2,0l0,0c0,0-0.1,0-0.1-0.1c0,0,0,0-0.1,0c0,0,0,0,0-0.1c0,0-0.1-0.1-0.1-0.1l0-0.1l0,0l0,0v0c0,0,0-0.1,0-0.1
		C53.4,248.6,53.4,248.5,53.4,248.5L53.4,248.5z M53.3,250.9c0-0.1,0.1-0.1,0.1-0.2c0,0,0-0.1,0.1-0.1l0,0l0,0l0,0h0l0,0
		c0.1,0,0.1-0.1,0.2-0.1c0.1,0,0.2,0,0.3,0c0,0,0.1,0,0.1,0c0,0,0.1,0,0.1,0c0,0,0,0,0.1,0c0,0,0,0,0.1,0l0,0l0,0c0,0,0,0,0,0
		c0,0,0,0.1,0,0.1l-0.1,0.1c0,0,0,0-0.1,0c0,0,0,0,0,0c0,0,0,0,0,0c0,0-0.1,0-0.1,0c0,0,0,0-0.1,0c0,0,0,0,0,0c0,0,0,0-0.1,0
		c0,0,0,0-0.1,0c0,0-0.1,0-0.1,0c0,0-0.1,0-0.1,0l0,0l0,0c0,0,0,0,0,0c0,0,0,0.1-0.1,0.1c0,0,0,0,0,0c0,0,0,0,0,0c0,0,0,0.1,0,0.1
		c0,0,0,0.1,0,0.1v0c0,0,0,0,0,0c0,0,0,0,0,0.1l-0.1,0c0,0,0,0-0.1-0.1c0,0,0,0,0,0c0,0,0,0,0,0c0,0,0,0,0-0.1c0,0,0,0,0-0.1
		c0,0,0,0,0-0.1c0,0,0-0.1,0-0.1C53.2,251,53.2,251,53.3,250.9L53.3,250.9z M20.7,230.1l0.1-0.1l2.9,3.9l4.8,2.3l-0.1,0.1l-5.1-2
		L20.7,230.1z M16.1,233.4l0.1-0.1l3.1,2.9l6.3,2l0,0.1l-6.7-1.7L16.1,233.4z M14.5,235.1L14.5,235.1l3.4,2.6l7.5,2l0,0.1l-7.7-1.7
		L14.5,235.1z M15.1,239.1l0-0.1l10.3,2.1l0,0.1l-7.7-1.2L15.1,239.1z M26.1,242.7l-5.4-0.5l-2.7-0.8l0-0.1l8.2,1.3L26.1,242.7z
		 M26.3,237.1l-5.5-1.8l-2.3-3.1l0.1-0.1l2.6,2.8l5.1,2.1L26.3,237.1z M27,239.1L27,239.1l-0.1-1.2l0.1,0l0.1,0.7l2.4-1.2l0.1,0.1
		L27,239.1z M27.3,240.9l0-1.2l0.1,0l0.1,0.7l3.2-1.7l0.1,0.1L27.3,240.9L27.3,240.9z M28.4,242.6L28.4,242.6l-0.1-1.2l0.1,0
		l0.1,0.7l3.4-1.8l0.1,0.1L28.4,242.6z M29.7,244L29.7,244l-0.1-1.2l0.1,0l0.1,0.7l3.3-1.7l0.1,0.1L29.7,244z M31.4,245.2
		L31.4,245.2l-0.1-1.2l0.1,0l0.1,0.7l2.9-1.5l0.1,0.1L31.4,245.2z M33.2,246.3L33.2,246.3l-0.1-1.2l0.1,0l0.1,0.7l2.4-1.2l0.1,0.1
		L33.2,246.3z M35,247.4L35,247.4l-0.1-1.2h0.1l0.1,0.7l1.7-0.8l0.1,0.1L35,247.4z M36.5,248.5L36.5,248.5l0-1h0.1l0.1,0.5l1.2-0.5
		l0.1,0.1L36.5,248.5z M37.6,249.7L37.6,249.7l0-0.9l0.1,0l0,0.4l1.5-0.7l0.1,0.1L37.6,249.7z M38.5,252.4L38.5,252.4l0-0.7l0.1,0
		l0,0.3l0.7-0.3l0.1,0.1L38.5,252.4z M38.2,251L38.2,251l0-0.7l0.1,0l0,0.3l1.1-0.5l0.1,0.1L38.2,251z M34.1,259.1L34.1,259.1
		l0.1-0.4l-0.3-0.1l0-0.1h0.8l0,0.1L34.1,259.1z M36.5,259.1L36.5,259.1l0.1-0.4l-0.3-0.1l0-0.1h0.8l0,0.1L36.5,259.1z M37.1,272.6
		l-0.8-0.3c-0.3-0.1-0.6-0.2-0.8-0.3l-1.7-0.5l0,0c-0.1,0-0.2-0.2-0.1-0.3c0,0,0,0,0,0c0-0.1,0.1-0.1,0.2-0.1l1.7-0.5l0,0.1
		l-1.1,0.6l1.2,0.5c0.3,0.1,0.5,0.2,0.8,0.4L37.1,272.6L37.1,272.6z M45.9,258L45.9,258l0.1-0.5l-0.4-0.1l0-0.1l1-0.2l0,0.1
		L45.9,258z M44.2,255.4L44.2,255.4l1.5-0.6l0,0.1l-0.9,1.4l-0.1,0l0.1-0.7L44.2,255.4z M43.5,258.6L43.5,258.6l0.8-0.2l0,0.1
		l-0.6,0.6l-0.1,0l0.1-0.3L43.5,258.6z M43.6,253L43.6,253l1.6-0.5l0,0.1l-1,1.3l-0.1,0l0.2-0.7L43.6,253z M47.6,256.1L47.6,256.1
		l0.1-0.5l-0.4-0.1v-0.1l1-0.2l0,0.1L47.6,256.1z M48.8,252.1l0.2-0.4l-0.4-0.1l0-0.1l1-0.1l0,0.1L48.8,252.1L48.8,252.1z
		 M50.2,247.6H51l0,0.1l-0.7,0.5l-0.1-0.1l0.2-0.3L50.2,247.6L50.2,247.6z M49.8,253.6l-0.6,0.6l-0.1,0l0.1-0.3l-0.3-0.1v-0.1
		L49.8,253.6L49.8,253.6z M49.7,249.1l-1,0.8l-0.1-0.1l0.3-0.5l-0.5-0.2l0-0.1L49.7,249.1L49.7,249.1z M47.8,247.1h1l0,0.1l-0.8,0.6
		l-0.1-0.1l0.2-0.4L47.8,247.1L47.8,247.1z M47.7,252.9l-0.8,1l-0.1,0l0.2-0.6l-0.6-0.1v-0.1L47.7,252.9L47.7,252.9z M47.6,250.4
		L47.6,250.4l-1,1.2l-0.1,0l0.2-0.7l-0.7-0.1v-0.1L47.6,250.4z M47,248.6l-1,0.8l-0.1-0.1l0.3-0.5l-0.5-0.2l0-0.1L47,248.6L47,248.6
		z M45.1,247.1h0.8l0,0.1l-0.7,0.5l-0.1-0.1l0.2-0.3L45.1,247.1L45.1,247.1z M44.7,250.1L44.7,250.1l-1.1,1.2l-0.1,0l0.3-0.7
		l-0.7-0.2v-0.1L44.7,250.1z M42.2,256.9L42.2,256.9l1.3-0.3l0,0.1l-0.8,1l-0.1,0l0.2-0.6L42.2,256.9z M42.7,248.2H44l0,0.1l-1,0.8
		L43,249l0.3-0.5L42.7,248.2L42.7,248.2z M42.7,254.5l-0.8,1l-0.1,0l0.1-0.6l-0.6-0.1l0-0.1L42.7,254.5L42.7,254.5z M42.3,252.4
		l-0.8,0.9l-0.1,0l0.2-0.5l-0.5-0.1v-0.1L42.3,252.4L42.3,252.4z M40.8,250.6l1-0.2l0,0.1l-0.7,0.8l-0.1,0l0.2-0.4L40.8,250.6
		L40.8,250.6z M38.1,257.7L38.1,257.7l0.1-0.4l-0.3-0.1l0-0.1h0.8l0,0.1L38.1,257.7z M38.8,259.6L38.8,259.6l0.1-0.4l-0.3-0.1l0-0.1
		h0.8l0,0.1L38.8,259.6z M39.8,256.5L39.8,256.5l0.1-0.5l-0.4-0.2l0-0.1l1,0l0,0.1L39.8,256.5z M40.4,258.2L40.4,258.2l0.2-0.5
		l-0.4-0.2l0-0.1h1l0,0.1L40.4,258.2z M41.4,259.7L41.4,259.7l0.1-0.4l-0.3-0.1l0-0.1H42l0,0.1L41.4,259.7z M37.9,268.3
		c-0.1,0-0.2,0.1-0.3,0.1l-0.2,0.1c-0.1,0-0.1,0-0.2,0.1l-0.3,0.1l0-0.1l0,0c0,0,0.1,0,0.3-0.1l0.3-0.1l0.1,0c0.1,0,0.2-0.1,0.3-0.1
		c0.3-0.1,0.6-0.2,0.9-0.3l0.1,0l0.2-0.1c0.3-0.1,0.6-0.2,0.9-0.3c0.4-0.1,0.8-0.2,1.1-0.4l0.2,0c0.1,0,0.2-0.1,0.4-0.1l0.5-0.1
		c0.2-0.1,0.4-0.1,0.6-0.1l0.1,0c0.2,0,0.3-0.1,0.3-0.1l0,0l0,0.1l0,0l-0.3,0.1c-0.1,0-0.1,0-0.2,0.1c-0.1,0-0.3,0.1-0.5,0.2
		l-0.5,0.2l-0.1,0c-0.1,0-0.3,0.1-0.4,0.1c-0.4,0.1-0.7,0.3-1.1,0.4l-0.3,0.1c-0.3,0.1-0.6,0.2-0.8,0.3c-0.1,0-0.3,0.1-0.4,0.1
		C38.2,268.2,38,268.2,37.9,268.3L37.9,268.3z M46.7,266.7c-0.1,0-0.2,0.1-0.3,0.1c-0.2,0.1-0.4,0.2-0.7,0.2l-0.2,0.1
		c-0.2,0.1-0.3,0.1-0.5,0.2c-0.2,0.1-0.5,0.2-0.7,0.2l-1.5,0.6c-0.3,0.1-0.7,0.2-1,0.4c-0.2,0.1-0.4,0.1-0.5,0.2
		c-0.2,0.1-0.3,0.1-0.5,0.2l-0.2,0.1c-0.2,0.1-0.3,0.1-0.4,0.2l-0.2,0.1c-0.2,0.1-0.5,0.2-0.7,0.2c-0.1,0-0.2,0.1-0.3,0.1l-0.4,0.1
		l0,0l-0.1-0.1l0,0l0.4-0.2c0.1,0,0.2-0.1,0.3-0.1c0.2-0.1,0.4-0.2,0.7-0.3l0.1-0.1c0.2-0.1,0.3-0.1,0.5-0.2c0.1,0,0.1-0.1,0.2-0.1
		c0.2-0.1,0.3-0.1,0.5-0.2l0.5-0.2c0.3-0.1,0.7-0.3,1-0.4c0.5-0.2,1.1-0.4,1.6-0.5l0.4-0.1l0.4-0.1c0.2-0.1,0.4-0.1,0.7-0.2
		c0.3-0.1,0.5-0.1,0.7-0.2c0.1,0,0.2-0.1,0.3-0.1l0.4-0.1l0,0.1L46.7,266.7z M43.2,265.1L43.2,265.1L43.2,265.1
		C43.2,265,43.2,265,43.2,265.1c0.1-0.1,0.2-0.1,0.2-0.1c0,0,0.1,0,0.1,0c0,0,0,0,0,0l0,0c0,0,0,0,0.1,0c0.1,0,0.1,0,0.2,0.1
		c0.1,0,0.1,0.1,0.2,0.1c0.1,0,0.1,0.1,0.1,0.1l0,0.1c0,0,0,0.1,0.1,0.1c0,0.1,0.1,0.1,0.1,0.2c0,0.1,0,0.1,0,0.2l0,0.1v0.1
		c0,0,0,0.1,0,0.1c0,0,0,0.1,0,0.1c0,0,0,0.1,0,0.1h-0.1l0-0.1c0,0,0-0.1,0-0.1c0,0,0-0.1,0-0.1c0,0,0-0.1-0.1-0.1
		c0,0,0-0.1-0.1-0.1c0,0,0-0.1-0.1-0.1s-0.1-0.1-0.1-0.1c0,0,0-0.1-0.1-0.1c0,0,0,0,0,0c0,0-0.1-0.1-0.1-0.1c0,0-0.1-0.1-0.1-0.1
		c0,0-0.1,0-0.1-0.1c0,0-0.1,0-0.1-0.1C43.3,265.1,43.3,265.1,43.2,265.1L43.2,265.1L43.2,265.1z M45.7,264.4
		C45.7,264.4,45.7,264.4,45.7,264.4c0.1,0,0.1,0,0.2,0.1c0.1,0,0.1,0.1,0.2,0.1c0.1,0,0.1,0.1,0.1,0.1c0,0,0.1,0.1,0.1,0.2
		c0,0.1,0.1,0.1,0.1,0.2c0,0.1,0,0.1,0,0.2c0,0,0,0.1,0,0.1s0,0,0,0.1c0,0,0,0.1,0,0.1c0,0,0,0.1,0,0.1c0,0,0,0.1,0,0.1h-0.1
		c0,0,0-0.1,0-0.1c0,0,0-0.1,0-0.1c0,0,0-0.1,0-0.1c0,0,0-0.1-0.1-0.1c0,0,0-0.1-0.1-0.1c0,0,0-0.1-0.1-0.1c0,0-0.1-0.1-0.1-0.1
		c0,0-0.1-0.1-0.1-0.1s-0.1-0.1-0.1-0.1c0,0-0.1-0.1-0.1-0.1c-0.1,0-0.1-0.1-0.2-0.1c0,0,0,0-0.1,0c0,0,0,0,0,0
		c-0.2,0.1-0.4,0.1-0.6,0.2c0,0-0.1,0-0.1,0h0c0,0,0,0,0.1,0c0.1,0,0.1,0,0.2,0.1c0.1,0,0.1,0.1,0.2,0.1c0.1,0,0.1,0.1,0.1,0.1
		c0,0,0.1,0.1,0.1,0.2c0,0.1,0.1,0.1,0.1,0.2c0,0.1,0,0.1,0,0.2c0,0,0,0.1,0,0.1v0.1c0,0,0,0.1,0,0.1c0,0,0,0.1,0,0.1c0,0,0,0,0,0.1
		h-0.1c0,0,0,0,0-0.1c0,0,0-0.1,0-0.1c0,0,0-0.1,0-0.1c0,0,0-0.1-0.1-0.1s0-0.1-0.1-0.1s0-0.1-0.1-0.1s-0.1-0.1-0.1-0.1
		c0,0-0.1-0.1-0.1-0.1c0,0-0.1-0.1-0.1-0.1c0,0-0.1-0.1-0.1-0.1c0,0-0.1,0-0.1-0.1l-0.1-0.1c0,0-0.1,0-0.1,0l-0.1,0l-1.1-1.3
		l-0.5-3.1l0.1,0l2.1,2.6l0.7,0l1.9,1.1C46.9,264.1,46.3,264.3,45.7,264.4L45.7,264.4z M49.1,263.6L49.1,263.6
		C49.1,263.5,49.1,263.5,49.1,263.6c0.1-0.1,0.2-0.1,0.2-0.1c0,0,0.1,0,0.1,0h0c0,0,0,0,0.1,0c0,0,0,0,0.1,0c0.1,0,0.2,0.1,0.3,0.2
		c0,0,0.1,0.1,0.1,0.1c0,0,0,0,0,0c0,0,0.1,0.1,0.1,0.2c0,0.1,0.1,0.1,0.1,0.2c0,0.1,0,0.1,0,0.2c0,0,0,0.1,0,0.1c0,0,0,0,0,0.1
		c0,0,0,0.1,0,0.1c0,0,0,0.1,0,0.1c0,0,0,0.1,0,0.1h-0.1c0,0,0,0,0-0.1c0,0,0-0.1,0-0.1l0-0.1c0,0,0-0.1,0-0.1s0-0.1-0.1-0.1
		c0,0,0-0.1-0.1-0.1c0,0-0.1-0.1-0.1-0.1c0,0-0.1-0.1-0.1-0.1c0,0,0,0,0,0c0,0,0,0-0.1,0c0,0-0.1-0.1-0.1-0.1s-0.1,0-0.1-0.1
		c0,0-0.1,0-0.1-0.1S49.2,263.7,49.1,263.6L49.1,263.6L49.1,263.6z M51.8,265.3l-0.1,0l-0.1,0c-0.1,0-0.2,0-0.3,0.1
		c-0.3,0.1-0.7,0.2-1.1,0.3l-0.1,0c-0.2,0-0.3,0.1-0.5,0.1c-0.2,0-0.3,0.1-0.5,0.1c-0.1,0-0.2,0-0.3,0c0,0-0.1,0-0.1,0
		c-0.1,0-0.1,0-0.1,0h0l0-0.1l0,0c0,0,0,0,0.1,0l0.1,0c0.1,0,0.2-0.1,0.3-0.1c0.3-0.1,0.7-0.2,1.1-0.3c0.2,0,0.4-0.1,0.6-0.1
		s0.4-0.1,0.5-0.1c0.1,0,0.2,0,0.3,0l0.1,0c0.1,0,0.1,0,0.1,0h0L51.8,265.3L51.8,265.3z M53,264.1L53,264.1L53,264l0,0l0.2,0
		c0.2,0,0.3-0.1,0.5-0.1c0.5-0.1,0.9-0.2,1.4-0.3l0,0c0.2,0,0.5-0.1,0.7-0.1c0.2,0,0.4-0.1,0.6-0.1l0,0c0.1,0,0.3,0,0.4,0l0.1,0
		c0.1,0,0.2,0,0.2,0h0l0,0.1l0,0c0,0-0.1,0-0.2,0l-0.1,0c-0.1,0-0.2,0-0.3,0.1c-0.1,0-0.2,0-0.4,0.1c-0.1,0-0.2,0-0.3,0.1
		c-0.2,0-0.4,0.1-0.6,0.1l-0.1,0c-0.6,0.1-1.1,0.2-1.7,0.3c0,0-0.1,0-0.1,0C53.1,264.1,53,264.1,53,264.1L53,264.1z M58.7,264.2
		c-0.1,0-0.1,0-0.2,0c-0.1,0-0.3,0-0.4,0.1c-0.1,0-0.2,0-0.3,0c-0.2,0-0.4,0.1-0.6,0.1l-0.5,0.1l-0.1,0c-0.1,0-0.3,0-0.4,0.1
		l-0.4,0.1c-0.2,0-0.4,0.1-0.6,0.1c-0.1,0-0.2,0-0.4,0.1l-0.1,0c-0.2,0-0.3,0-0.4,0.1c-0.2,0-0.3,0-0.4,0.1l-0.2,0l-0.3,0l0-0.1
		l0.3-0.1c0.1,0,0.1,0,0.2,0c0.1,0,0.3-0.1,0.4-0.1c0.1,0,0.1,0,0.2,0l0.2,0l0.2,0c0.1,0,0.2,0,0.3-0.1c0.2,0,0.3-0.1,0.5-0.1
		l0.5-0.1l0.5-0.1l0.5-0.1c0.2,0,0.4,0,0.6-0.1l0.3,0c0.2,0,0.4,0,0.6,0l0.1,0c0.2,0,0.2,0,0.2,0h0l0,0.1L58.7,264.2z"/>
	<g>
		<path class="st2" d="M89.2,231.3l1.6,0.3c3.7,0.8,4.2,2.9,4.2,5v25.8c0,2.1-0.5,4.2-4.2,4.9l-1.6,0.3v0.8h18.4v-0.8l-1.6-0.3
			c-3.7-0.7-4.2-2.8-4.2-4.9v-25.8c0-2,0.5-4.2,4.2-5l1.6-0.3v-0.8H89.2L89.2,231.3 M463.1,230.5v12.8h0.8l1.9-4.7
			c1.9-4.7,3.8-7.2,8.7-7.2h2v31.1c0,2-0.5,4.4-4.2,5l-1.6,0.3v0.8h18.4v-0.8l-1.6-0.3c-3.7-0.6-4.2-3-4.2-5v-31.1h2
			c4.9,0,6.9,2.5,8.8,7.2l1.9,4.7h0.8v-12.8H463.1 M446.7,231.3l1.5,0.2c2.8,0.4,5.4,1.8,5.5,9l0.2,17.3L439,240.4
			c-4.4-5.2-6.2-7.4-7.5-9.8l-0.1-0.2H418v0.8l0.2,0c2.8,0.5,4.5,1.6,7.4,4.8l0.6,0.6v19.9c0,8.5-2.7,9.9-5.9,10.7l-1.1,0.3v0.8
			h15.1v-0.8l-1.1-0.3c-2.9-0.8-5.9-1.5-5.9-10.7l-0.2-18.9l26.7,31.4l0.1,0.1h0.8v-28.8c0-7.2,2.8-8.6,5.5-9l1.5-0.2v-0.8h-15
			L446.7,231.3 M292.1,261.7c-2.5,4.3-5.6,5.9-11.4,5.9h-1.6c-3.2,0-4.7-1.6-4.7-5.1v-13.2l2.4,0c5.8,0.1,7.4,0.4,9.2,5.9l0.7,2h0.8
			v-17h-0.8l-0.7,2.1c-1.8,5.5-3.5,5.8-9.2,5.9l-2.4,0v-17.1h4.1c6.8,0,9.9,1.4,12.2,5.6l2.6,4.7h0.7v-11.2h-32.2v0.8l1.6,0.3
			c3.5,0.7,4.2,2.4,4.2,4.8v26c0,2-0.5,4.4-4.2,5l-1.6,0.3v0.8h33.6v-11.2h-0.7L292.1,261.7 M412.5,261.7c-2.5,4.3-5.6,5.9-11.4,5.9
			h-1.6c-3.2,0-4.7-1.6-4.7-5.1v-13.2l2.4,0c5.8,0.1,7.4,0.4,9.2,5.9l0.7,2h0.8v-17h-0.8l-0.7,2.1c-1.7,5.5-3.5,5.8-9.2,5.9l-2.4,0
			v-17.1h4.1c6.8,0,9.9,1.4,12.2,5.6l2.6,4.7h0.7v-11.2h-32.2v0.8l1.6,0.3c3.5,0.7,4.2,2.4,4.2,4.8v26c0,2-0.5,4.4-4.2,5l-1.6,0.3
			v0.8h33.6v-11.2h-0.7L412.5,261.7 M164.2,262.4v-31h4.8c9.6,0,15.4,6.8,15.4,18.1c0,11.5-5.4,18.1-14.9,18.1h-1.2
			C164.9,267.6,164.2,265.5,164.2,262.4 M170.6,230.5h-33.9v0.8l1.5,0.2c3.4,0.5,5.4,2,5.5,7.9l0.2,18.4L129,240.4
			c-4.3-5.1-6.2-7.4-7.5-9.8l-0.1-0.2H108v0.8l0.3,0c2.8,0.5,4.5,1.6,7.4,4.8l0.6,0.6v19.9c0,8.5-2.7,9.9-5.9,10.7l-1.1,0.3v0.8
			h15.1v-0.8l-1.1-0.3c-2.9-0.8-5.9-1.5-5.9-10.7l-0.2-18.9l26.7,31.5h0.8v-30.7c0-4.8,2.1-7.2,6.3-7.2c4.2,0,6.3,2.4,6.3,7.2v23.8
			c0,2.2-0.5,4.4-4.2,5l-1.5,0.3v0.8h19c6.6,0,12.1-2,15.9-5.9c3.5-3.5,5.4-8.2,5.4-13.3c0-5.1-1.9-9.8-5.4-13.1
			C182.7,232.4,177.2,230.5,170.6,230.5 M353.8,262.4v-31h4.8c9.6,0,15.4,6.8,15.4,18.1c0,11.5-5.4,18.1-14.9,18.1h-1.2
			C354.5,267.6,353.8,265.5,353.8,262.4 M360.2,230.5h-33.9v0.8l1.5,0.2c3.4,0.5,5.4,1.9,5.5,7.9l0.2,18.4l-14.7-17.4
			c-4.4-5.2-6.2-7.4-7.5-9.8l-0.1-0.2h-13.5v0.8l0.3,0c2.8,0.5,4.5,1.6,7.4,4.8l0.6,0.6v19.9c0,8.5-2.7,9.9-5.9,10.7l-1.1,0.3v0.8
			h15.1v-0.8l-1.1-0.3c-2.9-0.8-5.9-1.5-5.9-10.7l-0.2-18.9l26.7,31.4l0.1,0.1h0.8v-30.7c0-4.8,2.1-7.2,6.3-7.2
			c4.2,0,6.3,2.4,6.3,7.2v23.8c0,2.2-0.5,4.4-4.2,5l-1.5,0.3v0.8h19c6.6,0,12.1-2,15.9-5.9c3.5-3.5,5.4-8.2,5.4-13.3
			c0-5.1-1.9-9.8-5.4-13.1C372.3,232.4,366.8,230.5,360.2,230.5 M246.4,230.5H230v0.8l1.6,0.3c3.7,0.7,4.2,2.8,4.2,4.9v25.9
			c0,2.1-0.5,4.2-4.2,4.9l-1.6,0.3v0.8h19v-0.8l-1.3-0.3c-4.3-0.9-5.2-1.8-5.2-5.5v-30.5h1.6c5.9,0,9.4,4,9.4,10.6
			c0,6.6-3.5,10.6-9.4,10.6h-0.4v0.9h2.6c8.6,0,14.6-4.7,14.6-11.5C261,235.2,255,230.5,246.4,230.5 M222.8,261.7
			c-2.5,4.3-5.6,5.9-11.4,5.9h-1.6c-3.2,0-4.7-1.6-4.7-5.1v-13.2l2.4,0c5.8,0.1,7.4,0.4,9.2,5.9l0.7,2h0.8v-17h-0.8l-0.7,2.1
			c-1.7,5.5-3.5,5.8-9.2,5.9l-2.4,0v-17.1h4.1c6.8,0,9.9,1.4,12.2,5.6l2.6,4.7h0.8v-11.2h-32.2v0.8l1.6,0.3c3.5,0.7,4.2,2.4,4.2,4.8
			v26c0,2-0.5,4.4-4.2,5l-1.6,0.3v0.8h33.6v-11.2h-0.7L222.8,261.7"/>
	</g>
</g>
</svg>
