<?xml version="1.0" encoding="utf-8"?>
<!-- Generator: Adobe Illustrator 19.0.0, SVG Export Plug-In . SVG Version: 6.00 Build 0)  -->
<svg version="1.1" id="Calque_1" xmlns="http://www.w3.org/2000/svg" xmlns:xlink="http://www.w3.org/1999/xlink" x="0px" y="0px"
	 viewBox="-8093 2791.6 195.6 86.7" style="enable-background:new -8093 2791.6 195.6 86.7;" xml:space="preserve">
<style type="text/css">
	.st0{fill:#004682;}
	.st1{fill:#DD6E1B;}
	.st2{fill:#BCBCBC;}
</style>
<path class="st0" d="M-8091.8,2864.4c0.1-0.6,7.6-2.5,12.2-4.5c3.9-1.7,12.7-6.3,15.6-8.5c1.5-1.1,3.1-4.1,3.1-7.9s0-8.9,1.2-11.1
	c1.2-2.2,2.1-2.7,2.7-2.9s0.8,3.7-0.2,11.4c-1,7.8-2,18.1-9.2,21.9c-7.2,3.8-15.7,3-18.6,3C-8088,2865.9-8092,2865-8091.8,2864.4"/>
<path class="st0" d="M-7939.7,2841c2.7,1.5,0.4,5-2.7,5.6c-5.7,1.1-12.5,0.6-15.2,0c-2.7-0.6-4.2-1.2-4-1.8c0,0,3.1-2.8,8-4
	C-7948.5,2839.6-7942.7,2839.3-7939.7,2841 M-7967.2,2837.2c-3.6,1-4.6,0.7-4.6,0.4c0,0,0.3-1.2,1.2-2.9c2-4.1,5.8-5.1,8.3-5.1
	s3.5,0.8,2.5,2.1C-7960.9,2833-7963.6,2836.2-7967.2,2837.2 M-7911.6,2793.2c-0.1-1.3-0.4-1.7-1.1-1c-0.7,0.7-3,2.9-3.8,4.7
	c-0.8,1.8-0.6,6.8-0.6,18.6s-3.6,13-5.2,13.8c-1.6,0.8-2.9,0.2-3.1-1.6c-0.2-1.8-0.3-5.8-1.7-7.2c-1.3-1.4-3.8-1.3-5.6-1
	c-1.8,0.3-8.3,3.8-10.6,5.3c-2.2,1.5-10.5,7.4-12.9,8.2c5.6-9.6-2.6-14.3-10.1-8.3c-2.9,2.3-7.1,11.4-8.7,13.6s-6.7,4.4-13.9,5.3
	c-7.2,0.9-14.1,0.9-29.1,0c-12-0.8-19.7-3.9-24.3-7.1c-5.7-4.1-5.6-12.3-5.8-19c-0.1-6.9,0.5-25.4-0.3-25.4c-0.9,0-4.8,3.2-4.8,3.2
	s-0.1,23-0.3,26.3s-1.9,15.1,2.7,20.9c5.5,7,12.5,8.9,29.2,10.7c16.7,1.7,28.1-0.9,33-1.4c4.8-0.5,17.3-4.3,17.3-4.3
	s2.7,1.7,11.2,3.8c8.5,2,17.6,0,22.7-3c4.6-2.6,4.6-7.1,4-9.7c-0.6-2.7-3.6-4.2-6.1-4.8c-1.5-0.4-4.5-0.3-4.5-0.3s2.2-2.2,5.9-4.3
	c3.7-2,5.7-1.3,6.5-0.4c0.8,0.9,1.1,2.6,1.2,4.4c0.2,3.6,4,6.5,7.4,4.3c3.5-2.2,6.2-6.4,8.4-11.5c2.2-5.1,2.2-8.6,2.2-12.5
	C-7912.4,2809.6-7911.5,2794.5-7911.6,2793.2"/>
<path class="st0" d="M-7898.9,2825.2c0,0-5.2,4.3-5.4,12.2c-0.1,7.9-0.8,26.6-0.8,27.3c0,0.7,0.1,1.6,1.2,0.6
	c1.1-1.1,4.6-3.6,5.4-10.7c0.8-7.1,0.9-15.9,0.6-21.8C-7898.3,2827-7898.5,2824.7-7898.9,2825.2"/>
<path class="st1" d="M-7934,2806.3c0-2.8,2.5-5.1,5.7-5.1c3.1,0,5.7,2.3,5.7,5.1s-2.5,5.1-5.7,5.1
	C-7931.5,2811.5-7934,2809.2-7934,2806.3"/>
<path class="st2" d="M-8006.5,2876.8c-1.2,0-2.3-0.2-3.3-0.5s-1.9-0.8-2.7-1.5s-1.5-1.6-1.9-2.7c-0.4-1.1-0.7-2.2-0.7-3.4
	c0-1.3,0.2-2.5,0.6-3.6c0.4-1.1,1-2.1,1.8-3c0.9-1.1,2-1.9,3.3-2.5c1.3-0.6,2.7-0.9,4.3-0.9c2.6,0,4.7,0.7,6.3,2.2
	c1.6,1.5,2.4,3.4,2.4,5.8c0,1.3-0.2,2.5-0.6,3.6s-1,2.1-1.8,3c-0.9,1.1-2.1,1.9-3.4,2.5C-8003.5,2876.4-8005,2876.8-8006.5,2876.8z
	 M-8005.5,2863c-1.4,0-2.6,0.5-3.5,1.5s-1.4,2.3-1.4,3.8c0,1.3,0.4,2.4,1.1,3.2c0.7,0.8,1.8,1.2,3,1.2c1.4,0,2.5-0.5,3.5-1.6
	c1-1.1,1.4-2.3,1.4-3.8c0-1.2-0.4-2.2-1.2-3C-8003.4,2863.5-8004.3,2863-8005.5,2863z"/>
<path class="st2" d="M-7992.7,2876.4l2.7-17.2h5.2l3.6,8.5c0,0.1,0.1,0.2,0.2,0.4c0.4,0.9,0.7,1.7,0.8,2.4v-0.4c0-0.3,0-0.7,0.1-1
	s0.1-0.8,0.2-1.4l1.3-8.4h4.6l-2.7,17.2h-5l-3.8-8.7c-0.3-0.6-0.5-1.2-0.6-1.6c-0.1-0.4-0.3-0.8-0.4-1.2v0.5c0,0.3,0,0.6,0,1
	c0,0.4-0.1,0.8-0.1,1.4l-1.3,8.7h-4.8V2876.4z"/>
<path class="st2" d="M-7970.7,2876.4l2.7-17.2h4.6l-2.1,13.1h5.7l-0.6,4.1H-7970.7z"/>
<path class="st2" d="M-7955.9,2876.4l2.7-17.2h4.7l-2.7,17.2H-7955.9z"/>
<path class="st2" d="M-7945.1,2876.4l2.7-17.2h5.2l3.6,8.5c0,0.1,0.1,0.2,0.2,0.4c0.4,0.9,0.7,1.7,0.8,2.4v-0.4c0-0.3,0-0.7,0.1-1
	s0.1-0.8,0.2-1.4l1.3-8.4h4.6l-2.7,17.2h-5l-3.8-8.7c-0.3-0.6-0.5-1.2-0.6-1.6c-0.1-0.4-0.3-0.8-0.4-1.2v0.5c0,0.3,0,0.6,0,1
	c0,0.4-0.1,0.8-0.1,1.4l-1.3,8.7h-4.8V2876.4z"/>
<path class="st2" d="M-7917.9,2872.6h5.3l-0.6,3.8h-9.9l2.7-17.2h9.9l-0.6,4h-5.3l-0.4,2.8h4.9l-0.6,3.7h-4.9L-7917.9,2872.6z"/>
</svg>
