<?xml version="1.0" encoding="utf-8"?>
<!-- Generator: Adobe Illustrator 23.0.1, SVG Export Plug-In . SVG Version: 6.00 Build 0)  -->
<!DOCTYPE svg PUBLIC "-//W3C//DTD SVG 1.1//EN" "http://www.w3.org/Graphics/SVG/1.1/DTD/svg11.dtd" [
	<!ENTITY ns_extend "http://ns.adobe.com/Extensibility/1.0/">
	<!ENTITY ns_ai "http://ns.adobe.com/AdobeIllustrator/10.0/">
	<!ENTITY ns_graphs "http://ns.adobe.com/Graphs/1.0/">
	<!ENTITY ns_vars "http://ns.adobe.com/Variables/1.0/">
	<!ENTITY ns_imrep "http://ns.adobe.com/ImageReplacement/1.0/">
	<!ENTITY ns_sfw "http://ns.adobe.com/SaveForWeb/1.0/">
	<!ENTITY ns_custom "http://ns.adobe.com/GenericCustomNamespace/1.0/">
	<!ENTITY ns_adobe_xpath "http://ns.adobe.com/XPath/1.0/">
]>
<svg version="1.1" id="Calque_1" xmlns:x="&ns_extend;" xmlns:i="&ns_ai;" xmlns:graph="&ns_graphs;"
	 xmlns="http://www.w3.org/2000/svg" xmlns:xlink="http://www.w3.org/1999/xlink" x="0px" y="0px" viewBox="0 0 500 500"
	 style="enable-background:new 0 0 500 500;" xml:space="preserve">
<style type="text/css">
	.Ombre_x0020_portée{fill:none;}
	.Lueur_x0020_externe_x0020_5 pt{fill:none;}
	.Néon_x0020_bleu{fill:none;stroke:#8AACDA;stroke-width:7;stroke-linecap:round;stroke-linejoin:round;}
	.Ton_x0020_clair_x0020_chrome{fill:url(#SVGID_1_);stroke:#FFFFFF;stroke-width:0.3629;stroke-miterlimit:1;}
	.Swing_GS{fill:#FFDD00;}
	.Alysse_GS{fill:#A6D0E4;}
	.st0{fill:#E42629;}
	.st1{fill:#36AD72;}
	.st2{fill:#3783C5;stroke:#3A83C4;stroke-width:0.25;stroke-miterlimit:10;}
	.st3{fill:#F9B634;}
	.st4{fill:#E42629;stroke:#E42629;stroke-width:0.25;stroke-miterlimit:10;}
	.st5{fill:#767579;}
</style>
<metadata>
	<sfw  xmlns="&ns_sfw;">
		<slices></slices>
		<sliceSourceBounds  bottomLeftOrigin="true" height="178.1" width="478.9" x="8.1" y="-322.6"></sliceSourceBounds>
	</sfw>
</metadata>
<linearGradient id="SVGID_1_" gradientUnits="userSpaceOnUse" x1="0" y1="0" x2="6.123234e-17" y2="-1">
	<stop  offset="0" style="stop-color:#656565"/>
	<stop  offset="0.618" style="stop-color:#1B1B1B"/>
	<stop  offset="0.6292" style="stop-color:#545454"/>
	<stop  offset="0.9831" style="stop-color:#3E3E3E"/>
</linearGradient>
<g>
	<path class="st0" d="M54.4,210.6c-9.9,7.3-24.6,6.6-33.8,15.9v15c11.3,6.9,22.6,13.8,33.8,21V210.6z"/>
	<path class="st1" d="M100.8,154c-6.7,2.6-13.2,5.9-19.6,9.8c-2.4,1.5-3.9,2.1-2.4,5.4c3.4,7.4,0.9,16.3,7.3,24.7
		c-8.3-1.2-14.2,0.6-19.1,4.2v65.5c12.3-3.4,23.6-7.6,33.8-12.2V154z"/>
	<path class="st1" d="M100.8,295.8v-30.9c-10.2,3.9-20.4,6.6-30,8.4C81.1,280.4,91.2,287.7,100.8,295.8"/>
	<path class="st2" d="M113.4,305.5c4.4,2.4,9.1,4.4,12.2,10c1.6,2.8,14.2,0.9,21.5-4.1v-74.1c-10.9,9.4-22.3,16.6-33.8,22.1
		L113.4,305.5z"/>
	<path class="st2" d="M147.2,147.9c-2.5,0.3-5.1,0.4-7.5,0.3c-9.1-0.7-17.8,0.1-26.2,2v95.1c13.2-7.1,24.4-15,33.8-22.7L147.2,147.9
		L147.2,147.9z"/>
	<path class="st3" d="M168.7,188.4c-2.6-3.4-9-8.2-6.2-11c9-9,3.8-20.5,7.4-30c-3.4-1-6.8-1.2-10.1-1V211c5.5-5.4,10-10.6,13.7-15.2
		C172.1,193.3,170.5,190.8,168.7,188.4"/>
	<path class="st3" d="M190.1,265.3c-7.9-3.1-10.1-9-9.3-17.6c1.4-15.2,1.5-30.3-3.8-44.2c-5.4,8.1-11.2,15.3-17.2,21.8v76.2
		c10.1-7.3,21-13.5,31.5-20.3c3.1-2,8.7-2.6,7.8-8.3C198.3,268.1,194.1,266.9,190.1,265.3"/>
	<path class="st4" d="M199.2,165.2c0,0-9,18.8-23.5,21.8c0,0,4.1,0.8,9.5,0c0,0-44,91.6-176.2,94.6C9,281.7,147.7,315.7,199.2,165.2
		"/>
	<path class="st5" d="M451.3,266.9v4.2h0c0.1-0.1,0.2-0.2,0.3-0.3c0.1-0.1,0.3-0.2,0.4-0.3c0.2-0.1,0.4-0.2,0.6-0.2
		c0.2-0.1,0.5-0.1,0.7-0.1c0.4,0,0.8,0.1,1.2,0.2c0.4,0.2,0.7,0.4,0.9,0.7c0.3,0.3,0.5,0.6,0.6,1c0.1,0.4,0.2,0.8,0.2,1.2
		c0,0.4-0.1,0.9-0.2,1.2c-0.1,0.4-0.3,0.7-0.6,1c-0.3,0.3-0.6,0.5-0.9,0.7c-0.4,0.2-0.8,0.3-1.2,0.3c-0.4,0-0.8-0.1-1.2-0.3
		c-0.4-0.2-0.7-0.5-0.9-0.8h0v0.9h-1.4v-9.5H451.3z M454.7,273.3c0-0.2,0-0.5-0.1-0.7c-0.1-0.2-0.2-0.4-0.3-0.6
		c-0.1-0.2-0.3-0.3-0.5-0.4c-0.2-0.1-0.5-0.2-0.8-0.2c-0.3,0-0.5,0.1-0.7,0.2c-0.2,0.1-0.4,0.3-0.6,0.5c-0.2,0.2-0.3,0.4-0.4,0.6
		c-0.1,0.2-0.1,0.5-0.1,0.7c0,0.2,0,0.5,0.1,0.7c0.1,0.2,0.2,0.4,0.4,0.6c0.2,0.2,0.3,0.3,0.6,0.4c0.2,0.1,0.5,0.2,0.7,0.2
		c0.3,0,0.5-0.1,0.8-0.2c0.2-0.1,0.4-0.3,0.5-0.5c0.1-0.2,0.2-0.4,0.3-0.6C454.7,273.8,454.7,273.6,454.7,273.3"/>
	<path class="st5" d="M456.8,270.4h1.7l1.7,4.4h0l1.5-4.4h1.6l-2.8,7.3c-0.1,0.3-0.2,0.5-0.4,0.7c-0.1,0.2-0.3,0.4-0.5,0.5
		c-0.2,0.1-0.4,0.3-0.6,0.3s-0.5,0.1-0.9,0.1c-0.1,0-0.3,0-0.4,0c-0.1,0-0.3,0-0.4-0.1l0.1-1.3c0.1,0,0.2,0.1,0.3,0.1
		c0.1,0,0.2,0,0.3,0c0.2,0,0.3,0,0.4-0.1s0.2-0.1,0.3-0.2s0.1-0.2,0.2-0.3c0.1-0.1,0.1-0.3,0.2-0.4l0.3-0.8L456.8,270.4z"/>
	<path class="st5" d="M467.1,268.3c0-0.2,0.1-0.5,0.3-0.6c0.2-0.2,0.4-0.3,0.7-0.3c0.3,0,0.5,0.1,0.7,0.3c0.2,0.2,0.3,0.4,0.3,0.6
		c0,0.3-0.1,0.5-0.3,0.6c-0.2,0.2-0.4,0.3-0.7,0.3c-0.3,0-0.5-0.1-0.7-0.3C467.2,268.8,467.1,268.6,467.1,268.3 M467.3,270.4h1.5v6
		h-1.5V270.4z"/>
	<path class="st5" d="M470.6,275l3.4-3.4c0.3-0.3,0.5-0.5,0.7-0.8c0.2-0.3,0.2-0.6,0.2-0.9c0-0.4-0.1-0.8-0.4-1
		c-0.3-0.2-0.6-0.4-1-0.4c-0.4,0-0.8,0.1-1,0.4c-0.3,0.3-0.4,0.7-0.5,1.1l-1.5-0.2c0-0.4,0.1-0.7,0.3-1c0.2-0.3,0.4-0.6,0.6-0.8
		c0.3-0.2,0.6-0.4,0.9-0.5c0.3-0.1,0.7-0.2,1.1-0.2c0.4,0,0.8,0.1,1.1,0.2c0.4,0.1,0.7,0.3,0.9,0.5c0.3,0.2,0.5,0.5,0.7,0.8
		c0.2,0.3,0.2,0.7,0.2,1.1c0,0.3,0,0.5-0.1,0.8c-0.1,0.2-0.2,0.5-0.3,0.7c-0.1,0.2-0.3,0.4-0.5,0.6c-0.2,0.2-0.4,0.4-0.6,0.6
		l-2.6,2.4h4v1.4h-5.9V275z"/>
	<path class="st5" d="M478.3,267.5h3.5c0.3,0,0.7,0,1,0.1c0.3,0.1,0.6,0.2,0.9,0.4c0.3,0.2,0.5,0.4,0.6,0.7c0.2,0.3,0.2,0.6,0.2,1
		c0,0.5-0.1,0.9-0.4,1.2c-0.3,0.3-0.7,0.6-1.1,0.7v0c0.6,0.1,1,0.3,1.4,0.7c0.4,0.4,0.5,0.8,0.5,1.4c0,0.5-0.1,0.9-0.3,1.2
		c-0.2,0.3-0.4,0.6-0.8,0.8c-0.3,0.2-0.7,0.3-1.1,0.4c-0.4,0.1-0.8,0.1-1.2,0.1h-3.2V267.5z M479.9,271.1h1.4c0.5,0,0.9-0.1,1.2-0.3
		c0.3-0.2,0.4-0.5,0.4-0.9c0-0.4-0.1-0.7-0.4-0.9c-0.3-0.2-0.7-0.3-1.3-0.3h-1.3V271.1z M479.9,275.1h1.4c0.2,0,0.4,0,0.7,0
		c0.2,0,0.5-0.1,0.6-0.2c0.2-0.1,0.4-0.2,0.5-0.4c0.1-0.2,0.2-0.4,0.2-0.7c0-0.5-0.2-0.8-0.5-1c-0.3-0.2-0.8-0.3-1.4-0.3h-1.5V275.1
		z"/>
	<g>
		<path class="st5" d="M232.7,264.1v-51.8h12.6v51.8H232.7z"/>
		<path class="st5" d="M288.9,264.1L268,230.2h-0.2l0.3,33.9h-12.2v-51.8h14.3l20.8,33.8h0.2l-0.3-33.8h12.2v51.8H288.9z"/>
		<path class="st5" d="M339.5,264.1H327l-19.6-51.8h14.1l12,36.8h0.3l11.9-36.8h13.8L339.5,264.1z"/>
		<path class="st5" d="M363.7,264.1v-51.8h34.9v10.6h-22.8v9.7h21.5v10h-21.5v10.8h24.1v10.7H363.7z"/>
		<path class="st5" d="M434.3,225.7c-2.1-2.7-6-4.5-9.2-4.5c-3.2,0-7.3,1.1-7.3,5.2c0,3.4,3.1,4.5,8,6.1c7,2.3,16.1,5.2,16.1,15.6
			c0,11.9-9.6,17.3-19.8,17.3c-7.4,0-14.8-2.7-19.4-7.5l8.2-8.3c2.6,3.1,7.1,5.5,11.2,5.5c3.8,0,7.2-1.5,7.2-5.6
			c0-3.9-4-5.3-10.8-7.4c-6.7-2.1-13.3-5.5-13.3-14.9c0-11.5,10.3-16.3,20.1-16.3c5.9,0,12.4,2.2,17,6.4L434.3,225.7z"/>
		<path class="st5" d="M472.4,222.9v41.2h-12.5v-41.2h-14.6v-10.7H487v10.7H472.4z"/>
	</g>
	<g>
		<path class="st2" d="M236.5,192.6h-5l19.4-44.9h4.4l19.3,44.9h-5.1l-5-11.8h-23.2L236.5,192.6z M243.1,176.6h19.8l-9.9-23.9
			L243.1,176.6z"/>
		<path class="st2" d="M293.4,192.6h-4.3v-48h4.3V192.6z"/>
		<path class="st2" d="M314.5,198.5c2.3,3,6.8,5.5,11.4,5.5c8.4,0,11.6-5.3,11.6-11.7v-5.6h-0.1c-2.3,3.7-6.9,5.8-11.2,5.8
			c-9.3,0-15.4-6.4-15.4-15.1c0-8.4,6.1-15.4,15.4-15.4c4.3,0,8.9,2.1,11.2,5.9h0.1v-5.1h4.3v29.4c0,6.4-3,15.5-16.1,15.5
			c-5.5,0-10.7-2.2-14.3-6L314.5,198.5z M326.6,188.9c6.6,0,11.4-4.6,11.4-11.6c0-6.2-4.8-11.6-11.4-11.6c-7.1,0-11.2,5.4-11.2,11.6
			C315.3,183.6,319.5,188.9,326.6,188.9z"/>
		<path class="st2" d="M388,178.9h-24.6c0.2,5.9,4.7,10.8,10.9,10.8c4.5,0,7.8-2.4,9.5-5.1l3.2,2.5c-3.6,4.5-7.9,6.3-12.8,6.3
			c-8.8,0-15.4-6.7-15.4-15.6s6.5-15.6,15-15.6c9.3,0,14.2,6.7,14.2,14.7C388.1,177.4,388.1,178.1,388,178.9z M383.7,175.4
			c-0.3-5.6-3.7-9.7-9.8-9.7c-5.8,0-10.1,4.6-10.4,9.7H383.7z"/>
		<path class="st2" d="M405.3,169.4c0-1.6-0.1-4.5-0.3-6.5h4.1c0.2,1.6,0.3,3.8,0.3,5.1h0.1c1.7-3.5,5.3-5.8,9.5-5.8
			c1.1,0,1.9,0.1,2.9,0.3l-0.6,4.1c-0.5-0.2-1.8-0.4-3-0.4c-4.6,0-8.7,3.3-8.7,11.2v15.2h-4.3V169.4z"/>
		<path class="st2" d="M438.4,154.5c-1.5,0-3-1.3-3-3s1.5-3,3-3c1.5,0,3,1.3,3,3S439.9,154.5,438.4,154.5z M440.6,192.6h-4.3v-29.7
			h4.3V192.6z"/>
		<path class="st2" d="M478.8,173.4c0-5.1-2.8-7.7-7.9-7.7c-3.6,0-6.7,1.4-8.8,3.5l-2.4-2.9c2.5-2.5,6.6-4.3,11.7-4.3
			c6.4,0,11.6,3.5,11.6,10.8v13c0,2.3,0.2,5,0.5,6.7h-3.9c-0.3-1.5-0.4-3.2-0.4-4.8h-0.1c-2.7,4-6,5.6-10.8,5.6
			c-4.5,0-10.3-2.4-10.3-9c0-9.1,10.1-10,20.9-10V173.4z M477.5,177.7c-7,0-15.2,0.8-15.2,6.4c0,4.3,3.6,5.6,7,5.6
			c6.1,0,9.5-4.6,9.5-9.8v-2.2H477.5z"/>
	</g>
	<path class="st0" d="M243.9,302.2h-8.4v19.3h-3.2v-40.8h11.3c7.5,0,13.4,3.1,13.4,10.7C257.2,298.5,251.6,302.2,243.9,302.2z
		 M243.7,283.4h-8.1v16.1h8.2c6,0,10.2-2.7,10.2-8.1C254,285.7,249.6,283.4,243.7,283.4z"/>
	<path class="st0" d="M292.1,321.5h-3.8l-11.6-19.6h-7.8v19.6h-3.2v-40.8h11.8c7.4,0,13.5,2.5,13.5,10.6c0,6.6-5.2,10-10.9,10.4
		L292.1,321.5z M268.8,283.4v15.8h8.1c7,0,10.8-2.7,10.8-7.9c0-5.9-4.7-7.9-10.9-7.9H268.8z"/>
	<path class="st0" d="M325.6,321.5H300v-40.8h24.8v2.8h-21.6v15.4h20.2v2.8h-20.2v17h22.4V321.5z"/>
	<path class="st0" d="M374.2,321.5h-3.2v-36.8h-0.2l-15.8,36.8h-1.8l-15.8-36.8h-0.1v36.8h-3.2v-40.8h5l15.2,35.5l0.1-0.1l15-35.5h5
		V321.5z"/>
	<path class="st0" d="M388.7,321.5h-3.2v-40.8h3.2V321.5z"/>
	<path class="st0" d="M430.4,306.2c0,7.5-3.3,16.4-15.3,16.4c-12,0-15.4-8.8-15.4-16.4v-25.5h3.2v25.1c0,6.5,2.5,13.9,12.2,13.9
		c9.6,0,12.2-7.3,12.2-13.9v-25.1h3.2V306.2z"/>
	<path class="st0" d="M481.5,321.5h-3.2v-36.8h-0.2l-15.8,36.8h-1.8l-15.8-36.8h-0.1v36.8h-3.2v-40.8h5l15.2,35.5l0.1-0.1l15-35.5h5
		V321.5z"/>
</g>
</svg>
