<?xml version="1.0" encoding="utf-8"?>
<!-- Generator: Adobe Illustrator 19.2.1, SVG Export Plug-In . SVG Version: 6.00 Build 0)  -->
<svg version="1.1" id="layer" xmlns="http://www.w3.org/2000/svg" xmlns:xlink="http://www.w3.org/1999/xlink" x="0px" y="0px"
	 viewBox="0 0 652 652" style="enable-background:new 0 0 652 652;" xml:space="preserve">
<style type="text/css">
	.st0{fill:#FFD600;}
	.st1{fill:#1C2C37;}
</style>
<g>
	<path class="st0" d="M269,321.4c0,6.8-0.5,13.4-1.4,19.9h20.1c1-6.5,1.6-13.1,1.6-19.9c0-6.8-0.5-13.4-1.6-19.9h-20.1
		C268.5,308.1,269,314.7,269,321.4 M165,445.8c-68.7,0-124.3-55.7-124.3-124.3c0-68.7,55.7-124.3,124.3-124.3
		c61.9,0,113.2,45.2,122.8,104.4h20.1c-9.7-70.2-70-124.3-142.9-124.3c-79.7,0-144.2,64.6-144.2,144.2
		c0,79.7,64.6,144.2,144.2,144.2c72.9,0,133.2-54.1,142.9-124.3h-20.1C278.2,400.5,226.9,445.8,165,445.8"/>
	<path class="st1" d="M372.2,307.9l10.4,14.2l-9.6,12.4c-1.3,1.6-2.9,2.7-5.1,3.2l-2.6,0.6v3.1h16.9v-3.1l-3.3-0.4
		c-0.8-0.1-1.2-0.5-1.2-1.1c0-0.6,0.3-1.1,0.8-1.8l6.6-9.4l6.8,9.9c0.4,0.6,0.7,1.2,0.7,1.6c0,0.5-0.3,0.8-1,0.9l-2.6,0.3v3.1H407
		v-3.1l-2.3-0.6c-1.9-0.5-3.1-1.5-4.9-3.9l-9.9-13.4l9.8-12.5c1.3-1.6,2.8-2.4,4.8-2.8l1.9-0.4v-3.1h-15.7v3.1l2.9,0.4
		c0.7,0.1,1.1,0.5,1.1,1c0,0.5-0.4,1.2-0.7,1.7l-6.6,9.2l-6.5-9.5c-0.2-0.3-0.5-0.9-0.5-1.4c0-0.5,0.5-0.9,1.3-1l3.3-0.4v-3.2h-18.8
		v3.2l1.8,0.3C369.4,305.4,371,306.2,372.2,307.9 M429.2,338.2c-2.6-0.3-6,0.2-6-2.8v-9.5c0-0.9,0-2.2,1.7-2.2h3.9
		c1.5,0,2.1,0.9,2.4,2.2l0.6,2.8h3.5v-14h-3.6l-0.4,2.8c-0.2,1.4-0.9,2.3-2.4,2.3H425c-1.7,0-1.7-0.9-1.7-2.2v-10.3
		c0-1.4,0.3-2.2,1.9-2.2h8c2.4,0,4.4,0.6,5.1,3.3l0.9,3.1l3.7-0.4l-0.2-9.6h-32.2v3.1l3,0.5c1.4,0.2,2.3,0.7,2.3,2.4v27.9
		c0,1.7-0.9,2.3-2.3,2.4l-3,0.4v3.1h18.8V338.2z M426,397.8c-6.4,0-8.9-3.6-9.4-9.7l-3.9,0.4l0.6,11.6c4.3,0.5,8,1.5,12.5,1.5
		c10.6,0,15.5-5.6,15.5-12.4c0-14.4-21.9-9.5-21.9-19c0-3.1,2.3-5.7,7.3-5.7c4.6,0,8.2,2.2,8.6,8.3l3.8-0.3V362
		c0,0-7.5-1.3-12.2-1.3c-8.2,0-14.1,4.2-14.1,11.7c0,14.6,21.7,8.8,21.7,19.1C434.4,395.5,431.1,397.8,426,397.8 M565.6,370.2
		c0-3.1,2.3-5.7,7.3-5.7c4.6,0,8.2,2.2,8.6,8.3l3.8-0.3V362c0,0-7.5-1.3-12.2-1.3c-8.2,0-14.1,4.2-14.1,11.7
		c0,14.6,21.7,8.8,21.7,19.1c0,4-3.3,6.4-8.5,6.4c-6.4,0-8.9-3.6-9.4-9.7l-3.9,0.4l0.6,11.6c4.3,0.5,8,1.5,12.6,1.5
		c10.6,0,15.5-5.6,15.5-12.4C587.6,374.8,565.6,379.7,565.6,370.2 M598.8,370.2c0-3.1,2.3-5.7,7.3-5.7c4.6,0,8.2,2.2,8.6,8.3
		l3.8-0.3V362c0,0-7.5-1.3-12.2-1.3c-8.2,0-14.1,4.2-14.1,11.7c0,14.6,21.7,8.8,21.7,19.1c0,4-3.3,6.4-8.5,6.4
		c-6.4,0-8.9-3.6-9.4-9.7l-3.9,0.4l0.6,11.6c4.3,0.5,8,1.5,12.6,1.5c10.6,0,15.5-5.6,15.5-12.4C620.7,374.8,598.8,379.7,598.8,370.2
		 M507.7,338.2l-3-0.4c-1.4-0.2-2.3-0.7-2.3-2.4v-11.3h4.4c3.1,4,10.8,14.8,12.6,17.3h11.4v-3.1c-3.2-0.7-4.2,0.1-9.8-7.2l-6.1-7.9
		c4.7-1.2,9.6-4.7,9.6-11.1c0-6.5-5.1-10.5-13.1-10.5h-21.7v3.1l2.9,0.5c1.4,0.2,2.3,0.7,2.3,2.4v27.9c0,1.7-0.9,2.3-2.3,2.4
		l-2.9,0.4v3.1h18.1V338.2z M502.4,307.5c0-1.6,0.9-2.4,2.2-2.4h5.1c3.6,0,6.6,1.9,6.6,7.4c0,6.9-4.7,7.9-8.1,7.9h-5.8V307.5z
		 M344.4,342c14.7,0,21.1-10.1,21.1-20.5c0-10.4-6.4-20.5-21.1-20.5c-14.8,0-21.1,10.1-21.1,20.5C323.2,331.8,329.6,342,344.4,342
		 M344.4,304.7c6.9,0,12.8,4.4,12.8,16.7c0,12.3-6,16.8-12.8,16.8c-6.9,0-12.8-4.5-12.8-16.8C331.5,309.2,337.5,304.7,344.4,304.7
		 M465.5,342c14.7,0,21.1-10.1,21.1-20.5c0-10.4-6.4-20.5-21.1-20.5c-14.8,0-21.1,10.1-21.1,20.5C444.4,331.8,450.8,342,465.5,342
		 M465.5,304.7c6.9,0,12.8,4.4,12.8,16.7c0,12.3-6,16.8-12.8,16.8c-6.9,0-12.9-4.5-12.9-16.8C452.7,309.2,458.7,304.7,465.5,304.7
		 M461,364.8l2.9-0.4v-3.1h-18.1v3.1l3,0.4c1.4,0.2,2.3,0.7,2.3,2.4v27.9c0,1.7-0.9,2.3-2.3,2.4l-3,0.4v3.1H464v-3.1l-2.9-0.4
		c-1.4-0.2-2.3-0.7-2.3-2.4v-27.9C458.7,365.6,459.6,365,461,364.8 M431,420.3c-14.8,0-21.1,10.1-21.1,20.5
		c0,10.4,6.4,20.5,21.1,20.5c14.7,0,21.2-10.1,21.2-20.5C452.1,430.4,445.7,420.3,431,420.3 M431,457.6c-6.9,0-12.8-4.5-12.8-16.8
		c0-12.3,6-16.7,12.8-16.7c6.9,0,12.9,4.4,12.9,16.7C443.8,453.1,437.9,457.6,431,457.6 M394.1,364.4l3,0.4c1.5,0.2,2.4,0.7,2.4,2.4
		l-0.1,20.7c0,7.6-5.5,9.6-10.3,9.6h-1.6c-7,0-9-4.4-9-8.3v-22c0-1.7,0.9-2.2,2.3-2.4l3-0.4v-3.1h-18.1v3.1l3,0.4
		c1.4,0.2,2.3,0.6,2.3,2.4v21.9c0,6.4,3.5,12.3,16.4,12.3h1.4c8.8,0,15.8-4.6,15.8-12.6v-21.7c0-1.7,0.9-2.2,2.3-2.4l3-0.4v-3.1
		h-15.6V364.4z M523.9,420.8h-20.8v3.1l3,0.5c1.4,0.2,2.3,0.7,2.3,2.4v27.8c0,1.7-0.9,2.2-2.3,2.4l-3,0.4v3.1h18.8v-3.1l-3.6-0.4
		c-1.4-0.2-2.3-0.7-2.3-2.4v-27.8c0-1.7,0.8-2.4,2.2-2.4h3.5c3.7,0,7.2,1.8,7.2,8.5c0,7.2-4,8.4-7.5,8.4h-2.2v3.6h2.7
		c10.6,0,15.1-5.3,15.1-12.3C536.9,425.3,531.9,420.8,523.9,420.8 M508.4,367.2c0-1.7,1-2.2,2.4-2.4l2.9-0.4v-3.1h-15.6v3.1l3,0.4
		c1.4,0.2,2.3,0.7,2.3,2.4v24.5L482,361.2h-14v3.1l3,0.4c1.4,0.2,2.3,0.7,2.3,2.4v27.9c0,1.8-0.9,2.2-2.3,2.4l-3,0.4v3.1h16.2v-3.1
		l-3.6-0.5c-1.4-0.2-2.3-0.7-2.3-2.4v-26.2l22.9,32.2h7.2V367.2z M483.6,424l3,0.5c1.5,0.2,2.4,0.7,2.4,2.4l-0.1,20.7
		c0,7.6-5.5,9.6-10.3,9.6h-1.6c-7,0-9-4.4-9-8.3v-22c0-1.7,0.9-2.2,2.3-2.4l3-0.5v-3.1h-18.1v3.1l2.9,0.5c1.4,0.2,2.3,0.6,2.3,2.4
		v21.9c0,6.4,3.5,12.3,16.4,12.3h1.4c8.8,0,15.7-4.6,15.7-12.6v-21.7c0-1.7,0.9-2.2,2.3-2.4l3-0.5v-3.1h-15.6V424z M328.9,397.5
		l-3,0.4v3.1h23.2c7.8,0,15-3.9,15-11.4c0-6.6-5.6-9.5-10.9-10.1c5.3-0.9,8.5-4.6,8.5-9.3c0-5.5-4.4-9-12.5-9H326v3.1l3,0.4
		c1.4,0.2,2.3,0.7,2.3,2.4v27.9C331.3,396.8,330.3,397.3,328.9,397.5 M338.8,366c0-0.8,0.4-1.2,1.2-1.2h7.5c2.2,0,6.5,1,6.5,6.5
		c0,4.3-2.6,7-7.4,7h-6.5c-1.1,0-1.3-0.6-1.3-1.1V366z M338.8,383.2c0-0.6,0.2-1.2,1-1.2h7.9c4.5,0,8.3,2.1,8.3,7.9
		c0,7.1-5.5,7.6-8.6,7.6h-4c-3.2,0-4.5-1.1-4.5-4.9V383.2z M577.1,320.4c0-10.9-6.5-18.9-20.5-18.9h-22.6v3.1l3,0.5
		c1.3,0.2,2.3,0.6,2.3,2.4v27.9c0,1.7-0.9,2.2-2.3,2.4l-3,0.4v3.1h21.1C569.5,341.3,577.1,332.1,577.1,320.4 M552.9,337.8h-1.4
		c-4.1,0-4.7-1.4-4.7-5.3v-25.7c0-1,0.2-1.7,1.5-1.7h4.9c9.3,0,15.4,4.8,15.4,16.4C568.8,335.7,559.9,337.8,552.9,337.8
		 M348.1,444.7l3.8,0.5c1.4,0.2,2.3,0.7,2.3,2.4v8.8c-1,0.5-3.9,1.1-7.1,1.1c-9.1,0-15.7-5.2-15.7-17.3c0-12.1,6.5-15.9,14-15.9
		c6.5,0,9,3,10.2,6.1l1,2.7l3.8-0.5l-0.3-9.8c-1.5-0.6-8.1-2.3-14.4-2.3c-12.2,0-22.6,6.6-22.6,19.8v0.6c0,13.2,8.9,20.5,22.3,20.5
		c4.7,0,9.8-0.9,13.2-2.3c1,0.3,2.1,0.6,3.1,0.8v-12.3c0-1.8,0.4-2,1.9-2.4l2.1-0.5v-3.1h-17.6V444.7z M399.8,450.4l-6.1-7.9
		c4.7-1.3,9.6-4.7,9.6-11.1c0-6.5-5.1-10.5-13.1-10.5h-21.7v3.1l3,0.5c1.4,0.2,2.3,0.7,2.3,2.4v27.9c0,1.7-0.9,2.3-2.3,2.4l-3,0.4
		v3.1h18.1v-3.1l-3-0.4c-1.4-0.2-2.3-0.7-2.3-2.4v-11.3h4.4c3.1,4,10.9,14.8,12.6,17.3h11.4v-3.1
		C406.4,456.8,405.4,457.7,399.8,450.4 M387.1,439.8h-5.8v-13c0-1.6,0.8-2.4,2.2-2.4h5.1c3.6,0,6.6,1.9,6.6,7.5
		C395.2,438.8,390.5,439.8,387.1,439.8 M548.5,394.1c-0.9,2.4-3.4,3.4-5.7,3.4h-7.8c-3.2,0-4.4-1.2-4.4-4.2V385c0-0.8,0-2.2,1.7-2.2
		h5c1.5,0,2.1,0.9,2.4,2.2l0.6,2.8h3.5v-14h-3.6l-0.5,2.8c-0.2,1.4-0.9,2.3-2.4,2.3h-4.9c-1.7,0-1.7-0.9-1.7-2.2v-9.5
		c0-1.5,0.1-2.4,2.1-2.4h8.8c2.4,0,4.4,0.6,5.1,3.3l0.8,3.1l3.7-0.4l-0.4-9.6h-32.9v3.1l3,0.4c1.4,0.2,2.3,0.8,2.3,2.4v27.9
		c0,1.7-0.9,2.3-2.3,2.4l-3,0.4v3.1h35.2l1-11.5h-3.8L548.5,394.1z"/>
</g>
</svg>
