<?xml version="1.0" encoding="utf-8"?>
<!-- Generator: Adobe Illustrator 23.0.1, SVG Export Plug-In . SVG Version: 6.00 Build 0)  -->
<!DOCTYPE svg PUBLIC "-//W3C//DTD SVG 1.1//EN" "http://www.w3.org/Graphics/SVG/1.1/DTD/svg11.dtd" [
	<!ENTITY ns_extend "http://ns.adobe.com/Extensibility/1.0/">
	<!ENTITY ns_ai "http://ns.adobe.com/AdobeIllustrator/10.0/">
	<!ENTITY ns_graphs "http://ns.adobe.com/Graphs/1.0/">
	<!ENTITY ns_vars "http://ns.adobe.com/Variables/1.0/">
	<!ENTITY ns_imrep "http://ns.adobe.com/ImageReplacement/1.0/">
	<!ENTITY ns_sfw "http://ns.adobe.com/SaveForWeb/1.0/">
	<!ENTITY ns_custom "http://ns.adobe.com/GenericCustomNamespace/1.0/">
	<!ENTITY ns_adobe_xpath "http://ns.adobe.com/XPath/1.0/">
]>
<svg version="1.1" id="Calque_1" xmlns:x="&ns_extend;" xmlns:i="&ns_ai;" xmlns:graph="&ns_graphs;"
	 xmlns="http://www.w3.org/2000/svg" xmlns:xlink="http://www.w3.org/1999/xlink" x="0px" y="0px" viewBox="0 0 500 500"
	 style="enable-background:new 0 0 500 500;" xml:space="preserve">
<metadata>
	<sfw  xmlns="&ns_sfw;">
		<slices></slices>
		<sliceSourceBounds  bottomLeftOrigin="true" height="173.9" width="455.9" x="22.1" y="162.7"></sliceSourceBounds>
	</sfw>
</metadata>
<g>
	<path d="M79.3,337.3H22.1v-11.4c7.4,0,8.2-2.6,8.2-20V194.7c0-17.2-0.8-19.9-8.2-19.9v-11.4h30v11.4c-7.2,0-7.6,2.3-7.6,20.1v117.8
		c0,10,0.6,10.9,3.2,10.9h20.2c5.4,0,6.7-1.7,9.4-32h5.7L79.3,337.3L79.3,337.3z"/>
	<path d="M98.8,194.6c0-17.2-0.6-19.7-9.9-19.7v-11.4h33.9v11.4c-9.3,0-9.9,2.5-9.9,19.7v111.6c0,17.2,0.6,19.7,9.9,19.7v11.4H88.9
		v-11.4c9.3,0,9.9-2.5,9.9-19.7V194.6L98.8,194.6z"/>
	<path d="M129.9,163.4h29.3c12.8,0,18.9,1.7,24.6,10.5c3.7,6,6.2,15.7,6.2,28.6c0,10.7-1.5,21-5.2,28.6c-3.6,7.2-9.1,11.8-16.9,13.6
		v0.5c7.9,0.5,14.2,4.2,18.8,11.3c4.6,6.5,7.6,17.5,7.6,31.7c0,13.1-1.6,24.7-5.6,33.7c-4.3,9.5-11.2,15.4-23.7,15.4h-35.2v-11.4
		c7.5,0,8.2-2.6,8.2-20.1V195.1c0-17.6-0.7-20.2-8.2-20.2V163.4L129.9,163.4z M152.2,239.5h6.9c5.4,0,9.8-2.7,12.8-9
		c2.4-5.4,3.8-13.1,3.8-24.6c0-7.6-1-15.2-3.1-20.6c-2.1-5-5.5-8.3-10.5-8.3h-6.2c-3.3,0-3.7,2-3.7,10.2V239.5L152.2,239.5z
		 M152.2,311.8c0,9.6,0.8,11.9,4.2,11.9h8.1c4.8,0,8.7-2.7,11.6-10c2.1-5.7,3.5-14.1,3.5-26.6c0-11.1-1.5-19.6-4.5-25.4
		c-3-5.8-7.7-8.5-14.4-8.5h-8.5V311.8L152.2,311.8z"/>
	<path d="M202.1,337.3v-11.4c7.6,0,8.4-2.5,8.4-19.8V194.6c0-17.2-0.8-19.8-8.4-19.8v-11.4h57.2l3.1,41.5h-5.6
		c-2.5-26.7-3.8-27.8-8.8-27.8h-20c-3.1,0-3.3,1.8-3.3,11.5v51.7h15.5c4.2,0,5.1-3.1,5.1-23.7h5.4v62.6h-5.4c0-23-0.8-25.2-4.9-25.2
		h-15.6v59.6c0,9.3,0.8,10.2,2.8,10.2h23c5.3,0,6.7-1.4,9.4-29.6h5.6l-3.5,43.3H202.1L202.1,337.3z"/>
	<path d="M332.8,309.9c4.3,14.4,6.1,16,10.2,16v11.4h-19.4l-20.7-77.5h-8.2v46.3c0,17.8,0.5,19.8,7.9,19.8v11.4h-30.3v-11.4
		c7.6,0,8.3-2.6,8.3-19.8V194.7c0-17.3-0.7-19.9-8.3-19.9v-11.4h32.3c11.9,0,18.3,2.8,24,11.5c4.9,7.4,7.7,18.8,7.7,33.1
		c0,11.9-1.9,23.1-5.5,31.8c-3.2,7.6-8.4,13-14.4,15.3L332.8,309.9L332.8,309.9z M294.7,246.2h8.2c6.4,0,11.1-3.6,14.2-9.9
		c3.1-6.5,4.5-15.3,4.5-26.3c0-9.3-1.2-18-4-24c-2.6-5.5-6.4-8.9-12.7-8.9h-7.3c-2.6,0-2.8,2.2-2.8,14.1V246.2L294.7,246.2z"/>
	<path d="M384.4,306.4c0,17.2,0.6,19.8,8.9,19.8v11.1h-32v-11.1c8.4,0,8.9-2.6,8.9-19.8v-129h-11.3c-5.7,0-6.6,1.7-8.7,29.7h-5
		l2.3-43.7h59.5l2.3,43.7h-5c-2.1-28.1-3-29.7-8.8-29.7h-11.2V306.4L384.4,306.4z"/>
	<path d="M414.6,337.3v-11.4c7.6,0,8.4-2.5,8.4-19.8V194.6c0-17.2-0.8-19.8-8.4-19.8v-11.4h57.2l3.1,41.5h-5.6
		c-2.5-26.7-3.8-27.8-8.8-27.8h-20c-3.1,0-3.3,1.8-3.3,11.5v51.7h15.5c4.2,0,5.1-3.1,5.1-23.7h5.4v62.6h-5.4c0-23-0.8-25.2-4.9-25.2
		h-15.6v59.6c0,9.3,0.8,10.2,2.8,10.2h23c5.3,0,6.7-1.4,9.4-29.6h5.6l-3.5,43.3H414.6L414.6,337.3z"/>
</g>
</svg>
