<?xml version="1.0" encoding="utf-8"?>
<!-- Generator: Adobe Illustrator 23.0.1, SVG Export Plug-In . SVG Version: 6.00 Build 0)  -->
<!DOCTYPE svg PUBLIC "-//W3C//DTD SVG 1.1//EN" "http://www.w3.org/Graphics/SVG/1.1/DTD/svg11.dtd" [
	<!ENTITY ns_extend "http://ns.adobe.com/Extensibility/1.0/">
	<!ENTITY ns_ai "http://ns.adobe.com/AdobeIllustrator/10.0/">
	<!ENTITY ns_graphs "http://ns.adobe.com/Graphs/1.0/">
	<!ENTITY ns_vars "http://ns.adobe.com/Variables/1.0/">
	<!ENTITY ns_imrep "http://ns.adobe.com/ImageReplacement/1.0/">
	<!ENTITY ns_sfw "http://ns.adobe.com/SaveForWeb/1.0/">
	<!ENTITY ns_custom "http://ns.adobe.com/GenericCustomNamespace/1.0/">
	<!ENTITY ns_adobe_xpath "http://ns.adobe.com/XPath/1.0/">
]>
<svg version="1.1" id="Calque_1" xmlns:x="&ns_extend;" xmlns:i="&ns_ai;" xmlns:graph="&ns_graphs;"
	 xmlns="http://www.w3.org/2000/svg" xmlns:xlink="http://www.w3.org/1999/xlink" x="0px" y="0px" viewBox="0 0 500 500"
	 style="enable-background:new 0 0 500 500;" xml:space="preserve">
<style type="text/css">
	.Ombre_x0020_portée{fill:none;}
	.Lueur_x0020_externe_x0020_5 pt{fill:none;}
	.Néon_x0020_bleu{fill:none;stroke:#8AACDA;stroke-width:7;stroke-linecap:round;stroke-linejoin:round;}
	.Ton_x0020_clair_x0020_chrome{fill:url(#SVGID_1_);stroke:#FFFFFF;stroke-width:0.3629;stroke-miterlimit:1;}
	.Swing_GS{fill:#FFDD00;}
	.Alysse_GS{fill:#A6D0E4;}
	.st0{fill:#E42629;}
	.st1{fill:#36AD72;}
	.st2{fill:#3783C5;stroke:#3A83C4;stroke-width:0.25;stroke-miterlimit:10;}
	.st3{fill:#F9B634;}
	.st4{fill:#E42629;stroke:#E42629;stroke-width:0.25;stroke-miterlimit:10;}
	.st5{fill:#E42629;stroke:#E42629;stroke-width:3;stroke-miterlimit:10;}
</style>
<metadata>
	<sfw  xmlns="&ns_sfw;">
		<slices></slices>
		<sliceSourceBounds  bottomLeftOrigin="true" height="483.5" width="484.4" x="8.1" y="-493.8"></sliceSourceBounds>
	</sfw>
</metadata>
<linearGradient id="SVGID_1_" gradientUnits="userSpaceOnUse" x1="0" y1="0" x2="6.123234e-17" y2="-1">
	<stop  offset="0" style="stop-color:#656565"/>
	<stop  offset="0.618" style="stop-color:#1B1B1B"/>
	<stop  offset="0.6292" style="stop-color:#545454"/>
	<stop  offset="0.9831" style="stop-color:#3E3E3E"/>
</linearGradient>
<path class="st0" d="M134.4,155.3c-22.3,16.5-55.5,14.9-76.2,35.9V225c25.5,15.6,51,31.1,76.2,47.4V155.3z"/>
<path class="st1" d="M239.1,27.6c-15.1,5.9-29.8,13.3-44.2,22.1c-5.4,3.4-8.8,4.7-5.4,12.2c7.7,16.7,2,36.8,16.5,55.7
	c-18.7-2.7-32,1.4-43.1,9.5v147.7c27.7-7.7,53.2-17.1,76.2-27.5V27.6z"/>
<path class="st1" d="M239.1,347.4v-69.7c-23,8.8-46,14.9-67.7,18.9C194.6,312.7,217.4,329.2,239.1,347.4"/>
<path class="st2" d="M267.5,369.3c9.9,5.4,20.5,9.9,27.5,22.6c3.6,6.3,32,2,48.5-9.2V215.5c-24.6,21.2-50.3,37.4-76.2,49.8
	L267.5,369.3z"/>
<path class="st2" d="M343.7,13.9c-5.6,0.7-11.5,0.9-16.9,0.7c-20.5-1.6-40.1,0.2-59.1,4.5v214.5c29.8-16,55-33.8,76.2-51.2
	L343.7,13.9L343.7,13.9z"/>
<path class="st3" d="M392.2,105.2c-5.9-7.7-20.3-18.5-14-24.8c20.3-20.3,8.6-46.2,16.7-67.7c-7.7-2.3-15.3-2.7-22.8-2.3v145.7
	c12.4-12.2,22.6-23.9,30.9-34.3C399.9,116.3,396.3,110.6,392.2,105.2"/>
<path class="st3" d="M440.5,278.7c-17.8-7-22.8-20.3-21-39.7c3.2-34.3,3.4-68.3-8.6-99.7c-12.2,18.3-25.3,34.5-38.8,49.2v171.9
	c22.8-16.5,47.4-30.4,71-45.8c7-4.5,19.6-5.9,17.6-18.7C459,285,449.5,282.3,440.5,278.7"/>
<path class="st4" d="M461,52.9c0,0-20.3,42.4-53,49.2c0,0,9.2,1.8,21.4,0c0,0-99.2,206.6-397.4,213.4C32,315.6,344.8,392.3,461,52.9
	"/>
<g>
	<path class="st5" d="M32,452.9H15.8v37.3H9.6v-78.8h21.8c14.5,0,25.9,6,25.9,20.7C57.6,445.7,46.8,452.9,32,452.9z M31.6,416.6
		H15.9v31.1h15.8c11.6,0,19.7-5.2,19.7-15.6C51.5,421,43,416.6,31.6,416.6z"/>
	<path class="st5" d="M125,490.1h-7.3l-22.4-37.8H80.2v37.8h-6.2v-78.8h22.8c14.3,0,26.1,4.8,26.1,20.5c0,12.7-10,19.3-21,20.1
		L125,490.1z M80,416.6v30.5h15.6c13.5,0,20.8-5.2,20.8-15.2c0-11.4-9.1-15.2-21-15.2H80z"/>
	<path class="st5" d="M189.7,490.1h-49.4v-78.8h47.9v5.4h-41.7v29.7h39v5.4h-39v32.8h43.2L189.7,490.1L189.7,490.1z"/>
	<path class="st5" d="M283.5,490.1h-6.2v-71h-0.4l-30.5,71H243l-30.5-71h-0.2v71h-6.2v-78.8h9.7l29.3,68.5l0.2-0.2l29-68.5h9.7v79
		H283.5z"/>
	<path class="st5" d="M311.5,490.1h-6.2v-78.8h6.2V490.1z"/>
	<path class="st5" d="M392,460.6c0,14.5-6.4,31.7-29.5,31.7s-29.7-17-29.7-31.7v-49.2h6.2v48.5c0,12.5,4.8,26.8,23.5,26.8
		c18.5,0,23.5-14.1,23.5-26.8v-48.5h6.2v49.2H392z"/>
	<path class="st5" d="M490.6,490.1h-6.2v-71h-0.4l-30.5,71h-3.5l-30.5-71h-0.2v71h-6.2v-78.8h9.7l29.3,68.5l0.2-0.2l29-68.5h9.7v79
		H490.6z"/>
</g>
</svg>
