<svg xmlns="http://www.w3.org/2000/svg" viewBox="0 0 1236 225.02">
  <defs>
    <style>.cls-1,.cls-2{fill:#008d39;}.cls-1{fill-rule:evenodd;}</style>
  </defs>
  <g id="Layer_2" data-name="Layer 2">
    <g id="Calque_1" data-name="Calque 1">
      <path class="cls-1" d="M918.47,112.54C918.75,49.79,868.57.93,810.1,0,746.25-1,698.21,51.33,697.38,110.44c-.9,64.93,50.46,113.79,108.72,114.56C869.19,225.92,919,173.9,918.47,112.54Zm-46.59.36-13.25,7.79c-9,5.26-18,10.46-26.85,15.72-14.57,8.57-29.2,17.13-43.77,25.7-4.62,2.73-9.25,5.47-13.94,8.28-.41.21-.83.42-1.45.7V53.23c2.9,1.68,5.59,3.22,8.21,4.77,9.6,5.61,19.19,11.3,28.79,16.92,12.22,7.16,24.43,14.39,36.65,21.48,8.35,4.91,16.71,9.83,25.06,14.67.21.14.34.28.55.42C873,112.05,872.78,112.4,871.88,112.9Z" />
      <path class="cls-2" d="M0,6.47c15.6-2.6,38.79-4.56,64.54-4.56,31.82,0,54.05,4.84,69.3,17.13,12.7,10.32,19.75,25.55,19.75,45.56,0,27.8-19.4,46.89-37.83,53.7v1C130.67,125.39,139,140,144.34,160c6.69,24.57,13.39,53.07,17.53,61.42H112.24c-3.52-6.17-8.56-23.93-14.91-50.75-5.73-27.17-15-34.61-34.65-35H48v85.71H.07V6.47Zm48,93.72H67.09c24.16,0,38.45-12.29,38.45-31.38,0-20.08-13.32-30.05-35.62-30.4A120.52,120.52,0,0,0,48,40v60.16Z" />
      <path class="cls-2" d="M241.32,165.55l-15.26,55.94H175.81l65.51-218h63.57l66.41,218H319.18l-16.5-55.94Zm54.39-36.93L282.32,82.43c-3.8-12.92-7.59-29.13-10.84-42.05h-.62c-3.17,12.92-6.35,29.41-9.87,42.05l-12.7,46.19Z" />
      <path class="cls-2" d="M400,6.47c17.81-2.95,41-4.56,65.51-4.56,40.72,0,67.09,7.44,87.73,23.31,22.23,16.84,36.24,43.66,36.24,82.13,0,41.7-14.91,70.48-35.62,88.24-22.57,19.1-56.94,28.15-98.91,28.15-25.13,0-42.94-1.61-55-3.23V6.47Zm48.6,177.82c4.14,1,10.83,1,16.84,1,43.9.28,72.48-24.29,72.48-76.31.34-45.27-25.75-69.21-67.37-69.21-10.84,0-17.81,1-21.95,1.89Z" />
      <path class="cls-2" d="M669.91,3.52v218h-48.6V3.52Z" />
      <path class="cls-2" d="M1185.26,138c-1-26.19-1.86-57.85-1.86-89.58h-1c-6.69,27.8-15.6,58.83-23.81,84.38l-26.09,85.08H1094.7l-22.92-84.38c-7-25.55-14.35-56.58-19.39-85h-.62c-1.25,29.42-2.21,63-3.8,90.21l-3.8,82.76h-44.8L1013,3.52h64.54l21,72.73c6.69,25.2,13.39,52.37,18.15,77.92h1c6-25.2,13.39-54,20.36-78.27L1161,3.45h63.3l11.73,218h-47.35Z" />
    </g>
  </g>
</svg>