<svg xmlns="http://www.w3.org/2000/svg" width="17" height="13.813" viewBox="0 0 17 13.813">
  <g id="_002-twitter" data-name="002-twitter" transform="translate(0 -48)">
    <g id="Group_71" data-name="Group 71" transform="translate(0 48)">
      <path id="Path_81" data-name="Path 81" d="M17,49.635a7.266,7.266,0,0,1-2.008.55,3.466,3.466,0,0,0,1.533-1.926,6.965,6.965,0,0,1-2.21.844,3.485,3.485,0,0,0-6.029,2.383,3.589,3.589,0,0,0,.081.795,9.865,9.865,0,0,1-7.184-3.645,3.486,3.486,0,0,0,1.071,4.658A3.442,3.442,0,0,1,.68,52.864V52.9a3.5,3.5,0,0,0,2.792,3.424,3.479,3.479,0,0,1-.914.115,3.081,3.081,0,0,1-.66-.06A3.518,3.518,0,0,0,5.155,58.81,7,7,0,0,1,.834,60.3,6.529,6.529,0,0,1,0,60.249a9.812,9.812,0,0,0,5.346,1.564A9.851,9.851,0,0,0,15.266,51.9c0-.154-.005-.3-.013-.45A6.953,6.953,0,0,0,17,49.635Z" transform="translate(0 -48)" fill="#fff"/>
    </g>
  </g>
</svg>
